%TF.GenerationSoftware,KiCad,Pcbnew,(7.0.0)*%
%TF.CreationDate,2023-04-15T16:40:11+03:00*%
%TF.ProjectId,Raspi Pico Board,52617370-6920-4506-9963-6f20426f6172,rev?*%
%TF.SameCoordinates,Original*%
%TF.FileFunction,Copper,L4,Bot*%
%TF.FilePolarity,Positive*%
%FSLAX46Y46*%
G04 Gerber Fmt 4.6, Leading zero omitted, Abs format (unit mm)*
G04 Created by KiCad (PCBNEW (7.0.0)) date 2023-04-15 16:40:11*
%MOMM*%
%LPD*%
G01*
G04 APERTURE LIST*
G04 Aperture macros list*
%AMRoundRect*
0 Rectangle with rounded corners*
0 $1 Rounding radius*
0 $2 $3 $4 $5 $6 $7 $8 $9 X,Y pos of 4 corners*
0 Add a 4 corners polygon primitive as box body*
4,1,4,$2,$3,$4,$5,$6,$7,$8,$9,$2,$3,0*
0 Add four circle primitives for the rounded corners*
1,1,$1+$1,$2,$3*
1,1,$1+$1,$4,$5*
1,1,$1+$1,$6,$7*
1,1,$1+$1,$8,$9*
0 Add four rect primitives between the rounded corners*
20,1,$1+$1,$2,$3,$4,$5,0*
20,1,$1+$1,$4,$5,$6,$7,0*
20,1,$1+$1,$6,$7,$8,$9,0*
20,1,$1+$1,$8,$9,$2,$3,0*%
G04 Aperture macros list end*
%TA.AperFunction,ComponentPad*%
%ADD10R,1.700000X1.700000*%
%TD*%
%TA.AperFunction,ComponentPad*%
%ADD11O,1.700000X1.700000*%
%TD*%
%TA.AperFunction,SMDPad,CuDef*%
%ADD12RoundRect,0.200000X-0.200000X-0.275000X0.200000X-0.275000X0.200000X0.275000X-0.200000X0.275000X0*%
%TD*%
%TA.AperFunction,WasherPad*%
%ADD13O,2.100000X1.000000*%
%TD*%
%TA.AperFunction,WasherPad*%
%ADD14O,1.800000X1.000000*%
%TD*%
%TA.AperFunction,SMDPad,CuDef*%
%ADD15RoundRect,0.200000X-0.275000X0.200000X-0.275000X-0.200000X0.275000X-0.200000X0.275000X0.200000X0*%
%TD*%
%TA.AperFunction,SMDPad,CuDef*%
%ADD16RoundRect,0.225000X-0.225000X-0.250000X0.225000X-0.250000X0.225000X0.250000X-0.225000X0.250000X0*%
%TD*%
%TA.AperFunction,ViaPad*%
%ADD17C,0.250000*%
%TD*%
%TA.AperFunction,ViaPad*%
%ADD18C,0.350000*%
%TD*%
%TA.AperFunction,Conductor*%
%ADD19C,0.200000*%
%TD*%
%TA.AperFunction,Conductor*%
%ADD20C,0.250000*%
%TD*%
%TA.AperFunction,Conductor*%
%ADD21C,0.175000*%
%TD*%
G04 APERTURE END LIST*
D10*
%TO.P,J4,1,Pin_1*%
%TO.N,GND*%
X50799999Y-39369999D03*
D11*
%TO.P,J4,2,Pin_2*%
X53339999Y-39369999D03*
%TO.P,J4,3,Pin_3*%
X55879999Y-39369999D03*
%TD*%
D10*
%TO.P,J2,1,Pin_1*%
%TO.N,/Microcontroller/SWCLK*%
X57974999Y-65899999D03*
D11*
%TO.P,J2,2,Pin_2*%
%TO.N,GND*%
X60514999Y-65899999D03*
%TO.P,J2,3,Pin_3*%
%TO.N,/Microcontroller/SWDIO*%
X63054999Y-65899999D03*
%TD*%
D12*
%TO.P,R2,1*%
%TO.N,GND*%
X51791170Y-53594000D03*
%TO.P,R2,2*%
%TO.N,Net-(J1-CC2)*%
X53441170Y-53594000D03*
%TD*%
D10*
%TO.P,J3,1,Pin_1*%
%TO.N,GND*%
X111499999Y-39624999D03*
D11*
%TO.P,J3,2,Pin_2*%
%TO.N,/Microcontroller/GPIO29*%
X111499999Y-42164999D03*
%TO.P,J3,3,Pin_3*%
%TO.N,/Microcontroller/GPIO28*%
X111499999Y-44704999D03*
%TO.P,J3,4,Pin_4*%
%TO.N,+3V3*%
X111499999Y-47244999D03*
%TO.P,J3,5,Pin_5*%
X111499999Y-49784999D03*
%TO.P,J3,6,Pin_6*%
%TO.N,/Microcontroller/GPIO27*%
X111499999Y-52324999D03*
%TO.P,J3,7,Pin_7*%
%TO.N,/Microcontroller/GPIO26*%
X111499999Y-54864999D03*
%TO.P,J3,8,Pin_8*%
%TO.N,+3V3*%
X111499999Y-57404999D03*
%TO.P,J3,9,Pin_9*%
%TO.N,/Microcontroller/GPIO24*%
X111499999Y-59944999D03*
%TO.P,J3,10,Pin_10*%
%TO.N,/Microcontroller/GPIO23*%
X111499999Y-62484999D03*
%TO.P,J3,11,Pin_11*%
%TO.N,/Microcontroller/GPIO22*%
X111499999Y-65024999D03*
%TO.P,J3,12,Pin_12*%
%TO.N,GND*%
X111499999Y-67564999D03*
%TD*%
D13*
%TO.P,J1,*%
%TO.N,*%
X54749999Y-48039999D03*
D14*
X50569999Y-48039999D03*
D13*
X54749999Y-56679999D03*
D14*
X50569999Y-56679999D03*
%TD*%
D12*
%TO.P,R1,1*%
%TO.N,GND*%
X51789866Y-51107894D03*
%TO.P,R1,2*%
%TO.N,Net-(J1-CC1)*%
X53439866Y-51107894D03*
%TD*%
D10*
%TO.P,J5,1,Pin_1*%
%TO.N,+3V3*%
X60959999Y-39369999D03*
D11*
%TO.P,J5,2,Pin_2*%
X63499999Y-39369999D03*
%TO.P,J5,3,Pin_3*%
X66039999Y-39369999D03*
%TD*%
D15*
%TO.P,R10,1*%
%TO.N,/Microcontroller/USB_N*%
X82000000Y-47275000D03*
%TO.P,R10,2*%
%TO.N,/Microcontroller/USB_M_N*%
X82000000Y-48925000D03*
%TD*%
%TO.P,R9,1*%
%TO.N,/Microcontroller/USB_P*%
X80400000Y-47275000D03*
%TO.P,R9,2*%
%TO.N,/Microcontroller/USB_M_P*%
X80400000Y-48925000D03*
%TD*%
D16*
%TO.P,C17,1*%
%TO.N,+3V3*%
X85323907Y-51562000D03*
%TO.P,C17,2*%
%TO.N,GND*%
X86873907Y-51562000D03*
%TD*%
D17*
%TO.N,/Microcontroller/USB_P*%
X56388000Y-53086000D03*
X56388000Y-52070000D03*
%TO.N,/Microcontroller/USB_N*%
X81450000Y-44450000D03*
%TO.N,/Microcontroller/USB_P*%
X80950000Y-44450000D03*
%TO.N,+3V3*%
X85852000Y-48768000D03*
%TO.N,GND*%
X76301318Y-48006469D03*
%TO.N,/Microcontroller/USB_M_P*%
X80772000Y-51816000D03*
%TO.N,/Microcontroller/USB_M_N*%
X81534000Y-51816000D03*
D18*
%TO.N,GND*%
X102596914Y-46821883D03*
D17*
X50853894Y-51107894D03*
X50800000Y-53594000D03*
%TO.N,Net-(J1-CC2)*%
X54102000Y-53594000D03*
%TO.N,Net-(J1-CC1)*%
X54435168Y-51107721D03*
%TO.N,GND*%
X56134000Y-49276000D03*
X56642000Y-49276000D03*
X57150000Y-49276000D03*
X57139701Y-48899215D03*
X56655265Y-48913380D03*
X56139665Y-48904881D03*
X56388000Y-56134000D03*
X57404000Y-56642000D03*
X56896000Y-56388000D03*
X58768956Y-57264511D03*
X57954652Y-57258149D03*
X66851476Y-57263097D03*
X66017380Y-57263097D03*
X61976000Y-56896000D03*
X60960000Y-56896000D03*
X65278000Y-56896000D03*
X65278000Y-56134000D03*
X63246000Y-56896000D03*
X59182000Y-56896000D03*
X63246000Y-56134000D03*
X61976000Y-56134000D03*
X60960000Y-56134000D03*
X59690000Y-56134000D03*
X59182000Y-56134000D03*
X57404000Y-56134000D03*
X56896000Y-55880000D03*
X56388000Y-55626000D03*
X53594000Y-45870522D03*
X63246000Y-49276000D03*
X63246000Y-48768000D03*
X63246000Y-48260000D03*
X63246000Y-47752000D03*
X63246000Y-47244000D03*
X64770000Y-53086000D03*
X64770000Y-52578000D03*
X64770000Y-52070000D03*
X64770000Y-51562000D03*
X64770000Y-51054000D03*
X64770000Y-46228000D03*
X64770000Y-45720000D03*
X64770000Y-45212000D03*
X64516000Y-46482000D03*
X64008000Y-46482000D03*
X63500000Y-46482000D03*
X62738000Y-43180000D03*
%TO.N,+3V3*%
X69145255Y-44599031D03*
%TO.N,/USBC and Power/BCK_FB*%
X62052340Y-44018340D03*
X68580000Y-51891871D03*
%TO.N,GND*%
X89837500Y-43688000D03*
D18*
X56650000Y-62550000D03*
D17*
X80264000Y-53086000D03*
D18*
X73075000Y-56060000D03*
X95400000Y-46736000D03*
X89550000Y-57930000D03*
D17*
X80772000Y-54356000D03*
X83914500Y-46540000D03*
X86740000Y-63425000D03*
X81280000Y-54356000D03*
D18*
X80140000Y-61480000D03*
X66515660Y-66950000D03*
D17*
X79248000Y-55372000D03*
X79756000Y-54356000D03*
X81280000Y-55372000D03*
D18*
X58641384Y-53194748D03*
D17*
X69621442Y-43373727D03*
X81788000Y-61468000D03*
X80264000Y-55372000D03*
X80264000Y-54356000D03*
X80300000Y-46520000D03*
D18*
X95400000Y-60706000D03*
X51422391Y-66503740D03*
D17*
X79756000Y-53086000D03*
X73152000Y-51562000D03*
X87607844Y-51629500D03*
X81280000Y-53086000D03*
X79248000Y-54356000D03*
X79248000Y-53086000D03*
D18*
X66364477Y-61335523D03*
D17*
X85130000Y-46540000D03*
D18*
X102600000Y-60706000D03*
D17*
X86895000Y-49720000D03*
X78740000Y-55372000D03*
X78730000Y-46530000D03*
D18*
X56650000Y-58850000D03*
X95400000Y-56875000D03*
D17*
X78740000Y-54356000D03*
X88138000Y-55880000D03*
X78740000Y-53086000D03*
X79756000Y-55372000D03*
X71640000Y-63415000D03*
X80772000Y-53086000D03*
X81880000Y-46530000D03*
D18*
X66550000Y-65100000D03*
X102600000Y-56896000D03*
D17*
X87590083Y-57605583D03*
X66350746Y-45052999D03*
X80772000Y-55372000D03*
D18*
%TO.N,/USBC and Power/+5V_FB*%
X66356246Y-49739888D03*
X66375879Y-53899203D03*
X63078060Y-50095921D03*
%TO.N,+3V3*%
X58166000Y-49784000D03*
X83560000Y-61525000D03*
D17*
X84582000Y-51629500D03*
X86444500Y-56388000D03*
D18*
X59944000Y-48006000D03*
D17*
X81199500Y-48873898D03*
D18*
X59944000Y-48514000D03*
D17*
X69670756Y-41815482D03*
D18*
X58674000Y-49784000D03*
X59944000Y-49530000D03*
X69050000Y-65950000D03*
D17*
X74930000Y-51562000D03*
X85350000Y-49680000D03*
D18*
X59944000Y-49022000D03*
X59436000Y-49784000D03*
X64372134Y-59763212D03*
X59944000Y-47498000D03*
X69250000Y-57250000D03*
X80100000Y-59900000D03*
X70825000Y-59450000D03*
X59944000Y-46990000D03*
X74625000Y-56050000D03*
D17*
%TO.N,+1V1*%
X83490000Y-46150000D03*
X83490000Y-49525500D03*
X81820000Y-59930000D03*
%TO.N,/Microcontroller/XIN*%
X83950000Y-64975000D03*
X79375500Y-58575500D03*
%TO.N,/Microcontroller/MCU_RUN*%
X86360000Y-60198000D03*
X83820000Y-60198000D03*
%TO.N,/Microcontroller/SWCLK*%
X81024500Y-59150500D03*
X80010000Y-63500000D03*
%TO.N,/Microcontroller/SWDIO*%
X80772000Y-62992000D03*
X81473782Y-59164592D03*
%TO.N,/Microcontroller/I2C0_SCL*%
X75400000Y-54124500D03*
X67575000Y-57058456D03*
D18*
%TO.N,/Microcontroller/LED_B*%
X62730576Y-57869388D03*
D17*
X84995063Y-55793810D03*
D18*
%TO.N,/Microcontroller/LED_R*%
X63800000Y-60800000D03*
D17*
X84900000Y-56900000D03*
D18*
%TO.N,/Microcontroller/LED_G*%
X63700000Y-62600000D03*
D17*
X85325000Y-57150000D03*
%TO.N,/Microcontroller/display_A2*%
X103944175Y-68072000D03*
X73660000Y-61976000D03*
%TO.N,/Microcontroller/display_B2*%
X105664000Y-67564000D03*
X74422000Y-61976000D03*
%TO.N,/Microcontroller/display_C2*%
X104031667Y-43180000D03*
X83612167Y-58720167D03*
%TO.N,/Microcontroller/display_D2*%
X71120000Y-39370000D03*
X71120000Y-52578000D03*
%TO.N,/Microcontroller/display_E2*%
X71630817Y-52100997D03*
X99822000Y-43434000D03*
%TO.N,/Microcontroller/display_F2*%
X101500000Y-65532000D03*
X78617732Y-58575500D03*
%TO.N,/Microcontroller/display_G2*%
X75438000Y-61976000D03*
X99902474Y-66598708D03*
%TO.N,/Microcontroller/display_DP2*%
X105590000Y-43250000D03*
X83568663Y-59175000D03*
%TO.N,/Microcontroller/display_A1*%
X96696099Y-66035899D03*
X77470000Y-58928000D03*
%TO.N,/Microcontroller/display_B1*%
X76200000Y-61976000D03*
X98300000Y-66548000D03*
%TO.N,/Microcontroller/display_C1*%
X96704299Y-43405704D03*
X72136000Y-53086000D03*
%TO.N,/Microcontroller/display_D1*%
X93980000Y-43434000D03*
X72644000Y-53594000D03*
%TO.N,/Microcontroller/display_E1*%
X77470000Y-54356000D03*
X92378099Y-43582208D03*
%TO.N,/Microcontroller/display_F1*%
X93980000Y-69088000D03*
X71882000Y-61976000D03*
%TO.N,/Microcontroller/display_G1*%
X92398801Y-68580000D03*
X72898000Y-61976000D03*
%TO.N,/Microcontroller/display_DP1*%
X78399000Y-56475000D03*
X87884000Y-56896000D03*
X98298000Y-43434000D03*
X89408000Y-55880000D03*
%TO.N,/Microcontroller/QSPI_SCLK*%
X78940540Y-49649500D03*
X75000000Y-40800000D03*
%TO.N,/Microcontroller/QSPI_SD3*%
X79424500Y-49829654D03*
X73800000Y-40800000D03*
%TO.N,/Microcontroller/LED*%
X83879117Y-51205000D03*
X82618444Y-53701481D03*
%TD*%
D19*
%TO.N,/Microcontroller/LED_B*%
X84991873Y-55797000D02*
X75917752Y-55797000D01*
X84995063Y-55793810D02*
X84991873Y-55797000D01*
X75917752Y-55797000D02*
X73845364Y-57869388D01*
X73845364Y-57869388D02*
X62730576Y-57869388D01*
D20*
%TO.N,/USBC and Power/BCK_FB*%
X68580000Y-44450000D02*
X68580000Y-45212000D01*
D19*
%TO.N,+3V3*%
X85256407Y-51629500D02*
X85323907Y-51562000D01*
X84582000Y-51629500D02*
X85256407Y-51629500D01*
%TO.N,/Microcontroller/USB_M_P*%
X80400000Y-49920000D02*
X80400000Y-48925000D01*
D21*
%TO.N,/Microcontroller/USB_P*%
X56388000Y-52070000D02*
X56388000Y-53086000D01*
D19*
%TO.N,/Microcontroller/USB_N*%
X81425001Y-44474999D02*
X81450000Y-44450000D01*
X81425001Y-46700001D02*
X81425001Y-44474999D01*
X82000000Y-47275000D02*
X81425001Y-46700001D01*
%TO.N,/Microcontroller/USB_P*%
X80974999Y-46700001D02*
X80974999Y-44474999D01*
X80400000Y-47275000D02*
X80974999Y-46700001D01*
X80974999Y-44474999D02*
X80950000Y-44450000D01*
%TO.N,+1V1*%
X88199500Y-49255000D02*
X88239500Y-49295000D01*
X85173959Y-49255000D02*
X88199500Y-49255000D01*
X83494500Y-49530000D02*
X83490000Y-49525500D01*
X84898959Y-49530000D02*
X83494500Y-49530000D01*
X85173959Y-49255000D02*
X84898959Y-49530000D01*
X88900000Y-49955500D02*
X88239500Y-49295000D01*
X88900000Y-56896000D02*
X88900000Y-49955500D01*
X83662000Y-58070000D02*
X87726000Y-58070000D01*
X87726000Y-58070000D02*
X88900000Y-56896000D01*
X81820000Y-59912000D02*
X83662000Y-58070000D01*
X81820000Y-59930000D02*
X81820000Y-59912000D01*
%TO.N,/Microcontroller/USB_M_N*%
X82000000Y-49826000D02*
X82000000Y-48925000D01*
X81534000Y-50292000D02*
X82000000Y-49826000D01*
X81534000Y-51816000D02*
X81534000Y-50292000D01*
%TO.N,/Microcontroller/USB_M_P*%
X80772000Y-50292000D02*
X80400000Y-49920000D01*
X80772000Y-51816000D02*
X80772000Y-50292000D01*
D20*
%TO.N,GND*%
X50853894Y-51107894D02*
X51789866Y-51107894D01*
X51791170Y-53594000D02*
X50800000Y-53594000D01*
%TO.N,Net-(J1-CC2)*%
X53441170Y-53594000D02*
X54102000Y-53594000D01*
%TO.N,Net-(J1-CC1)*%
X53440039Y-51107721D02*
X53439866Y-51107894D01*
X54435168Y-51107721D02*
X53440039Y-51107721D01*
%TO.N,/USBC and Power/BCK_FB*%
X68148340Y-44018340D02*
X68580000Y-44450000D01*
X62052340Y-44018340D02*
X68148340Y-44018340D01*
X68580000Y-45212000D02*
X68580000Y-51891871D01*
%TO.N,GND*%
X87607844Y-51629500D02*
X86979795Y-51629500D01*
%TO.N,/USBC and Power/+5V_FB*%
X66356246Y-49739888D02*
X66356246Y-53879570D01*
X65474079Y-50095921D02*
X65786000Y-49784000D01*
X66312134Y-49784000D02*
X66356246Y-49739888D01*
X65786000Y-49784000D02*
X66312134Y-49784000D01*
X66356246Y-53879570D02*
X66375879Y-53899203D01*
X63078060Y-50095921D02*
X65474079Y-50095921D01*
D19*
%TO.N,+1V1*%
X83490000Y-46150000D02*
X83490000Y-49525500D01*
%TO.N,/Microcontroller/XIN*%
X79775000Y-64975000D02*
X83950000Y-64975000D01*
X79399833Y-58599833D02*
X79399833Y-64599833D01*
X79399833Y-64599833D02*
X79775000Y-64975000D01*
X79375500Y-58575500D02*
X79399833Y-58599833D01*
%TO.N,/Microcontroller/MCU_RUN*%
X83820000Y-60198000D02*
X86360000Y-60198000D01*
%TO.N,/Microcontroller/SWCLK*%
X80772000Y-59403000D02*
X80772000Y-61722000D01*
X81024500Y-59150500D02*
X80772000Y-59403000D01*
X80772000Y-61722000D02*
X80010000Y-62484000D01*
X80010000Y-62484000D02*
X80010000Y-63500000D01*
%TO.N,/Microcontroller/SWDIO*%
X80772000Y-62992000D02*
X80772000Y-62484000D01*
X81172000Y-62084000D02*
X81172000Y-59976959D01*
X81172000Y-59976959D02*
X81473782Y-59675177D01*
X80772000Y-62484000D02*
X81172000Y-62084000D01*
X81473782Y-59675177D02*
X81473782Y-59164592D01*
D21*
%TO.N,/Microcontroller/USB_M_P*%
X80400000Y-49125000D02*
X80600000Y-48925000D01*
D19*
%TO.N,/Microcontroller/I2C0_SCL*%
X67575000Y-55225000D02*
X68675500Y-54124500D01*
X68675500Y-54124500D02*
X75400000Y-54124500D01*
X67575000Y-57058456D02*
X67575000Y-55225000D01*
%TO.N,/Microcontroller/LED_R*%
X75184000Y-57150000D02*
X71534000Y-60800000D01*
X84650000Y-57150000D02*
X75184000Y-57150000D01*
X71534000Y-60800000D02*
X63800000Y-60800000D01*
X84900000Y-56900000D02*
X84650000Y-57150000D01*
%TO.N,/Microcontroller/LED_G*%
X70407843Y-62600000D02*
X63700000Y-62600000D01*
X85325000Y-57350000D02*
X85050000Y-57625000D01*
X75382843Y-57625000D02*
X70407843Y-62600000D01*
X85325000Y-57150000D02*
X85325000Y-57350000D01*
X85050000Y-57625000D02*
X75382843Y-57625000D01*
%TO.N,/Microcontroller/display_A2*%
X73660000Y-67437000D02*
X73660000Y-61976000D01*
X103944175Y-68072000D02*
X74295000Y-68072000D01*
X74295000Y-68072000D02*
X73660000Y-67437000D01*
%TO.N,/Microcontroller/display_B2*%
X74422000Y-66802000D02*
X74422000Y-61976000D01*
X105664000Y-67564000D02*
X75184000Y-67564000D01*
X75184000Y-67564000D02*
X74422000Y-66802000D01*
%TO.N,/Microcontroller/display_C2*%
X104031667Y-43180000D02*
X104031667Y-55226333D01*
X83594843Y-58702843D02*
X83612167Y-58720167D01*
X87658843Y-58702843D02*
X83594843Y-58702843D01*
X90227686Y-56134000D02*
X87658843Y-58702843D01*
X103124000Y-56134000D02*
X90227686Y-56134000D01*
X104031667Y-55226333D02*
X103124000Y-56134000D01*
%TO.N,/Microcontroller/display_D2*%
X71120000Y-52578000D02*
X71120000Y-39370000D01*
%TO.N,/Microcontroller/display_E2*%
X99422000Y-38462000D02*
X99822000Y-38862000D01*
X71628000Y-52070000D02*
X71628000Y-38862000D01*
X71628000Y-38862000D02*
X72028000Y-38462000D01*
X99822000Y-38862000D02*
X99822000Y-43434000D01*
X72028000Y-38462000D02*
X99422000Y-38462000D01*
%TO.N,/Microcontroller/display_F2*%
X101500000Y-65532000D02*
X78994000Y-65532000D01*
X78994000Y-65532000D02*
X78617732Y-65155732D01*
X78617732Y-65155732D02*
X78617732Y-58575500D01*
%TO.N,/Microcontroller/display_G2*%
X77192223Y-67046489D02*
X99454693Y-67046489D01*
X75438000Y-66548000D02*
X75936489Y-67046489D01*
X99454693Y-67046489D02*
X99902474Y-66598708D01*
X75936489Y-67046489D02*
X77192223Y-67046489D01*
X75438000Y-61976000D02*
X75438000Y-66548000D01*
%TO.N,/Microcontroller/display_DP2*%
X83568663Y-59175000D02*
X84083663Y-59690000D01*
X104902000Y-59690000D02*
X105590000Y-59002000D01*
X84083663Y-59690000D02*
X104902000Y-59690000D01*
X105590000Y-59002000D02*
X105590000Y-43250000D01*
%TO.N,/Microcontroller/display_A1*%
X77470000Y-65532000D02*
X77978000Y-66040000D01*
X79274314Y-66040000D02*
X96691998Y-66040000D01*
X77470000Y-58928000D02*
X77470000Y-65532000D01*
X77978000Y-66040000D02*
X79274314Y-66040000D01*
X96691998Y-66040000D02*
X96696099Y-66035899D01*
%TO.N,/Microcontroller/display_B1*%
X96607159Y-66548000D02*
X96499159Y-66440000D01*
X96499159Y-66440000D02*
X76600000Y-66440000D01*
X76200000Y-66040000D02*
X76200000Y-61976000D01*
X76600000Y-66440000D02*
X76200000Y-66040000D01*
X98300000Y-66548000D02*
X96607159Y-66548000D01*
%TO.N,/Microcontroller/display_C1*%
X96520000Y-38862000D02*
X96704299Y-39046299D01*
X72644000Y-38862000D02*
X96520000Y-38862000D01*
X72136000Y-39370000D02*
X72644000Y-38862000D01*
X96704299Y-39046299D02*
X96704299Y-43405704D01*
X72136000Y-53086000D02*
X72136000Y-39370000D01*
%TO.N,/Microcontroller/display_D1*%
X72644000Y-39878000D02*
X73152000Y-39370000D01*
X72644000Y-53594000D02*
X72644000Y-39878000D01*
X73152000Y-39370000D02*
X93472000Y-39370000D01*
X93472000Y-39370000D02*
X93980000Y-39878000D01*
X93980000Y-39878000D02*
X93980000Y-43434000D01*
%TO.N,/Microcontroller/display_E1*%
X73152000Y-40386000D02*
X73660000Y-39878000D01*
X91948000Y-39878000D02*
X92378099Y-40308099D01*
X77470000Y-51816000D02*
X76708000Y-51054000D01*
X76708000Y-51054000D02*
X73660000Y-51054000D01*
X73660000Y-39878000D02*
X91948000Y-39878000D01*
X73660000Y-51054000D02*
X73152000Y-50546000D01*
X77470000Y-54356000D02*
X77470000Y-51816000D01*
X73152000Y-50546000D02*
X73152000Y-40386000D01*
X92378099Y-40308099D02*
X92378099Y-43582208D01*
%TO.N,/Microcontroller/display_F1*%
X72898000Y-69088000D02*
X93980000Y-69088000D01*
X71882000Y-61976000D02*
X72390000Y-62484000D01*
X72390000Y-62484000D02*
X72390000Y-68580000D01*
X72390000Y-68580000D02*
X72898000Y-69088000D01*
%TO.N,/Microcontroller/display_G1*%
X73406000Y-68580000D02*
X92398801Y-68580000D01*
X72898000Y-61976000D02*
X72898000Y-68072000D01*
X72898000Y-68072000D02*
X73406000Y-68580000D01*
%TO.N,/Microcontroller/display_DP1*%
X98298000Y-55118000D02*
X97790000Y-55626000D01*
X98298000Y-43434000D02*
X98298000Y-55118000D01*
X78399000Y-56475000D02*
X85685000Y-56475000D01*
X89662000Y-55626000D02*
X89408000Y-55880000D01*
X85685000Y-56475000D02*
X86106000Y-56896000D01*
X86106000Y-56896000D02*
X87884000Y-56896000D01*
X97790000Y-55626000D02*
X89662000Y-55626000D01*
%TO.N,/Microcontroller/QSPI_SCLK*%
X75648500Y-49649500D02*
X75000000Y-49001000D01*
X75000000Y-40800000D02*
X75000000Y-44230000D01*
X75000000Y-49001000D02*
X75000000Y-44230000D01*
X78940540Y-49649500D02*
X75648500Y-49649500D01*
%TO.N,/Microcontroller/QSPI_SD3*%
X73800000Y-40500000D02*
X73925000Y-40375000D01*
X79424500Y-40816500D02*
X79424500Y-49829654D01*
X73800000Y-40800000D02*
X73800000Y-40500000D01*
X78983000Y-40375000D02*
X79424500Y-40816500D01*
X73925000Y-40375000D02*
X78983000Y-40375000D01*
%TO.N,/Microcontroller/LED*%
X83161000Y-51205000D02*
X82623893Y-51742107D01*
X82623893Y-51742107D02*
X82623893Y-53696032D01*
X83879117Y-51205000D02*
X83161000Y-51205000D01*
X82623893Y-53696032D02*
X82618444Y-53701481D01*
%TD*%
M02*
