%TF.GenerationSoftware,KiCad,Pcbnew,(7.0.0)*%
%TF.CreationDate,2023-04-15T16:40:11+03:00*%
%TF.ProjectId,Raspi Pico Board,52617370-6920-4506-9963-6f20426f6172,rev?*%
%TF.SameCoordinates,Original*%
%TF.FileFunction,Copper,L1,Top*%
%TF.FilePolarity,Positive*%
%FSLAX46Y46*%
G04 Gerber Fmt 4.6, Leading zero omitted, Abs format (unit mm)*
G04 Created by KiCad (PCBNEW (7.0.0)) date 2023-04-15 16:40:11*
%MOMM*%
%LPD*%
G01*
G04 APERTURE LIST*
G04 Aperture macros list*
%AMRoundRect*
0 Rectangle with rounded corners*
0 $1 Rounding radius*
0 $2 $3 $4 $5 $6 $7 $8 $9 X,Y pos of 4 corners*
0 Add a 4 corners polygon primitive as box body*
4,1,4,$2,$3,$4,$5,$6,$7,$8,$9,$2,$3,0*
0 Add four circle primitives for the rounded corners*
1,1,$1+$1,$2,$3*
1,1,$1+$1,$4,$5*
1,1,$1+$1,$6,$7*
1,1,$1+$1,$8,$9*
0 Add four rect primitives between the rounded corners*
20,1,$1+$1,$2,$3,$4,$5,0*
20,1,$1+$1,$4,$5,$6,$7,0*
20,1,$1+$1,$6,$7,$8,$9,0*
20,1,$1+$1,$8,$9,$2,$3,0*%
G04 Aperture macros list end*
%TA.AperFunction,SMDPad,CuDef*%
%ADD10RoundRect,0.225000X-0.225000X-0.250000X0.225000X-0.250000X0.225000X0.250000X-0.225000X0.250000X0*%
%TD*%
%TA.AperFunction,SMDPad,CuDef*%
%ADD11RoundRect,0.225000X-0.250000X0.225000X-0.250000X-0.225000X0.250000X-0.225000X0.250000X0.225000X0*%
%TD*%
%TA.AperFunction,SMDPad,CuDef*%
%ADD12RoundRect,0.200000X0.200000X0.275000X-0.200000X0.275000X-0.200000X-0.275000X0.200000X-0.275000X0*%
%TD*%
%TA.AperFunction,SMDPad,CuDef*%
%ADD13R,0.900000X2.800000*%
%TD*%
%TA.AperFunction,ComponentPad*%
%ADD14R,1.700000X1.700000*%
%TD*%
%TA.AperFunction,ComponentPad*%
%ADD15O,1.700000X1.700000*%
%TD*%
%TA.AperFunction,SMDPad,CuDef*%
%ADD16RoundRect,0.200000X-0.275000X0.200000X-0.275000X-0.200000X0.275000X-0.200000X0.275000X0.200000X0*%
%TD*%
%TA.AperFunction,SMDPad,CuDef*%
%ADD17RoundRect,0.200000X-0.200000X-0.275000X0.200000X-0.275000X0.200000X0.275000X-0.200000X0.275000X0*%
%TD*%
%TA.AperFunction,SMDPad,CuDef*%
%ADD18R,0.250000X0.500000*%
%TD*%
%TA.AperFunction,SMDPad,CuDef*%
%ADD19R,1.600000X0.900000*%
%TD*%
%TA.AperFunction,SMDPad,CuDef*%
%ADD20RoundRect,0.225000X0.250000X-0.225000X0.250000X0.225000X-0.250000X0.225000X-0.250000X-0.225000X0*%
%TD*%
%TA.AperFunction,SMDPad,CuDef*%
%ADD21RoundRect,0.243750X0.243750X0.456250X-0.243750X0.456250X-0.243750X-0.456250X0.243750X-0.456250X0*%
%TD*%
%TA.AperFunction,SMDPad,CuDef*%
%ADD22RoundRect,0.225000X0.225000X0.250000X-0.225000X0.250000X-0.225000X-0.250000X0.225000X-0.250000X0*%
%TD*%
%TA.AperFunction,SMDPad,CuDef*%
%ADD23RoundRect,0.200000X0.275000X-0.200000X0.275000X0.200000X-0.275000X0.200000X-0.275000X-0.200000X0*%
%TD*%
%TA.AperFunction,SMDPad,CuDef*%
%ADD24RoundRect,0.243750X0.456250X-0.243750X0.456250X0.243750X-0.456250X0.243750X-0.456250X-0.243750X0*%
%TD*%
%TA.AperFunction,SMDPad,CuDef*%
%ADD25R,1.700000X0.900000*%
%TD*%
%TA.AperFunction,WasherPad*%
%ADD26O,2.100000X1.000000*%
%TD*%
%TA.AperFunction,WasherPad*%
%ADD27O,1.800000X1.000000*%
%TD*%
%TA.AperFunction,SMDPad,CuDef*%
%ADD28R,1.150000X0.300000*%
%TD*%
%TA.AperFunction,SMDPad,CuDef*%
%ADD29R,0.900000X1.700000*%
%TD*%
%TA.AperFunction,SMDPad,CuDef*%
%ADD30R,5.600000X2.100000*%
%TD*%
%TA.AperFunction,SMDPad,CuDef*%
%ADD31RoundRect,0.125000X0.125000X-0.250000X0.125000X0.250000X-0.125000X0.250000X-0.125000X-0.250000X0*%
%TD*%
%TA.AperFunction,SMDPad,CuDef*%
%ADD32R,4.300000X3.400000*%
%TD*%
%TA.AperFunction,SMDPad,CuDef*%
%ADD33R,1.500000X1.000000*%
%TD*%
%TA.AperFunction,SMDPad,CuDef*%
%ADD34R,2.000000X0.650000*%
%TD*%
%TA.AperFunction,SMDPad,CuDef*%
%ADD35R,1.500000X0.650000*%
%TD*%
%TA.AperFunction,SMDPad,CuDef*%
%ADD36R,1.950000X0.650000*%
%TD*%
%TA.AperFunction,SMDPad,CuDef*%
%ADD37RoundRect,0.250000X-0.325000X-1.100000X0.325000X-1.100000X0.325000X1.100000X-0.325000X1.100000X0*%
%TD*%
%TA.AperFunction,SMDPad,CuDef*%
%ADD38RoundRect,0.050000X-0.387500X-0.050000X0.387500X-0.050000X0.387500X0.050000X-0.387500X0.050000X0*%
%TD*%
%TA.AperFunction,SMDPad,CuDef*%
%ADD39RoundRect,0.050000X-0.050000X-0.387500X0.050000X-0.387500X0.050000X0.387500X-0.050000X0.387500X0*%
%TD*%
%TA.AperFunction,SMDPad,CuDef*%
%ADD40R,3.200000X3.200000*%
%TD*%
%TA.AperFunction,SMDPad,CuDef*%
%ADD41RoundRect,0.218750X0.381250X-0.218750X0.381250X0.218750X-0.381250X0.218750X-0.381250X-0.218750X0*%
%TD*%
%TA.AperFunction,ViaPad*%
%ADD42C,0.250000*%
%TD*%
%TA.AperFunction,ViaPad*%
%ADD43C,0.350000*%
%TD*%
%TA.AperFunction,Conductor*%
%ADD44C,0.200000*%
%TD*%
%TA.AperFunction,Conductor*%
%ADD45C,0.175000*%
%TD*%
%TA.AperFunction,Conductor*%
%ADD46C,0.250000*%
%TD*%
%TA.AperFunction,Conductor*%
%ADD47C,0.300000*%
%TD*%
%TA.AperFunction,Conductor*%
%ADD48C,0.600000*%
%TD*%
G04 APERTURE END LIST*
D10*
%TO.P,C4,2*%
%TO.N,/USBC and Power/BCK_FB*%
X60571920Y-44020003D03*
%TO.P,C4,1*%
%TO.N,+3V3*%
X59021920Y-44020003D03*
%TD*%
D11*
%TO.P,C1,1*%
%TO.N,/USBC and Power/VBUS*%
X58376330Y-54914634D03*
%TO.P,C1,2*%
%TO.N,GND*%
X58376330Y-56464634D03*
%TD*%
D12*
%TO.P,R16,1*%
%TO.N,Net-(U5-ALERT)*%
X66025000Y-58700000D03*
%TO.P,R16,2*%
%TO.N,+3V3*%
X64375000Y-58700000D03*
%TD*%
D10*
%TO.P,C8,1*%
%TO.N,+3V3*%
X85331000Y-50430000D03*
%TO.P,C8,2*%
%TO.N,GND*%
X86881000Y-50430000D03*
%TD*%
D11*
%TO.P,C9,1*%
%TO.N,+3V3*%
X79450000Y-59925000D03*
%TO.P,C9,2*%
%TO.N,GND*%
X79450000Y-61475000D03*
%TD*%
D13*
%TO.P,U4,1,e_1*%
%TO.N,Net-(U4-e_1)*%
X92519999Y-48799999D03*
%TO.P,U4,2,d_1*%
%TO.N,Net-(U4-d_1)*%
X93959999Y-48799999D03*
%TO.P,U4,3,CC*%
%TO.N,GND*%
X95399999Y-48799999D03*
%TO.P,U4,4,c_1*%
%TO.N,Net-(U4-c_1)*%
X96839999Y-48799999D03*
%TO.P,U4,5,DP1*%
%TO.N,Net-(U4-DP1)*%
X98279999Y-48799999D03*
%TO.P,U4,6,e_2*%
%TO.N,Net-(U4-e_2)*%
X99719999Y-48799999D03*
%TO.P,U4,7,d_2*%
%TO.N,Net-(U4-d_2)*%
X101159999Y-48799999D03*
%TO.P,U4,8,CC*%
%TO.N,GND*%
X102599999Y-48799999D03*
%TO.P,U4,9,c_2*%
%TO.N,Net-(U4-c_2)*%
X104039999Y-48799999D03*
%TO.P,U4,10,DP_2*%
%TO.N,Net-(U4-DP_2)*%
X105479999Y-48799999D03*
%TO.P,U4,11,b_2*%
%TO.N,Net-(U4-b_2)*%
X105479999Y-58799999D03*
%TO.P,U4,12,a_2*%
%TO.N,Net-(U4-a_2)*%
X104039999Y-58799999D03*
%TO.P,U4,13,CC*%
%TO.N,GND*%
X102599999Y-58799999D03*
%TO.P,U4,14,f_2*%
%TO.N,Net-(U4-f_2)*%
X101159999Y-58799999D03*
%TO.P,U4,15,g_2*%
%TO.N,Net-(U4-g_2)*%
X99719999Y-58799999D03*
%TO.P,U4,16,b_1*%
%TO.N,Net-(U4-b_1)*%
X98279999Y-58799999D03*
%TO.P,U4,17,a_1*%
%TO.N,Net-(U4-a_1)*%
X96839999Y-58799999D03*
%TO.P,U4,18,CC*%
%TO.N,GND*%
X95399999Y-58799999D03*
%TO.P,U4,19,f_1*%
%TO.N,Net-(U4-f_1)*%
X93959999Y-58799999D03*
%TO.P,U4,20,g_1*%
%TO.N,Net-(U4-g_1)*%
X92519999Y-58799999D03*
%TD*%
D14*
%TO.P,J4,1,Pin_1*%
%TO.N,GND*%
X50799999Y-39369999D03*
D15*
%TO.P,J4,2,Pin_2*%
X53339999Y-39369999D03*
%TO.P,J4,3,Pin_3*%
X55879999Y-39369999D03*
%TD*%
D16*
%TO.P,R33,1*%
%TO.N,Net-(U4-g_1)*%
X92400000Y-61475000D03*
%TO.P,R33,2*%
%TO.N,/Microcontroller/display_G1*%
X92400000Y-63125000D03*
%TD*%
%TO.P,R7,1*%
%TO.N,Net-(R7-Pad1)*%
X70466118Y-45475000D03*
%TO.P,R7,2*%
%TO.N,/Microcontroller/QSPI_SS_N*%
X70466118Y-47125000D03*
%TD*%
D14*
%TO.P,J2,1,Pin_1*%
%TO.N,/Microcontroller/SWCLK*%
X57974999Y-65899999D03*
D15*
%TO.P,J2,2,Pin_2*%
%TO.N,GND*%
X60514999Y-65899999D03*
%TO.P,J2,3,Pin_3*%
%TO.N,/Microcontroller/SWDIO*%
X63054999Y-65899999D03*
%TD*%
D11*
%TO.P,C22,1*%
%TO.N,GND*%
X89550000Y-58800000D03*
%TO.P,C22,2*%
%TO.N,/Microcontroller/MCU_RUN*%
X89550000Y-60350000D03*
%TD*%
D17*
%TO.P,R18,1*%
%TO.N,/Microcontroller/I2C0_SDA*%
X69175000Y-60500000D03*
%TO.P,R18,2*%
%TO.N,+3V3*%
X70825000Y-60500000D03*
%TD*%
D18*
%TO.P,U5,1,SDA*%
%TO.N,/Microcontroller/I2C0_SDA*%
X68049999Y-62324999D03*
%TO.P,U5,2,SCL*%
%TO.N,/Microcontroller/I2C0_SCL*%
X67549999Y-62324999D03*
%TO.P,U5,3,ALERT*%
%TO.N,Net-(U5-ALERT)*%
X67049999Y-62324999D03*
%TO.P,U5,4,GND*%
%TO.N,GND*%
X66549999Y-62324999D03*
%TO.P,U5,5,A2*%
X66549999Y-64224999D03*
%TO.P,U5,6,A1*%
X67049999Y-64224999D03*
%TO.P,U5,7,A0*%
X67549999Y-64224999D03*
%TO.P,U5,8,V+*%
%TO.N,+3V3*%
X68049999Y-64224999D03*
D19*
%TO.P,U5,9*%
%TO.N,N/C*%
X67299999Y-63274999D03*
%TD*%
D20*
%TO.P,C21,1*%
%TO.N,/Microcontroller/XIN*%
X87790000Y-64975000D03*
%TO.P,C21,2*%
%TO.N,GND*%
X87790000Y-63425000D03*
%TD*%
%TO.P,C15,1*%
%TO.N,+1V1*%
X78730000Y-48875000D03*
%TO.P,C15,2*%
%TO.N,GND*%
X78730000Y-47325000D03*
%TD*%
D21*
%TO.P,D2,1,K*%
%TO.N,GND*%
X89837500Y-44958000D03*
%TO.P,D2,2,A*%
%TO.N,Net-(D2-A)*%
X87962500Y-44958000D03*
%TD*%
D22*
%TO.P,C12,1*%
%TO.N,+3V3*%
X74943000Y-50800000D03*
%TO.P,C12,2*%
%TO.N,GND*%
X73393000Y-50800000D03*
%TD*%
D23*
%TO.P,R24,2*%
%TO.N,Net-(U4-f_2)*%
X101500000Y-61475000D03*
%TO.P,R24,1*%
%TO.N,/Microcontroller/display_F2*%
X101500000Y-63125000D03*
%TD*%
D11*
%TO.P,C3,1*%
%TO.N,/USBC and Power/+5V_FB*%
X66483966Y-54906596D03*
%TO.P,C3,2*%
%TO.N,GND*%
X66483966Y-56456596D03*
%TD*%
D17*
%TO.P,FB1,1*%
%TO.N,/USBC and Power/VBUS*%
X60378946Y-54914480D03*
%TO.P,FB1,2*%
%TO.N,/USBC and Power/+5V_FB*%
X62028946Y-54914480D03*
%TD*%
%TO.P,R14,1*%
%TO.N,Net-(D4-GA)*%
X61075000Y-60800000D03*
%TO.P,R14,2*%
%TO.N,/Microcontroller/LED_R*%
X62725000Y-60800000D03*
%TD*%
D24*
%TO.P,D1,1,K*%
%TO.N,GND*%
X54705426Y-45870522D03*
%TO.P,D1,2,A*%
%TO.N,/USBC and Power/LED_POW_A*%
X54705426Y-43995522D03*
%TD*%
D16*
%TO.P,R11,1*%
%TO.N,/Microcontroller/MCU_RUN*%
X82800000Y-59875000D03*
%TO.P,R11,2*%
%TO.N,+3V3*%
X82800000Y-61525000D03*
%TD*%
D14*
%TO.P,J3,1,Pin_1*%
%TO.N,GND*%
X111499999Y-39624999D03*
D15*
%TO.P,J3,2,Pin_2*%
%TO.N,/Microcontroller/GPIO29*%
X111499999Y-42164999D03*
%TO.P,J3,3,Pin_3*%
%TO.N,/Microcontroller/GPIO28*%
X111499999Y-44704999D03*
%TO.P,J3,4,Pin_4*%
%TO.N,+3V3*%
X111499999Y-47244999D03*
%TO.P,J3,5,Pin_5*%
X111499999Y-49784999D03*
%TO.P,J3,6,Pin_6*%
%TO.N,/Microcontroller/GPIO27*%
X111499999Y-52324999D03*
%TO.P,J3,7,Pin_7*%
%TO.N,/Microcontroller/GPIO26*%
X111499999Y-54864999D03*
%TO.P,J3,8,Pin_8*%
%TO.N,+3V3*%
X111499999Y-57404999D03*
%TO.P,J3,9,Pin_9*%
%TO.N,/Microcontroller/GPIO24*%
X111499999Y-59944999D03*
%TO.P,J3,10,Pin_10*%
%TO.N,/Microcontroller/GPIO23*%
X111499999Y-62484999D03*
%TO.P,J3,11,Pin_11*%
%TO.N,/Microcontroller/GPIO22*%
X111499999Y-65024999D03*
%TO.P,J3,12,Pin_12*%
%TO.N,GND*%
X111499999Y-67564999D03*
%TD*%
D16*
%TO.P,R26,1*%
%TO.N,/Microcontroller/display_DP2*%
X105600000Y-44375000D03*
%TO.P,R26,2*%
%TO.N,Net-(U4-DP_2)*%
X105600000Y-46025000D03*
%TD*%
D23*
%TO.P,R31,1*%
%TO.N,Net-(U4-e_1)*%
X92400000Y-46025000D03*
%TO.P,R31,2*%
%TO.N,/Microcontroller/display_E1*%
X92400000Y-44375000D03*
%TD*%
%TO.P,R25,2*%
%TO.N,Net-(U4-g_2)*%
X99900000Y-61475000D03*
%TO.P,R25,1*%
%TO.N,/Microcontroller/display_G2*%
X99900000Y-63125000D03*
%TD*%
D17*
%TO.P,R3,1*%
%TO.N,+3V3*%
X58975137Y-45666105D03*
%TO.P,R3,2*%
%TO.N,/USBC and Power/BCK_FB*%
X60625137Y-45666105D03*
%TD*%
D20*
%TO.P,C7,1*%
%TO.N,+3V3*%
X81880000Y-48885000D03*
%TO.P,C7,2*%
%TO.N,GND*%
X81880000Y-47335000D03*
%TD*%
%TO.P,C14,1*%
%TO.N,+1V1*%
X83500000Y-48875000D03*
%TO.P,C14,2*%
%TO.N,GND*%
X83500000Y-47325000D03*
%TD*%
D25*
%TO.P,SW1,1,1*%
%TO.N,/Microcontroller/MCU_RUN*%
X86449999Y-61299999D03*
%TO.P,SW1,2,2*%
%TO.N,GND*%
X86449999Y-57899999D03*
%TD*%
D11*
%TO.P,C19,1*%
%TO.N,+3V3*%
X70500000Y-41825000D03*
%TO.P,C19,2*%
%TO.N,GND*%
X70500000Y-43375000D03*
%TD*%
D16*
%TO.P,R27,1*%
%TO.N,Net-(U4-a_1)*%
X96700000Y-61475000D03*
%TO.P,R27,2*%
%TO.N,/Microcontroller/display_A1*%
X96700000Y-63125000D03*
%TD*%
D20*
%TO.P,C18,1*%
%TO.N,+3V3*%
X80300000Y-48875000D03*
%TO.P,C18,2*%
%TO.N,GND*%
X80300000Y-47325000D03*
%TD*%
D23*
%TO.P,R20,1*%
%TO.N,/Microcontroller/display_B2*%
X105600000Y-63225000D03*
%TO.P,R20,2*%
%TO.N,Net-(U4-b_2)*%
X105600000Y-61575000D03*
%TD*%
D26*
%TO.P,J1,*%
%TO.N,*%
X54749999Y-48039999D03*
D27*
X50569999Y-48039999D03*
D26*
X54749999Y-56679999D03*
D27*
X50569999Y-56679999D03*
D28*
%TO.P,J1,A1,GND*%
%TO.N,GND*%
X55324999Y-49009999D03*
%TO.P,J1,A4,VBUS*%
%TO.N,/USBC and Power/VBUS*%
X55324999Y-49809999D03*
%TO.P,J1,A5,CC1*%
%TO.N,Net-(J1-CC1)*%
X55324999Y-51109999D03*
%TO.P,J1,A6,DP1*%
%TO.N,/Microcontroller/USB_P*%
X55324999Y-52109999D03*
%TO.P,J1,A7,DN1*%
%TO.N,/Microcontroller/USB_N*%
X55324999Y-52609999D03*
%TO.P,J1,A8,SBU1*%
%TO.N,unconnected-(J1-SBU1-PadA8)*%
X55324999Y-53609999D03*
%TO.P,J1,A9,VBUS*%
%TO.N,/USBC and Power/VBUS*%
X55324999Y-54909999D03*
%TO.P,J1,A12,GND*%
%TO.N,GND*%
X55324999Y-55709999D03*
%TO.P,J1,B1,GND*%
X55324999Y-55409999D03*
%TO.P,J1,B4,VBUS*%
%TO.N,/USBC and Power/VBUS*%
X55324999Y-54609999D03*
%TO.P,J1,B5,CC2*%
%TO.N,Net-(J1-CC2)*%
X55324999Y-54109999D03*
%TO.P,J1,B6,DP2*%
%TO.N,/Microcontroller/USB_P*%
X55324999Y-53109999D03*
%TO.P,J1,B7,DN2*%
%TO.N,/Microcontroller/USB_N*%
X55324999Y-51609999D03*
%TO.P,J1,B8,SBU2*%
%TO.N,unconnected-(J1-SBU2-PadB8)*%
X55324999Y-50609999D03*
%TO.P,J1,B9,VBUS*%
%TO.N,/USBC and Power/VBUS*%
X55324999Y-50109999D03*
%TO.P,J1,B12,GND*%
%TO.N,GND*%
X55324999Y-49309999D03*
%TD*%
D11*
%TO.P,C16,1*%
%TO.N,+1V1*%
X81026000Y-59925000D03*
%TO.P,C16,2*%
%TO.N,GND*%
X81026000Y-61475000D03*
%TD*%
D29*
%TO.P,SW2,2,2*%
%TO.N,Net-(R7-Pad1)*%
X67106824Y-43179999D03*
%TO.P,SW2,1,1*%
%TO.N,GND*%
X63706824Y-43179999D03*
%TD*%
D30*
%TO.P,Y1,1,1*%
%TO.N,Net-(C20-Pad1)*%
X74449999Y-64974999D03*
%TO.P,Y1,2,2*%
%TO.N,/Microcontroller/XIN*%
X83949999Y-64974999D03*
%TD*%
D20*
%TO.P,C13,1*%
%TO.N,+3V3*%
X85130000Y-48865000D03*
%TO.P,C13,2*%
%TO.N,GND*%
X85130000Y-47315000D03*
%TD*%
D16*
%TO.P,R28,1*%
%TO.N,Net-(U4-b_1)*%
X98300000Y-61475000D03*
%TO.P,R28,2*%
%TO.N,/Microcontroller/display_B1*%
X98300000Y-63125000D03*
%TD*%
D31*
%TO.P,U2,1,/CS*%
%TO.N,/Microcontroller/QSPI_SS_N*%
X72490000Y-47200000D03*
%TO.P,U2,2,DO*%
%TO.N,/Microcontroller/QSPI_SD1*%
X73760000Y-47200000D03*
%TO.P,U2,3,/WP*%
%TO.N,/Microcontroller/QSPI_SD2*%
X75030000Y-47200000D03*
%TO.P,U2,4,GND*%
%TO.N,GND*%
X76300000Y-47200000D03*
%TO.P,U2,5,DI*%
%TO.N,/Microcontroller/QSPI_SD0*%
X76300000Y-41800000D03*
%TO.P,U2,6,CLK*%
%TO.N,/Microcontroller/QSPI_SCLK*%
X75030000Y-41800000D03*
%TO.P,U2,7,/HOLD/RESET*%
%TO.N,/Microcontroller/QSPI_SD3*%
X73760000Y-41800000D03*
%TO.P,U2,8,VCC*%
%TO.N,+3V3*%
X72490000Y-41800000D03*
D32*
%TO.P,U2,9*%
%TO.N,N/C*%
X74394999Y-44499999D03*
%TD*%
D23*
%TO.P,R5,1*%
%TO.N,+3V3*%
X56749354Y-45654174D03*
%TO.P,R5,2*%
%TO.N,/USBC and Power/LED_POW_A*%
X56749354Y-44004174D03*
%TD*%
D22*
%TO.P,C11,1*%
%TO.N,+3V3*%
X74625000Y-55300000D03*
%TO.P,C11,2*%
%TO.N,GND*%
X73075000Y-55300000D03*
%TD*%
D17*
%TO.P,R12,1*%
%TO.N,Net-(D2-A)*%
X88153500Y-46990000D03*
%TO.P,R12,2*%
%TO.N,/Microcontroller/LED*%
X89803500Y-46990000D03*
%TD*%
D23*
%TO.P,R8,1*%
%TO.N,Net-(C20-Pad1)*%
X77700000Y-61525000D03*
%TO.P,R8,2*%
%TO.N,/Microcontroller/XOUT*%
X77700000Y-59875000D03*
%TD*%
D16*
%TO.P,R23,1*%
%TO.N,/Microcontroller/display_E2*%
X99900000Y-44375000D03*
%TO.P,R23,2*%
%TO.N,Net-(U4-e_2)*%
X99900000Y-46025000D03*
%TD*%
D10*
%TO.P,C23,1*%
%TO.N,GND*%
X51425000Y-65250000D03*
%TO.P,C23,2*%
%TO.N,/Microcontroller/USER_BUTTON*%
X52975000Y-65250000D03*
%TD*%
D14*
%TO.P,J5,1,Pin_1*%
%TO.N,+3V3*%
X60959999Y-39369999D03*
D15*
%TO.P,J5,2,Pin_2*%
X63499999Y-39369999D03*
%TO.P,J5,3,Pin_3*%
X66039999Y-39369999D03*
%TD*%
D23*
%TO.P,R29,1*%
%TO.N,Net-(U4-c_1)*%
X96700000Y-46025000D03*
%TO.P,R29,2*%
%TO.N,/Microcontroller/display_C1*%
X96700000Y-44375000D03*
%TD*%
D33*
%TO.P,JP1,1,A*%
%TO.N,GND*%
X66342499Y-46199999D03*
%TO.P,JP1,2,C*%
%TO.N,/USBC and Power/BCK_MODE*%
X66342499Y-47499999D03*
%TO.P,JP1,3,B*%
%TO.N,/USBC and Power/+5V_FB*%
X66342499Y-48799999D03*
%TD*%
D16*
%TO.P,R32,1*%
%TO.N,Net-(U4-f_1)*%
X94000000Y-61475000D03*
%TO.P,R32,2*%
%TO.N,/Microcontroller/display_F1*%
X94000000Y-63125000D03*
%TD*%
D20*
%TO.P,C20,1*%
%TO.N,Net-(C20-Pad1)*%
X70670000Y-64965000D03*
%TO.P,C20,2*%
%TO.N,GND*%
X70670000Y-63415000D03*
%TD*%
D23*
%TO.P,R34,1*%
%TO.N,Net-(U4-DP1)*%
X98300000Y-46025000D03*
%TO.P,R34,2*%
%TO.N,/Microcontroller/display_DP1*%
X98300000Y-44375000D03*
%TD*%
D22*
%TO.P,C24,1*%
%TO.N,+3V3*%
X68065660Y-65950000D03*
%TO.P,C24,2*%
%TO.N,GND*%
X66515660Y-65950000D03*
%TD*%
D23*
%TO.P,R19,1*%
%TO.N,/Microcontroller/display_A2*%
X104000000Y-63225000D03*
%TO.P,R19,2*%
%TO.N,Net-(U4-a_2)*%
X104000000Y-61575000D03*
%TD*%
D16*
%TO.P,R22,1*%
%TO.N,/Microcontroller/display_D2*%
X101500000Y-44375000D03*
%TO.P,R22,2*%
%TO.N,Net-(U4-d_2)*%
X101500000Y-46025000D03*
%TD*%
D17*
%TO.P,R17,1*%
%TO.N,/Microcontroller/I2C0_SCL*%
X67575000Y-58700000D03*
%TO.P,R17,2*%
%TO.N,+3V3*%
X69225000Y-58700000D03*
%TD*%
D34*
%TO.P,U3,1,RUN*%
%TO.N,/USBC and Power/+5V_FB*%
X63061957Y-50943603D03*
%TO.P,U3,2,GND*%
%TO.N,GND*%
X63061957Y-51893603D03*
%TO.P,U3,3,SW*%
%TO.N,/USBC and Power/SW_NODE*%
X63061957Y-52843603D03*
%TO.P,U3,4,VIN*%
%TO.N,/USBC and Power/+5V_FB*%
X66481957Y-52843603D03*
%TO.P,U3,5,VFB*%
%TO.N,/USBC and Power/BCK_FB*%
X66481957Y-51893603D03*
%TO.P,U3,6,MODE*%
%TO.N,/USBC and Power/BCK_MODE*%
X66481957Y-50943603D03*
%TD*%
D16*
%TO.P,R6,1*%
%TO.N,+3V3*%
X68700000Y-45475000D03*
%TO.P,R6,2*%
%TO.N,/Microcontroller/QSPI_SS_N*%
X68700000Y-47125000D03*
%TD*%
D10*
%TO.P,C10,1*%
%TO.N,+3V3*%
X85839000Y-55880000D03*
%TO.P,C10,2*%
%TO.N,GND*%
X87389000Y-55880000D03*
%TD*%
D35*
%TO.P,D4,1,RK*%
%TO.N,GND*%
X56649999Y-59849999D03*
%TO.P,D4,2,GK*%
X56649999Y-60799999D03*
%TO.P,D4,3,BK*%
X56649999Y-61749999D03*
%TO.P,D4,4,BA*%
%TO.N,Net-(D4-BA)*%
X59149999Y-61749999D03*
D36*
%TO.P,D4,5,GA*%
%TO.N,Net-(D4-GA)*%
X58924999Y-60799999D03*
D35*
%TO.P,D4,6,RA*%
%TO.N,Net-(D4-RA)*%
X59149999Y-59849999D03*
%TD*%
D11*
%TO.P,C5,1*%
%TO.N,+3V3*%
X58641384Y-50745488D03*
%TO.P,C5,2*%
%TO.N,GND*%
X58641384Y-52295488D03*
%TD*%
D17*
%TO.P,R4,1*%
%TO.N,/USBC and Power/BCK_FB*%
X62167000Y-45666973D03*
%TO.P,R4,2*%
%TO.N,GND*%
X63817000Y-45666973D03*
%TD*%
%TO.P,R15,1*%
%TO.N,Net-(D4-BA)*%
X61075000Y-62600000D03*
%TO.P,R15,2*%
%TO.N,/Microcontroller/LED_G*%
X62725000Y-62600000D03*
%TD*%
D37*
%TO.P,C6,1*%
%TO.N,+3V3*%
X61125000Y-48200000D03*
%TO.P,C6,2*%
%TO.N,GND*%
X64075000Y-48200000D03*
%TD*%
D38*
%TO.P,U1,1,IOVDD*%
%TO.N,+3V3*%
X76562500Y-51700000D03*
%TO.P,U1,2,GPIO0*%
%TO.N,/Microcontroller/display_E2*%
X76562500Y-52100000D03*
%TO.P,U1,3,GPIO1*%
%TO.N,/Microcontroller/display_D2*%
X76562500Y-52500000D03*
%TO.P,U1,4,GPIO2*%
%TO.N,/Microcontroller/display_C1*%
X76562500Y-52900000D03*
%TO.P,U1,5,GPIO3*%
%TO.N,/Microcontroller/display_D1*%
X76562500Y-53300000D03*
%TO.P,U1,6,GPIO4*%
%TO.N,/Microcontroller/I2C0_SDA*%
X76562500Y-53700000D03*
%TO.P,U1,7,GPIO5*%
%TO.N,/Microcontroller/I2C0_SCL*%
X76562500Y-54100000D03*
%TO.P,U1,8,GPIO6*%
%TO.N,/Microcontroller/display_E1*%
X76562500Y-54500000D03*
%TO.P,U1,9,GPIO7*%
%TO.N,/Microcontroller/display_F1*%
X76562500Y-54900000D03*
%TO.P,U1,10,IOVDD*%
%TO.N,+3V3*%
X76562500Y-55300000D03*
%TO.P,U1,11,GPIO8*%
%TO.N,/Microcontroller/display_G1*%
X76562500Y-55700000D03*
%TO.P,U1,12,GPIO9*%
%TO.N,/Microcontroller/display_DP1*%
X76562500Y-56100000D03*
%TO.P,U1,13,GPIO10*%
%TO.N,/Microcontroller/display_A2*%
X76562500Y-56500000D03*
%TO.P,U1,14,GPIO11*%
%TO.N,/Microcontroller/display_B2*%
X76562500Y-56900000D03*
D39*
%TO.P,U1,15,GPIO12*%
%TO.N,/Microcontroller/display_G2*%
X77400000Y-57737500D03*
%TO.P,U1,16,GPIO13*%
%TO.N,/Microcontroller/display_B1*%
X77800000Y-57737500D03*
%TO.P,U1,17,GPIO14*%
%TO.N,/Microcontroller/display_A1*%
X78200000Y-57737500D03*
%TO.P,U1,18,GPIO15*%
%TO.N,/Microcontroller/display_F2*%
X78600000Y-57737500D03*
%TO.P,U1,19,TESTEN*%
%TO.N,GND*%
X79000000Y-57737500D03*
%TO.P,U1,20,XIN*%
%TO.N,/Microcontroller/XIN*%
X79400000Y-57737500D03*
%TO.P,U1,21,XOUT*%
%TO.N,/Microcontroller/XOUT*%
X79800000Y-57737500D03*
%TO.P,U1,22,IOVDD*%
%TO.N,+3V3*%
X80200000Y-57737500D03*
%TO.P,U1,23,DVDD*%
%TO.N,+1V1*%
X80600000Y-57737500D03*
%TO.P,U1,24,SWCLK*%
%TO.N,/Microcontroller/SWCLK*%
X81000000Y-57737500D03*
%TO.P,U1,25,SWDIO*%
%TO.N,/Microcontroller/SWDIO*%
X81400000Y-57737500D03*
%TO.P,U1,26,RUN*%
%TO.N,/Microcontroller/MCU_RUN*%
X81800000Y-57737500D03*
%TO.P,U1,27,GPIO16*%
%TO.N,/Microcontroller/display_DP2*%
X82200000Y-57737500D03*
%TO.P,U1,28,GPIO17*%
%TO.N,/Microcontroller/display_C2*%
X82600000Y-57737500D03*
D38*
%TO.P,U1,29,GPIO18*%
%TO.N,/Microcontroller/USER_BUTTON*%
X83437500Y-56900000D03*
%TO.P,U1,30,GPIO19*%
%TO.N,/Microcontroller/LED_R*%
X83437500Y-56500000D03*
%TO.P,U1,31,GPIO20*%
%TO.N,/Microcontroller/LED_G*%
X83437500Y-56100000D03*
%TO.P,U1,32,GPIO21*%
%TO.N,/Microcontroller/LED_B*%
X83437500Y-55700000D03*
%TO.P,U1,33,IOVDD*%
%TO.N,+3V3*%
X83437500Y-55300000D03*
%TO.P,U1,34,GPIO22*%
%TO.N,/Microcontroller/GPIO22*%
X83437500Y-54900000D03*
%TO.P,U1,35,GPIO23*%
%TO.N,/Microcontroller/GPIO23*%
X83437500Y-54500000D03*
%TO.P,U1,36,GPIO24*%
%TO.N,/Microcontroller/GPIO24*%
X83437500Y-54100000D03*
%TO.P,U1,37,GPIO25*%
%TO.N,/Microcontroller/LED*%
X83437500Y-53700000D03*
%TO.P,U1,38,GPIO26/ADC0*%
%TO.N,/Microcontroller/GPIO26*%
X83437500Y-53300000D03*
%TO.P,U1,39,GPIO27/ADC1*%
%TO.N,/Microcontroller/GPIO27*%
X83437500Y-52900000D03*
%TO.P,U1,40,GPIO28/ADC2*%
%TO.N,/Microcontroller/GPIO28*%
X83437500Y-52500000D03*
%TO.P,U1,41,GPIO29/ADC3*%
%TO.N,/Microcontroller/GPIO29*%
X83437500Y-52100000D03*
%TO.P,U1,42,IOVDD*%
%TO.N,+3V3*%
X83437500Y-51700000D03*
D39*
%TO.P,U1,43,ADC_AVDD*%
X82600000Y-50862500D03*
%TO.P,U1,44,VREG_VIN*%
X82200000Y-50862500D03*
%TO.P,U1,45,VREG_VOUT*%
%TO.N,+1V1*%
X81800000Y-50862500D03*
%TO.P,U1,46,USB_DM*%
%TO.N,/Microcontroller/USB_M_N*%
X81400000Y-50862500D03*
%TO.P,U1,47,USB_DP*%
%TO.N,/Microcontroller/USB_M_P*%
X81000000Y-50862500D03*
%TO.P,U1,48,USB_VDD*%
%TO.N,+3V3*%
X80600000Y-50862500D03*
%TO.P,U1,49,IOVDD*%
X80200000Y-50862500D03*
%TO.P,U1,50,DVDD*%
%TO.N,+1V1*%
X79800000Y-50862500D03*
%TO.P,U1,51,QSPI_SD3*%
%TO.N,/Microcontroller/QSPI_SD3*%
X79400000Y-50862500D03*
%TO.P,U1,52,QSPI_SCLK*%
%TO.N,/Microcontroller/QSPI_SCLK*%
X79000000Y-50862500D03*
%TO.P,U1,53,QSPI_SD0*%
%TO.N,/Microcontroller/QSPI_SD0*%
X78600000Y-50862500D03*
%TO.P,U1,54,QSPI_SD2*%
%TO.N,/Microcontroller/QSPI_SD2*%
X78200000Y-50862500D03*
%TO.P,U1,55,QSPI_SD1*%
%TO.N,/Microcontroller/QSPI_SD1*%
X77800000Y-50862500D03*
%TO.P,U1,56,QSPI_SS_N*%
%TO.N,/Microcontroller/QSPI_SS_N*%
X77400000Y-50862500D03*
D40*
%TO.P,U1,57,GND*%
%TO.N,GND*%
X79999999Y-54299999D03*
%TD*%
D16*
%TO.P,R21,1*%
%TO.N,/Microcontroller/display_C2*%
X104000000Y-44375000D03*
%TO.P,R21,2*%
%TO.N,Net-(U4-c_2)*%
X104000000Y-46025000D03*
%TD*%
D41*
%TO.P,L1,1,1*%
%TO.N,/USBC and Power/SW_NODE*%
X60490928Y-52879829D03*
%TO.P,L1,2,2*%
%TO.N,+3V3*%
X60490928Y-50754829D03*
%TD*%
D17*
%TO.P,R13,1*%
%TO.N,Net-(D4-RA)*%
X61075000Y-59000000D03*
%TO.P,R13,2*%
%TO.N,/Microcontroller/LED_B*%
X62725000Y-59000000D03*
%TD*%
D23*
%TO.P,R30,1*%
%TO.N,Net-(U4-d_1)*%
X94000000Y-46025000D03*
%TO.P,R30,2*%
%TO.N,/Microcontroller/display_D1*%
X94000000Y-44375000D03*
%TD*%
D11*
%TO.P,C2,1*%
%TO.N,/USBC and Power/+5V_FB*%
X64193947Y-54909377D03*
%TO.P,C2,2*%
%TO.N,GND*%
X64193947Y-56459377D03*
%TD*%
D29*
%TO.P,SW3,1,1*%
%TO.N,/Microcontroller/USER_BUTTON*%
X53899999Y-62349999D03*
%TO.P,SW3,2,2*%
%TO.N,GND*%
X50499999Y-62349999D03*
%TD*%
D42*
%TO.N,/Microcontroller/USB_P*%
X56388000Y-53086000D03*
X56388000Y-52070000D03*
%TO.N,/Microcontroller/USB_N*%
X81450000Y-44450000D03*
%TO.N,/Microcontroller/USB_P*%
X80950000Y-44450000D03*
%TO.N,+3V3*%
X85852000Y-48768000D03*
%TO.N,GND*%
X76301318Y-48006469D03*
%TO.N,/Microcontroller/USB_M_P*%
X80772000Y-51816000D03*
%TO.N,/Microcontroller/USB_M_N*%
X81534000Y-51816000D03*
D43*
%TO.N,GND*%
X102596914Y-46821883D03*
D42*
X50853894Y-51107894D03*
X50800000Y-53594000D03*
%TO.N,Net-(J1-CC2)*%
X54102000Y-53594000D03*
%TO.N,Net-(J1-CC1)*%
X54435168Y-51107721D03*
%TO.N,GND*%
X56134000Y-49276000D03*
X56642000Y-49276000D03*
X57150000Y-49276000D03*
X57139701Y-48899215D03*
X56655265Y-48913380D03*
X56139665Y-48904881D03*
X56388000Y-56134000D03*
X57404000Y-56642000D03*
X56896000Y-56388000D03*
X58768956Y-57264511D03*
X57954652Y-57258149D03*
X66851476Y-57263097D03*
X66017380Y-57263097D03*
X61976000Y-56896000D03*
X60960000Y-56896000D03*
X65278000Y-56896000D03*
X65278000Y-56134000D03*
X63246000Y-56896000D03*
X59182000Y-56896000D03*
X63246000Y-56134000D03*
X61976000Y-56134000D03*
X60960000Y-56134000D03*
X59690000Y-56134000D03*
X59182000Y-56134000D03*
X57404000Y-56134000D03*
X56896000Y-55880000D03*
X56388000Y-55626000D03*
X53594000Y-45870522D03*
X63246000Y-49276000D03*
X63246000Y-48768000D03*
X63246000Y-48260000D03*
X63246000Y-47752000D03*
X63246000Y-47244000D03*
X64770000Y-53086000D03*
X64770000Y-52578000D03*
X64770000Y-52070000D03*
X64770000Y-51562000D03*
X64770000Y-51054000D03*
X64770000Y-46228000D03*
X64770000Y-45720000D03*
X64770000Y-45212000D03*
X64516000Y-46482000D03*
X64008000Y-46482000D03*
X63500000Y-46482000D03*
X62738000Y-43180000D03*
%TO.N,+3V3*%
X69145255Y-44599031D03*
%TO.N,/USBC and Power/BCK_FB*%
X62052340Y-44018340D03*
X68580000Y-51891871D03*
%TO.N,GND*%
X89837500Y-43688000D03*
D43*
X56650000Y-62550000D03*
D42*
X80264000Y-53086000D03*
D43*
X73075000Y-56060000D03*
X95400000Y-46736000D03*
X89550000Y-57930000D03*
D42*
X80772000Y-54356000D03*
X83914500Y-46540000D03*
X86740000Y-63425000D03*
X81280000Y-54356000D03*
D43*
X80140000Y-61480000D03*
X66515660Y-66950000D03*
D42*
X79248000Y-55372000D03*
X79756000Y-54356000D03*
X81280000Y-55372000D03*
D43*
X58641384Y-53194748D03*
D42*
X69621442Y-43373727D03*
X81788000Y-61468000D03*
X80264000Y-55372000D03*
X80264000Y-54356000D03*
X80300000Y-46520000D03*
D43*
X95400000Y-60706000D03*
X51422391Y-66503740D03*
D42*
X79756000Y-53086000D03*
X73152000Y-51562000D03*
X87607844Y-51629500D03*
X81280000Y-53086000D03*
X79248000Y-54356000D03*
X79248000Y-53086000D03*
D43*
X66364477Y-61335523D03*
D42*
X85130000Y-46540000D03*
D43*
X102600000Y-60706000D03*
D42*
X86895000Y-49720000D03*
X78740000Y-55372000D03*
X78730000Y-46530000D03*
D43*
X56650000Y-58850000D03*
X95400000Y-56875000D03*
D42*
X78740000Y-54356000D03*
X88138000Y-55880000D03*
X78740000Y-53086000D03*
X79756000Y-55372000D03*
X71640000Y-63415000D03*
X80772000Y-53086000D03*
X81880000Y-46530000D03*
D43*
X66550000Y-65100000D03*
X102600000Y-56896000D03*
D42*
X87590083Y-57605583D03*
X66350746Y-45052999D03*
X80772000Y-55372000D03*
D43*
%TO.N,/USBC and Power/+5V_FB*%
X66356246Y-49739888D03*
X66375879Y-53899203D03*
X63078060Y-50095921D03*
%TO.N,+3V3*%
X58166000Y-49784000D03*
X83560000Y-61525000D03*
D42*
X84582000Y-51629500D03*
X86444500Y-56388000D03*
D43*
X59944000Y-48006000D03*
D42*
X81199500Y-48873898D03*
D43*
X59944000Y-48514000D03*
D42*
X69670756Y-41815482D03*
D43*
X58674000Y-49784000D03*
X59944000Y-49530000D03*
X69050000Y-65950000D03*
D42*
X74930000Y-51562000D03*
X85350000Y-49680000D03*
D43*
X59944000Y-49022000D03*
X59436000Y-49784000D03*
X64372134Y-59763212D03*
X59944000Y-47498000D03*
X69250000Y-57250000D03*
X80100000Y-59900000D03*
X70825000Y-59450000D03*
X59944000Y-46990000D03*
X74625000Y-56050000D03*
D42*
%TO.N,+1V1*%
X83490000Y-46150000D03*
X83490000Y-49525500D03*
X81820000Y-59930000D03*
%TO.N,/Microcontroller/XIN*%
X83950000Y-64975000D03*
X79375500Y-58575500D03*
%TO.N,/Microcontroller/MCU_RUN*%
X86360000Y-60198000D03*
X83820000Y-60198000D03*
%TO.N,/Microcontroller/SWCLK*%
X81024500Y-59150500D03*
X80010000Y-63500000D03*
%TO.N,/Microcontroller/SWDIO*%
X80772000Y-62992000D03*
X81473782Y-59164592D03*
%TO.N,/Microcontroller/I2C0_SCL*%
X75400000Y-54124500D03*
X67575000Y-57058456D03*
D43*
%TO.N,/Microcontroller/LED_B*%
X62730576Y-57869388D03*
D42*
X84995063Y-55793810D03*
D43*
%TO.N,/Microcontroller/LED_R*%
X63800000Y-60800000D03*
D42*
X84900000Y-56900000D03*
D43*
%TO.N,/Microcontroller/LED_G*%
X63700000Y-62600000D03*
D42*
X85325000Y-57150000D03*
%TO.N,/Microcontroller/display_A2*%
X103944175Y-68072000D03*
X73660000Y-61976000D03*
%TO.N,/Microcontroller/display_B2*%
X105664000Y-67564000D03*
X74422000Y-61976000D03*
%TO.N,/Microcontroller/display_C2*%
X104031667Y-43180000D03*
X83612167Y-58720167D03*
%TO.N,/Microcontroller/display_D2*%
X71120000Y-39370000D03*
X71120000Y-52578000D03*
%TO.N,/Microcontroller/display_E2*%
X71630817Y-52100997D03*
X99822000Y-43434000D03*
%TO.N,/Microcontroller/display_F2*%
X101500000Y-65532000D03*
X78617732Y-58575500D03*
%TO.N,/Microcontroller/display_G2*%
X75438000Y-61976000D03*
X99902474Y-66598708D03*
%TO.N,/Microcontroller/display_DP2*%
X105590000Y-43250000D03*
X83568663Y-59175000D03*
%TO.N,/Microcontroller/display_A1*%
X96696099Y-66035899D03*
X77470000Y-58928000D03*
%TO.N,/Microcontroller/display_B1*%
X76200000Y-61976000D03*
X98300000Y-66548000D03*
%TO.N,/Microcontroller/display_C1*%
X96704299Y-43405704D03*
X72136000Y-53086000D03*
%TO.N,/Microcontroller/display_D1*%
X93980000Y-43434000D03*
X72644000Y-53594000D03*
%TO.N,/Microcontroller/display_E1*%
X77470000Y-54356000D03*
X92378099Y-43582208D03*
%TO.N,/Microcontroller/display_F1*%
X93980000Y-69088000D03*
X71882000Y-61976000D03*
%TO.N,/Microcontroller/display_G1*%
X92398801Y-68580000D03*
X72898000Y-61976000D03*
%TO.N,/Microcontroller/display_DP1*%
X78399000Y-56475000D03*
X87884000Y-56896000D03*
X98298000Y-43434000D03*
X89408000Y-55880000D03*
%TO.N,/Microcontroller/QSPI_SCLK*%
X78940540Y-49649500D03*
X75000000Y-40800000D03*
%TO.N,/Microcontroller/QSPI_SD3*%
X79424500Y-49829654D03*
X73800000Y-40800000D03*
%TO.N,/Microcontroller/LED*%
X83879117Y-51205000D03*
X82618444Y-53701481D03*
%TD*%
D44*
%TO.N,/Microcontroller/LED_B*%
X84901253Y-55700000D02*
X83437500Y-55700000D01*
X84995063Y-55793810D02*
X84901253Y-55700000D01*
%TO.N,/Microcontroller/USB_N*%
X55325000Y-52610000D02*
X56610000Y-52610000D01*
X81425001Y-44425001D02*
X81425001Y-40785001D01*
X81450000Y-44450000D02*
X81425001Y-44425001D01*
X80547000Y-39907000D02*
X70010800Y-39907000D01*
X81425001Y-40785001D02*
X80547000Y-39907000D01*
X54462499Y-52610000D02*
X55325000Y-52610000D01*
X53754800Y-40923000D02*
X52353000Y-42324800D01*
X70010800Y-39907000D02*
X68994800Y-40923000D01*
X68994800Y-40923000D02*
X53754800Y-40923000D01*
X52353000Y-42324800D02*
X52353000Y-51909200D01*
X52353000Y-51909200D02*
X53028800Y-52585000D01*
X54437499Y-52585000D02*
X54462499Y-52610000D01*
X53028800Y-52585000D02*
X54437499Y-52585000D01*
%TO.N,/Microcontroller/display_G2*%
X99902474Y-66598708D02*
X99902474Y-63127474D01*
D45*
%TO.N,/Microcontroller/USB_N*%
X56630142Y-51610000D02*
X55325000Y-51610000D01*
X56896000Y-52324000D02*
X56610000Y-52610000D01*
X56896000Y-51875858D02*
X56896000Y-52324000D01*
X56630142Y-51610000D02*
X56896000Y-51875858D01*
%TO.N,/Microcontroller/USB_P*%
X56348000Y-52110000D02*
X56388000Y-52070000D01*
X55325000Y-52110000D02*
X56348000Y-52110000D01*
D44*
X54462499Y-52110000D02*
X55325000Y-52110000D01*
X54437499Y-52135000D02*
X54462499Y-52110000D01*
X53215200Y-52135000D02*
X54437499Y-52135000D01*
X52803000Y-51722800D02*
X53215200Y-52135000D01*
X52803000Y-42511200D02*
X52803000Y-51722800D01*
X53941200Y-41373000D02*
X52803000Y-42511200D01*
X70197200Y-40357000D02*
X69181200Y-41373000D01*
X80974999Y-41096999D02*
X80235000Y-40357000D01*
X80235000Y-40357000D02*
X70197200Y-40357000D01*
X69181200Y-41373000D02*
X53941200Y-41373000D01*
X80950000Y-44450000D02*
X80974999Y-44425001D01*
X80974999Y-44425001D02*
X80974999Y-41096999D01*
%TO.N,+3V3*%
X80300000Y-50120881D02*
X80300000Y-48875000D01*
X80200000Y-50862500D02*
X80200000Y-50220881D01*
X80200000Y-50220881D02*
X80300000Y-50120881D01*
D45*
%TO.N,/Microcontroller/USB_P*%
X56388000Y-53086000D02*
X55349000Y-53086000D01*
X55349000Y-53086000D02*
X55325000Y-53110000D01*
D46*
%TO.N,+3V3*%
X85755000Y-48865000D02*
X85852000Y-48768000D01*
X85130000Y-48865000D02*
X85755000Y-48865000D01*
D44*
%TO.N,GND*%
X76300000Y-48005151D02*
X76301318Y-48006469D01*
D46*
X76300000Y-47200000D02*
X76300000Y-48005151D01*
D44*
%TO.N,/Microcontroller/USB_M_P*%
X81000000Y-51562000D02*
X81000000Y-51588000D01*
X81000000Y-51588000D02*
X80772000Y-51816000D01*
X81000000Y-50862500D02*
X81000000Y-51562000D01*
%TO.N,/Microcontroller/USB_M_N*%
X81400000Y-51682000D02*
X81400000Y-50862500D01*
X81534000Y-51816000D02*
X81400000Y-51682000D01*
D47*
%TO.N,GND*%
X95400000Y-48800000D02*
X95400000Y-46736000D01*
X102600000Y-56896000D02*
X102600000Y-58800000D01*
X102600000Y-60706000D02*
X102600000Y-58800000D01*
X95400000Y-58800000D02*
X95400000Y-60706000D01*
D46*
X102600000Y-46824969D02*
X102596914Y-46821883D01*
D47*
X102600000Y-48800000D02*
X102600000Y-46824969D01*
D46*
%TO.N,Net-(J1-CC2)*%
X54618000Y-54110000D02*
X54102000Y-53594000D01*
X55325000Y-54110000D02*
X54618000Y-54110000D01*
%TO.N,Net-(J1-CC1)*%
X54437447Y-51110000D02*
X54435168Y-51107721D01*
X55325000Y-51110000D02*
X54437447Y-51110000D01*
%TO.N,GND*%
X54705426Y-45870522D02*
X53594000Y-45870522D01*
D44*
%TO.N,+3V3*%
X58963206Y-45654174D02*
X58975137Y-45666105D01*
D46*
X56749354Y-45654174D02*
X58963206Y-45654174D01*
D44*
%TO.N,/USBC and Power/LED_POW_A*%
X56740702Y-43995522D02*
X56749354Y-44004174D01*
D46*
X54705426Y-43995522D02*
X56740702Y-43995522D01*
%TO.N,GND*%
X63706825Y-43180000D02*
X62738000Y-43180000D01*
%TO.N,+3V3*%
X68700000Y-45044286D02*
X68700000Y-45475000D01*
X69145255Y-44599031D02*
X68700000Y-45044286D01*
D44*
%TO.N,Net-(R7-Pad1)*%
X70466118Y-45066118D02*
X70466118Y-45475000D01*
X68580000Y-43180000D02*
X70466118Y-45066118D01*
X67106825Y-43180000D02*
X68580000Y-43180000D01*
D46*
%TO.N,/USBC and Power/BCK_FB*%
X62050677Y-44020003D02*
X62052340Y-44018340D01*
X60571920Y-44020003D02*
X62050677Y-44020003D01*
X60625137Y-44073220D02*
X60571920Y-44020003D01*
X60625137Y-45666105D02*
X60625137Y-44073220D01*
X62166132Y-45666105D02*
X62167000Y-45666973D01*
X60625137Y-45666105D02*
X62166132Y-45666105D01*
X68578267Y-51893604D02*
X68580000Y-51891871D01*
X66481958Y-51893604D02*
X68578267Y-51893604D01*
%TO.N,GND*%
X78994000Y-55306000D02*
X80000000Y-54300000D01*
D44*
X86450000Y-57900000D02*
X87295666Y-57900000D01*
D46*
X66515660Y-66153798D02*
X66550000Y-66119458D01*
X73152000Y-51562000D02*
X73152000Y-51041000D01*
X67050000Y-64225000D02*
X67550000Y-64225000D01*
D44*
X79000000Y-55620000D02*
X79248000Y-55372000D01*
D46*
X85130000Y-46540000D02*
X85130000Y-47315000D01*
X87295666Y-57900000D02*
X87590083Y-57605583D01*
X66550000Y-66119458D02*
X66550000Y-64225000D01*
D47*
X58641384Y-52295488D02*
X58641384Y-53194748D01*
D46*
X66550000Y-61521046D02*
X66364477Y-61335523D01*
X56650000Y-59850000D02*
X56650000Y-60800000D01*
X73075000Y-55300000D02*
X73075000Y-56060000D01*
X66515660Y-66950000D02*
X66515660Y-66153798D01*
D47*
X89550000Y-57930000D02*
X89550000Y-58800000D01*
D46*
X51425000Y-65250000D02*
X51425000Y-66501131D01*
X66550000Y-62325000D02*
X66550000Y-61521046D01*
X51425000Y-66501131D02*
X51422391Y-66503740D01*
X56650000Y-59850000D02*
X56650000Y-58850000D01*
X80135000Y-61475000D02*
X79450000Y-61475000D01*
X83500000Y-47325000D02*
X83500000Y-46954500D01*
X86895000Y-49720000D02*
X86895000Y-50430000D01*
X50500000Y-62350000D02*
X50500000Y-63350000D01*
X51450000Y-64300000D02*
X51450000Y-65225000D01*
X73152000Y-51041000D02*
X73393000Y-50800000D01*
X78994000Y-56642000D02*
X78994000Y-55306000D01*
X69622715Y-43375000D02*
X69621442Y-43373727D01*
X86740000Y-63425000D02*
X87790000Y-63425000D01*
X89837500Y-43688000D02*
X89837500Y-44958000D01*
X71640000Y-63415000D02*
X70670000Y-63415000D01*
X56650000Y-60800000D02*
X56650000Y-61750000D01*
X70500000Y-43375000D02*
X69622715Y-43375000D01*
D47*
X95400000Y-58800000D02*
X95400000Y-56875000D01*
D46*
X87389000Y-55880000D02*
X88138000Y-55880000D01*
X80300000Y-47325000D02*
X80300000Y-46520000D01*
X56650000Y-61750000D02*
X56650000Y-62550000D01*
X83500000Y-46954500D02*
X83914500Y-46540000D01*
X66550000Y-64225000D02*
X67050000Y-64225000D01*
X81788000Y-61468000D02*
X81781000Y-61475000D01*
X51450000Y-65225000D02*
X51425000Y-65250000D01*
X66342500Y-46200000D02*
X66342500Y-45061245D01*
X81781000Y-61475000D02*
X81026000Y-61475000D01*
X78730000Y-46530000D02*
X78730000Y-47325000D01*
D44*
X79000000Y-57737500D02*
X79000000Y-56648000D01*
D46*
X50500000Y-63350000D02*
X51450000Y-64300000D01*
X66342500Y-45061245D02*
X66350746Y-45052999D01*
X80140000Y-61480000D02*
X80135000Y-61475000D01*
D44*
X79000000Y-56648000D02*
X78994000Y-56642000D01*
D46*
X81880000Y-47335000D02*
X81880000Y-46530000D01*
%TO.N,/USBC and Power/+5V_FB*%
X66342500Y-48800000D02*
X66342500Y-49726142D01*
X66342500Y-49726142D02*
X66356246Y-49739888D01*
X63061958Y-50943604D02*
X63061958Y-50112023D01*
X63061958Y-50112023D02*
X63078060Y-50095921D01*
%TO.N,+3V3*%
X74625000Y-56050000D02*
X74625000Y-55300000D01*
D44*
X81208398Y-48885000D02*
X81198398Y-48875000D01*
D46*
X68050000Y-65934340D02*
X68050000Y-64225000D01*
D44*
X82200000Y-50470000D02*
X82720000Y-49950000D01*
D46*
X85839000Y-55880000D02*
X86347000Y-56388000D01*
X70825000Y-60500000D02*
X70825000Y-59450000D01*
X86347000Y-56388000D02*
X86444500Y-56388000D01*
X70500000Y-41825000D02*
X72465000Y-41825000D01*
D44*
X84582000Y-51629500D02*
X84511500Y-51700000D01*
X84511500Y-51700000D02*
X83437500Y-51700000D01*
D46*
X69050000Y-65950000D02*
X68065660Y-65950000D01*
D44*
X76562500Y-51700000D02*
X76097000Y-51700000D01*
X80075000Y-59925000D02*
X80100000Y-59900000D01*
D46*
X69225000Y-57275000D02*
X69225000Y-58700000D01*
X81880000Y-48885000D02*
X81208398Y-48885000D01*
D44*
X83830000Y-50430000D02*
X85355000Y-50430000D01*
X82200000Y-50862500D02*
X82200000Y-50470000D01*
D46*
X69250000Y-57250000D02*
X69225000Y-57275000D01*
X72465000Y-41825000D02*
X72490000Y-41800000D01*
D44*
X76097000Y-51700000D02*
X74943000Y-50546000D01*
X81880000Y-49050025D02*
X81880000Y-48885000D01*
X74943000Y-51549000D02*
X74930000Y-51562000D01*
D46*
X64375000Y-58700000D02*
X64375000Y-59760346D01*
X74943000Y-50800000D02*
X74943000Y-51549000D01*
X64375000Y-59760346D02*
X64372134Y-59763212D01*
D44*
X85300612Y-55300000D02*
X85625905Y-55625293D01*
D47*
X83560000Y-61525000D02*
X82800000Y-61525000D01*
D44*
X80600000Y-50862500D02*
X80600000Y-50330025D01*
D46*
X80300000Y-48875000D02*
X81198398Y-48875000D01*
D44*
X84045000Y-49950000D02*
X85130000Y-48865000D01*
X80600000Y-50330025D02*
X81880000Y-49050025D01*
X83437500Y-55300000D02*
X85300612Y-55300000D01*
X82720000Y-49950000D02*
X84045000Y-49950000D01*
D46*
X85345000Y-50430000D02*
X85345000Y-49685000D01*
X69680274Y-41825000D02*
X69670756Y-41815482D01*
D44*
X83397500Y-50862500D02*
X83830000Y-50430000D01*
X76562500Y-55300000D02*
X74625000Y-55300000D01*
X85345000Y-49685000D02*
X85350000Y-49680000D01*
X82600000Y-50862500D02*
X83397500Y-50862500D01*
X81198398Y-48875000D02*
X81199500Y-48873898D01*
X80200000Y-59175000D02*
X80200000Y-57737500D01*
D46*
X70500000Y-41825000D02*
X69680274Y-41825000D01*
X79450000Y-59925000D02*
X80075000Y-59925000D01*
D44*
X85625905Y-55625293D02*
X85625905Y-55626000D01*
X79450000Y-59925000D02*
X80200000Y-59175000D01*
D46*
%TO.N,+1V1*%
X83060000Y-45720000D02*
X83490000Y-46150000D01*
D44*
X81815000Y-59925000D02*
X81820000Y-59930000D01*
X79800000Y-50862500D02*
X79800000Y-50055195D01*
D46*
X83500000Y-48875000D02*
X83500000Y-49515500D01*
D44*
X81150000Y-59925000D02*
X80600000Y-59375000D01*
X78730000Y-48875000D02*
X79101000Y-48875000D01*
X79849500Y-49641962D02*
X79082538Y-48875000D01*
X81800000Y-50862500D02*
X81800000Y-50304314D01*
D46*
X78730000Y-48875000D02*
X78173098Y-48875000D01*
D44*
X79849500Y-50005695D02*
X79849500Y-49641962D01*
X83500000Y-49515500D02*
X83490000Y-49525500D01*
X83229314Y-48875000D02*
X83500000Y-48875000D01*
D46*
X81150000Y-59925000D02*
X81815000Y-59925000D01*
X77470000Y-48171902D02*
X77470000Y-45974000D01*
X77470000Y-45974000D02*
X77724000Y-45720000D01*
D44*
X79800000Y-50055195D02*
X79849500Y-50005695D01*
D46*
X78173098Y-48875000D02*
X77470000Y-48171902D01*
X77724000Y-45720000D02*
X83060000Y-45720000D01*
D44*
X80600000Y-59375000D02*
X80600000Y-57737500D01*
X81800000Y-50304314D02*
X83229314Y-48875000D01*
%TO.N,Net-(C20-Pad1)*%
X77700000Y-64700000D02*
X77700000Y-61525000D01*
D46*
X70680000Y-64975000D02*
X74450000Y-64975000D01*
X70670000Y-64965000D02*
X70680000Y-64975000D01*
D44*
X74450000Y-64975000D02*
X77425000Y-64975000D01*
X77425000Y-64975000D02*
X77700000Y-64700000D01*
D46*
%TO.N,/Microcontroller/XIN*%
X87790000Y-64975000D02*
X83950000Y-64975000D01*
D44*
X79375500Y-58575500D02*
X79400000Y-58551000D01*
X79400000Y-58551000D02*
X79400000Y-57737500D01*
D46*
%TO.N,/Microcontroller/MCU_RUN*%
X88450000Y-60350000D02*
X89550000Y-60350000D01*
D44*
X86360000Y-60198000D02*
X86360000Y-61210000D01*
X82800000Y-59875000D02*
X83497000Y-59875000D01*
X82800000Y-59600000D02*
X82800000Y-59875000D01*
X81800000Y-58600000D02*
X82800000Y-59600000D01*
X83497000Y-59875000D02*
X83820000Y-60198000D01*
X86360000Y-61210000D02*
X86450000Y-61300000D01*
D46*
X87500000Y-61300000D02*
X88450000Y-60350000D01*
D44*
X81800000Y-57737500D02*
X81800000Y-58600000D01*
D46*
X86450000Y-61300000D02*
X87500000Y-61300000D01*
%TO.N,/Microcontroller/USER_BUTTON*%
X52975000Y-65250000D02*
X52975000Y-64575000D01*
D44*
X83437500Y-56900000D02*
X84200000Y-56900000D01*
X84500000Y-57200000D02*
X84500000Y-61894000D01*
X52975000Y-68723000D02*
X52975000Y-65250000D01*
X88900000Y-62484000D02*
X88900000Y-68580000D01*
D46*
X52975000Y-64575000D02*
X53900000Y-63650000D01*
D44*
X88392000Y-69088000D02*
X53340000Y-69088000D01*
X88900000Y-68580000D02*
X88392000Y-69088000D01*
X53340000Y-69088000D02*
X52975000Y-68723000D01*
X84200000Y-56900000D02*
X84500000Y-57200000D01*
X84500000Y-61894000D02*
X84836000Y-62230000D01*
X88646000Y-62230000D02*
X88900000Y-62484000D01*
D46*
X53900000Y-63650000D02*
X53900000Y-62350000D01*
D44*
X84836000Y-62230000D02*
X88646000Y-62230000D01*
D46*
%TO.N,Net-(D2-A)*%
X88138000Y-46974500D02*
X88153500Y-46990000D01*
X87962500Y-46052500D02*
X88138000Y-46228000D01*
X88138000Y-46228000D02*
X88138000Y-46974500D01*
X87962500Y-44958000D02*
X87962500Y-46052500D01*
%TO.N,Net-(D4-BA)*%
X59150000Y-61750000D02*
X60225000Y-61750000D01*
X60225000Y-61750000D02*
X61075000Y-62600000D01*
%TO.N,Net-(D4-GA)*%
X58925000Y-60800000D02*
X61075000Y-60800000D01*
%TO.N,Net-(D4-RA)*%
X59150000Y-59850000D02*
X60225000Y-59850000D01*
X60225000Y-59850000D02*
X61075000Y-59000000D01*
D44*
%TO.N,/Microcontroller/SWCLK*%
X81000000Y-59126000D02*
X81000000Y-57737500D01*
X58420000Y-68580000D02*
X57975000Y-68135000D01*
X80010000Y-68580000D02*
X58420000Y-68580000D01*
X57975000Y-68135000D02*
X57975000Y-65900000D01*
X81024500Y-59150500D02*
X81000000Y-59126000D01*
X80010000Y-63500000D02*
X80010000Y-68580000D01*
%TO.N,/Microcontroller/SWDIO*%
X81473782Y-59164592D02*
X81473782Y-58998741D01*
X78740000Y-68072000D02*
X63500000Y-68072000D01*
X78994000Y-67818000D02*
X78740000Y-68072000D01*
X63500000Y-68072000D02*
X63055000Y-67627000D01*
X78994000Y-63246000D02*
X78994000Y-67818000D01*
X63055000Y-67627000D02*
X63055000Y-65900000D01*
X81473782Y-58998741D02*
X81400000Y-58924959D01*
X79248000Y-62992000D02*
X78994000Y-63246000D01*
X80772000Y-62992000D02*
X79248000Y-62992000D01*
X81400000Y-58924959D02*
X81400000Y-57737500D01*
D46*
%TO.N,/Microcontroller/GPIO29*%
X106934000Y-50800000D02*
X107188000Y-50546000D01*
D44*
X89038385Y-50800000D02*
X89350314Y-50800000D01*
D46*
X107188000Y-42545000D02*
X107568000Y-42165000D01*
D44*
X87738385Y-52100000D02*
X89038385Y-50800000D01*
D46*
X107568000Y-42165000D02*
X111500000Y-42165000D01*
X107188000Y-50546000D02*
X107188000Y-42545000D01*
D44*
X89350314Y-50800000D02*
X90424000Y-50800000D01*
X83437500Y-52100000D02*
X87738385Y-52100000D01*
D46*
X90424000Y-50800000D02*
X106934000Y-50800000D01*
%TO.N,/Microcontroller/GPIO28*%
X90424000Y-51562000D02*
X107696000Y-51562000D01*
D44*
X90424000Y-51562000D02*
X89154000Y-51562000D01*
D46*
X108458000Y-50800000D02*
X108458000Y-45212000D01*
D44*
X87911000Y-52805000D02*
X84892538Y-52805000D01*
X84587538Y-52500000D02*
X83437500Y-52500000D01*
D46*
X107696000Y-51562000D02*
X108458000Y-50800000D01*
X108458000Y-45212000D02*
X108965000Y-44705000D01*
D44*
X89154000Y-51562000D02*
X87911000Y-52805000D01*
D46*
X108965000Y-44705000D02*
X111500000Y-44705000D01*
D44*
X84892538Y-52805000D02*
X84587538Y-52500000D01*
%TO.N,/Microcontroller/GPIO27*%
X90424000Y-52324000D02*
X89408000Y-52324000D01*
X84421852Y-52900000D02*
X83437500Y-52900000D01*
D46*
X90424000Y-52324000D02*
X91186000Y-52324000D01*
D44*
X89408000Y-52324000D02*
X88527000Y-53205000D01*
X88527000Y-53205000D02*
X84726853Y-53205000D01*
D46*
X91187000Y-52325000D02*
X111500000Y-52325000D01*
X91186000Y-52324000D02*
X91187000Y-52325000D01*
D44*
X84726853Y-53205000D02*
X84421852Y-52900000D01*
%TO.N,/Microcontroller/GPIO26*%
X90424000Y-53605000D02*
X84561168Y-53605000D01*
D46*
X90424000Y-53605000D02*
X108977000Y-53605000D01*
D44*
X84561168Y-53605000D02*
X84256167Y-53300000D01*
D46*
X108977000Y-53605000D02*
X110237000Y-54865000D01*
D44*
X84256167Y-53300000D02*
X83437500Y-53300000D01*
D46*
X110237000Y-54865000D02*
X111500000Y-54865000D01*
%TO.N,/Microcontroller/GPIO24*%
X109220000Y-59436000D02*
X109729000Y-59945000D01*
X108458000Y-54102000D02*
X109220000Y-54864000D01*
X90424000Y-54102000D02*
X108458000Y-54102000D01*
X109729000Y-59945000D02*
X111500000Y-59945000D01*
D44*
X90422000Y-54100000D02*
X90424000Y-54102000D01*
X83437500Y-54100000D02*
X84303500Y-54100000D01*
X84303500Y-54100000D02*
X90422000Y-54100000D01*
D46*
X109220000Y-54864000D02*
X109220000Y-59436000D01*
%TO.N,/Microcontroller/GPIO23*%
X108204000Y-55118000D02*
X108204000Y-61976000D01*
D44*
X83437500Y-54500000D02*
X88392000Y-54500000D01*
X88801326Y-54765326D02*
X89011214Y-54765326D01*
D46*
X107847986Y-54761986D02*
X108204000Y-55118000D01*
D44*
X89011214Y-54765326D02*
X90400190Y-54765326D01*
X88392000Y-54500000D02*
X88536000Y-54500000D01*
X88646000Y-54610000D02*
X88801326Y-54765326D01*
X88536000Y-54500000D02*
X88646000Y-54610000D01*
D46*
X90403530Y-54761986D02*
X107847986Y-54761986D01*
X108204000Y-61976000D02*
X108713000Y-62485000D01*
X108713000Y-62485000D02*
X111500000Y-62485000D01*
D44*
X88392000Y-54500000D02*
X88502000Y-54500000D01*
D46*
%TO.N,/Microcontroller/GPIO22*%
X90424000Y-55372000D02*
X106426000Y-55372000D01*
X106934000Y-55880000D02*
X106934000Y-64516000D01*
X106426000Y-55372000D02*
X106934000Y-55880000D01*
X106934000Y-64516000D02*
X107443000Y-65025000D01*
D44*
X83437500Y-54900000D02*
X85852000Y-54900000D01*
D46*
X107443000Y-65025000D02*
X111500000Y-65025000D01*
D44*
X87920000Y-54900000D02*
X85852000Y-54900000D01*
X88392000Y-55372000D02*
X87920000Y-54900000D01*
X90424000Y-55372000D02*
X88392000Y-55372000D01*
D46*
%TO.N,/USBC and Power/BCK_MODE*%
X67566000Y-47500000D02*
X66342500Y-47500000D01*
X67818000Y-47752000D02*
X67566000Y-47500000D01*
X67818000Y-49607562D02*
X67818000Y-47752000D01*
X66481958Y-50943604D02*
X67818000Y-49607562D01*
D48*
%TO.N,/USBC and Power/SW_NODE*%
X63061958Y-52843604D02*
X60527153Y-52843604D01*
X60527153Y-52843604D02*
X60490928Y-52879829D01*
D44*
%TO.N,/Microcontroller/QSPI_SS_N*%
X72490000Y-47200000D02*
X72490000Y-49190000D01*
X72415000Y-47125000D02*
X72490000Y-47200000D01*
X70466118Y-47125000D02*
X72415000Y-47125000D01*
X70466118Y-47125000D02*
X68700000Y-47125000D01*
X72490000Y-49190000D02*
X73100000Y-49800000D01*
X73100000Y-49800000D02*
X76800000Y-49800000D01*
X76800000Y-49800000D02*
X77400000Y-50400000D01*
X77400000Y-50400000D02*
X77400000Y-50862500D01*
%TO.N,/Microcontroller/XOUT*%
X77700000Y-59700000D02*
X78400000Y-59000000D01*
X79800000Y-58800000D02*
X79800000Y-57737500D01*
X78400000Y-59000000D02*
X79600000Y-59000000D01*
X79600000Y-59000000D02*
X79800000Y-58800000D01*
X77700000Y-59875000D02*
X77700000Y-59700000D01*
%TO.N,/Microcontroller/I2C0_SCL*%
X67550000Y-62325000D02*
X67550000Y-58725000D01*
X75424500Y-54100000D02*
X76562500Y-54100000D01*
X67575000Y-57058456D02*
X67575000Y-58700000D01*
X67550000Y-58725000D02*
X67575000Y-58700000D01*
X75400000Y-54124500D02*
X75424500Y-54100000D01*
D46*
%TO.N,/Microcontroller/LED_B*%
X62725000Y-57874964D02*
X62730576Y-57869388D01*
X62725000Y-59000000D02*
X62725000Y-57874964D01*
%TO.N,/Microcontroller/LED_R*%
X62725000Y-60800000D02*
X63800000Y-60800000D01*
D44*
X84500000Y-56500000D02*
X83437500Y-56500000D01*
X84900000Y-56900000D02*
X84500000Y-56500000D01*
%TO.N,/Microcontroller/LED_G*%
X85325000Y-57150000D02*
X85325000Y-56723959D01*
D46*
X62725000Y-62600000D02*
X63700000Y-62600000D01*
D44*
X84701041Y-56100000D02*
X83437500Y-56100000D01*
X85325000Y-56723959D02*
X84701041Y-56100000D01*
%TO.N,Net-(U5-ALERT)*%
X67050000Y-61350000D02*
X66000000Y-60300000D01*
X66000000Y-58725000D02*
X66025000Y-58700000D01*
X66000000Y-60300000D02*
X66000000Y-58725000D01*
X67050000Y-62325000D02*
X67050000Y-61350000D01*
%TO.N,/Microcontroller/I2C0_SDA*%
X70300000Y-59300000D02*
X69175000Y-60425000D01*
X68400000Y-60500000D02*
X69175000Y-60500000D01*
X69175000Y-60425000D02*
X69175000Y-60500000D01*
X68050000Y-60850000D02*
X68400000Y-60500000D01*
X76562500Y-53700000D02*
X74824000Y-53700000D01*
X70300000Y-54668000D02*
X70300000Y-59300000D01*
X74422000Y-54102000D02*
X70866000Y-54102000D01*
X70866000Y-54102000D02*
X70300000Y-54668000D01*
X68050000Y-62325000D02*
X68050000Y-60850000D01*
X74824000Y-53700000D02*
X74422000Y-54102000D01*
%TO.N,/Microcontroller/display_A2*%
X76562500Y-56500000D02*
X75580000Y-56500000D01*
X103944175Y-68072000D02*
X104000000Y-68016175D01*
X75580000Y-56500000D02*
X73660000Y-58420000D01*
X73660000Y-58420000D02*
X73660000Y-61976000D01*
X104000000Y-68016175D02*
X104000000Y-63225000D01*
D46*
%TO.N,Net-(U4-a_2)*%
X104040000Y-61535000D02*
X104000000Y-61575000D01*
X104040000Y-58800000D02*
X104040000Y-61535000D01*
D44*
%TO.N,/Microcontroller/display_B2*%
X105664000Y-67564000D02*
X105664000Y-63289000D01*
X74422000Y-58420000D02*
X74422000Y-61976000D01*
X105664000Y-63289000D02*
X105600000Y-63225000D01*
X76562500Y-56900000D02*
X75942000Y-56900000D01*
X75942000Y-56900000D02*
X74422000Y-58420000D01*
D46*
%TO.N,Net-(U4-b_2)*%
X105480000Y-58800000D02*
X105600000Y-58920000D01*
X105600000Y-58920000D02*
X105600000Y-61575000D01*
D44*
%TO.N,/Microcontroller/display_C2*%
X83391500Y-57737500D02*
X83612167Y-57958167D01*
X82600000Y-57737500D02*
X83391500Y-57737500D01*
X83612167Y-57958167D02*
X83612167Y-58720167D01*
X104031667Y-44343333D02*
X104000000Y-44375000D01*
X104031667Y-43180000D02*
X104031667Y-44343333D01*
D46*
%TO.N,Net-(U4-c_2)*%
X104040000Y-46065000D02*
X104000000Y-46025000D01*
X104040000Y-48800000D02*
X104040000Y-46065000D01*
D44*
%TO.N,/Microcontroller/display_D2*%
X74188314Y-52500000D02*
X74110314Y-52578000D01*
X101500000Y-39778000D02*
X101500000Y-44375000D01*
X71120000Y-39370000D02*
X72644000Y-39370000D01*
X71374000Y-52578000D02*
X71120000Y-52578000D01*
X101092000Y-39370000D02*
X101500000Y-39778000D01*
X76562500Y-52500000D02*
X74188314Y-52500000D01*
X74110314Y-52578000D02*
X71374000Y-52578000D01*
X72644000Y-39370000D02*
X101092000Y-39370000D01*
D46*
%TO.N,Net-(U4-d_2)*%
X101160000Y-47365000D02*
X101500000Y-47025000D01*
X101500000Y-47025000D02*
X101500000Y-46025000D01*
X101160000Y-48800000D02*
X101160000Y-47365000D01*
D44*
%TO.N,/Microcontroller/display_E2*%
X99822000Y-44297000D02*
X99900000Y-44375000D01*
X71911003Y-52100997D02*
X71630817Y-52100997D01*
X99822000Y-43434000D02*
X99822000Y-44297000D01*
X71912000Y-52100000D02*
X76562500Y-52100000D01*
X71912000Y-52100000D02*
X71911003Y-52100997D01*
D46*
%TO.N,Net-(U4-e_2)*%
X99720000Y-48800000D02*
X99720000Y-46205000D01*
X99720000Y-46205000D02*
X99900000Y-46025000D01*
D44*
%TO.N,/Microcontroller/display_F2*%
X78600000Y-57737500D02*
X78600000Y-58557768D01*
X78600000Y-58557768D02*
X78617732Y-58575500D01*
X101500000Y-65532000D02*
X101500000Y-63125000D01*
D46*
%TO.N,Net-(U4-f_2)*%
X101160000Y-58800000D02*
X101160000Y-60435000D01*
X101160000Y-60435000D02*
X101500000Y-60775000D01*
X101500000Y-60775000D02*
X101500000Y-61475000D01*
D44*
%TO.N,/Microcontroller/display_G2*%
X75426427Y-58051275D02*
X75426427Y-61964427D01*
X75426427Y-61964427D02*
X75438000Y-61976000D01*
X75740202Y-57737500D02*
X77400000Y-57737500D01*
X75426427Y-58051275D02*
X75740202Y-57737500D01*
D46*
%TO.N,Net-(U4-g_2)*%
X99720000Y-60420000D02*
X99900000Y-60600000D01*
X99900000Y-60600000D02*
X99900000Y-61475000D01*
X99720000Y-58800000D02*
X99720000Y-60420000D01*
D44*
%TO.N,/Microcontroller/display_DP2*%
X82995843Y-59175000D02*
X82436843Y-58616000D01*
X83568663Y-59175000D02*
X82995843Y-59175000D01*
D46*
X105590000Y-44365000D02*
X105600000Y-44375000D01*
D44*
X105590000Y-43250000D02*
X105590000Y-44365000D01*
X82436843Y-58616000D02*
X82434315Y-58616000D01*
X82434315Y-58616000D02*
X82200000Y-58381685D01*
X82200000Y-58381685D02*
X82200000Y-57737500D01*
D46*
%TO.N,Net-(U4-DP_2)*%
X105480000Y-48800000D02*
X105480000Y-46145000D01*
X105480000Y-46145000D02*
X105600000Y-46025000D01*
%TO.N,Net-(U4-a_1)*%
X96840000Y-58800000D02*
X96840000Y-60510000D01*
X96700000Y-60650000D02*
X96700000Y-61475000D01*
X96840000Y-60510000D02*
X96700000Y-60650000D01*
D44*
%TO.N,/Microcontroller/display_A1*%
X96696099Y-66035899D02*
X96696099Y-63128901D01*
X77800000Y-58900000D02*
X77498000Y-58900000D01*
X78200000Y-58500000D02*
X78200000Y-57737500D01*
X78200000Y-58500000D02*
X77800000Y-58900000D01*
X77498000Y-58900000D02*
X77470000Y-58928000D01*
X96696099Y-63128901D02*
X96700000Y-63125000D01*
D46*
%TO.N,Net-(U4-b_1)*%
X98300000Y-61475000D02*
X98280000Y-61455000D01*
X98280000Y-61455000D02*
X98280000Y-58800000D01*
D44*
%TO.N,/Microcontroller/display_B1*%
X77569975Y-58500000D02*
X77800000Y-58269975D01*
X77800000Y-58269975D02*
X77800000Y-57737500D01*
X76374000Y-58500000D02*
X76200000Y-58674000D01*
X98300000Y-66548000D02*
X98300000Y-63125000D01*
X77569975Y-58500000D02*
X76374000Y-58500000D01*
X76200000Y-58674000D02*
X76200000Y-61976000D01*
D46*
%TO.N,Net-(U4-c_1)*%
X96725000Y-46975000D02*
X96725000Y-46050000D01*
X96840000Y-48800000D02*
X96840000Y-47090000D01*
X96725000Y-46050000D02*
X96700000Y-46025000D01*
X96840000Y-47090000D02*
X96725000Y-46975000D01*
D44*
%TO.N,/Microcontroller/display_C1*%
X96704299Y-44370701D02*
X96700000Y-44375000D01*
X74354000Y-52900000D02*
X76562500Y-52900000D01*
X96704299Y-43405704D02*
X96704299Y-44370701D01*
X74168000Y-53086000D02*
X74354000Y-52900000D01*
X72136000Y-53086000D02*
X74168000Y-53086000D01*
D46*
%TO.N,Net-(U4-d_1)*%
X93960000Y-48800000D02*
X93960000Y-46065000D01*
X93960000Y-46065000D02*
X94000000Y-46025000D01*
D44*
%TO.N,/Microcontroller/display_D1*%
X93980000Y-43434000D02*
X93980000Y-44355000D01*
X93980000Y-44355000D02*
X94000000Y-44375000D01*
X72644000Y-53594000D02*
X74364314Y-53594000D01*
X74364314Y-53594000D02*
X74658314Y-53300000D01*
X74658314Y-53300000D02*
X76562500Y-53300000D01*
D46*
%TO.N,Net-(U4-e_1)*%
X92520000Y-48800000D02*
X92520000Y-46145000D01*
X92520000Y-46145000D02*
X92400000Y-46025000D01*
D44*
%TO.N,/Microcontroller/display_E1*%
X76562500Y-54500000D02*
X77326000Y-54500000D01*
X92378099Y-43582208D02*
X92378099Y-44353099D01*
X77326000Y-54500000D02*
X77470000Y-54356000D01*
X92378099Y-44353099D02*
X92400000Y-44375000D01*
D46*
%TO.N,Net-(U4-f_1)*%
X93960000Y-61435000D02*
X93960000Y-58800000D01*
X94000000Y-61475000D02*
X93960000Y-61435000D01*
D44*
%TO.N,/Microcontroller/display_F1*%
X71882000Y-54864000D02*
X72221000Y-54525000D01*
X75442462Y-54900000D02*
X76562500Y-54900000D01*
X72221000Y-54525000D02*
X75067462Y-54525000D01*
X93980000Y-69088000D02*
X93980000Y-63145000D01*
X75067462Y-54525000D02*
X75442462Y-54900000D01*
X71882000Y-61976000D02*
X71882000Y-54864000D01*
X93980000Y-63145000D02*
X94000000Y-63125000D01*
D46*
%TO.N,Net-(U4-g_1)*%
X92400000Y-61475000D02*
X92520000Y-61355000D01*
X92520000Y-61355000D02*
X92520000Y-58800000D01*
D44*
%TO.N,/Microcontroller/display_G1*%
X73152000Y-56642000D02*
X74704752Y-56642000D01*
X75646752Y-55700000D02*
X76562500Y-55700000D01*
X74704752Y-56642000D02*
X75646752Y-55700000D01*
X92398801Y-68580000D02*
X92400000Y-68578801D01*
X92400000Y-68578801D02*
X92400000Y-63125000D01*
X72898000Y-61976000D02*
X72898000Y-56896000D01*
X72898000Y-56896000D02*
X73152000Y-56642000D01*
D46*
%TO.N,Net-(U4-DP1)*%
X98280000Y-46045000D02*
X98300000Y-46025000D01*
X98280000Y-48800000D02*
X98280000Y-46045000D01*
D44*
%TO.N,/Microcontroller/display_DP1*%
X88392000Y-56896000D02*
X87884000Y-56896000D01*
X77182000Y-56100000D02*
X76562500Y-56100000D01*
X98300000Y-44375000D02*
X98300000Y-43436000D01*
X89408000Y-55880000D02*
X88392000Y-56896000D01*
X78399000Y-56475000D02*
X77557000Y-56475000D01*
X77557000Y-56475000D02*
X77182000Y-56100000D01*
X98300000Y-43436000D02*
X98298000Y-43434000D01*
%TO.N,/Microcontroller/QSPI_SD1*%
X76965686Y-49400000D02*
X77800000Y-50234314D01*
X73760000Y-47200000D02*
X73760000Y-49060000D01*
X77800000Y-50234314D02*
X77800000Y-50862500D01*
X73760000Y-49060000D02*
X74100000Y-49400000D01*
X74100000Y-49400000D02*
X76965686Y-49400000D01*
%TO.N,/Microcontroller/QSPI_SCLK*%
X75000000Y-41770000D02*
X75030000Y-41800000D01*
X75000000Y-40800000D02*
X75000000Y-41770000D01*
X78940540Y-49649500D02*
X79000000Y-49708960D01*
X79000000Y-49708960D02*
X79000000Y-50862500D01*
%TO.N,/Microcontroller/QSPI_SD0*%
X76598000Y-41800000D02*
X76300000Y-41800000D01*
X76962000Y-48264942D02*
X76962000Y-42164000D01*
X78600000Y-50862500D02*
X78600000Y-49902942D01*
X76962000Y-42164000D02*
X76598000Y-41800000D01*
X78600000Y-49902942D02*
X76962000Y-48264942D01*
%TO.N,/Microcontroller/QSPI_SD3*%
X79424500Y-49829654D02*
X79400000Y-49854154D01*
X79400000Y-49854154D02*
X79400000Y-50862500D01*
X73800000Y-41760000D02*
X73760000Y-41800000D01*
X73800000Y-40894000D02*
X73800000Y-41760000D01*
X73800000Y-40800000D02*
X73800000Y-40894000D01*
%TO.N,/Microcontroller/QSPI_SD2*%
X78200000Y-50068628D02*
X78200000Y-50862500D01*
X75030000Y-47200000D02*
X75030000Y-48730000D01*
X75030000Y-48730000D02*
X75300000Y-49000000D01*
X77131372Y-49000000D02*
X78200000Y-50068628D01*
X75300000Y-49000000D02*
X77131372Y-49000000D01*
%TO.N,/Microcontroller/LED*%
X83437500Y-53700000D02*
X82619925Y-53700000D01*
X88035000Y-51205000D02*
X89803500Y-49436500D01*
X83879117Y-51205000D02*
X88035000Y-51205000D01*
X89803500Y-49436500D02*
X89803500Y-46990000D01*
X82619925Y-53700000D02*
X82618444Y-53701481D01*
%TD*%
%TA.AperFunction,Conductor*%
%TO.N,/USBC and Power/+5V_FB*%
G36*
X67666632Y-52413368D02*
G01*
X67670000Y-52421500D01*
X67670000Y-55614500D01*
X67666632Y-55622632D01*
X67658500Y-55626000D01*
X61421500Y-55626000D01*
X61413368Y-55622632D01*
X61410000Y-55614500D01*
X61410000Y-55233932D01*
X61528947Y-55233932D01*
X61528986Y-55234613D01*
X61531756Y-55258493D01*
X61532206Y-55260148D01*
X61576728Y-55360983D01*
X61577910Y-55362709D01*
X61655716Y-55440515D01*
X61657442Y-55441697D01*
X61758277Y-55486219D01*
X61759933Y-55486670D01*
X61777328Y-55488688D01*
X61778591Y-55488477D01*
X61778946Y-55487250D01*
X61778946Y-55487249D01*
X62278946Y-55487249D01*
X62279300Y-55488476D01*
X62280563Y-55488687D01*
X62297959Y-55486669D01*
X62299614Y-55486219D01*
X62400449Y-55441697D01*
X62402175Y-55440515D01*
X62479981Y-55362709D01*
X62481163Y-55360983D01*
X62525685Y-55260148D01*
X62526136Y-55258492D01*
X62528906Y-55234614D01*
X62528946Y-55233933D01*
X62528946Y-55172080D01*
X63618948Y-55172080D01*
X63618997Y-55172836D01*
X63625063Y-55218918D01*
X63625549Y-55220588D01*
X63673191Y-55322756D01*
X63674323Y-55324373D01*
X63753950Y-55404000D01*
X63755567Y-55405132D01*
X63857735Y-55452774D01*
X63859405Y-55453260D01*
X63905486Y-55459327D01*
X63906243Y-55459377D01*
X63941660Y-55459377D01*
X63943277Y-55458707D01*
X63943947Y-55457090D01*
X63943947Y-55457089D01*
X64443947Y-55457089D01*
X64444616Y-55458706D01*
X64446234Y-55459376D01*
X64481650Y-55459376D01*
X64482406Y-55459326D01*
X64528488Y-55453260D01*
X64530158Y-55452774D01*
X64632326Y-55405132D01*
X64633943Y-55404000D01*
X64713570Y-55324373D01*
X64714702Y-55322756D01*
X64762344Y-55220588D01*
X64762830Y-55218918D01*
X64768897Y-55172837D01*
X64768947Y-55172081D01*
X64768947Y-55169299D01*
X65908967Y-55169299D01*
X65909016Y-55170055D01*
X65915082Y-55216137D01*
X65915568Y-55217807D01*
X65963210Y-55319975D01*
X65964342Y-55321592D01*
X66043969Y-55401219D01*
X66045586Y-55402351D01*
X66147754Y-55449993D01*
X66149424Y-55450479D01*
X66195505Y-55456546D01*
X66196262Y-55456596D01*
X66231679Y-55456596D01*
X66233296Y-55455926D01*
X66233966Y-55454309D01*
X66233966Y-55454308D01*
X66733966Y-55454308D01*
X66734635Y-55455925D01*
X66736253Y-55456595D01*
X66771669Y-55456595D01*
X66772425Y-55456545D01*
X66818507Y-55450479D01*
X66820177Y-55449993D01*
X66922345Y-55402351D01*
X66923962Y-55401219D01*
X67003589Y-55321592D01*
X67004721Y-55319975D01*
X67052363Y-55217807D01*
X67052849Y-55216137D01*
X67058916Y-55170056D01*
X67058966Y-55169300D01*
X67058966Y-55158883D01*
X67058296Y-55157265D01*
X67056679Y-55156596D01*
X66736253Y-55156596D01*
X66734635Y-55157265D01*
X66733966Y-55158883D01*
X66733966Y-55454308D01*
X66233966Y-55454308D01*
X66233966Y-55158883D01*
X66233296Y-55157265D01*
X66231679Y-55156596D01*
X65911254Y-55156596D01*
X65909636Y-55157265D01*
X65908967Y-55158883D01*
X65908967Y-55169299D01*
X64768947Y-55169299D01*
X64768947Y-55161664D01*
X64768277Y-55160046D01*
X64766660Y-55159377D01*
X64446234Y-55159377D01*
X64444616Y-55160046D01*
X64443947Y-55161664D01*
X64443947Y-55457089D01*
X63943947Y-55457089D01*
X63943947Y-55161664D01*
X63943277Y-55160046D01*
X63941660Y-55159377D01*
X63621235Y-55159377D01*
X63619617Y-55160046D01*
X63618948Y-55161664D01*
X63618948Y-55172080D01*
X62528946Y-55172080D01*
X62528946Y-55166767D01*
X62528276Y-55165149D01*
X62526659Y-55164480D01*
X62281233Y-55164480D01*
X62279615Y-55165149D01*
X62278946Y-55166767D01*
X62278946Y-55487249D01*
X61778946Y-55487249D01*
X61778946Y-55166767D01*
X61778276Y-55165149D01*
X61776659Y-55164480D01*
X61531234Y-55164480D01*
X61529616Y-55165149D01*
X61528947Y-55166767D01*
X61528947Y-55233932D01*
X61410000Y-55233932D01*
X61410000Y-54662193D01*
X61528946Y-54662193D01*
X61529615Y-54663810D01*
X61531233Y-54664480D01*
X61776659Y-54664480D01*
X61778276Y-54663810D01*
X61778946Y-54662193D01*
X62278946Y-54662193D01*
X62279615Y-54663810D01*
X62281233Y-54664480D01*
X62526658Y-54664480D01*
X62528275Y-54663810D01*
X62528945Y-54662193D01*
X62528945Y-54657090D01*
X63618947Y-54657090D01*
X63619616Y-54658707D01*
X63621234Y-54659377D01*
X63941660Y-54659377D01*
X63943277Y-54658707D01*
X63943947Y-54657090D01*
X64443947Y-54657090D01*
X64444616Y-54658707D01*
X64446234Y-54659377D01*
X64766659Y-54659377D01*
X64768276Y-54658707D01*
X64768946Y-54657090D01*
X64768946Y-54654309D01*
X65908966Y-54654309D01*
X65909635Y-54655926D01*
X65911253Y-54656596D01*
X66231679Y-54656596D01*
X66233296Y-54655926D01*
X66233966Y-54654309D01*
X66733966Y-54654309D01*
X66734635Y-54655926D01*
X66736253Y-54656596D01*
X67056678Y-54656596D01*
X67058295Y-54655926D01*
X67058965Y-54654309D01*
X67058965Y-54643893D01*
X67058915Y-54643136D01*
X67052849Y-54597054D01*
X67052363Y-54595384D01*
X67004721Y-54493216D01*
X67003589Y-54491599D01*
X66923962Y-54411972D01*
X66922345Y-54410840D01*
X66820177Y-54363198D01*
X66818507Y-54362712D01*
X66772426Y-54356645D01*
X66771670Y-54356596D01*
X66736253Y-54356596D01*
X66734635Y-54357265D01*
X66733966Y-54358883D01*
X66733966Y-54654309D01*
X66233966Y-54654309D01*
X66233966Y-54358884D01*
X66233296Y-54357266D01*
X66231679Y-54356597D01*
X66196263Y-54356597D01*
X66195506Y-54356646D01*
X66149424Y-54362712D01*
X66147754Y-54363198D01*
X66045586Y-54410840D01*
X66043969Y-54411972D01*
X65964342Y-54491599D01*
X65963210Y-54493216D01*
X65915568Y-54595384D01*
X65915082Y-54597054D01*
X65909015Y-54643135D01*
X65908966Y-54643892D01*
X65908966Y-54654309D01*
X64768946Y-54654309D01*
X64768946Y-54646674D01*
X64768896Y-54645917D01*
X64762830Y-54599835D01*
X64762344Y-54598165D01*
X64714702Y-54495997D01*
X64713570Y-54494380D01*
X64633943Y-54414753D01*
X64632326Y-54413621D01*
X64530158Y-54365979D01*
X64528488Y-54365493D01*
X64482407Y-54359426D01*
X64481651Y-54359377D01*
X64446234Y-54359377D01*
X64444616Y-54360046D01*
X64443947Y-54361664D01*
X64443947Y-54657090D01*
X63943947Y-54657090D01*
X63943947Y-54361665D01*
X63943277Y-54360047D01*
X63941660Y-54359378D01*
X63906244Y-54359378D01*
X63905487Y-54359427D01*
X63859405Y-54365493D01*
X63857735Y-54365979D01*
X63755567Y-54413621D01*
X63753950Y-54414753D01*
X63674323Y-54494380D01*
X63673191Y-54495997D01*
X63625549Y-54598165D01*
X63625063Y-54599835D01*
X63618996Y-54645916D01*
X63618947Y-54646673D01*
X63618947Y-54657090D01*
X62528945Y-54657090D01*
X62528945Y-54595028D01*
X62528905Y-54594346D01*
X62526135Y-54570466D01*
X62525685Y-54568811D01*
X62481163Y-54467976D01*
X62479981Y-54466250D01*
X62402175Y-54388444D01*
X62400449Y-54387262D01*
X62299614Y-54342740D01*
X62297958Y-54342289D01*
X62280563Y-54340271D01*
X62279300Y-54340482D01*
X62278946Y-54341710D01*
X62278946Y-54662193D01*
X61778946Y-54662193D01*
X61778946Y-54341711D01*
X61778591Y-54340483D01*
X61777328Y-54340272D01*
X61759932Y-54342290D01*
X61758277Y-54342740D01*
X61657442Y-54387262D01*
X61655716Y-54388444D01*
X61577910Y-54466250D01*
X61576728Y-54467976D01*
X61532206Y-54568811D01*
X61531755Y-54570467D01*
X61528985Y-54594345D01*
X61528946Y-54595027D01*
X61528946Y-54662193D01*
X61410000Y-54662193D01*
X61410000Y-54177529D01*
X61411546Y-54171771D01*
X61415767Y-54167560D01*
X61421528Y-54166029D01*
X65360000Y-54176000D01*
X65360000Y-53184818D01*
X65362979Y-53177095D01*
X65370373Y-53173373D01*
X65378351Y-53175581D01*
X65382779Y-53182575D01*
X65387538Y-53206510D01*
X65388389Y-53208563D01*
X65409231Y-53239756D01*
X65410805Y-53241330D01*
X65441996Y-53262171D01*
X65444052Y-53263023D01*
X65471551Y-53268493D01*
X65472678Y-53268604D01*
X66229671Y-53268604D01*
X66231288Y-53267934D01*
X66231958Y-53266317D01*
X66231958Y-53266316D01*
X66731958Y-53266316D01*
X66732627Y-53267933D01*
X66734245Y-53268603D01*
X67491236Y-53268603D01*
X67492365Y-53268491D01*
X67519864Y-53263023D01*
X67521917Y-53262172D01*
X67553110Y-53241330D01*
X67554684Y-53239756D01*
X67575525Y-53208565D01*
X67576377Y-53206509D01*
X67581847Y-53179010D01*
X67581958Y-53177884D01*
X67581958Y-53095891D01*
X67581288Y-53094273D01*
X67579671Y-53093604D01*
X66734245Y-53093604D01*
X66732627Y-53094273D01*
X66731958Y-53095891D01*
X66731958Y-53266316D01*
X66231958Y-53266316D01*
X66231958Y-52605104D01*
X66235326Y-52596972D01*
X66243458Y-52593604D01*
X67579670Y-52593604D01*
X67581287Y-52592934D01*
X67581957Y-52591317D01*
X67581957Y-52509326D01*
X67581845Y-52508196D01*
X67576377Y-52480697D01*
X67575526Y-52478644D01*
X67554684Y-52447451D01*
X67553110Y-52445877D01*
X67533525Y-52432791D01*
X67529289Y-52427630D01*
X67528635Y-52420985D01*
X67531783Y-52415097D01*
X67537670Y-52411950D01*
X67540485Y-52411390D01*
X67546365Y-52410221D01*
X67548608Y-52410000D01*
X67658500Y-52410000D01*
X67666632Y-52413368D01*
G37*
%TD.AperFunction*%
%TD*%
%TA.AperFunction,Conductor*%
%TO.N,/USBC and Power/VBUS*%
G36*
X61166632Y-54189368D02*
G01*
X61170000Y-54197500D01*
X61170000Y-55518500D01*
X61166632Y-55526632D01*
X61158500Y-55530000D01*
X57561799Y-55530000D01*
X57558286Y-55529450D01*
X57092551Y-55380027D01*
X57092508Y-55379994D01*
X57092503Y-55380012D01*
X56110860Y-55060280D01*
X56110859Y-55060279D01*
X56110000Y-55060000D01*
X56109093Y-55060000D01*
X55938256Y-55060000D01*
X55936539Y-55059871D01*
X55919756Y-55057336D01*
X55919735Y-55057333D01*
X55919539Y-55057304D01*
X55919349Y-55057289D01*
X55919325Y-55057287D01*
X55889063Y-55055015D01*
X55889049Y-55055014D01*
X55888856Y-55055000D01*
X54937829Y-55055000D01*
X54937492Y-55055040D01*
X54937485Y-55055041D01*
X54901194Y-55059417D01*
X54899817Y-55059500D01*
X54801693Y-55059500D01*
X54795304Y-55057562D01*
X54791068Y-55052401D01*
X54752984Y-54960458D01*
X54752698Y-54959767D01*
X54682376Y-54868122D01*
X54680000Y-54861121D01*
X54680000Y-54464517D01*
X54681938Y-54458128D01*
X54687099Y-54453892D01*
X54693743Y-54453238D01*
X54730252Y-54460500D01*
X55919179Y-54460500D01*
X55919748Y-54460500D01*
X55978231Y-54448867D01*
X56044552Y-54404552D01*
X56088867Y-54338231D01*
X56100500Y-54279748D01*
X56100500Y-54202123D01*
X56102047Y-54196362D01*
X56106271Y-54192151D01*
X56112035Y-54190623D01*
X56165846Y-54190797D01*
X56166312Y-54189970D01*
X56169411Y-54187877D01*
X56173842Y-54186985D01*
X57150000Y-54186342D01*
X57150000Y-54610000D01*
X57658000Y-54610000D01*
X57658070Y-54186007D01*
X57670000Y-54186000D01*
X61158500Y-54186000D01*
X61166632Y-54189368D01*
G37*
%TD.AperFunction*%
%TD*%
%TA.AperFunction,Conductor*%
%TO.N,+3V3*%
G36*
X59686632Y-43183368D02*
G01*
X59690000Y-43191500D01*
X59690000Y-46482000D01*
X62218500Y-46482000D01*
X62226632Y-46485368D01*
X62230000Y-46493500D01*
X62230000Y-49525236D01*
X62226632Y-49533368D01*
X61469617Y-50290382D01*
X61469616Y-50290383D01*
X61468000Y-50292000D01*
X61468000Y-50294287D01*
X61468000Y-51550500D01*
X61464632Y-51558632D01*
X61456500Y-51562000D01*
X57875511Y-51562000D01*
X57869760Y-51560459D01*
X57865551Y-51556249D01*
X57864011Y-51550498D01*
X57864101Y-51008191D01*
X58066385Y-51008191D01*
X58066434Y-51008947D01*
X58072500Y-51055029D01*
X58072986Y-51056699D01*
X58120628Y-51158867D01*
X58121760Y-51160484D01*
X58201387Y-51240111D01*
X58203004Y-51241243D01*
X58305172Y-51288885D01*
X58306842Y-51289371D01*
X58352923Y-51295438D01*
X58353680Y-51295488D01*
X58389097Y-51295488D01*
X58390714Y-51294818D01*
X58391384Y-51293201D01*
X58391384Y-51293200D01*
X58891384Y-51293200D01*
X58892053Y-51294817D01*
X58893671Y-51295487D01*
X58929087Y-51295487D01*
X58929843Y-51295437D01*
X58975925Y-51289371D01*
X58977595Y-51288885D01*
X59079763Y-51241243D01*
X59081380Y-51240111D01*
X59161007Y-51160484D01*
X59162139Y-51158867D01*
X59209781Y-51056699D01*
X59210267Y-51055029D01*
X59216124Y-51010544D01*
X59790929Y-51010544D01*
X59790978Y-51011300D01*
X59796925Y-51056477D01*
X59797411Y-51058147D01*
X59844122Y-51158318D01*
X59845254Y-51159935D01*
X59923321Y-51238002D01*
X59924938Y-51239134D01*
X60025109Y-51285845D01*
X60026779Y-51286331D01*
X60071955Y-51292279D01*
X60072712Y-51292329D01*
X60238641Y-51292329D01*
X60240258Y-51291659D01*
X60240928Y-51290042D01*
X60240928Y-51290041D01*
X60740928Y-51290041D01*
X60741597Y-51291658D01*
X60743215Y-51292328D01*
X60909143Y-51292328D01*
X60909899Y-51292278D01*
X60955076Y-51286331D01*
X60956746Y-51285845D01*
X61056917Y-51239134D01*
X61058534Y-51238002D01*
X61136601Y-51159935D01*
X61137733Y-51158318D01*
X61184444Y-51058147D01*
X61184930Y-51056477D01*
X61190878Y-51011301D01*
X61190928Y-51010545D01*
X61190928Y-51007116D01*
X61190258Y-51005498D01*
X61188641Y-51004829D01*
X60743215Y-51004829D01*
X60741597Y-51005498D01*
X60740928Y-51007116D01*
X60740928Y-51290041D01*
X60240928Y-51290041D01*
X60240928Y-51007116D01*
X60240258Y-51005498D01*
X60238641Y-51004829D01*
X59793216Y-51004829D01*
X59791598Y-51005498D01*
X59790929Y-51007116D01*
X59790929Y-51010544D01*
X59216124Y-51010544D01*
X59216334Y-51008948D01*
X59216384Y-51008192D01*
X59216384Y-50997775D01*
X59215714Y-50996157D01*
X59214097Y-50995488D01*
X58893671Y-50995488D01*
X58892053Y-50996157D01*
X58891384Y-50997775D01*
X58891384Y-51293200D01*
X58391384Y-51293200D01*
X58391384Y-50997775D01*
X58390714Y-50996157D01*
X58389097Y-50995488D01*
X58068672Y-50995488D01*
X58067054Y-50996157D01*
X58066385Y-50997775D01*
X58066385Y-51008191D01*
X57864101Y-51008191D01*
X57864185Y-50502542D01*
X59790928Y-50502542D01*
X59791597Y-50504159D01*
X59793215Y-50504829D01*
X60238641Y-50504829D01*
X60240258Y-50504159D01*
X60240928Y-50502542D01*
X60740928Y-50502542D01*
X60741597Y-50504159D01*
X60743215Y-50504829D01*
X61188640Y-50504829D01*
X61190257Y-50504159D01*
X61190927Y-50502542D01*
X61190927Y-50499114D01*
X61190877Y-50498357D01*
X61184930Y-50453180D01*
X61184444Y-50451510D01*
X61137733Y-50351339D01*
X61136601Y-50349722D01*
X61058534Y-50271655D01*
X61056917Y-50270523D01*
X60956746Y-50223812D01*
X60955076Y-50223326D01*
X60909900Y-50217378D01*
X60909144Y-50217329D01*
X60743215Y-50217329D01*
X60741597Y-50217998D01*
X60740928Y-50219616D01*
X60740928Y-50502542D01*
X60240928Y-50502542D01*
X60240928Y-50219617D01*
X60240258Y-50217999D01*
X60238641Y-50217330D01*
X60072713Y-50217330D01*
X60071956Y-50217379D01*
X60026779Y-50223326D01*
X60025109Y-50223812D01*
X59924938Y-50270523D01*
X59923321Y-50271655D01*
X59845254Y-50349722D01*
X59844122Y-50351339D01*
X59797411Y-50451510D01*
X59796925Y-50453180D01*
X59790977Y-50498356D01*
X59790928Y-50499113D01*
X59790928Y-50502542D01*
X57864185Y-50502542D01*
X57864186Y-50497500D01*
X57864187Y-50493201D01*
X58066384Y-50493201D01*
X58067053Y-50494818D01*
X58068671Y-50495488D01*
X58389097Y-50495488D01*
X58390714Y-50494818D01*
X58391384Y-50493201D01*
X58891384Y-50493201D01*
X58892053Y-50494818D01*
X58893671Y-50495488D01*
X59214096Y-50495488D01*
X59215713Y-50494818D01*
X59216383Y-50493201D01*
X59216383Y-50482785D01*
X59216333Y-50482028D01*
X59210267Y-50435946D01*
X59209781Y-50434276D01*
X59162139Y-50332108D01*
X59161007Y-50330491D01*
X59081380Y-50250864D01*
X59079763Y-50249732D01*
X58977595Y-50202090D01*
X58975925Y-50201604D01*
X58929844Y-50195537D01*
X58929088Y-50195488D01*
X58893671Y-50195488D01*
X58892053Y-50196157D01*
X58891384Y-50197775D01*
X58891384Y-50493201D01*
X58391384Y-50493201D01*
X58391384Y-50197776D01*
X58390714Y-50196158D01*
X58389097Y-50195489D01*
X58353681Y-50195489D01*
X58352924Y-50195538D01*
X58306842Y-50201604D01*
X58305172Y-50202090D01*
X58203004Y-50249732D01*
X58201387Y-50250864D01*
X58121760Y-50330491D01*
X58120628Y-50332108D01*
X58072986Y-50434276D01*
X58072500Y-50435946D01*
X58066433Y-50482027D01*
X58066384Y-50482784D01*
X58066384Y-50493201D01*
X57864187Y-50493201D01*
X57864330Y-49635923D01*
X57857336Y-49582733D01*
X57855796Y-49576982D01*
X57835272Y-49527413D01*
X57802618Y-49484845D01*
X57798409Y-49480635D01*
X57795601Y-49478480D01*
X57756437Y-49448422D01*
X57756433Y-49448420D01*
X57755842Y-49447966D01*
X57755146Y-49447677D01*
X57755145Y-49447677D01*
X57706620Y-49427575D01*
X57706614Y-49427573D01*
X57706269Y-49427430D01*
X57705915Y-49427335D01*
X57705903Y-49427331D01*
X57700880Y-49425986D01*
X57700518Y-49425889D01*
X57700158Y-49425841D01*
X57700150Y-49425840D01*
X57667999Y-49421608D01*
X57660854Y-49417789D01*
X57658000Y-49410206D01*
X57658000Y-49332803D01*
X60450001Y-49332803D01*
X60450060Y-49333628D01*
X60459783Y-49400364D01*
X60460305Y-49402053D01*
X60510795Y-49505333D01*
X60511886Y-49506861D01*
X60593138Y-49588113D01*
X60594666Y-49589204D01*
X60697946Y-49639694D01*
X60699635Y-49640216D01*
X60766370Y-49649940D01*
X60767197Y-49650000D01*
X60872713Y-49650000D01*
X60874330Y-49649330D01*
X60875000Y-49647713D01*
X60875000Y-49647712D01*
X61375000Y-49647712D01*
X61375669Y-49649329D01*
X61377287Y-49649999D01*
X61482802Y-49649999D01*
X61483628Y-49649939D01*
X61550364Y-49640216D01*
X61552053Y-49639694D01*
X61655333Y-49589204D01*
X61656861Y-49588113D01*
X61738113Y-49506861D01*
X61739204Y-49505333D01*
X61789694Y-49402053D01*
X61790216Y-49400364D01*
X61799940Y-49333629D01*
X61800000Y-49332804D01*
X61800000Y-48452287D01*
X61799330Y-48450669D01*
X61797713Y-48450000D01*
X61377287Y-48450000D01*
X61375669Y-48450669D01*
X61375000Y-48452287D01*
X61375000Y-49647712D01*
X60875000Y-49647712D01*
X60875000Y-48452287D01*
X60874330Y-48450669D01*
X60872713Y-48450000D01*
X60452288Y-48450000D01*
X60450670Y-48450669D01*
X60450001Y-48452287D01*
X60450001Y-49332803D01*
X57658000Y-49332803D01*
X57658000Y-47947713D01*
X60450000Y-47947713D01*
X60450669Y-47949330D01*
X60452287Y-47950000D01*
X60872713Y-47950000D01*
X60874330Y-47949330D01*
X60875000Y-47947713D01*
X61375000Y-47947713D01*
X61375669Y-47949330D01*
X61377287Y-47950000D01*
X61797712Y-47950000D01*
X61799329Y-47949330D01*
X61799999Y-47947713D01*
X61799999Y-47067198D01*
X61799939Y-47066371D01*
X61790216Y-46999635D01*
X61789694Y-46997946D01*
X61739204Y-46894666D01*
X61738113Y-46893138D01*
X61656861Y-46811886D01*
X61655333Y-46810795D01*
X61552053Y-46760305D01*
X61550364Y-46759783D01*
X61483629Y-46750059D01*
X61482803Y-46750000D01*
X61377287Y-46750000D01*
X61375669Y-46750669D01*
X61375000Y-46752287D01*
X61375000Y-47947713D01*
X60875000Y-47947713D01*
X60875000Y-46752288D01*
X60874330Y-46750670D01*
X60872713Y-46750001D01*
X60767198Y-46750001D01*
X60766371Y-46750060D01*
X60699635Y-46759783D01*
X60697946Y-46760305D01*
X60594666Y-46810795D01*
X60593138Y-46811886D01*
X60511886Y-46893138D01*
X60510795Y-46894666D01*
X60460305Y-46997946D01*
X60459783Y-46999635D01*
X60450059Y-47066370D01*
X60450000Y-47067197D01*
X60450000Y-47947713D01*
X57658000Y-47947713D01*
X57658000Y-45985557D01*
X58475138Y-45985557D01*
X58475177Y-45986238D01*
X58477947Y-46010118D01*
X58478397Y-46011773D01*
X58522919Y-46112608D01*
X58524101Y-46114334D01*
X58601907Y-46192140D01*
X58603633Y-46193322D01*
X58704468Y-46237844D01*
X58706124Y-46238295D01*
X58723519Y-46240313D01*
X58724782Y-46240102D01*
X58725137Y-46238875D01*
X58725137Y-46238874D01*
X59225137Y-46238874D01*
X59225491Y-46240101D01*
X59226754Y-46240312D01*
X59244150Y-46238294D01*
X59245805Y-46237844D01*
X59346640Y-46193322D01*
X59348366Y-46192140D01*
X59426172Y-46114334D01*
X59427354Y-46112608D01*
X59471876Y-46011773D01*
X59472327Y-46010117D01*
X59475097Y-45986239D01*
X59475137Y-45985558D01*
X59475137Y-45918392D01*
X59474467Y-45916774D01*
X59472850Y-45916105D01*
X59227424Y-45916105D01*
X59225806Y-45916774D01*
X59225137Y-45918392D01*
X59225137Y-46238874D01*
X58725137Y-46238874D01*
X58725137Y-45918392D01*
X58724467Y-45916774D01*
X58722850Y-45916105D01*
X58477425Y-45916105D01*
X58475807Y-45916774D01*
X58475138Y-45918392D01*
X58475138Y-45985557D01*
X57658000Y-45985557D01*
X57658000Y-45413818D01*
X58475137Y-45413818D01*
X58475806Y-45415435D01*
X58477424Y-45416105D01*
X58722850Y-45416105D01*
X58724467Y-45415435D01*
X58725137Y-45413818D01*
X59225137Y-45413818D01*
X59225806Y-45415435D01*
X59227424Y-45416105D01*
X59472849Y-45416105D01*
X59474466Y-45415435D01*
X59475136Y-45413818D01*
X59475136Y-45346653D01*
X59475096Y-45345971D01*
X59472326Y-45322091D01*
X59471876Y-45320436D01*
X59427354Y-45219601D01*
X59426172Y-45217875D01*
X59348366Y-45140069D01*
X59346640Y-45138887D01*
X59245805Y-45094365D01*
X59244149Y-45093914D01*
X59226754Y-45091896D01*
X59225491Y-45092107D01*
X59225137Y-45093335D01*
X59225137Y-45413818D01*
X58725137Y-45413818D01*
X58725137Y-45093336D01*
X58724782Y-45092108D01*
X58723519Y-45091897D01*
X58706123Y-45093915D01*
X58704468Y-45094365D01*
X58603633Y-45138887D01*
X58601907Y-45140069D01*
X58524101Y-45217875D01*
X58522919Y-45219601D01*
X58478397Y-45320436D01*
X58477946Y-45322092D01*
X58475176Y-45345970D01*
X58475137Y-45346652D01*
X58475137Y-45413818D01*
X57658000Y-45413818D01*
X57658000Y-44307706D01*
X58471921Y-44307706D01*
X58471970Y-44308462D01*
X58478036Y-44354544D01*
X58478522Y-44356214D01*
X58526164Y-44458382D01*
X58527296Y-44459999D01*
X58606923Y-44539626D01*
X58608540Y-44540758D01*
X58710708Y-44588400D01*
X58712378Y-44588886D01*
X58758459Y-44594953D01*
X58759216Y-44595003D01*
X58769633Y-44595003D01*
X58771250Y-44594333D01*
X58771920Y-44592716D01*
X58771920Y-44592715D01*
X59271920Y-44592715D01*
X59272589Y-44594332D01*
X59274207Y-44595002D01*
X59284623Y-44595002D01*
X59285379Y-44594952D01*
X59331461Y-44588886D01*
X59333131Y-44588400D01*
X59435299Y-44540758D01*
X59436916Y-44539626D01*
X59516543Y-44459999D01*
X59517675Y-44458382D01*
X59565317Y-44356214D01*
X59565803Y-44354544D01*
X59571870Y-44308463D01*
X59571920Y-44307707D01*
X59571920Y-44272290D01*
X59571250Y-44270672D01*
X59569633Y-44270003D01*
X59274207Y-44270003D01*
X59272589Y-44270672D01*
X59271920Y-44272290D01*
X59271920Y-44592715D01*
X58771920Y-44592715D01*
X58771920Y-44272290D01*
X58771250Y-44270672D01*
X58769633Y-44270003D01*
X58474208Y-44270003D01*
X58472590Y-44270672D01*
X58471921Y-44272290D01*
X58471921Y-44307706D01*
X57658000Y-44307706D01*
X57658000Y-43767716D01*
X58471920Y-43767716D01*
X58472589Y-43769333D01*
X58474207Y-43770003D01*
X58769633Y-43770003D01*
X58771250Y-43769333D01*
X58771920Y-43767716D01*
X59271920Y-43767716D01*
X59272589Y-43769333D01*
X59274207Y-43770003D01*
X59569632Y-43770003D01*
X59571249Y-43769333D01*
X59571919Y-43767716D01*
X59571919Y-43732300D01*
X59571869Y-43731543D01*
X59565803Y-43685461D01*
X59565317Y-43683791D01*
X59517675Y-43581623D01*
X59516543Y-43580006D01*
X59436916Y-43500379D01*
X59435299Y-43499247D01*
X59333131Y-43451605D01*
X59331461Y-43451119D01*
X59285380Y-43445052D01*
X59284624Y-43445003D01*
X59274207Y-43445003D01*
X59272589Y-43445672D01*
X59271920Y-43447290D01*
X59271920Y-43767716D01*
X58771920Y-43767716D01*
X58771920Y-43447291D01*
X58771250Y-43445673D01*
X58769633Y-43445004D01*
X58759217Y-43445004D01*
X58758460Y-43445053D01*
X58712378Y-43451119D01*
X58710708Y-43451605D01*
X58608540Y-43499247D01*
X58606923Y-43500379D01*
X58527296Y-43580006D01*
X58526164Y-43581623D01*
X58478522Y-43683791D01*
X58478036Y-43685461D01*
X58471969Y-43731542D01*
X58471920Y-43732299D01*
X58471920Y-43767716D01*
X57658000Y-43767716D01*
X57658000Y-43191500D01*
X57661368Y-43183368D01*
X57669500Y-43180000D01*
X59678500Y-43180000D01*
X59686632Y-43183368D01*
G37*
%TD.AperFunction*%
%TD*%
%TA.AperFunction,Conductor*%
%TO.N,GND*%
G36*
X64962000Y-44466613D02*
G01*
X65007387Y-44512000D01*
X65024000Y-44574000D01*
X65024000Y-53470000D01*
X65007387Y-53532000D01*
X64962000Y-53577387D01*
X64900000Y-53594000D01*
X64186321Y-53594000D01*
X64121531Y-53575727D01*
X64075836Y-53526295D01*
X64062703Y-53460271D01*
X64086003Y-53397114D01*
X64134975Y-53358507D01*
X64140189Y-53357471D01*
X64206510Y-53313156D01*
X64250825Y-53246835D01*
X64262458Y-53188352D01*
X64262458Y-52498856D01*
X64250825Y-52440373D01*
X64206510Y-52374052D01*
X64196356Y-52367267D01*
X64191500Y-52362411D01*
X64160520Y-52310723D01*
X64157564Y-52250534D01*
X64160769Y-52234421D01*
X64161958Y-52222357D01*
X64161958Y-52159930D01*
X64158507Y-52147054D01*
X64145632Y-52143604D01*
X62935958Y-52143604D01*
X62873958Y-52126991D01*
X62828571Y-52081604D01*
X62811958Y-52019604D01*
X62811958Y-51767604D01*
X62828571Y-51705604D01*
X62873958Y-51660217D01*
X62935958Y-51643604D01*
X64145631Y-51643604D01*
X64158506Y-51640153D01*
X64161957Y-51627278D01*
X64161957Y-51564848D01*
X64160768Y-51552783D01*
X64157563Y-51536665D01*
X64160521Y-51476479D01*
X64191501Y-51424794D01*
X64196349Y-51419944D01*
X64206510Y-51413156D01*
X64250825Y-51346835D01*
X64258550Y-51308000D01*
X64259865Y-51308261D01*
X64259862Y-51308000D01*
X64262000Y-51308000D01*
X64262000Y-51291669D01*
X64262079Y-51291374D01*
X64262152Y-51289890D01*
X64262458Y-51288352D01*
X64262458Y-50598856D01*
X64262153Y-50597323D01*
X64262000Y-50594206D01*
X64262000Y-49784000D01*
X64262822Y-49784000D01*
X64261702Y-49749810D01*
X64284943Y-49698514D01*
X64328476Y-49662787D01*
X64383320Y-49649999D01*
X64428730Y-49649999D01*
X64437656Y-49649352D01*
X64491721Y-49641475D01*
X64509900Y-49635858D01*
X64596953Y-49593300D01*
X64613457Y-49581517D01*
X64681517Y-49513457D01*
X64693300Y-49496953D01*
X64735856Y-49409905D01*
X64741477Y-49391714D01*
X64749353Y-49337656D01*
X64750000Y-49328737D01*
X64750000Y-48466326D01*
X64746549Y-48453450D01*
X64733674Y-48450000D01*
X63416327Y-48450000D01*
X63403451Y-48453450D01*
X63400001Y-48466326D01*
X63400001Y-49328730D01*
X63400647Y-49337656D01*
X63408524Y-49391721D01*
X63414141Y-49409900D01*
X63456699Y-49496953D01*
X63468482Y-49513457D01*
X63527344Y-49572319D01*
X63557594Y-49621682D01*
X63562136Y-49679398D01*
X63539981Y-49732885D01*
X63495958Y-49770485D01*
X63439663Y-49784000D01*
X63322762Y-49784000D01*
X63266467Y-49770485D01*
X63204238Y-49738778D01*
X63195542Y-49734347D01*
X63185903Y-49732820D01*
X63185899Y-49732819D01*
X63109996Y-49720798D01*
X63096602Y-49718676D01*
X63043115Y-49696522D01*
X63005515Y-49652499D01*
X62992000Y-49596204D01*
X62992000Y-47933674D01*
X63400000Y-47933674D01*
X63403450Y-47946549D01*
X63416326Y-47950000D01*
X63808674Y-47950000D01*
X63821549Y-47946549D01*
X63825000Y-47933674D01*
X64325000Y-47933674D01*
X64328450Y-47946549D01*
X64341326Y-47950000D01*
X64733673Y-47950000D01*
X64746548Y-47946549D01*
X64749999Y-47933674D01*
X64749999Y-47071270D01*
X64749352Y-47062343D01*
X64741475Y-47008278D01*
X64735858Y-46990099D01*
X64693300Y-46903046D01*
X64681517Y-46886542D01*
X64613457Y-46818482D01*
X64596953Y-46806699D01*
X64509905Y-46764143D01*
X64491714Y-46758522D01*
X64437656Y-46750646D01*
X64428737Y-46750000D01*
X64341326Y-46750000D01*
X64328450Y-46753450D01*
X64325000Y-46766326D01*
X64325000Y-47933674D01*
X63825000Y-47933674D01*
X63825000Y-46766327D01*
X63821549Y-46753451D01*
X63808674Y-46750001D01*
X63721270Y-46750001D01*
X63712343Y-46750647D01*
X63658278Y-46758524D01*
X63640099Y-46764141D01*
X63553046Y-46806699D01*
X63536542Y-46818482D01*
X63468482Y-46886542D01*
X63456699Y-46903046D01*
X63414143Y-46990094D01*
X63408522Y-47008285D01*
X63400646Y-47062343D01*
X63400000Y-47071263D01*
X63400000Y-47933674D01*
X62992000Y-47933674D01*
X62992000Y-45983187D01*
X63317001Y-45983187D01*
X63317413Y-45990322D01*
X63318835Y-46002579D01*
X63323677Y-46020380D01*
X63360572Y-46103940D01*
X63373338Y-46122576D01*
X63436396Y-46185634D01*
X63455032Y-46198400D01*
X63538598Y-46235298D01*
X63551996Y-46238943D01*
X63563175Y-46237075D01*
X63567000Y-46223828D01*
X64067000Y-46223828D01*
X64070824Y-46237074D01*
X64082001Y-46238942D01*
X64095407Y-46235295D01*
X64178967Y-46198400D01*
X64197603Y-46185634D01*
X64260661Y-46122576D01*
X64273427Y-46103940D01*
X64310325Y-46020374D01*
X64315164Y-46002588D01*
X64316588Y-45990313D01*
X64317000Y-45983192D01*
X64317000Y-45933299D01*
X64313549Y-45920423D01*
X64300674Y-45916973D01*
X64083326Y-45916973D01*
X64070450Y-45920423D01*
X64067000Y-45933299D01*
X64067000Y-46223828D01*
X63567000Y-46223828D01*
X63567000Y-45933299D01*
X63563549Y-45920423D01*
X63550674Y-45916973D01*
X63333327Y-45916973D01*
X63320451Y-45920423D01*
X63317001Y-45933299D01*
X63317001Y-45983187D01*
X62992000Y-45983187D01*
X62992000Y-45400647D01*
X63317000Y-45400647D01*
X63320450Y-45413522D01*
X63333326Y-45416973D01*
X63550674Y-45416973D01*
X63563549Y-45413522D01*
X63567000Y-45400647D01*
X64067000Y-45400647D01*
X64070450Y-45413522D01*
X64083326Y-45416973D01*
X64300673Y-45416973D01*
X64313548Y-45413522D01*
X64316999Y-45400647D01*
X64316999Y-45350759D01*
X64316586Y-45343623D01*
X64315164Y-45331366D01*
X64310322Y-45313565D01*
X64273427Y-45230005D01*
X64260661Y-45211369D01*
X64197603Y-45148311D01*
X64178967Y-45135545D01*
X64095401Y-45098647D01*
X64082003Y-45095002D01*
X64070824Y-45096870D01*
X64067000Y-45110118D01*
X64067000Y-45400647D01*
X63567000Y-45400647D01*
X63567000Y-45110118D01*
X63563175Y-45096871D01*
X63551998Y-45095003D01*
X63538592Y-45098650D01*
X63455032Y-45135545D01*
X63436396Y-45148311D01*
X63373338Y-45211369D01*
X63360572Y-45230005D01*
X63323674Y-45313571D01*
X63318835Y-45331357D01*
X63317411Y-45343632D01*
X63317000Y-45350754D01*
X63317000Y-45400647D01*
X62992000Y-45400647D01*
X62992000Y-44574000D01*
X63008613Y-44512000D01*
X63054000Y-44466613D01*
X63116000Y-44450000D01*
X64900000Y-44450000D01*
X64962000Y-44466613D01*
G37*
%TD.AperFunction*%
%TD*%
%TA.AperFunction,Conductor*%
%TO.N,GND*%
G36*
X55925471Y-55266029D02*
G01*
X57868271Y-55866485D01*
X57912000Y-55880000D01*
X67186000Y-55880000D01*
X67248000Y-55896613D01*
X67293387Y-55942000D01*
X67310000Y-56004000D01*
X67310000Y-56833225D01*
X67293387Y-56895225D01*
X67269836Y-56936015D01*
X67269834Y-56936018D01*
X67264412Y-56945411D01*
X67262529Y-56956089D01*
X67262527Y-56956095D01*
X67246363Y-57047771D01*
X67244479Y-57058456D01*
X67264412Y-57171501D01*
X67267747Y-57177277D01*
X67274500Y-57215574D01*
X67274500Y-57280000D01*
X67257887Y-57342000D01*
X67212500Y-57387387D01*
X67150500Y-57404000D01*
X57703871Y-57404000D01*
X57660850Y-57396298D01*
X57623173Y-57374148D01*
X56755766Y-56630656D01*
X55880000Y-55880000D01*
X55868990Y-55880000D01*
X54738764Y-55880000D01*
X54682469Y-55866485D01*
X54638445Y-55828884D01*
X54616290Y-55775396D01*
X54620834Y-55717680D01*
X54651085Y-55668317D01*
X54654004Y-55665397D01*
X54660451Y-55660451D01*
X54752698Y-55540233D01*
X54810687Y-55400236D01*
X54814889Y-55368313D01*
X54836255Y-55313376D01*
X54880573Y-55274510D01*
X54937829Y-55260500D01*
X55888856Y-55260500D01*
X55925471Y-55266029D01*
G37*
%TD.AperFunction*%
%TD*%
%TA.AperFunction,Conductor*%
%TO.N,GND*%
G36*
X57400632Y-48771368D02*
G01*
X57404000Y-48779500D01*
X57404000Y-49518500D01*
X57400632Y-49526632D01*
X57392500Y-49530000D01*
X56060422Y-49530000D01*
X56055001Y-49528642D01*
X56050860Y-49524889D01*
X56045182Y-49516391D01*
X56044552Y-49515448D01*
X55978231Y-49471133D01*
X55977120Y-49470912D01*
X55977118Y-49470911D01*
X55920305Y-49459610D01*
X55920297Y-49459609D01*
X55919748Y-49459500D01*
X55919179Y-49459500D01*
X54839170Y-49459500D01*
X54831588Y-49456646D01*
X54827768Y-49449501D01*
X54821308Y-49400443D01*
X54810687Y-49319764D01*
X54752698Y-49179767D01*
X54660451Y-49059549D01*
X54659853Y-49059090D01*
X54659849Y-49059086D01*
X54614499Y-49024287D01*
X54611186Y-49020250D01*
X54610000Y-49015164D01*
X54610000Y-48779500D01*
X54613368Y-48771368D01*
X54621500Y-48768000D01*
X57392500Y-48768000D01*
X57400632Y-48771368D01*
G37*
%TD.AperFunction*%
%TD*%
%TA.AperFunction,Conductor*%
%TO.N,/USBC and Power/VBUS*%
G36*
X57653081Y-49625928D02*
G01*
X57657290Y-49630138D01*
X57658830Y-49635889D01*
X57658359Y-52458090D01*
X57658070Y-54186007D01*
X57658000Y-54610000D01*
X57150000Y-54610000D01*
X57150000Y-52467751D01*
X57150776Y-52463598D01*
X57152000Y-52460437D01*
X57153233Y-52458096D01*
X57164025Y-52442344D01*
X57171594Y-52410156D01*
X57172058Y-52408660D01*
X57184000Y-52377837D01*
X57184000Y-52358749D01*
X57184305Y-52356116D01*
X57188432Y-52338567D01*
X57188676Y-52337531D01*
X57184109Y-52304798D01*
X57184000Y-52303210D01*
X57184000Y-51924714D01*
X57184596Y-51921059D01*
X57185840Y-51917346D01*
X57186179Y-51916336D01*
X57184011Y-51869457D01*
X57184000Y-51868927D01*
X57184000Y-51849703D01*
X57184000Y-51849169D01*
X57182915Y-51843370D01*
X57182732Y-51841792D01*
X57181256Y-51809839D01*
X57181207Y-51808778D01*
X57173491Y-51791305D01*
X57172711Y-51788784D01*
X57169204Y-51770018D01*
X57151806Y-51741920D01*
X57151057Y-51740497D01*
X57150973Y-51740306D01*
X57150000Y-51735676D01*
X57150000Y-50294287D01*
X57150000Y-50292000D01*
X57147713Y-50292000D01*
X56012949Y-50292000D01*
X56006560Y-50290062D01*
X55979174Y-50271763D01*
X55979173Y-50271762D01*
X55978231Y-50271133D01*
X55977120Y-50270912D01*
X55977118Y-50270911D01*
X55920305Y-50259610D01*
X55920297Y-50259609D01*
X55919748Y-50259500D01*
X54730252Y-50259500D01*
X54729703Y-50259609D01*
X54729694Y-50259610D01*
X54672881Y-50270911D01*
X54672877Y-50270912D01*
X54671769Y-50271133D01*
X54670828Y-50271761D01*
X54670825Y-50271763D01*
X54643440Y-50290062D01*
X54637051Y-50292000D01*
X54621514Y-50292000D01*
X54615760Y-50290457D01*
X54611550Y-50286242D01*
X54610014Y-50280486D01*
X54610040Y-50259610D01*
X54610458Y-49924464D01*
X54611646Y-49919390D01*
X54614952Y-49915363D01*
X54660451Y-49880451D01*
X54752698Y-49760233D01*
X54791068Y-49667597D01*
X54795304Y-49662438D01*
X54801693Y-49660500D01*
X54813404Y-49660500D01*
X54815463Y-49660686D01*
X54839170Y-49665000D01*
X55894994Y-49665000D01*
X55901381Y-49666936D01*
X55906365Y-49670267D01*
X55908678Y-49672312D01*
X55912858Y-49677158D01*
X55913114Y-49677390D01*
X55913117Y-49677393D01*
X55916739Y-49680676D01*
X55916744Y-49680680D01*
X55916999Y-49680911D01*
X55958129Y-49709877D01*
X56005065Y-49727982D01*
X56010486Y-49729340D01*
X56060422Y-49735500D01*
X57391930Y-49735500D01*
X57392500Y-49735500D01*
X57471134Y-49719860D01*
X57479266Y-49716492D01*
X57545942Y-49671942D01*
X57574301Y-49629497D01*
X57578442Y-49625745D01*
X57583863Y-49624387D01*
X57647330Y-49624387D01*
X57653081Y-49625928D01*
G37*
%TD.AperFunction*%
%TD*%
M02*
