M48
; DRILL file {KiCad (7.0.0)} date Sat Apr 15 16:40:15 2023
; FORMAT={-:-/ absolute / metric / decimal}
; #@! TF.CreationDate,2023-04-15T16:40:15+03:00
; #@! TF.GenerationSoftware,Kicad,Pcbnew,(7.0.0)
; #@! TF.FileFunction,Plated,1,4,PTH
FMAT,2
METRIC
; #@! TA.AperFunction,Plated,PTH,ViaDrill
T1C0.150
; #@! TA.AperFunction,Plated,PTH,ViaDrill
T2C0.200
; #@! TA.AperFunction,Plated,PTH,ComponentDrill
T3C1.000
%
G90
G05
T1
X50.8Y-53.594
X50.854Y-51.108
X53.594Y-45.871
X54.102Y-53.594
X54.435Y-51.108
X56.134Y-49.276
X56.14Y-48.905
X56.388Y-52.07
X56.388Y-53.086
X56.388Y-55.626
X56.388Y-56.134
X56.642Y-49.276
X56.655Y-48.913
X56.896Y-55.88
X56.896Y-56.388
X57.14Y-48.899
X57.15Y-49.276
X57.404Y-56.134
X57.404Y-56.642
X57.955Y-57.258
X58.769Y-57.265
X59.182Y-56.134
X59.182Y-56.896
X59.69Y-56.134
X60.96Y-56.134
X60.96Y-56.896
X61.976Y-56.134
X61.976Y-56.896
X62.052Y-44.018
X62.738Y-43.18
X63.246Y-47.244
X63.246Y-47.752
X63.246Y-48.26
X63.246Y-48.768
X63.246Y-49.276
X63.246Y-56.134
X63.246Y-56.896
X63.5Y-46.482
X64.008Y-46.482
X64.516Y-46.482
X64.77Y-45.212
X64.77Y-45.72
X64.77Y-46.228
X64.77Y-51.054
X64.77Y-51.562
X64.77Y-52.07
X64.77Y-52.578
X64.77Y-53.086
X65.278Y-56.134
X65.278Y-56.896
X66.017Y-57.263
X66.351Y-45.053
X66.851Y-57.263
X67.575Y-57.058
X68.58Y-51.892
X69.145Y-44.599
X69.621Y-43.374
X69.671Y-41.815
X71.12Y-39.37
X71.12Y-52.578
X71.631Y-52.101
X71.64Y-63.415
X71.882Y-61.976
X72.136Y-53.086
X72.644Y-53.594
X72.898Y-61.976
X73.152Y-51.562
X73.66Y-61.976
X73.8Y-40.8
X74.422Y-61.976
X74.93Y-51.562
X75.0Y-40.8
X75.4Y-54.124
X75.438Y-61.976
X76.2Y-61.976
X76.301Y-48.006
X77.47Y-54.356
X77.47Y-58.928
X78.399Y-56.475
X78.618Y-58.575
X78.73Y-46.53
X78.74Y-53.086
X78.74Y-54.356
X78.74Y-55.372
X78.941Y-49.649
X79.248Y-53.086
X79.248Y-54.356
X79.248Y-55.372
X79.376Y-58.575
X79.424Y-49.83
X79.756Y-53.086
X79.756Y-54.356
X79.756Y-55.372
X80.01Y-63.5
X80.264Y-53.086
X80.264Y-54.356
X80.264Y-55.372
X80.3Y-46.52
X80.772Y-51.816
X80.772Y-53.086
X80.772Y-54.356
X80.772Y-55.372
X80.772Y-62.992
X80.95Y-44.45
X81.025Y-59.15
X81.2Y-48.874
X81.28Y-53.086
X81.28Y-54.356
X81.28Y-55.372
X81.45Y-44.45
X81.474Y-59.165
X81.534Y-51.816
X81.788Y-61.468
X81.82Y-59.93
X81.88Y-46.53
X82.618Y-53.701
X83.49Y-46.15
X83.49Y-49.526
X83.569Y-59.175
X83.612Y-58.72
X83.82Y-60.198
X83.879Y-51.205
X83.914Y-46.54
X83.95Y-64.975
X84.582Y-51.63
X84.9Y-56.9
X84.995Y-55.794
X85.13Y-46.54
X85.325Y-57.15
X85.35Y-49.68
X85.852Y-48.768
X86.36Y-60.198
X86.444Y-56.388
X86.74Y-63.425
X86.895Y-49.72
X87.59Y-57.606
X87.608Y-51.63
X87.884Y-56.896
X88.138Y-55.88
X89.408Y-55.88
X89.837Y-43.688
X92.378Y-43.582
X92.399Y-68.58
X93.98Y-43.434
X93.98Y-69.088
X96.696Y-66.036
X96.704Y-43.406
X98.298Y-43.434
X98.3Y-66.548
X99.822Y-43.434
X99.902Y-66.599
X101.5Y-65.532
X103.944Y-68.072
X104.032Y-43.18
X105.59Y-43.25
X105.664Y-67.564
T2
X51.422Y-66.504
X56.65Y-58.85
X56.65Y-62.55
X58.166Y-49.784
X58.641Y-53.195
X58.674Y-49.784
X59.436Y-49.784
X59.944Y-46.99
X59.944Y-47.498
X59.944Y-48.006
X59.944Y-48.514
X59.944Y-49.022
X59.944Y-49.53
X62.731Y-57.869
X63.078Y-50.096
X63.7Y-62.6
X63.8Y-60.8
X64.372Y-59.763
X66.356Y-49.74
X66.364Y-61.336
X66.376Y-53.899
X66.516Y-66.95
X66.55Y-65.1
X69.05Y-65.95
X69.25Y-57.25
X70.825Y-59.45
X73.075Y-56.06
X74.625Y-56.05
X80.1Y-59.9
X80.14Y-61.48
X83.56Y-61.525
X89.55Y-57.93
X95.4Y-46.736
X95.4Y-56.875
X95.4Y-60.706
X102.597Y-46.822
X102.6Y-56.896
X102.6Y-60.706
T3
X50.8Y-39.37
X53.34Y-39.37
X55.88Y-39.37
X57.975Y-65.9
X60.515Y-65.9
X60.96Y-39.37
X63.055Y-65.9
X63.5Y-39.37
X66.04Y-39.37
X111.5Y-39.625
X111.5Y-42.165
X111.5Y-44.705
X111.5Y-47.245
X111.5Y-49.785
X111.5Y-52.325
X111.5Y-54.865
X111.5Y-57.405
X111.5Y-59.945
X111.5Y-62.485
X111.5Y-65.025
X111.5Y-67.565
T0
M30
