M48
; DRILL file {KiCad (7.0.0)} date Wed Apr 19 21:09:29 2023
; FORMAT={-:-/ absolute / metric / decimal}
; #@! TF.CreationDate,2023-04-19T21:09:29+03:00
; #@! TF.GenerationSoftware,Kicad,Pcbnew,(7.0.0)
; #@! TF.FileFunction,Plated,1,4,PTH
FMAT,2
METRIC
; #@! TA.AperFunction,Plated,PTH,ViaDrill
T1C0.150
; #@! TA.AperFunction,Plated,PTH,ViaDrill
T2C0.200
; #@! TA.AperFunction,Plated,PTH,ComponentDrill
T3C1.000
%
G90
G05
T1
X58.166Y-43.298
X59.6Y-37.9
X59.6Y-38.5
X59.6Y-39.1
X60.4Y-37.9
X60.56Y-50.137
X61.2Y-37.9
X61.2Y-38.5
X61.2Y-39.1
X61.214Y-53.086
X61.9Y-37.9
X61.9Y-38.5
X61.9Y-39.1
X61.9Y-45.7
X61.9Y-46.2
X61.9Y-46.8
X61.9Y-47.3
X61.9Y-47.8
X61.9Y-48.3
X62.1Y-49.0
X62.1Y-49.8
X62.1Y-50.6
X62.141Y-42.104
X62.141Y-42.612
X62.141Y-43.12
X62.141Y-43.628
X62.141Y-44.136
X62.3Y-49.4
X62.3Y-50.2
X62.395Y-48.708
X62.5Y-41.9
X62.5Y-42.4
X62.5Y-42.9
X62.5Y-43.4
X62.5Y-43.9
X62.5Y-44.5
X62.7Y-37.9
X62.7Y-50.4
X62.903Y-48.708
X63.411Y-48.708
X63.5Y-37.9
X63.5Y-38.5
X63.5Y-39.1
X63.5Y-50.4
X63.665Y-45.914
X63.665Y-46.422
X63.665Y-46.93
X63.665Y-47.438
X63.665Y-47.946
X64.859Y-51.172
X67.3Y-48.6
X67.575Y-57.058
X67.7Y-37.9
X67.7Y-38.5
X67.7Y-39.1
X67.7Y-46.0
X67.7Y-46.8
X67.7Y-47.3
X67.9Y-48.6
X68.1Y-47.4
X68.5Y-37.9
X68.6Y-47.4
X68.7Y-48.6
X68.7Y-49.4
X68.7Y-50.2
X68.7Y-51.0
X68.7Y-51.8
X69.1Y-47.4
X69.3Y-37.9
X69.3Y-38.5
X69.3Y-39.1
X69.8Y-63.4
X70.2Y-57.2
X70.358Y-41.656
X70.358Y-44.704
X71.12Y-37.084
X71.12Y-52.578
X71.631Y-52.101
X71.882Y-61.976
X72.136Y-53.086
X72.644Y-53.594
X72.898Y-61.976
X73.4Y-51.623
X73.66Y-61.976
X73.772Y-41.66
X74.422Y-61.976
X74.93Y-51.562
X75.045Y-41.681
X75.4Y-54.124
X75.438Y-61.976
X76.2Y-61.976
X76.323Y-48.575
X77.47Y-58.928
X77.851Y-54.737
X77.965Y-52.565
X78.022Y-48.724
X78.399Y-56.475
X78.618Y-58.575
X78.7Y-44.7
X78.7Y-45.5
X78.732Y-46.538
X78.74Y-53.086
X78.74Y-54.356
X78.74Y-55.372
X78.941Y-49.649
X79.0Y-45.1
X79.248Y-53.086
X79.248Y-54.356
X79.248Y-55.372
X79.3Y-44.7
X79.3Y-45.5
X79.376Y-58.575
X79.424Y-50.038
X79.756Y-53.086
X79.756Y-54.356
X79.756Y-55.372
X80.01Y-63.5
X80.197Y-51.852
X80.264Y-53.086
X80.264Y-54.356
X80.264Y-55.372
X80.618Y-51.868
X80.706Y-42.828
X80.723Y-39.334
X80.772Y-53.086
X80.772Y-54.356
X80.772Y-55.372
X81.025Y-59.15
X81.17Y-62.987
X81.28Y-53.086
X81.28Y-54.356
X81.28Y-55.372
X81.474Y-59.165
X81.788Y-61.468
X81.816Y-59.926
X82.157Y-51.937
X82.618Y-53.701
X83.5Y-46.5
X83.5Y-49.515
X83.569Y-59.175
X83.612Y-58.72
X83.696Y-39.339
X83.707Y-42.889
X83.82Y-60.198
X83.879Y-51.205
X83.95Y-64.975
X84.582Y-51.63
X84.9Y-56.9
X84.995Y-55.794
X85.13Y-46.54
X85.325Y-57.15
X85.35Y-49.68
X85.6Y-44.7
X85.6Y-45.5
X85.852Y-48.768
X85.9Y-45.1
X86.2Y-44.7
X86.2Y-45.5
X86.36Y-60.198
X86.444Y-56.388
X86.74Y-63.425
X86.895Y-49.72
X87.59Y-57.606
X87.608Y-51.63
X87.884Y-56.896
X88.138Y-55.88
X89.408Y-55.88
X90.599Y-43.688
X90.678Y-61.214
X92.378Y-43.582
X92.399Y-68.58
X93.98Y-43.434
X93.98Y-69.088
X96.696Y-66.036
X96.704Y-43.406
X98.298Y-43.434
X98.3Y-66.548
X99.822Y-43.434
X99.902Y-67.013
X101.5Y-65.532
X104.0Y-68.075
X104.032Y-43.18
X105.59Y-43.25
X105.664Y-67.564
T2
X56.65Y-58.85
X56.65Y-62.55
X60.535Y-41.291
X60.555Y-45.45
X62.731Y-57.869
X63.7Y-62.6
X63.8Y-60.8
X63.833Y-45.094
X64.372Y-59.763
X66.364Y-61.336
X66.516Y-66.95
X66.55Y-65.1
X66.967Y-45.66
X66.967Y-46.168
X66.967Y-46.676
X66.967Y-47.184
X66.967Y-47.692
X66.967Y-48.2
X67.475Y-45.406
X68.237Y-45.406
X68.27Y-41.995
X68.745Y-45.406
X69.05Y-65.95
X69.25Y-57.25
X70.825Y-59.45
X73.075Y-56.06
X74.625Y-56.05
X80.1Y-59.9
X80.14Y-61.48
X83.56Y-61.525
X89.55Y-57.93
X95.4Y-46.736
X95.4Y-56.875
X95.4Y-60.706
X102.597Y-46.822
X102.6Y-56.896
X102.6Y-60.706
T3
X57.404Y-51.054
X57.404Y-53.594
X57.404Y-56.134
X57.975Y-65.9
X60.515Y-65.9
X63.055Y-65.9
X100.62Y-38.5
X103.16Y-38.5
X105.7Y-38.5
X111.5Y-39.625
X111.5Y-42.165
X111.5Y-44.705
X111.5Y-47.245
X111.5Y-49.785
X111.5Y-52.325
X111.5Y-54.865
X111.5Y-57.405
X111.5Y-59.945
X111.5Y-62.485
X111.5Y-65.025
X111.5Y-67.565
T0
M30
