%TF.GenerationSoftware,KiCad,Pcbnew,(7.0.0)*%
%TF.CreationDate,2023-04-19T21:09:27+03:00*%
%TF.ProjectId,Raspi Pico Board,52617370-6920-4506-9963-6f20426f6172,rev?*%
%TF.SameCoordinates,Original*%
%TF.FileFunction,Copper,L4,Bot*%
%TF.FilePolarity,Positive*%
%FSLAX46Y46*%
G04 Gerber Fmt 4.6, Leading zero omitted, Abs format (unit mm)*
G04 Created by KiCad (PCBNEW (7.0.0)) date 2023-04-19 21:09:27*
%MOMM*%
%LPD*%
G01*
G04 APERTURE LIST*
G04 Aperture macros list*
%AMRoundRect*
0 Rectangle with rounded corners*
0 $1 Rounding radius*
0 $2 $3 $4 $5 $6 $7 $8 $9 X,Y pos of 4 corners*
0 Add a 4 corners polygon primitive as box body*
4,1,4,$2,$3,$4,$5,$6,$7,$8,$9,$2,$3,0*
0 Add four circle primitives for the rounded corners*
1,1,$1+$1,$2,$3*
1,1,$1+$1,$4,$5*
1,1,$1+$1,$6,$7*
1,1,$1+$1,$8,$9*
0 Add four rect primitives between the rounded corners*
20,1,$1+$1,$2,$3,$4,$5,0*
20,1,$1+$1,$4,$5,$6,$7,0*
20,1,$1+$1,$6,$7,$8,$9,0*
20,1,$1+$1,$8,$9,$2,$3,0*%
G04 Aperture macros list end*
%TA.AperFunction,ComponentPad*%
%ADD10R,1.700000X1.700000*%
%TD*%
%TA.AperFunction,ComponentPad*%
%ADD11O,1.700000X1.700000*%
%TD*%
%TA.AperFunction,WasherPad*%
%ADD12O,1.000000X2.100000*%
%TD*%
%TA.AperFunction,WasherPad*%
%ADD13O,1.000000X1.800000*%
%TD*%
%TA.AperFunction,SMDPad,CuDef*%
%ADD14RoundRect,0.200000X-0.275000X0.200000X-0.275000X-0.200000X0.275000X-0.200000X0.275000X0.200000X0*%
%TD*%
%TA.AperFunction,SMDPad,CuDef*%
%ADD15RoundRect,0.225000X0.225000X0.250000X-0.225000X0.250000X-0.225000X-0.250000X0.225000X-0.250000X0*%
%TD*%
%TA.AperFunction,SMDPad,CuDef*%
%ADD16RoundRect,0.225000X-0.225000X-0.250000X0.225000X-0.250000X0.225000X0.250000X-0.225000X0.250000X0*%
%TD*%
%TA.AperFunction,ViaPad*%
%ADD17C,0.250000*%
%TD*%
%TA.AperFunction,ViaPad*%
%ADD18C,0.350000*%
%TD*%
%TA.AperFunction,Conductor*%
%ADD19C,0.250000*%
%TD*%
%TA.AperFunction,Conductor*%
%ADD20C,0.200000*%
%TD*%
G04 APERTURE END LIST*
D10*
%TO.P,J4,1,Pin_1*%
%TO.N,GND*%
X100619999Y-38499999D03*
D11*
%TO.P,J4,2,Pin_2*%
X103159999Y-38499999D03*
%TO.P,J4,3,Pin_3*%
X105699999Y-38499999D03*
%TD*%
D10*
%TO.P,J2,1,Pin_1*%
%TO.N,/Microcontroller/SWCLK*%
X57974999Y-65899999D03*
D11*
%TO.P,J2,2,Pin_2*%
%TO.N,GND*%
X60514999Y-65899999D03*
%TO.P,J2,3,Pin_3*%
%TO.N,/Microcontroller/SWDIO*%
X63054999Y-65899999D03*
%TD*%
D10*
%TO.P,J3,1,Pin_1*%
%TO.N,GND*%
X111499999Y-39624999D03*
D11*
%TO.P,J3,2,Pin_2*%
%TO.N,/Microcontroller/GPIO29*%
X111499999Y-42164999D03*
%TO.P,J3,3,Pin_3*%
%TO.N,/Microcontroller/GPIO28*%
X111499999Y-44704999D03*
%TO.P,J3,4,Pin_4*%
%TO.N,+3V3*%
X111499999Y-47244999D03*
%TO.P,J3,5,Pin_5*%
X111499999Y-49784999D03*
%TO.P,J3,6,Pin_6*%
%TO.N,/Microcontroller/GPIO27*%
X111499999Y-52324999D03*
%TO.P,J3,7,Pin_7*%
%TO.N,/Microcontroller/GPIO26*%
X111499999Y-54864999D03*
%TO.P,J3,8,Pin_8*%
%TO.N,+3V3*%
X111499999Y-57404999D03*
%TO.P,J3,9,Pin_9*%
%TO.N,/Microcontroller/GPIO24*%
X111499999Y-59944999D03*
%TO.P,J3,10,Pin_10*%
%TO.N,/Microcontroller/GPIO23*%
X111499999Y-62484999D03*
%TO.P,J3,11,Pin_11*%
%TO.N,/Microcontroller/GPIO22*%
X111499999Y-65024999D03*
%TO.P,J3,12,Pin_12*%
%TO.N,GND*%
X111499999Y-67564999D03*
%TD*%
D12*
%TO.P,J1,*%
%TO.N,*%
X86773999Y-43171999D03*
D13*
X86773999Y-38991999D03*
D12*
X78133999Y-43171999D03*
D13*
X78133999Y-38991999D03*
%TD*%
D10*
%TO.P,J5,1,Pin_1*%
%TO.N,+3V3*%
X57403999Y-56133999D03*
D11*
%TO.P,J5,2,Pin_2*%
X57403999Y-53593999D03*
%TO.P,J5,3,Pin_3*%
X57403999Y-51053999D03*
%TD*%
D14*
%TO.P,R2,1*%
%TO.N,GND*%
X80717587Y-40273048D03*
%TO.P,R2,2*%
%TO.N,Net-(J1-CC2)*%
X80717587Y-41923048D03*
%TD*%
D15*
%TO.P,C7,1*%
%TO.N,+3V3*%
X79515000Y-51816000D03*
%TO.P,C7,2*%
%TO.N,GND*%
X77965000Y-51816000D03*
%TD*%
D16*
%TO.P,C18,1*%
%TO.N,+3V3*%
X81267000Y-51816000D03*
%TO.P,C18,2*%
%TO.N,GND*%
X82817000Y-51816000D03*
%TD*%
D14*
%TO.P,R1,1*%
%TO.N,GND*%
X83696697Y-40273048D03*
%TO.P,R1,2*%
%TO.N,Net-(J1-CC1)*%
X83696697Y-41923048D03*
%TD*%
D16*
%TO.P,C17,1*%
%TO.N,+3V3*%
X85323907Y-51562000D03*
%TO.P,C17,2*%
%TO.N,GND*%
X86873907Y-51562000D03*
%TD*%
D17*
%TO.N,GND*%
X61900000Y-48300000D03*
X61900000Y-47800000D03*
X61900000Y-47300000D03*
X61900000Y-46800000D03*
X61900000Y-46200000D03*
X61900000Y-45700000D03*
X62500000Y-44500000D03*
X62500000Y-43900000D03*
X62500000Y-41900000D03*
X62500000Y-42400000D03*
X62500000Y-42900000D03*
X62500000Y-43400000D03*
X90599500Y-43688000D03*
X82157090Y-51937136D03*
X85900000Y-45100000D03*
X76323434Y-48575500D03*
X63665000Y-46422000D03*
D18*
X56650000Y-62550000D03*
D17*
X80264000Y-53086000D03*
X61200000Y-37900000D03*
X79300000Y-44700000D03*
D18*
X73075000Y-56060000D03*
D17*
X67700000Y-39100000D03*
D18*
X95400000Y-46736000D03*
X89550000Y-57930000D03*
D17*
X62395000Y-48708000D03*
X80772000Y-54356000D03*
X67700000Y-37900000D03*
X78700000Y-45500000D03*
X83500000Y-46500000D03*
X86740000Y-63425000D03*
X69300000Y-39100000D03*
X81280000Y-54356000D03*
X59600000Y-38500000D03*
X83695924Y-39339377D03*
X78731938Y-46538428D03*
X62141000Y-43628000D03*
X62141000Y-43120000D03*
X63411000Y-48708000D03*
X61200000Y-39100000D03*
X85600000Y-44700000D03*
D18*
X80140000Y-61480000D03*
X66515660Y-66950000D03*
D17*
X79248000Y-55372000D03*
X79756000Y-54356000D03*
X81280000Y-55372000D03*
D18*
X68269616Y-41995252D03*
D17*
X59600000Y-37900000D03*
X81788000Y-61468000D03*
X80264000Y-55372000D03*
X80264000Y-54356000D03*
X63665000Y-45914000D03*
X86200000Y-44700000D03*
X63500000Y-37900000D03*
D18*
X95400000Y-60706000D03*
D17*
X70358000Y-44704000D03*
X61900000Y-39100000D03*
X78700000Y-44700000D03*
X63500000Y-38500000D03*
X79756000Y-53086000D03*
X73400000Y-51622795D03*
X61900000Y-38500000D03*
X63665000Y-47438000D03*
X87607844Y-51629500D03*
X63665000Y-47946000D03*
X81280000Y-53086000D03*
X79248000Y-54356000D03*
X70200000Y-57200000D03*
X79300000Y-45500000D03*
X62100000Y-49800000D03*
X61900000Y-37900000D03*
X62141000Y-42612000D03*
X85600000Y-45500000D03*
X79248000Y-53086000D03*
D18*
X66364477Y-61335523D03*
D17*
X85130000Y-46540000D03*
X63665000Y-46930000D03*
D18*
X102600000Y-60706000D03*
D17*
X62300000Y-49400000D03*
D18*
X102596914Y-46821883D03*
D17*
X86895000Y-49720000D03*
X78740000Y-55372000D03*
X62700000Y-50400000D03*
X62903000Y-48708000D03*
X62700000Y-37900000D03*
X62141000Y-44136000D03*
X77965000Y-52565000D03*
X62141000Y-42104000D03*
D18*
X56650000Y-58850000D03*
X95400000Y-56875000D03*
D17*
X78740000Y-54356000D03*
X63500000Y-39100000D03*
X61200000Y-38500000D03*
X62100000Y-49000000D03*
X88138000Y-55880000D03*
X78740000Y-53086000D03*
X79756000Y-55372000D03*
X69800000Y-63400000D03*
X90678000Y-61214000D03*
X80772000Y-53086000D03*
X67700000Y-38500000D03*
X79000000Y-45100000D03*
X61214000Y-53086000D03*
X86200000Y-45500000D03*
X59600000Y-39100000D03*
X62300000Y-50200000D03*
X68500000Y-37900000D03*
X69300000Y-37900000D03*
X69300000Y-38500000D03*
D18*
X66550000Y-65100000D03*
X102600000Y-56896000D03*
D17*
X80723175Y-39334276D03*
X62100000Y-50600000D03*
X87590083Y-57605583D03*
X60560254Y-50137001D03*
X80772000Y-55372000D03*
X60400000Y-37900000D03*
X63500000Y-50400000D03*
D18*
%TO.N,/USBC and Power/+5V_FB*%
X60554754Y-45450112D03*
X60535121Y-41290797D03*
X63832940Y-45094079D03*
D17*
%TO.N,/USBC and Power/BCK_FB*%
X58166000Y-43297514D03*
X64858660Y-51171660D03*
%TO.N,+3V3*%
X80617941Y-51867574D03*
D18*
X68745000Y-45406000D03*
D17*
X67700000Y-46800000D03*
X67700000Y-46000000D03*
D18*
X83560000Y-61525000D03*
D17*
X84582000Y-51629500D03*
X68700000Y-49400000D03*
X86444500Y-56388000D03*
D18*
X66967000Y-47184000D03*
D17*
X80197276Y-51852129D03*
X67300000Y-48600000D03*
X70358000Y-41656000D03*
D18*
X66967000Y-46676000D03*
X68237000Y-45406000D03*
D17*
X68700000Y-48600000D03*
D18*
X66967000Y-45660000D03*
D17*
X68100000Y-47400000D03*
D18*
X69050000Y-65950000D03*
D17*
X74930000Y-51562000D03*
X68700000Y-50200000D03*
X85350000Y-49680000D03*
D18*
X66967000Y-46168000D03*
D17*
X68700000Y-51000000D03*
D18*
X67475000Y-45406000D03*
D17*
X67700000Y-47300000D03*
D18*
X64372134Y-59763212D03*
X66967000Y-47692000D03*
X69250000Y-57250000D03*
X80100000Y-59900000D03*
D17*
X85852000Y-48768000D03*
D18*
X70825000Y-59450000D03*
X66967000Y-48200000D03*
X74625000Y-56050000D03*
D17*
X69100000Y-47400000D03*
X68700000Y-51800000D03*
X67900000Y-48600000D03*
X68600000Y-47400000D03*
%TO.N,+1V1*%
X83500000Y-49515500D03*
X78021696Y-48724304D03*
X81816294Y-59925948D03*
%TO.N,/Microcontroller/XIN*%
X83950000Y-64975000D03*
X79375500Y-58575500D03*
%TO.N,/Microcontroller/MCU_RUN*%
X86360000Y-60198000D03*
X83820000Y-60198000D03*
%TO.N,Net-(J1-CC1)*%
X83707143Y-42888526D03*
%TO.N,Net-(J1-CC2)*%
X80706094Y-42827849D03*
%TO.N,/Microcontroller/SWCLK*%
X81024500Y-59150500D03*
X80010000Y-63500000D03*
%TO.N,/Microcontroller/SWDIO*%
X81170428Y-62986901D03*
X81473782Y-59164592D03*
%TO.N,/Microcontroller/I2C0_SCL*%
X75400000Y-54124500D03*
X67575000Y-57058456D03*
D18*
%TO.N,/Microcontroller/LED_B*%
X62730576Y-57869388D03*
D17*
X84995063Y-55793810D03*
D18*
%TO.N,/Microcontroller/LED_R*%
X63800000Y-60800000D03*
D17*
X84900000Y-56900000D03*
D18*
%TO.N,/Microcontroller/LED_G*%
X63700000Y-62600000D03*
D17*
X85325000Y-57150000D03*
%TO.N,/Microcontroller/display_A2*%
X104000000Y-68074607D03*
X73660000Y-61976000D03*
%TO.N,/Microcontroller/display_B2*%
X105664000Y-67564000D03*
X74422000Y-61976000D03*
%TO.N,/Microcontroller/display_C2*%
X104031667Y-43180000D03*
X83612167Y-58720167D03*
%TO.N,/Microcontroller/display_D2*%
X71120000Y-37084000D03*
X71120000Y-52578000D03*
%TO.N,/Microcontroller/display_E2*%
X71630817Y-52100997D03*
X99822000Y-43434000D03*
%TO.N,/Microcontroller/display_F2*%
X101500000Y-65532000D03*
X78617732Y-58575500D03*
%TO.N,/Microcontroller/display_G2*%
X75438000Y-61976000D03*
X99902474Y-67012536D03*
%TO.N,/Microcontroller/display_DP2*%
X105590000Y-43250000D03*
X83568663Y-59175000D03*
%TO.N,/Microcontroller/display_A1*%
X96696099Y-66035899D03*
X77470000Y-58928000D03*
%TO.N,/Microcontroller/display_B1*%
X76200000Y-61976000D03*
X98300000Y-66548000D03*
%TO.N,/Microcontroller/display_C1*%
X96704299Y-43405704D03*
X72136000Y-53086000D03*
%TO.N,/Microcontroller/display_D1*%
X93980000Y-43434000D03*
X72644000Y-53594000D03*
%TO.N,/Microcontroller/display_E1*%
X77851000Y-54737000D03*
X92378099Y-43582208D03*
%TO.N,/Microcontroller/display_F1*%
X93980000Y-69088000D03*
X71882000Y-61976000D03*
%TO.N,/Microcontroller/display_G1*%
X92398801Y-68580000D03*
X72898000Y-61976000D03*
%TO.N,/Microcontroller/display_DP1*%
X78399000Y-56475000D03*
X87884000Y-56896000D03*
X98298000Y-43434000D03*
X89408000Y-55880000D03*
%TO.N,/Microcontroller/QSPI_SCLK*%
X78940540Y-49649500D03*
X75044847Y-41680966D03*
%TO.N,/Microcontroller/QSPI_SD3*%
X79424500Y-50038000D03*
X73771966Y-41660438D03*
%TO.N,/Microcontroller/LED*%
X83879117Y-51205000D03*
X82618444Y-53701481D03*
%TD*%
D19*
%TO.N,/USBC and Power/+5V_FB*%
X60604642Y-45500000D02*
X60554754Y-45450112D01*
X61705921Y-45094079D02*
X61300000Y-45500000D01*
X61300000Y-45500000D02*
X60604642Y-45500000D01*
X63832940Y-45094079D02*
X61705921Y-45094079D01*
D20*
%TO.N,/Microcontroller/I2C0_SCL*%
X68075500Y-54124500D02*
X75400000Y-54124500D01*
X67575000Y-54625000D02*
X68075500Y-54124500D01*
X67575000Y-57058456D02*
X67575000Y-54625000D01*
%TO.N,/Microcontroller/display_F1*%
X72388000Y-69088000D02*
X93980000Y-69088000D01*
X71882000Y-68582000D02*
X72388000Y-69088000D01*
X71882000Y-61976000D02*
X71882000Y-68582000D01*
%TO.N,/Microcontroller/display_B1*%
X76200000Y-66040000D02*
X76200000Y-61976000D01*
X98300000Y-66548000D02*
X76708000Y-66548000D01*
X76708000Y-66548000D02*
X76200000Y-66040000D01*
%TO.N,/Microcontroller/SWDIO*%
X81473782Y-59675177D02*
X81473782Y-59164592D01*
X81172000Y-59976959D02*
X81473782Y-59675177D01*
X81172000Y-62084000D02*
X81172000Y-59976959D01*
X81170428Y-62085572D02*
X81172000Y-62084000D01*
X81170428Y-62986901D02*
X81170428Y-62085572D01*
D19*
%TO.N,GND*%
X77965000Y-51816000D02*
X77965000Y-52565000D01*
D20*
X80717587Y-39339864D02*
X80723175Y-39334276D01*
X83696697Y-39340150D02*
X83695924Y-39339377D01*
D19*
X82157090Y-51937136D02*
X82695864Y-51937136D01*
X83696697Y-40273048D02*
X83696697Y-39340150D01*
X80717587Y-40273048D02*
X80717587Y-39339864D01*
X87607844Y-51629500D02*
X86979795Y-51629500D01*
X82695864Y-51937136D02*
X82817000Y-51816000D01*
%TO.N,/USBC and Power/+5V_FB*%
X60535121Y-41290797D02*
X60535121Y-45430479D01*
D20*
X60535121Y-45430479D02*
X60554754Y-45450112D01*
D19*
%TO.N,/USBC and Power/BCK_FB*%
X58166000Y-43297514D02*
X58166000Y-49530000D01*
X59807660Y-51171660D02*
X64858660Y-51171660D01*
X58166000Y-49530000D02*
X59807660Y-51171660D01*
D20*
%TO.N,+3V3*%
X85256407Y-51629500D02*
X85323907Y-51562000D01*
D19*
X80617941Y-51867574D02*
X81215426Y-51867574D01*
D20*
X81215426Y-51867574D02*
X81267000Y-51816000D01*
X84582000Y-51629500D02*
X85256407Y-51629500D01*
D19*
X80197276Y-51852129D02*
X79551129Y-51852129D01*
D20*
%TO.N,/Microcontroller/XIN*%
X79775000Y-64975000D02*
X83950000Y-64975000D01*
X79399833Y-58599833D02*
X79399833Y-64599833D01*
X79399833Y-64599833D02*
X79775000Y-64975000D01*
X79375500Y-58575500D02*
X79399833Y-58599833D01*
%TO.N,/Microcontroller/MCU_RUN*%
X83820000Y-60198000D02*
X86360000Y-60198000D01*
%TO.N,Net-(J1-CC1)*%
X83707143Y-41933494D02*
X83696697Y-41923048D01*
D19*
X83707143Y-42888526D02*
X83707143Y-41933494D01*
%TO.N,Net-(J1-CC2)*%
X80706094Y-42827849D02*
X80706094Y-41934541D01*
D20*
X80706094Y-41934541D02*
X80717587Y-41923048D01*
%TO.N,/Microcontroller/SWCLK*%
X80772000Y-59403000D02*
X80772000Y-61722000D01*
X81024500Y-59150500D02*
X80772000Y-59403000D01*
X80772000Y-61722000D02*
X80010000Y-62484000D01*
X80010000Y-62484000D02*
X80010000Y-63500000D01*
%TO.N,/Microcontroller/LED_B*%
X73845364Y-57869388D02*
X62730576Y-57869388D01*
X75917752Y-55797000D02*
X73845364Y-57869388D01*
X84991873Y-55797000D02*
X75917752Y-55797000D01*
X84995063Y-55793810D02*
X84991873Y-55797000D01*
%TO.N,/Microcontroller/LED_R*%
X75184000Y-57150000D02*
X71534000Y-60800000D01*
X84650000Y-57150000D02*
X75184000Y-57150000D01*
X71534000Y-60800000D02*
X63800000Y-60800000D01*
X84900000Y-56900000D02*
X84650000Y-57150000D01*
%TO.N,/Microcontroller/LED_G*%
X70407843Y-62600000D02*
X63700000Y-62600000D01*
X85325000Y-57350000D02*
X85050000Y-57625000D01*
X75382843Y-57625000D02*
X70407843Y-62600000D01*
X85325000Y-57150000D02*
X85325000Y-57350000D01*
X85050000Y-57625000D02*
X75382843Y-57625000D01*
%TO.N,/Microcontroller/display_A2*%
X73660000Y-67437000D02*
X73660000Y-61976000D01*
X103997393Y-68072000D02*
X74295000Y-68072000D01*
X74295000Y-68072000D02*
X73660000Y-67437000D01*
X104000000Y-68074607D02*
X103997393Y-68072000D01*
%TO.N,/Microcontroller/display_B2*%
X74422000Y-66802000D02*
X74422000Y-61976000D01*
X105664000Y-67564000D02*
X75184000Y-67564000D01*
X75184000Y-67564000D02*
X74422000Y-66802000D01*
%TO.N,/Microcontroller/display_C2*%
X104031667Y-43180000D02*
X104031667Y-55226333D01*
X83594843Y-58702843D02*
X83612167Y-58720167D01*
X87658843Y-58702843D02*
X83594843Y-58702843D01*
X90227686Y-56134000D02*
X87658843Y-58702843D01*
X103124000Y-56134000D02*
X90227686Y-56134000D01*
X104031667Y-55226333D02*
X103124000Y-56134000D01*
%TO.N,/Microcontroller/display_D2*%
X71120000Y-52578000D02*
X71120000Y-37084000D01*
%TO.N,/Microcontroller/display_E2*%
X99822000Y-40012000D02*
X99822000Y-43434000D01*
X71628000Y-52070000D02*
X71628000Y-37700000D01*
X72528000Y-36800000D02*
X96610000Y-36800000D01*
X71628000Y-37700000D02*
X72528000Y-36800000D01*
X96610000Y-36800000D02*
X99822000Y-40012000D01*
%TO.N,/Microcontroller/display_F2*%
X101500000Y-65532000D02*
X78994000Y-65532000D01*
X78994000Y-65532000D02*
X78617732Y-65155732D01*
X78617732Y-65155732D02*
X78617732Y-58575500D01*
%TO.N,/Microcontroller/display_G2*%
X99868521Y-67046489D02*
X75936489Y-67046489D01*
X75936489Y-67046489D02*
X75438000Y-66548000D01*
X75438000Y-66548000D02*
X75438000Y-61976000D01*
X99902474Y-67012536D02*
X99868521Y-67046489D01*
%TO.N,/Microcontroller/display_DP2*%
X83568663Y-59175000D02*
X84083663Y-59690000D01*
X104902000Y-59690000D02*
X105590000Y-59002000D01*
X84083663Y-59690000D02*
X104902000Y-59690000D01*
X105590000Y-59002000D02*
X105590000Y-43250000D01*
%TO.N,/Microcontroller/display_A1*%
X77470000Y-65532000D02*
X77978000Y-66040000D01*
X79274314Y-66040000D02*
X96691998Y-66040000D01*
X77470000Y-58928000D02*
X77470000Y-65532000D01*
X77978000Y-66040000D02*
X79274314Y-66040000D01*
X96691998Y-66040000D02*
X96696099Y-66035899D01*
%TO.N,/Microcontroller/display_C1*%
X96704299Y-37706598D02*
X96197701Y-37200000D01*
X72782000Y-37200000D02*
X72136000Y-37846000D01*
X72136000Y-37846000D02*
X72136000Y-53086000D01*
X96704299Y-43405704D02*
X96704299Y-37706598D01*
X96197701Y-37200000D02*
X72782000Y-37200000D01*
%TO.N,/Microcontroller/display_D1*%
X73300000Y-37600000D02*
X72644000Y-38256000D01*
X93226000Y-37600000D02*
X73300000Y-37600000D01*
X72644000Y-38256000D02*
X72644000Y-53594000D01*
X93980000Y-38354000D02*
X93226000Y-37600000D01*
X93980000Y-43434000D02*
X93980000Y-38354000D01*
%TO.N,/Microcontroller/display_E1*%
X92377554Y-43582753D02*
X92378099Y-43582208D01*
X92377554Y-54322446D02*
X92377554Y-43582753D01*
X77978000Y-54864000D02*
X91836000Y-54864000D01*
X91836000Y-54864000D02*
X92377554Y-54322446D01*
X77851000Y-54737000D02*
X77978000Y-54864000D01*
%TO.N,/Microcontroller/display_G1*%
X73406000Y-68580000D02*
X92398801Y-68580000D01*
X72898000Y-61976000D02*
X72898000Y-68072000D01*
X72898000Y-68072000D02*
X73406000Y-68580000D01*
%TO.N,/Microcontroller/display_DP1*%
X98298000Y-55118000D02*
X97790000Y-55626000D01*
X98298000Y-43434000D02*
X98298000Y-55118000D01*
X78399000Y-56475000D02*
X85685000Y-56475000D01*
X89662000Y-55626000D02*
X89408000Y-55880000D01*
X85685000Y-56475000D02*
X86106000Y-56896000D01*
X86106000Y-56896000D02*
X87884000Y-56896000D01*
X97790000Y-55626000D02*
X89662000Y-55626000D01*
%TO.N,/Microcontroller/QSPI_SCLK*%
X75303500Y-49649500D02*
X75044847Y-49390847D01*
X75044847Y-49390847D02*
X75044847Y-41680966D01*
X78940540Y-49649500D02*
X75303500Y-49649500D01*
%TO.N,/Microcontroller/QSPI_SD3*%
X79388000Y-50074500D02*
X74204500Y-50074500D01*
X79424500Y-50038000D02*
X79388000Y-50074500D01*
X74204500Y-50074500D02*
X73771966Y-49641966D01*
X73771966Y-49641966D02*
X73771966Y-41660438D01*
%TO.N,/Microcontroller/LED*%
X83458519Y-53701481D02*
X82618444Y-53701481D01*
X83879117Y-53280883D02*
X83458519Y-53701481D01*
X83879117Y-51205000D02*
X83879117Y-53280883D01*
%TD*%
M02*
