%TF.GenerationSoftware,KiCad,Pcbnew,(7.0.0)*%
%TF.CreationDate,2023-04-15T16:40:11+03:00*%
%TF.ProjectId,Raspi Pico Board,52617370-6920-4506-9963-6f20426f6172,rev?*%
%TF.SameCoordinates,Original*%
%TF.FileFunction,Legend,Top*%
%TF.FilePolarity,Positive*%
%FSLAX46Y46*%
G04 Gerber Fmt 4.6, Leading zero omitted, Abs format (unit mm)*
G04 Created by KiCad (PCBNEW (7.0.0)) date 2023-04-15 16:40:11*
%MOMM*%
%LPD*%
G01*
G04 APERTURE LIST*
%ADD10C,0.130000*%
%ADD11C,0.120000*%
G04 APERTURE END LIST*
D10*
X49114000Y-69110333D02*
X49080666Y-69077000D01*
X49080666Y-69077000D02*
X49014000Y-69043666D01*
X49014000Y-69043666D02*
X48947333Y-69043666D01*
X48947333Y-69043666D02*
X48880666Y-69077000D01*
X48880666Y-69077000D02*
X48847333Y-69110333D01*
X48847333Y-69110333D02*
X48814000Y-69177000D01*
X48814000Y-69177000D02*
X48814000Y-69243666D01*
X48814000Y-69243666D02*
X48847333Y-69310333D01*
X48847333Y-69310333D02*
X48880666Y-69343666D01*
X48880666Y-69343666D02*
X48947333Y-69377000D01*
X48947333Y-69377000D02*
X49014000Y-69377000D01*
X49014000Y-69377000D02*
X49080666Y-69343666D01*
X49080666Y-69343666D02*
X49114000Y-69310333D01*
X49114000Y-69043666D02*
X49114000Y-69310333D01*
X49114000Y-69310333D02*
X49147333Y-69343666D01*
X49147333Y-69343666D02*
X49180666Y-69343666D01*
X49180666Y-69343666D02*
X49247333Y-69310333D01*
X49247333Y-69310333D02*
X49280666Y-69243666D01*
X49280666Y-69243666D02*
X49280666Y-69077000D01*
X49280666Y-69077000D02*
X49214000Y-68977000D01*
X49214000Y-68977000D02*
X49114000Y-68910333D01*
X49114000Y-68910333D02*
X48980666Y-68877000D01*
X48980666Y-68877000D02*
X48847333Y-68910333D01*
X48847333Y-68910333D02*
X48747333Y-68977000D01*
X48747333Y-68977000D02*
X48680666Y-69077000D01*
X48680666Y-69077000D02*
X48647333Y-69210333D01*
X48647333Y-69210333D02*
X48680666Y-69343666D01*
X48680666Y-69343666D02*
X48747333Y-69443666D01*
X48747333Y-69443666D02*
X48847333Y-69510333D01*
X48847333Y-69510333D02*
X48980666Y-69543666D01*
X48980666Y-69543666D02*
X49114000Y-69510333D01*
X49114000Y-69510333D02*
X49214000Y-69443666D01*
X49580666Y-69443666D02*
X49580666Y-68743666D01*
X49580666Y-68743666D02*
X49814000Y-69243666D01*
X49814000Y-69243666D02*
X50047333Y-68743666D01*
X50047333Y-68743666D02*
X50047333Y-69443666D01*
X50380666Y-69443666D02*
X50380666Y-68743666D01*
X50380666Y-68743666D02*
X50547333Y-68743666D01*
X50547333Y-68743666D02*
X50647333Y-68777000D01*
X50647333Y-68777000D02*
X50714000Y-68843666D01*
X50714000Y-68843666D02*
X50747333Y-68910333D01*
X50747333Y-68910333D02*
X50780666Y-69043666D01*
X50780666Y-69043666D02*
X50780666Y-69143666D01*
X50780666Y-69143666D02*
X50747333Y-69277000D01*
X50747333Y-69277000D02*
X50714000Y-69343666D01*
X50714000Y-69343666D02*
X50647333Y-69410333D01*
X50647333Y-69410333D02*
X50547333Y-69443666D01*
X50547333Y-69443666D02*
X50380666Y-69443666D01*
X82354666Y-38963666D02*
X82121333Y-38630333D01*
X81954666Y-38963666D02*
X81954666Y-38263666D01*
X81954666Y-38263666D02*
X82221333Y-38263666D01*
X82221333Y-38263666D02*
X82288000Y-38297000D01*
X82288000Y-38297000D02*
X82321333Y-38330333D01*
X82321333Y-38330333D02*
X82354666Y-38397000D01*
X82354666Y-38397000D02*
X82354666Y-38497000D01*
X82354666Y-38497000D02*
X82321333Y-38563666D01*
X82321333Y-38563666D02*
X82288000Y-38597000D01*
X82288000Y-38597000D02*
X82221333Y-38630333D01*
X82221333Y-38630333D02*
X81954666Y-38630333D01*
X82654666Y-38963666D02*
X82654666Y-38263666D01*
X82654666Y-38263666D02*
X82921333Y-38263666D01*
X82921333Y-38263666D02*
X82988000Y-38297000D01*
X82988000Y-38297000D02*
X83021333Y-38330333D01*
X83021333Y-38330333D02*
X83054666Y-38397000D01*
X83054666Y-38397000D02*
X83054666Y-38497000D01*
X83054666Y-38497000D02*
X83021333Y-38563666D01*
X83021333Y-38563666D02*
X82988000Y-38597000D01*
X82988000Y-38597000D02*
X82921333Y-38630333D01*
X82921333Y-38630333D02*
X82654666Y-38630333D01*
X83321333Y-38330333D02*
X83354666Y-38297000D01*
X83354666Y-38297000D02*
X83421333Y-38263666D01*
X83421333Y-38263666D02*
X83588000Y-38263666D01*
X83588000Y-38263666D02*
X83654666Y-38297000D01*
X83654666Y-38297000D02*
X83688000Y-38330333D01*
X83688000Y-38330333D02*
X83721333Y-38397000D01*
X83721333Y-38397000D02*
X83721333Y-38463666D01*
X83721333Y-38463666D02*
X83688000Y-38563666D01*
X83688000Y-38563666D02*
X83288000Y-38963666D01*
X83288000Y-38963666D02*
X83721333Y-38963666D01*
X84154667Y-38263666D02*
X84221333Y-38263666D01*
X84221333Y-38263666D02*
X84288000Y-38297000D01*
X84288000Y-38297000D02*
X84321333Y-38330333D01*
X84321333Y-38330333D02*
X84354667Y-38397000D01*
X84354667Y-38397000D02*
X84388000Y-38530333D01*
X84388000Y-38530333D02*
X84388000Y-38697000D01*
X84388000Y-38697000D02*
X84354667Y-38830333D01*
X84354667Y-38830333D02*
X84321333Y-38897000D01*
X84321333Y-38897000D02*
X84288000Y-38930333D01*
X84288000Y-38930333D02*
X84221333Y-38963666D01*
X84221333Y-38963666D02*
X84154667Y-38963666D01*
X84154667Y-38963666D02*
X84088000Y-38930333D01*
X84088000Y-38930333D02*
X84054667Y-38897000D01*
X84054667Y-38897000D02*
X84021333Y-38830333D01*
X84021333Y-38830333D02*
X83988000Y-38697000D01*
X83988000Y-38697000D02*
X83988000Y-38530333D01*
X83988000Y-38530333D02*
X84021333Y-38397000D01*
X84021333Y-38397000D02*
X84054667Y-38330333D01*
X84054667Y-38330333D02*
X84088000Y-38297000D01*
X84088000Y-38297000D02*
X84154667Y-38263666D01*
X84988000Y-38497000D02*
X84988000Y-38963666D01*
X84821334Y-38230333D02*
X84654667Y-38730333D01*
X84654667Y-38730333D02*
X85088000Y-38730333D01*
X85488001Y-38263666D02*
X85554667Y-38263666D01*
X85554667Y-38263666D02*
X85621334Y-38297000D01*
X85621334Y-38297000D02*
X85654667Y-38330333D01*
X85654667Y-38330333D02*
X85688001Y-38397000D01*
X85688001Y-38397000D02*
X85721334Y-38530333D01*
X85721334Y-38530333D02*
X85721334Y-38697000D01*
X85721334Y-38697000D02*
X85688001Y-38830333D01*
X85688001Y-38830333D02*
X85654667Y-38897000D01*
X85654667Y-38897000D02*
X85621334Y-38930333D01*
X85621334Y-38930333D02*
X85554667Y-38963666D01*
X85554667Y-38963666D02*
X85488001Y-38963666D01*
X85488001Y-38963666D02*
X85421334Y-38930333D01*
X85421334Y-38930333D02*
X85388001Y-38897000D01*
X85388001Y-38897000D02*
X85354667Y-38830333D01*
X85354667Y-38830333D02*
X85321334Y-38697000D01*
X85321334Y-38697000D02*
X85321334Y-38530333D01*
X85321334Y-38530333D02*
X85354667Y-38397000D01*
X85354667Y-38397000D02*
X85388001Y-38330333D01*
X85388001Y-38330333D02*
X85421334Y-38297000D01*
X85421334Y-38297000D02*
X85488001Y-38263666D01*
X86441334Y-38963666D02*
X86441334Y-38263666D01*
X86441334Y-38263666D02*
X86608001Y-38263666D01*
X86608001Y-38263666D02*
X86708001Y-38297000D01*
X86708001Y-38297000D02*
X86774668Y-38363666D01*
X86774668Y-38363666D02*
X86808001Y-38430333D01*
X86808001Y-38430333D02*
X86841334Y-38563666D01*
X86841334Y-38563666D02*
X86841334Y-38663666D01*
X86841334Y-38663666D02*
X86808001Y-38797000D01*
X86808001Y-38797000D02*
X86774668Y-38863666D01*
X86774668Y-38863666D02*
X86708001Y-38930333D01*
X86708001Y-38930333D02*
X86608001Y-38963666D01*
X86608001Y-38963666D02*
X86441334Y-38963666D01*
X87408001Y-38930333D02*
X87341334Y-38963666D01*
X87341334Y-38963666D02*
X87208001Y-38963666D01*
X87208001Y-38963666D02*
X87141334Y-38930333D01*
X87141334Y-38930333D02*
X87108001Y-38863666D01*
X87108001Y-38863666D02*
X87108001Y-38597000D01*
X87108001Y-38597000D02*
X87141334Y-38530333D01*
X87141334Y-38530333D02*
X87208001Y-38497000D01*
X87208001Y-38497000D02*
X87341334Y-38497000D01*
X87341334Y-38497000D02*
X87408001Y-38530333D01*
X87408001Y-38530333D02*
X87441334Y-38597000D01*
X87441334Y-38597000D02*
X87441334Y-38663666D01*
X87441334Y-38663666D02*
X87108001Y-38730333D01*
X87674668Y-38497000D02*
X87841334Y-38963666D01*
X87841334Y-38963666D02*
X88008001Y-38497000D01*
X88541334Y-38930333D02*
X88474667Y-38963666D01*
X88474667Y-38963666D02*
X88341334Y-38963666D01*
X88341334Y-38963666D02*
X88274667Y-38930333D01*
X88274667Y-38930333D02*
X88241334Y-38863666D01*
X88241334Y-38863666D02*
X88241334Y-38597000D01*
X88241334Y-38597000D02*
X88274667Y-38530333D01*
X88274667Y-38530333D02*
X88341334Y-38497000D01*
X88341334Y-38497000D02*
X88474667Y-38497000D01*
X88474667Y-38497000D02*
X88541334Y-38530333D01*
X88541334Y-38530333D02*
X88574667Y-38597000D01*
X88574667Y-38597000D02*
X88574667Y-38663666D01*
X88574667Y-38663666D02*
X88241334Y-38730333D01*
X88974667Y-38963666D02*
X88908001Y-38930333D01*
X88908001Y-38930333D02*
X88874667Y-38863666D01*
X88874667Y-38863666D02*
X88874667Y-38263666D01*
X89341334Y-38963666D02*
X89274668Y-38930333D01*
X89274668Y-38930333D02*
X89241334Y-38897000D01*
X89241334Y-38897000D02*
X89208001Y-38830333D01*
X89208001Y-38830333D02*
X89208001Y-38630333D01*
X89208001Y-38630333D02*
X89241334Y-38563666D01*
X89241334Y-38563666D02*
X89274668Y-38530333D01*
X89274668Y-38530333D02*
X89341334Y-38497000D01*
X89341334Y-38497000D02*
X89441334Y-38497000D01*
X89441334Y-38497000D02*
X89508001Y-38530333D01*
X89508001Y-38530333D02*
X89541334Y-38563666D01*
X89541334Y-38563666D02*
X89574668Y-38630333D01*
X89574668Y-38630333D02*
X89574668Y-38830333D01*
X89574668Y-38830333D02*
X89541334Y-38897000D01*
X89541334Y-38897000D02*
X89508001Y-38930333D01*
X89508001Y-38930333D02*
X89441334Y-38963666D01*
X89441334Y-38963666D02*
X89341334Y-38963666D01*
X89874667Y-38497000D02*
X89874667Y-39197000D01*
X89874667Y-38530333D02*
X89941334Y-38497000D01*
X89941334Y-38497000D02*
X90074667Y-38497000D01*
X90074667Y-38497000D02*
X90141334Y-38530333D01*
X90141334Y-38530333D02*
X90174667Y-38563666D01*
X90174667Y-38563666D02*
X90208001Y-38630333D01*
X90208001Y-38630333D02*
X90208001Y-38830333D01*
X90208001Y-38830333D02*
X90174667Y-38897000D01*
X90174667Y-38897000D02*
X90141334Y-38930333D01*
X90141334Y-38930333D02*
X90074667Y-38963666D01*
X90074667Y-38963666D02*
X89941334Y-38963666D01*
X89941334Y-38963666D02*
X89874667Y-38930333D01*
X90508000Y-38963666D02*
X90508000Y-38497000D01*
X90508000Y-38563666D02*
X90541334Y-38530333D01*
X90541334Y-38530333D02*
X90608000Y-38497000D01*
X90608000Y-38497000D02*
X90708000Y-38497000D01*
X90708000Y-38497000D02*
X90774667Y-38530333D01*
X90774667Y-38530333D02*
X90808000Y-38597000D01*
X90808000Y-38597000D02*
X90808000Y-38963666D01*
X90808000Y-38597000D02*
X90841334Y-38530333D01*
X90841334Y-38530333D02*
X90908000Y-38497000D01*
X90908000Y-38497000D02*
X91008000Y-38497000D01*
X91008000Y-38497000D02*
X91074667Y-38530333D01*
X91074667Y-38530333D02*
X91108000Y-38597000D01*
X91108000Y-38597000D02*
X91108000Y-38963666D01*
X91708000Y-38930333D02*
X91641333Y-38963666D01*
X91641333Y-38963666D02*
X91508000Y-38963666D01*
X91508000Y-38963666D02*
X91441333Y-38930333D01*
X91441333Y-38930333D02*
X91408000Y-38863666D01*
X91408000Y-38863666D02*
X91408000Y-38597000D01*
X91408000Y-38597000D02*
X91441333Y-38530333D01*
X91441333Y-38530333D02*
X91508000Y-38497000D01*
X91508000Y-38497000D02*
X91641333Y-38497000D01*
X91641333Y-38497000D02*
X91708000Y-38530333D01*
X91708000Y-38530333D02*
X91741333Y-38597000D01*
X91741333Y-38597000D02*
X91741333Y-38663666D01*
X91741333Y-38663666D02*
X91408000Y-38730333D01*
X92041333Y-38497000D02*
X92041333Y-38963666D01*
X92041333Y-38563666D02*
X92074667Y-38530333D01*
X92074667Y-38530333D02*
X92141333Y-38497000D01*
X92141333Y-38497000D02*
X92241333Y-38497000D01*
X92241333Y-38497000D02*
X92308000Y-38530333D01*
X92308000Y-38530333D02*
X92341333Y-38597000D01*
X92341333Y-38597000D02*
X92341333Y-38963666D01*
X92574666Y-38497000D02*
X92841333Y-38497000D01*
X92674666Y-38263666D02*
X92674666Y-38863666D01*
X92674666Y-38863666D02*
X92708000Y-38930333D01*
X92708000Y-38930333D02*
X92774666Y-38963666D01*
X92774666Y-38963666D02*
X92841333Y-38963666D01*
X93728000Y-38597000D02*
X93828000Y-38630333D01*
X93828000Y-38630333D02*
X93861333Y-38663666D01*
X93861333Y-38663666D02*
X93894666Y-38730333D01*
X93894666Y-38730333D02*
X93894666Y-38830333D01*
X93894666Y-38830333D02*
X93861333Y-38897000D01*
X93861333Y-38897000D02*
X93828000Y-38930333D01*
X93828000Y-38930333D02*
X93761333Y-38963666D01*
X93761333Y-38963666D02*
X93494666Y-38963666D01*
X93494666Y-38963666D02*
X93494666Y-38263666D01*
X93494666Y-38263666D02*
X93728000Y-38263666D01*
X93728000Y-38263666D02*
X93794666Y-38297000D01*
X93794666Y-38297000D02*
X93828000Y-38330333D01*
X93828000Y-38330333D02*
X93861333Y-38397000D01*
X93861333Y-38397000D02*
X93861333Y-38463666D01*
X93861333Y-38463666D02*
X93828000Y-38530333D01*
X93828000Y-38530333D02*
X93794666Y-38563666D01*
X93794666Y-38563666D02*
X93728000Y-38597000D01*
X93728000Y-38597000D02*
X93494666Y-38597000D01*
X94294666Y-38963666D02*
X94228000Y-38930333D01*
X94228000Y-38930333D02*
X94194666Y-38897000D01*
X94194666Y-38897000D02*
X94161333Y-38830333D01*
X94161333Y-38830333D02*
X94161333Y-38630333D01*
X94161333Y-38630333D02*
X94194666Y-38563666D01*
X94194666Y-38563666D02*
X94228000Y-38530333D01*
X94228000Y-38530333D02*
X94294666Y-38497000D01*
X94294666Y-38497000D02*
X94394666Y-38497000D01*
X94394666Y-38497000D02*
X94461333Y-38530333D01*
X94461333Y-38530333D02*
X94494666Y-38563666D01*
X94494666Y-38563666D02*
X94528000Y-38630333D01*
X94528000Y-38630333D02*
X94528000Y-38830333D01*
X94528000Y-38830333D02*
X94494666Y-38897000D01*
X94494666Y-38897000D02*
X94461333Y-38930333D01*
X94461333Y-38930333D02*
X94394666Y-38963666D01*
X94394666Y-38963666D02*
X94294666Y-38963666D01*
X95127999Y-38963666D02*
X95127999Y-38597000D01*
X95127999Y-38597000D02*
X95094666Y-38530333D01*
X95094666Y-38530333D02*
X95027999Y-38497000D01*
X95027999Y-38497000D02*
X94894666Y-38497000D01*
X94894666Y-38497000D02*
X94827999Y-38530333D01*
X95127999Y-38930333D02*
X95061333Y-38963666D01*
X95061333Y-38963666D02*
X94894666Y-38963666D01*
X94894666Y-38963666D02*
X94827999Y-38930333D01*
X94827999Y-38930333D02*
X94794666Y-38863666D01*
X94794666Y-38863666D02*
X94794666Y-38797000D01*
X94794666Y-38797000D02*
X94827999Y-38730333D01*
X94827999Y-38730333D02*
X94894666Y-38697000D01*
X94894666Y-38697000D02*
X95061333Y-38697000D01*
X95061333Y-38697000D02*
X95127999Y-38663666D01*
X95461332Y-38963666D02*
X95461332Y-38497000D01*
X95461332Y-38630333D02*
X95494666Y-38563666D01*
X95494666Y-38563666D02*
X95527999Y-38530333D01*
X95527999Y-38530333D02*
X95594666Y-38497000D01*
X95594666Y-38497000D02*
X95661332Y-38497000D01*
X96194665Y-38963666D02*
X96194665Y-38263666D01*
X96194665Y-38930333D02*
X96127999Y-38963666D01*
X96127999Y-38963666D02*
X95994665Y-38963666D01*
X95994665Y-38963666D02*
X95927999Y-38930333D01*
X95927999Y-38930333D02*
X95894665Y-38897000D01*
X95894665Y-38897000D02*
X95861332Y-38830333D01*
X95861332Y-38830333D02*
X95861332Y-38630333D01*
X95861332Y-38630333D02*
X95894665Y-38563666D01*
X95894665Y-38563666D02*
X95927999Y-38530333D01*
X95927999Y-38530333D02*
X95994665Y-38497000D01*
X95994665Y-38497000D02*
X96127999Y-38497000D01*
X96127999Y-38497000D02*
X96194665Y-38530333D01*
X88704666Y-62077666D02*
X88471333Y-61744333D01*
X88304666Y-62077666D02*
X88304666Y-61377666D01*
X88304666Y-61377666D02*
X88571333Y-61377666D01*
X88571333Y-61377666D02*
X88638000Y-61411000D01*
X88638000Y-61411000D02*
X88671333Y-61444333D01*
X88671333Y-61444333D02*
X88704666Y-61511000D01*
X88704666Y-61511000D02*
X88704666Y-61611000D01*
X88704666Y-61611000D02*
X88671333Y-61677666D01*
X88671333Y-61677666D02*
X88638000Y-61711000D01*
X88638000Y-61711000D02*
X88571333Y-61744333D01*
X88571333Y-61744333D02*
X88304666Y-61744333D01*
X89271333Y-62044333D02*
X89204666Y-62077666D01*
X89204666Y-62077666D02*
X89071333Y-62077666D01*
X89071333Y-62077666D02*
X89004666Y-62044333D01*
X89004666Y-62044333D02*
X88971333Y-61977666D01*
X88971333Y-61977666D02*
X88971333Y-61711000D01*
X88971333Y-61711000D02*
X89004666Y-61644333D01*
X89004666Y-61644333D02*
X89071333Y-61611000D01*
X89071333Y-61611000D02*
X89204666Y-61611000D01*
X89204666Y-61611000D02*
X89271333Y-61644333D01*
X89271333Y-61644333D02*
X89304666Y-61711000D01*
X89304666Y-61711000D02*
X89304666Y-61777666D01*
X89304666Y-61777666D02*
X88971333Y-61844333D01*
X89571333Y-62044333D02*
X89638000Y-62077666D01*
X89638000Y-62077666D02*
X89771333Y-62077666D01*
X89771333Y-62077666D02*
X89838000Y-62044333D01*
X89838000Y-62044333D02*
X89871333Y-61977666D01*
X89871333Y-61977666D02*
X89871333Y-61944333D01*
X89871333Y-61944333D02*
X89838000Y-61877666D01*
X89838000Y-61877666D02*
X89771333Y-61844333D01*
X89771333Y-61844333D02*
X89671333Y-61844333D01*
X89671333Y-61844333D02*
X89604666Y-61811000D01*
X89604666Y-61811000D02*
X89571333Y-61744333D01*
X89571333Y-61744333D02*
X89571333Y-61711000D01*
X89571333Y-61711000D02*
X89604666Y-61644333D01*
X89604666Y-61644333D02*
X89671333Y-61611000D01*
X89671333Y-61611000D02*
X89771333Y-61611000D01*
X89771333Y-61611000D02*
X89838000Y-61644333D01*
X90438000Y-62044333D02*
X90371333Y-62077666D01*
X90371333Y-62077666D02*
X90238000Y-62077666D01*
X90238000Y-62077666D02*
X90171333Y-62044333D01*
X90171333Y-62044333D02*
X90138000Y-61977666D01*
X90138000Y-61977666D02*
X90138000Y-61711000D01*
X90138000Y-61711000D02*
X90171333Y-61644333D01*
X90171333Y-61644333D02*
X90238000Y-61611000D01*
X90238000Y-61611000D02*
X90371333Y-61611000D01*
X90371333Y-61611000D02*
X90438000Y-61644333D01*
X90438000Y-61644333D02*
X90471333Y-61711000D01*
X90471333Y-61711000D02*
X90471333Y-61777666D01*
X90471333Y-61777666D02*
X90138000Y-61844333D01*
X90671333Y-61611000D02*
X90938000Y-61611000D01*
X90771333Y-61377666D02*
X90771333Y-61977666D01*
X90771333Y-61977666D02*
X90804667Y-62044333D01*
X90804667Y-62044333D02*
X90871333Y-62077666D01*
X90871333Y-62077666D02*
X90938000Y-62077666D01*
X64933666Y-66227333D02*
X64933666Y-65827333D01*
X65633666Y-66027333D02*
X64933666Y-66027333D01*
X65600333Y-65327333D02*
X65633666Y-65394000D01*
X65633666Y-65394000D02*
X65633666Y-65527333D01*
X65633666Y-65527333D02*
X65600333Y-65594000D01*
X65600333Y-65594000D02*
X65533666Y-65627333D01*
X65533666Y-65627333D02*
X65267000Y-65627333D01*
X65267000Y-65627333D02*
X65200333Y-65594000D01*
X65200333Y-65594000D02*
X65167000Y-65527333D01*
X65167000Y-65527333D02*
X65167000Y-65394000D01*
X65167000Y-65394000D02*
X65200333Y-65327333D01*
X65200333Y-65327333D02*
X65267000Y-65294000D01*
X65267000Y-65294000D02*
X65333666Y-65294000D01*
X65333666Y-65294000D02*
X65400333Y-65627333D01*
X65633666Y-64994000D02*
X65167000Y-64994000D01*
X65233666Y-64994000D02*
X65200333Y-64960667D01*
X65200333Y-64960667D02*
X65167000Y-64894000D01*
X65167000Y-64894000D02*
X65167000Y-64794000D01*
X65167000Y-64794000D02*
X65200333Y-64727333D01*
X65200333Y-64727333D02*
X65267000Y-64694000D01*
X65267000Y-64694000D02*
X65633666Y-64694000D01*
X65267000Y-64694000D02*
X65200333Y-64660667D01*
X65200333Y-64660667D02*
X65167000Y-64594000D01*
X65167000Y-64594000D02*
X65167000Y-64494000D01*
X65167000Y-64494000D02*
X65200333Y-64427333D01*
X65200333Y-64427333D02*
X65267000Y-64394000D01*
X65267000Y-64394000D02*
X65633666Y-64394000D01*
X65167000Y-64060667D02*
X65867000Y-64060667D01*
X65200333Y-64060667D02*
X65167000Y-63994000D01*
X65167000Y-63994000D02*
X65167000Y-63860667D01*
X65167000Y-63860667D02*
X65200333Y-63794000D01*
X65200333Y-63794000D02*
X65233666Y-63760667D01*
X65233666Y-63760667D02*
X65300333Y-63727334D01*
X65300333Y-63727334D02*
X65500333Y-63727334D01*
X65500333Y-63727334D02*
X65567000Y-63760667D01*
X65567000Y-63760667D02*
X65600333Y-63794000D01*
X65600333Y-63794000D02*
X65633666Y-63860667D01*
X65633666Y-63860667D02*
X65633666Y-63994000D01*
X65633666Y-63994000D02*
X65600333Y-64060667D01*
X65600333Y-63040667D02*
X65633666Y-62940667D01*
X65633666Y-62940667D02*
X65633666Y-62774001D01*
X65633666Y-62774001D02*
X65600333Y-62707334D01*
X65600333Y-62707334D02*
X65567000Y-62674001D01*
X65567000Y-62674001D02*
X65500333Y-62640667D01*
X65500333Y-62640667D02*
X65433666Y-62640667D01*
X65433666Y-62640667D02*
X65367000Y-62674001D01*
X65367000Y-62674001D02*
X65333666Y-62707334D01*
X65333666Y-62707334D02*
X65300333Y-62774001D01*
X65300333Y-62774001D02*
X65267000Y-62907334D01*
X65267000Y-62907334D02*
X65233666Y-62974001D01*
X65233666Y-62974001D02*
X65200333Y-63007334D01*
X65200333Y-63007334D02*
X65133666Y-63040667D01*
X65133666Y-63040667D02*
X65067000Y-63040667D01*
X65067000Y-63040667D02*
X65000333Y-63007334D01*
X65000333Y-63007334D02*
X64967000Y-62974001D01*
X64967000Y-62974001D02*
X64933666Y-62907334D01*
X64933666Y-62907334D02*
X64933666Y-62740667D01*
X64933666Y-62740667D02*
X64967000Y-62640667D01*
X65600333Y-62074000D02*
X65633666Y-62140667D01*
X65633666Y-62140667D02*
X65633666Y-62274000D01*
X65633666Y-62274000D02*
X65600333Y-62340667D01*
X65600333Y-62340667D02*
X65533666Y-62374000D01*
X65533666Y-62374000D02*
X65267000Y-62374000D01*
X65267000Y-62374000D02*
X65200333Y-62340667D01*
X65200333Y-62340667D02*
X65167000Y-62274000D01*
X65167000Y-62274000D02*
X65167000Y-62140667D01*
X65167000Y-62140667D02*
X65200333Y-62074000D01*
X65200333Y-62074000D02*
X65267000Y-62040667D01*
X65267000Y-62040667D02*
X65333666Y-62040667D01*
X65333666Y-62040667D02*
X65400333Y-62374000D01*
X65167000Y-61740667D02*
X65633666Y-61740667D01*
X65233666Y-61740667D02*
X65200333Y-61707334D01*
X65200333Y-61707334D02*
X65167000Y-61640667D01*
X65167000Y-61640667D02*
X65167000Y-61540667D01*
X65167000Y-61540667D02*
X65200333Y-61474000D01*
X65200333Y-61474000D02*
X65267000Y-61440667D01*
X65267000Y-61440667D02*
X65633666Y-61440667D01*
X65600333Y-61140667D02*
X65633666Y-61074001D01*
X65633666Y-61074001D02*
X65633666Y-60940667D01*
X65633666Y-60940667D02*
X65600333Y-60874001D01*
X65600333Y-60874001D02*
X65533666Y-60840667D01*
X65533666Y-60840667D02*
X65500333Y-60840667D01*
X65500333Y-60840667D02*
X65433666Y-60874001D01*
X65433666Y-60874001D02*
X65400333Y-60940667D01*
X65400333Y-60940667D02*
X65400333Y-61040667D01*
X65400333Y-61040667D02*
X65367000Y-61107334D01*
X65367000Y-61107334D02*
X65300333Y-61140667D01*
X65300333Y-61140667D02*
X65267000Y-61140667D01*
X65267000Y-61140667D02*
X65200333Y-61107334D01*
X65200333Y-61107334D02*
X65167000Y-61040667D01*
X65167000Y-61040667D02*
X65167000Y-60940667D01*
X65167000Y-60940667D02*
X65200333Y-60874001D01*
X65633666Y-60440667D02*
X65600333Y-60507334D01*
X65600333Y-60507334D02*
X65567000Y-60540667D01*
X65567000Y-60540667D02*
X65500333Y-60574000D01*
X65500333Y-60574000D02*
X65300333Y-60574000D01*
X65300333Y-60574000D02*
X65233666Y-60540667D01*
X65233666Y-60540667D02*
X65200333Y-60507334D01*
X65200333Y-60507334D02*
X65167000Y-60440667D01*
X65167000Y-60440667D02*
X65167000Y-60340667D01*
X65167000Y-60340667D02*
X65200333Y-60274000D01*
X65200333Y-60274000D02*
X65233666Y-60240667D01*
X65233666Y-60240667D02*
X65300333Y-60207334D01*
X65300333Y-60207334D02*
X65500333Y-60207334D01*
X65500333Y-60207334D02*
X65567000Y-60240667D01*
X65567000Y-60240667D02*
X65600333Y-60274000D01*
X65600333Y-60274000D02*
X65633666Y-60340667D01*
X65633666Y-60340667D02*
X65633666Y-60440667D01*
X65633666Y-59907334D02*
X65167000Y-59907334D01*
X65300333Y-59907334D02*
X65233666Y-59874001D01*
X65233666Y-59874001D02*
X65200333Y-59840667D01*
X65200333Y-59840667D02*
X65167000Y-59774001D01*
X65167000Y-59774001D02*
X65167000Y-59707334D01*
X51220666Y-59345666D02*
X51220666Y-59912333D01*
X51220666Y-59912333D02*
X51254000Y-59979000D01*
X51254000Y-59979000D02*
X51287333Y-60012333D01*
X51287333Y-60012333D02*
X51354000Y-60045666D01*
X51354000Y-60045666D02*
X51487333Y-60045666D01*
X51487333Y-60045666D02*
X51554000Y-60012333D01*
X51554000Y-60012333D02*
X51587333Y-59979000D01*
X51587333Y-59979000D02*
X51620666Y-59912333D01*
X51620666Y-59912333D02*
X51620666Y-59345666D01*
X51920666Y-60012333D02*
X51987333Y-60045666D01*
X51987333Y-60045666D02*
X52120666Y-60045666D01*
X52120666Y-60045666D02*
X52187333Y-60012333D01*
X52187333Y-60012333D02*
X52220666Y-59945666D01*
X52220666Y-59945666D02*
X52220666Y-59912333D01*
X52220666Y-59912333D02*
X52187333Y-59845666D01*
X52187333Y-59845666D02*
X52120666Y-59812333D01*
X52120666Y-59812333D02*
X52020666Y-59812333D01*
X52020666Y-59812333D02*
X51953999Y-59779000D01*
X51953999Y-59779000D02*
X51920666Y-59712333D01*
X51920666Y-59712333D02*
X51920666Y-59679000D01*
X51920666Y-59679000D02*
X51953999Y-59612333D01*
X51953999Y-59612333D02*
X52020666Y-59579000D01*
X52020666Y-59579000D02*
X52120666Y-59579000D01*
X52120666Y-59579000D02*
X52187333Y-59612333D01*
X52787333Y-60012333D02*
X52720666Y-60045666D01*
X52720666Y-60045666D02*
X52587333Y-60045666D01*
X52587333Y-60045666D02*
X52520666Y-60012333D01*
X52520666Y-60012333D02*
X52487333Y-59945666D01*
X52487333Y-59945666D02*
X52487333Y-59679000D01*
X52487333Y-59679000D02*
X52520666Y-59612333D01*
X52520666Y-59612333D02*
X52587333Y-59579000D01*
X52587333Y-59579000D02*
X52720666Y-59579000D01*
X52720666Y-59579000D02*
X52787333Y-59612333D01*
X52787333Y-59612333D02*
X52820666Y-59679000D01*
X52820666Y-59679000D02*
X52820666Y-59745666D01*
X52820666Y-59745666D02*
X52487333Y-59812333D01*
X53120666Y-60045666D02*
X53120666Y-59579000D01*
X53120666Y-59712333D02*
X53154000Y-59645666D01*
X53154000Y-59645666D02*
X53187333Y-59612333D01*
X53187333Y-59612333D02*
X53254000Y-59579000D01*
X53254000Y-59579000D02*
X53320666Y-59579000D01*
X58586666Y-43027666D02*
X58586666Y-42327666D01*
X58586666Y-42327666D02*
X58820000Y-42827666D01*
X58820000Y-42827666D02*
X59053333Y-42327666D01*
X59053333Y-42327666D02*
X59053333Y-43027666D01*
X59653333Y-42994333D02*
X59586666Y-43027666D01*
X59586666Y-43027666D02*
X59453333Y-43027666D01*
X59453333Y-43027666D02*
X59386666Y-42994333D01*
X59386666Y-42994333D02*
X59353333Y-42927666D01*
X59353333Y-42927666D02*
X59353333Y-42661000D01*
X59353333Y-42661000D02*
X59386666Y-42594333D01*
X59386666Y-42594333D02*
X59453333Y-42561000D01*
X59453333Y-42561000D02*
X59586666Y-42561000D01*
X59586666Y-42561000D02*
X59653333Y-42594333D01*
X59653333Y-42594333D02*
X59686666Y-42661000D01*
X59686666Y-42661000D02*
X59686666Y-42727666D01*
X59686666Y-42727666D02*
X59353333Y-42794333D01*
X59986666Y-43027666D02*
X59986666Y-42561000D01*
X59986666Y-42627666D02*
X60020000Y-42594333D01*
X60020000Y-42594333D02*
X60086666Y-42561000D01*
X60086666Y-42561000D02*
X60186666Y-42561000D01*
X60186666Y-42561000D02*
X60253333Y-42594333D01*
X60253333Y-42594333D02*
X60286666Y-42661000D01*
X60286666Y-42661000D02*
X60286666Y-43027666D01*
X60286666Y-42661000D02*
X60320000Y-42594333D01*
X60320000Y-42594333D02*
X60386666Y-42561000D01*
X60386666Y-42561000D02*
X60486666Y-42561000D01*
X60486666Y-42561000D02*
X60553333Y-42594333D01*
X60553333Y-42594333D02*
X60586666Y-42661000D01*
X60586666Y-42661000D02*
X60586666Y-43027666D01*
X61019999Y-43027666D02*
X60953333Y-42994333D01*
X60953333Y-42994333D02*
X60919999Y-42961000D01*
X60919999Y-42961000D02*
X60886666Y-42894333D01*
X60886666Y-42894333D02*
X60886666Y-42694333D01*
X60886666Y-42694333D02*
X60919999Y-42627666D01*
X60919999Y-42627666D02*
X60953333Y-42594333D01*
X60953333Y-42594333D02*
X61019999Y-42561000D01*
X61019999Y-42561000D02*
X61119999Y-42561000D01*
X61119999Y-42561000D02*
X61186666Y-42594333D01*
X61186666Y-42594333D02*
X61219999Y-42627666D01*
X61219999Y-42627666D02*
X61253333Y-42694333D01*
X61253333Y-42694333D02*
X61253333Y-42894333D01*
X61253333Y-42894333D02*
X61219999Y-42961000D01*
X61219999Y-42961000D02*
X61186666Y-42994333D01*
X61186666Y-42994333D02*
X61119999Y-43027666D01*
X61119999Y-43027666D02*
X61019999Y-43027666D01*
X61553332Y-43027666D02*
X61553332Y-42561000D01*
X61553332Y-42694333D02*
X61586666Y-42627666D01*
X61586666Y-42627666D02*
X61619999Y-42594333D01*
X61619999Y-42594333D02*
X61686666Y-42561000D01*
X61686666Y-42561000D02*
X61753332Y-42561000D01*
X61919999Y-42561000D02*
X62086665Y-43027666D01*
X62253332Y-42561000D02*
X62086665Y-43027666D01*
X62086665Y-43027666D02*
X62019999Y-43194333D01*
X62019999Y-43194333D02*
X61986665Y-43227666D01*
X61986665Y-43227666D02*
X61919999Y-43261000D01*
X50317333Y-41345000D02*
X50250666Y-41311666D01*
X50250666Y-41311666D02*
X50150666Y-41311666D01*
X50150666Y-41311666D02*
X50050666Y-41345000D01*
X50050666Y-41345000D02*
X49984000Y-41411666D01*
X49984000Y-41411666D02*
X49950666Y-41478333D01*
X49950666Y-41478333D02*
X49917333Y-41611666D01*
X49917333Y-41611666D02*
X49917333Y-41711666D01*
X49917333Y-41711666D02*
X49950666Y-41845000D01*
X49950666Y-41845000D02*
X49984000Y-41911666D01*
X49984000Y-41911666D02*
X50050666Y-41978333D01*
X50050666Y-41978333D02*
X50150666Y-42011666D01*
X50150666Y-42011666D02*
X50217333Y-42011666D01*
X50217333Y-42011666D02*
X50317333Y-41978333D01*
X50317333Y-41978333D02*
X50350666Y-41945000D01*
X50350666Y-41945000D02*
X50350666Y-41711666D01*
X50350666Y-41711666D02*
X50217333Y-41711666D01*
X50650666Y-42011666D02*
X50650666Y-41311666D01*
X50650666Y-41311666D02*
X51050666Y-42011666D01*
X51050666Y-42011666D02*
X51050666Y-41311666D01*
X51383999Y-42011666D02*
X51383999Y-41311666D01*
X51383999Y-41311666D02*
X51550666Y-41311666D01*
X51550666Y-41311666D02*
X51650666Y-41345000D01*
X51650666Y-41345000D02*
X51717333Y-41411666D01*
X51717333Y-41411666D02*
X51750666Y-41478333D01*
X51750666Y-41478333D02*
X51783999Y-41611666D01*
X51783999Y-41611666D02*
X51783999Y-41711666D01*
X51783999Y-41711666D02*
X51750666Y-41845000D01*
X51750666Y-41845000D02*
X51717333Y-41911666D01*
X51717333Y-41911666D02*
X51650666Y-41978333D01*
X51650666Y-41978333D02*
X51550666Y-42011666D01*
X51550666Y-42011666D02*
X51383999Y-42011666D01*
X55759333Y-68648333D02*
X55859333Y-68681666D01*
X55859333Y-68681666D02*
X56026000Y-68681666D01*
X56026000Y-68681666D02*
X56092666Y-68648333D01*
X56092666Y-68648333D02*
X56126000Y-68615000D01*
X56126000Y-68615000D02*
X56159333Y-68548333D01*
X56159333Y-68548333D02*
X56159333Y-68481666D01*
X56159333Y-68481666D02*
X56126000Y-68415000D01*
X56126000Y-68415000D02*
X56092666Y-68381666D01*
X56092666Y-68381666D02*
X56026000Y-68348333D01*
X56026000Y-68348333D02*
X55892666Y-68315000D01*
X55892666Y-68315000D02*
X55826000Y-68281666D01*
X55826000Y-68281666D02*
X55792666Y-68248333D01*
X55792666Y-68248333D02*
X55759333Y-68181666D01*
X55759333Y-68181666D02*
X55759333Y-68115000D01*
X55759333Y-68115000D02*
X55792666Y-68048333D01*
X55792666Y-68048333D02*
X55826000Y-68015000D01*
X55826000Y-68015000D02*
X55892666Y-67981666D01*
X55892666Y-67981666D02*
X56059333Y-67981666D01*
X56059333Y-67981666D02*
X56159333Y-68015000D01*
X56392667Y-67981666D02*
X56559333Y-68681666D01*
X56559333Y-68681666D02*
X56692667Y-68181666D01*
X56692667Y-68181666D02*
X56826000Y-68681666D01*
X56826000Y-68681666D02*
X56992667Y-67981666D01*
X57659333Y-68615000D02*
X57626000Y-68648333D01*
X57626000Y-68648333D02*
X57526000Y-68681666D01*
X57526000Y-68681666D02*
X57459333Y-68681666D01*
X57459333Y-68681666D02*
X57359333Y-68648333D01*
X57359333Y-68648333D02*
X57292667Y-68581666D01*
X57292667Y-68581666D02*
X57259333Y-68515000D01*
X57259333Y-68515000D02*
X57226000Y-68381666D01*
X57226000Y-68381666D02*
X57226000Y-68281666D01*
X57226000Y-68281666D02*
X57259333Y-68148333D01*
X57259333Y-68148333D02*
X57292667Y-68081666D01*
X57292667Y-68081666D02*
X57359333Y-68015000D01*
X57359333Y-68015000D02*
X57459333Y-67981666D01*
X57459333Y-67981666D02*
X57526000Y-67981666D01*
X57526000Y-67981666D02*
X57626000Y-68015000D01*
X57626000Y-68015000D02*
X57659333Y-68048333D01*
X58292667Y-68681666D02*
X57959333Y-68681666D01*
X57959333Y-68681666D02*
X57959333Y-67981666D01*
X58526000Y-68681666D02*
X58526000Y-67981666D01*
X58926000Y-68681666D02*
X58626000Y-68281666D01*
X58926000Y-67981666D02*
X58526000Y-68381666D01*
X62617333Y-68648333D02*
X62717333Y-68681666D01*
X62717333Y-68681666D02*
X62884000Y-68681666D01*
X62884000Y-68681666D02*
X62950666Y-68648333D01*
X62950666Y-68648333D02*
X62984000Y-68615000D01*
X62984000Y-68615000D02*
X63017333Y-68548333D01*
X63017333Y-68548333D02*
X63017333Y-68481666D01*
X63017333Y-68481666D02*
X62984000Y-68415000D01*
X62984000Y-68415000D02*
X62950666Y-68381666D01*
X62950666Y-68381666D02*
X62884000Y-68348333D01*
X62884000Y-68348333D02*
X62750666Y-68315000D01*
X62750666Y-68315000D02*
X62684000Y-68281666D01*
X62684000Y-68281666D02*
X62650666Y-68248333D01*
X62650666Y-68248333D02*
X62617333Y-68181666D01*
X62617333Y-68181666D02*
X62617333Y-68115000D01*
X62617333Y-68115000D02*
X62650666Y-68048333D01*
X62650666Y-68048333D02*
X62684000Y-68015000D01*
X62684000Y-68015000D02*
X62750666Y-67981666D01*
X62750666Y-67981666D02*
X62917333Y-67981666D01*
X62917333Y-67981666D02*
X63017333Y-68015000D01*
X63250667Y-67981666D02*
X63417333Y-68681666D01*
X63417333Y-68681666D02*
X63550667Y-68181666D01*
X63550667Y-68181666D02*
X63684000Y-68681666D01*
X63684000Y-68681666D02*
X63850667Y-67981666D01*
X64117333Y-68681666D02*
X64117333Y-67981666D01*
X64117333Y-67981666D02*
X64284000Y-67981666D01*
X64284000Y-67981666D02*
X64384000Y-68015000D01*
X64384000Y-68015000D02*
X64450667Y-68081666D01*
X64450667Y-68081666D02*
X64484000Y-68148333D01*
X64484000Y-68148333D02*
X64517333Y-68281666D01*
X64517333Y-68281666D02*
X64517333Y-68381666D01*
X64517333Y-68381666D02*
X64484000Y-68515000D01*
X64484000Y-68515000D02*
X64450667Y-68581666D01*
X64450667Y-68581666D02*
X64384000Y-68648333D01*
X64384000Y-68648333D02*
X64284000Y-68681666D01*
X64284000Y-68681666D02*
X64117333Y-68681666D01*
X64817333Y-68681666D02*
X64817333Y-67981666D01*
X65284000Y-67981666D02*
X65417333Y-67981666D01*
X65417333Y-67981666D02*
X65484000Y-68015000D01*
X65484000Y-68015000D02*
X65550666Y-68081666D01*
X65550666Y-68081666D02*
X65584000Y-68215000D01*
X65584000Y-68215000D02*
X65584000Y-68448333D01*
X65584000Y-68448333D02*
X65550666Y-68581666D01*
X65550666Y-68581666D02*
X65484000Y-68648333D01*
X65484000Y-68648333D02*
X65417333Y-68681666D01*
X65417333Y-68681666D02*
X65284000Y-68681666D01*
X65284000Y-68681666D02*
X65217333Y-68648333D01*
X65217333Y-68648333D02*
X65150666Y-68581666D01*
X65150666Y-68581666D02*
X65117333Y-68448333D01*
X65117333Y-68448333D02*
X65117333Y-68215000D01*
X65117333Y-68215000D02*
X65150666Y-68081666D01*
X65150666Y-68081666D02*
X65217333Y-68015000D01*
X65217333Y-68015000D02*
X65284000Y-67981666D01*
X60223333Y-68015000D02*
X60156666Y-67981666D01*
X60156666Y-67981666D02*
X60056666Y-67981666D01*
X60056666Y-67981666D02*
X59956666Y-68015000D01*
X59956666Y-68015000D02*
X59890000Y-68081666D01*
X59890000Y-68081666D02*
X59856666Y-68148333D01*
X59856666Y-68148333D02*
X59823333Y-68281666D01*
X59823333Y-68281666D02*
X59823333Y-68381666D01*
X59823333Y-68381666D02*
X59856666Y-68515000D01*
X59856666Y-68515000D02*
X59890000Y-68581666D01*
X59890000Y-68581666D02*
X59956666Y-68648333D01*
X59956666Y-68648333D02*
X60056666Y-68681666D01*
X60056666Y-68681666D02*
X60123333Y-68681666D01*
X60123333Y-68681666D02*
X60223333Y-68648333D01*
X60223333Y-68648333D02*
X60256666Y-68615000D01*
X60256666Y-68615000D02*
X60256666Y-68381666D01*
X60256666Y-68381666D02*
X60123333Y-68381666D01*
X60556666Y-68681666D02*
X60556666Y-67981666D01*
X60556666Y-67981666D02*
X60956666Y-68681666D01*
X60956666Y-68681666D02*
X60956666Y-67981666D01*
X61289999Y-68681666D02*
X61289999Y-67981666D01*
X61289999Y-67981666D02*
X61456666Y-67981666D01*
X61456666Y-67981666D02*
X61556666Y-68015000D01*
X61556666Y-68015000D02*
X61623333Y-68081666D01*
X61623333Y-68081666D02*
X61656666Y-68148333D01*
X61656666Y-68148333D02*
X61689999Y-68281666D01*
X61689999Y-68281666D02*
X61689999Y-68381666D01*
X61689999Y-68381666D02*
X61656666Y-68515000D01*
X61656666Y-68515000D02*
X61623333Y-68581666D01*
X61623333Y-68581666D02*
X61556666Y-68648333D01*
X61556666Y-68648333D02*
X61456666Y-68681666D01*
X61456666Y-68681666D02*
X61289999Y-68681666D01*
X60298000Y-41311666D02*
X60731333Y-41311666D01*
X60731333Y-41311666D02*
X60498000Y-41578333D01*
X60498000Y-41578333D02*
X60598000Y-41578333D01*
X60598000Y-41578333D02*
X60664666Y-41611666D01*
X60664666Y-41611666D02*
X60698000Y-41645000D01*
X60698000Y-41645000D02*
X60731333Y-41711666D01*
X60731333Y-41711666D02*
X60731333Y-41878333D01*
X60731333Y-41878333D02*
X60698000Y-41945000D01*
X60698000Y-41945000D02*
X60664666Y-41978333D01*
X60664666Y-41978333D02*
X60598000Y-42011666D01*
X60598000Y-42011666D02*
X60398000Y-42011666D01*
X60398000Y-42011666D02*
X60331333Y-41978333D01*
X60331333Y-41978333D02*
X60298000Y-41945000D01*
X60931333Y-41311666D02*
X61164667Y-42011666D01*
X61164667Y-42011666D02*
X61398000Y-41311666D01*
X61564667Y-41311666D02*
X61998000Y-41311666D01*
X61998000Y-41311666D02*
X61764667Y-41578333D01*
X61764667Y-41578333D02*
X61864667Y-41578333D01*
X61864667Y-41578333D02*
X61931333Y-41611666D01*
X61931333Y-41611666D02*
X61964667Y-41645000D01*
X61964667Y-41645000D02*
X61998000Y-41711666D01*
X61998000Y-41711666D02*
X61998000Y-41878333D01*
X61998000Y-41878333D02*
X61964667Y-41945000D01*
X61964667Y-41945000D02*
X61931333Y-41978333D01*
X61931333Y-41978333D02*
X61864667Y-42011666D01*
X61864667Y-42011666D02*
X61664667Y-42011666D01*
X61664667Y-42011666D02*
X61598000Y-41978333D01*
X61598000Y-41978333D02*
X61564667Y-41945000D01*
X107975333Y-67253000D02*
X107908666Y-67219666D01*
X107908666Y-67219666D02*
X107808666Y-67219666D01*
X107808666Y-67219666D02*
X107708666Y-67253000D01*
X107708666Y-67253000D02*
X107642000Y-67319666D01*
X107642000Y-67319666D02*
X107608666Y-67386333D01*
X107608666Y-67386333D02*
X107575333Y-67519666D01*
X107575333Y-67519666D02*
X107575333Y-67619666D01*
X107575333Y-67619666D02*
X107608666Y-67753000D01*
X107608666Y-67753000D02*
X107642000Y-67819666D01*
X107642000Y-67819666D02*
X107708666Y-67886333D01*
X107708666Y-67886333D02*
X107808666Y-67919666D01*
X107808666Y-67919666D02*
X107875333Y-67919666D01*
X107875333Y-67919666D02*
X107975333Y-67886333D01*
X107975333Y-67886333D02*
X108008666Y-67853000D01*
X108008666Y-67853000D02*
X108008666Y-67619666D01*
X108008666Y-67619666D02*
X107875333Y-67619666D01*
X108308666Y-67919666D02*
X108308666Y-67219666D01*
X108308666Y-67219666D02*
X108708666Y-67919666D01*
X108708666Y-67919666D02*
X108708666Y-67219666D01*
X109041999Y-67919666D02*
X109041999Y-67219666D01*
X109041999Y-67219666D02*
X109208666Y-67219666D01*
X109208666Y-67219666D02*
X109308666Y-67253000D01*
X109308666Y-67253000D02*
X109375333Y-67319666D01*
X109375333Y-67319666D02*
X109408666Y-67386333D01*
X109408666Y-67386333D02*
X109441999Y-67519666D01*
X109441999Y-67519666D02*
X109441999Y-67619666D01*
X109441999Y-67619666D02*
X109408666Y-67753000D01*
X109408666Y-67753000D02*
X109375333Y-67819666D01*
X109375333Y-67819666D02*
X109308666Y-67886333D01*
X109308666Y-67886333D02*
X109208666Y-67919666D01*
X109208666Y-67919666D02*
X109041999Y-67919666D01*
X108337333Y-64746333D02*
X108370666Y-64713000D01*
X108370666Y-64713000D02*
X108437333Y-64679666D01*
X108437333Y-64679666D02*
X108604000Y-64679666D01*
X108604000Y-64679666D02*
X108670666Y-64713000D01*
X108670666Y-64713000D02*
X108704000Y-64746333D01*
X108704000Y-64746333D02*
X108737333Y-64813000D01*
X108737333Y-64813000D02*
X108737333Y-64879666D01*
X108737333Y-64879666D02*
X108704000Y-64979666D01*
X108704000Y-64979666D02*
X108304000Y-65379666D01*
X108304000Y-65379666D02*
X108737333Y-65379666D01*
X109004000Y-64746333D02*
X109037333Y-64713000D01*
X109037333Y-64713000D02*
X109104000Y-64679666D01*
X109104000Y-64679666D02*
X109270667Y-64679666D01*
X109270667Y-64679666D02*
X109337333Y-64713000D01*
X109337333Y-64713000D02*
X109370667Y-64746333D01*
X109370667Y-64746333D02*
X109404000Y-64813000D01*
X109404000Y-64813000D02*
X109404000Y-64879666D01*
X109404000Y-64879666D02*
X109370667Y-64979666D01*
X109370667Y-64979666D02*
X108970667Y-65379666D01*
X108970667Y-65379666D02*
X109404000Y-65379666D01*
X108337333Y-62206333D02*
X108370666Y-62173000D01*
X108370666Y-62173000D02*
X108437333Y-62139666D01*
X108437333Y-62139666D02*
X108604000Y-62139666D01*
X108604000Y-62139666D02*
X108670666Y-62173000D01*
X108670666Y-62173000D02*
X108704000Y-62206333D01*
X108704000Y-62206333D02*
X108737333Y-62273000D01*
X108737333Y-62273000D02*
X108737333Y-62339666D01*
X108737333Y-62339666D02*
X108704000Y-62439666D01*
X108704000Y-62439666D02*
X108304000Y-62839666D01*
X108304000Y-62839666D02*
X108737333Y-62839666D01*
X108970667Y-62139666D02*
X109404000Y-62139666D01*
X109404000Y-62139666D02*
X109170667Y-62406333D01*
X109170667Y-62406333D02*
X109270667Y-62406333D01*
X109270667Y-62406333D02*
X109337333Y-62439666D01*
X109337333Y-62439666D02*
X109370667Y-62473000D01*
X109370667Y-62473000D02*
X109404000Y-62539666D01*
X109404000Y-62539666D02*
X109404000Y-62706333D01*
X109404000Y-62706333D02*
X109370667Y-62773000D01*
X109370667Y-62773000D02*
X109337333Y-62806333D01*
X109337333Y-62806333D02*
X109270667Y-62839666D01*
X109270667Y-62839666D02*
X109070667Y-62839666D01*
X109070667Y-62839666D02*
X109004000Y-62806333D01*
X109004000Y-62806333D02*
X108970667Y-62773000D01*
X108337333Y-59666333D02*
X108370666Y-59633000D01*
X108370666Y-59633000D02*
X108437333Y-59599666D01*
X108437333Y-59599666D02*
X108604000Y-59599666D01*
X108604000Y-59599666D02*
X108670666Y-59633000D01*
X108670666Y-59633000D02*
X108704000Y-59666333D01*
X108704000Y-59666333D02*
X108737333Y-59733000D01*
X108737333Y-59733000D02*
X108737333Y-59799666D01*
X108737333Y-59799666D02*
X108704000Y-59899666D01*
X108704000Y-59899666D02*
X108304000Y-60299666D01*
X108304000Y-60299666D02*
X108737333Y-60299666D01*
X109337333Y-59833000D02*
X109337333Y-60299666D01*
X109170667Y-59566333D02*
X109004000Y-60066333D01*
X109004000Y-60066333D02*
X109437333Y-60066333D01*
X108337333Y-54586333D02*
X108370666Y-54553000D01*
X108370666Y-54553000D02*
X108437333Y-54519666D01*
X108437333Y-54519666D02*
X108604000Y-54519666D01*
X108604000Y-54519666D02*
X108670666Y-54553000D01*
X108670666Y-54553000D02*
X108704000Y-54586333D01*
X108704000Y-54586333D02*
X108737333Y-54653000D01*
X108737333Y-54653000D02*
X108737333Y-54719666D01*
X108737333Y-54719666D02*
X108704000Y-54819666D01*
X108704000Y-54819666D02*
X108304000Y-55219666D01*
X108304000Y-55219666D02*
X108737333Y-55219666D01*
X109337333Y-54519666D02*
X109204000Y-54519666D01*
X109204000Y-54519666D02*
X109137333Y-54553000D01*
X109137333Y-54553000D02*
X109104000Y-54586333D01*
X109104000Y-54586333D02*
X109037333Y-54686333D01*
X109037333Y-54686333D02*
X109004000Y-54819666D01*
X109004000Y-54819666D02*
X109004000Y-55086333D01*
X109004000Y-55086333D02*
X109037333Y-55153000D01*
X109037333Y-55153000D02*
X109070667Y-55186333D01*
X109070667Y-55186333D02*
X109137333Y-55219666D01*
X109137333Y-55219666D02*
X109270667Y-55219666D01*
X109270667Y-55219666D02*
X109337333Y-55186333D01*
X109337333Y-55186333D02*
X109370667Y-55153000D01*
X109370667Y-55153000D02*
X109404000Y-55086333D01*
X109404000Y-55086333D02*
X109404000Y-54919666D01*
X109404000Y-54919666D02*
X109370667Y-54853000D01*
X109370667Y-54853000D02*
X109337333Y-54819666D01*
X109337333Y-54819666D02*
X109270667Y-54786333D01*
X109270667Y-54786333D02*
X109137333Y-54786333D01*
X109137333Y-54786333D02*
X109070667Y-54819666D01*
X109070667Y-54819666D02*
X109037333Y-54853000D01*
X109037333Y-54853000D02*
X109004000Y-54919666D01*
X108337333Y-52046333D02*
X108370666Y-52013000D01*
X108370666Y-52013000D02*
X108437333Y-51979666D01*
X108437333Y-51979666D02*
X108604000Y-51979666D01*
X108604000Y-51979666D02*
X108670666Y-52013000D01*
X108670666Y-52013000D02*
X108704000Y-52046333D01*
X108704000Y-52046333D02*
X108737333Y-52113000D01*
X108737333Y-52113000D02*
X108737333Y-52179666D01*
X108737333Y-52179666D02*
X108704000Y-52279666D01*
X108704000Y-52279666D02*
X108304000Y-52679666D01*
X108304000Y-52679666D02*
X108737333Y-52679666D01*
X108970667Y-51979666D02*
X109437333Y-51979666D01*
X109437333Y-51979666D02*
X109137333Y-52679666D01*
X107796000Y-57059666D02*
X108229333Y-57059666D01*
X108229333Y-57059666D02*
X107996000Y-57326333D01*
X107996000Y-57326333D02*
X108096000Y-57326333D01*
X108096000Y-57326333D02*
X108162666Y-57359666D01*
X108162666Y-57359666D02*
X108196000Y-57393000D01*
X108196000Y-57393000D02*
X108229333Y-57459666D01*
X108229333Y-57459666D02*
X108229333Y-57626333D01*
X108229333Y-57626333D02*
X108196000Y-57693000D01*
X108196000Y-57693000D02*
X108162666Y-57726333D01*
X108162666Y-57726333D02*
X108096000Y-57759666D01*
X108096000Y-57759666D02*
X107896000Y-57759666D01*
X107896000Y-57759666D02*
X107829333Y-57726333D01*
X107829333Y-57726333D02*
X107796000Y-57693000D01*
X108429333Y-57059666D02*
X108662667Y-57759666D01*
X108662667Y-57759666D02*
X108896000Y-57059666D01*
X109062667Y-57059666D02*
X109496000Y-57059666D01*
X109496000Y-57059666D02*
X109262667Y-57326333D01*
X109262667Y-57326333D02*
X109362667Y-57326333D01*
X109362667Y-57326333D02*
X109429333Y-57359666D01*
X109429333Y-57359666D02*
X109462667Y-57393000D01*
X109462667Y-57393000D02*
X109496000Y-57459666D01*
X109496000Y-57459666D02*
X109496000Y-57626333D01*
X109496000Y-57626333D02*
X109462667Y-57693000D01*
X109462667Y-57693000D02*
X109429333Y-57726333D01*
X109429333Y-57726333D02*
X109362667Y-57759666D01*
X109362667Y-57759666D02*
X109162667Y-57759666D01*
X109162667Y-57759666D02*
X109096000Y-57726333D01*
X109096000Y-57726333D02*
X109062667Y-57693000D01*
X107796000Y-49439666D02*
X108229333Y-49439666D01*
X108229333Y-49439666D02*
X107996000Y-49706333D01*
X107996000Y-49706333D02*
X108096000Y-49706333D01*
X108096000Y-49706333D02*
X108162666Y-49739666D01*
X108162666Y-49739666D02*
X108196000Y-49773000D01*
X108196000Y-49773000D02*
X108229333Y-49839666D01*
X108229333Y-49839666D02*
X108229333Y-50006333D01*
X108229333Y-50006333D02*
X108196000Y-50073000D01*
X108196000Y-50073000D02*
X108162666Y-50106333D01*
X108162666Y-50106333D02*
X108096000Y-50139666D01*
X108096000Y-50139666D02*
X107896000Y-50139666D01*
X107896000Y-50139666D02*
X107829333Y-50106333D01*
X107829333Y-50106333D02*
X107796000Y-50073000D01*
X108429333Y-49439666D02*
X108662667Y-50139666D01*
X108662667Y-50139666D02*
X108896000Y-49439666D01*
X109062667Y-49439666D02*
X109496000Y-49439666D01*
X109496000Y-49439666D02*
X109262667Y-49706333D01*
X109262667Y-49706333D02*
X109362667Y-49706333D01*
X109362667Y-49706333D02*
X109429333Y-49739666D01*
X109429333Y-49739666D02*
X109462667Y-49773000D01*
X109462667Y-49773000D02*
X109496000Y-49839666D01*
X109496000Y-49839666D02*
X109496000Y-50006333D01*
X109496000Y-50006333D02*
X109462667Y-50073000D01*
X109462667Y-50073000D02*
X109429333Y-50106333D01*
X109429333Y-50106333D02*
X109362667Y-50139666D01*
X109362667Y-50139666D02*
X109162667Y-50139666D01*
X109162667Y-50139666D02*
X109096000Y-50106333D01*
X109096000Y-50106333D02*
X109062667Y-50073000D01*
X107796000Y-46899666D02*
X108229333Y-46899666D01*
X108229333Y-46899666D02*
X107996000Y-47166333D01*
X107996000Y-47166333D02*
X108096000Y-47166333D01*
X108096000Y-47166333D02*
X108162666Y-47199666D01*
X108162666Y-47199666D02*
X108196000Y-47233000D01*
X108196000Y-47233000D02*
X108229333Y-47299666D01*
X108229333Y-47299666D02*
X108229333Y-47466333D01*
X108229333Y-47466333D02*
X108196000Y-47533000D01*
X108196000Y-47533000D02*
X108162666Y-47566333D01*
X108162666Y-47566333D02*
X108096000Y-47599666D01*
X108096000Y-47599666D02*
X107896000Y-47599666D01*
X107896000Y-47599666D02*
X107829333Y-47566333D01*
X107829333Y-47566333D02*
X107796000Y-47533000D01*
X108429333Y-46899666D02*
X108662667Y-47599666D01*
X108662667Y-47599666D02*
X108896000Y-46899666D01*
X109062667Y-46899666D02*
X109496000Y-46899666D01*
X109496000Y-46899666D02*
X109262667Y-47166333D01*
X109262667Y-47166333D02*
X109362667Y-47166333D01*
X109362667Y-47166333D02*
X109429333Y-47199666D01*
X109429333Y-47199666D02*
X109462667Y-47233000D01*
X109462667Y-47233000D02*
X109496000Y-47299666D01*
X109496000Y-47299666D02*
X109496000Y-47466333D01*
X109496000Y-47466333D02*
X109462667Y-47533000D01*
X109462667Y-47533000D02*
X109429333Y-47566333D01*
X109429333Y-47566333D02*
X109362667Y-47599666D01*
X109362667Y-47599666D02*
X109162667Y-47599666D01*
X109162667Y-47599666D02*
X109096000Y-47566333D01*
X109096000Y-47566333D02*
X109062667Y-47533000D01*
X107975333Y-39567000D02*
X107908666Y-39533666D01*
X107908666Y-39533666D02*
X107808666Y-39533666D01*
X107808666Y-39533666D02*
X107708666Y-39567000D01*
X107708666Y-39567000D02*
X107642000Y-39633666D01*
X107642000Y-39633666D02*
X107608666Y-39700333D01*
X107608666Y-39700333D02*
X107575333Y-39833666D01*
X107575333Y-39833666D02*
X107575333Y-39933666D01*
X107575333Y-39933666D02*
X107608666Y-40067000D01*
X107608666Y-40067000D02*
X107642000Y-40133666D01*
X107642000Y-40133666D02*
X107708666Y-40200333D01*
X107708666Y-40200333D02*
X107808666Y-40233666D01*
X107808666Y-40233666D02*
X107875333Y-40233666D01*
X107875333Y-40233666D02*
X107975333Y-40200333D01*
X107975333Y-40200333D02*
X108008666Y-40167000D01*
X108008666Y-40167000D02*
X108008666Y-39933666D01*
X108008666Y-39933666D02*
X107875333Y-39933666D01*
X108308666Y-40233666D02*
X108308666Y-39533666D01*
X108308666Y-39533666D02*
X108708666Y-40233666D01*
X108708666Y-40233666D02*
X108708666Y-39533666D01*
X109041999Y-40233666D02*
X109041999Y-39533666D01*
X109041999Y-39533666D02*
X109208666Y-39533666D01*
X109208666Y-39533666D02*
X109308666Y-39567000D01*
X109308666Y-39567000D02*
X109375333Y-39633666D01*
X109375333Y-39633666D02*
X109408666Y-39700333D01*
X109408666Y-39700333D02*
X109441999Y-39833666D01*
X109441999Y-39833666D02*
X109441999Y-39933666D01*
X109441999Y-39933666D02*
X109408666Y-40067000D01*
X109408666Y-40067000D02*
X109375333Y-40133666D01*
X109375333Y-40133666D02*
X109308666Y-40200333D01*
X109308666Y-40200333D02*
X109208666Y-40233666D01*
X109208666Y-40233666D02*
X109041999Y-40233666D01*
X108337333Y-44426333D02*
X108370666Y-44393000D01*
X108370666Y-44393000D02*
X108437333Y-44359666D01*
X108437333Y-44359666D02*
X108604000Y-44359666D01*
X108604000Y-44359666D02*
X108670666Y-44393000D01*
X108670666Y-44393000D02*
X108704000Y-44426333D01*
X108704000Y-44426333D02*
X108737333Y-44493000D01*
X108737333Y-44493000D02*
X108737333Y-44559666D01*
X108737333Y-44559666D02*
X108704000Y-44659666D01*
X108704000Y-44659666D02*
X108304000Y-45059666D01*
X108304000Y-45059666D02*
X108737333Y-45059666D01*
X109137333Y-44659666D02*
X109070667Y-44626333D01*
X109070667Y-44626333D02*
X109037333Y-44593000D01*
X109037333Y-44593000D02*
X109004000Y-44526333D01*
X109004000Y-44526333D02*
X109004000Y-44493000D01*
X109004000Y-44493000D02*
X109037333Y-44426333D01*
X109037333Y-44426333D02*
X109070667Y-44393000D01*
X109070667Y-44393000D02*
X109137333Y-44359666D01*
X109137333Y-44359666D02*
X109270667Y-44359666D01*
X109270667Y-44359666D02*
X109337333Y-44393000D01*
X109337333Y-44393000D02*
X109370667Y-44426333D01*
X109370667Y-44426333D02*
X109404000Y-44493000D01*
X109404000Y-44493000D02*
X109404000Y-44526333D01*
X109404000Y-44526333D02*
X109370667Y-44593000D01*
X109370667Y-44593000D02*
X109337333Y-44626333D01*
X109337333Y-44626333D02*
X109270667Y-44659666D01*
X109270667Y-44659666D02*
X109137333Y-44659666D01*
X109137333Y-44659666D02*
X109070667Y-44693000D01*
X109070667Y-44693000D02*
X109037333Y-44726333D01*
X109037333Y-44726333D02*
X109004000Y-44793000D01*
X109004000Y-44793000D02*
X109004000Y-44926333D01*
X109004000Y-44926333D02*
X109037333Y-44993000D01*
X109037333Y-44993000D02*
X109070667Y-45026333D01*
X109070667Y-45026333D02*
X109137333Y-45059666D01*
X109137333Y-45059666D02*
X109270667Y-45059666D01*
X109270667Y-45059666D02*
X109337333Y-45026333D01*
X109337333Y-45026333D02*
X109370667Y-44993000D01*
X109370667Y-44993000D02*
X109404000Y-44926333D01*
X109404000Y-44926333D02*
X109404000Y-44793000D01*
X109404000Y-44793000D02*
X109370667Y-44726333D01*
X109370667Y-44726333D02*
X109337333Y-44693000D01*
X109337333Y-44693000D02*
X109270667Y-44659666D01*
X108337333Y-41886333D02*
X108370666Y-41853000D01*
X108370666Y-41853000D02*
X108437333Y-41819666D01*
X108437333Y-41819666D02*
X108604000Y-41819666D01*
X108604000Y-41819666D02*
X108670666Y-41853000D01*
X108670666Y-41853000D02*
X108704000Y-41886333D01*
X108704000Y-41886333D02*
X108737333Y-41953000D01*
X108737333Y-41953000D02*
X108737333Y-42019666D01*
X108737333Y-42019666D02*
X108704000Y-42119666D01*
X108704000Y-42119666D02*
X108304000Y-42519666D01*
X108304000Y-42519666D02*
X108737333Y-42519666D01*
X109070667Y-42519666D02*
X109204000Y-42519666D01*
X109204000Y-42519666D02*
X109270667Y-42486333D01*
X109270667Y-42486333D02*
X109304000Y-42453000D01*
X109304000Y-42453000D02*
X109370667Y-42353000D01*
X109370667Y-42353000D02*
X109404000Y-42219666D01*
X109404000Y-42219666D02*
X109404000Y-41953000D01*
X109404000Y-41953000D02*
X109370667Y-41886333D01*
X109370667Y-41886333D02*
X109337333Y-41853000D01*
X109337333Y-41853000D02*
X109270667Y-41819666D01*
X109270667Y-41819666D02*
X109137333Y-41819666D01*
X109137333Y-41819666D02*
X109070667Y-41853000D01*
X109070667Y-41853000D02*
X109037333Y-41886333D01*
X109037333Y-41886333D02*
X109004000Y-41953000D01*
X109004000Y-41953000D02*
X109004000Y-42119666D01*
X109004000Y-42119666D02*
X109037333Y-42186333D01*
X109037333Y-42186333D02*
X109070667Y-42219666D01*
X109070667Y-42219666D02*
X109137333Y-42253000D01*
X109137333Y-42253000D02*
X109270667Y-42253000D01*
X109270667Y-42253000D02*
X109337333Y-42219666D01*
X109337333Y-42219666D02*
X109370667Y-42186333D01*
X109370667Y-42186333D02*
X109404000Y-42119666D01*
D11*
%TO.C,C4*%
X59656340Y-44530003D02*
X59937500Y-44530003D01*
X59656340Y-43510003D02*
X59937500Y-43510003D01*
%TO.C,C1*%
X58886330Y-55549054D02*
X58886330Y-55830214D01*
X57866330Y-55549054D02*
X57866330Y-55830214D01*
%TO.C,R16*%
X65437258Y-59222500D02*
X64962742Y-59222500D01*
X65437258Y-58177500D02*
X64962742Y-58177500D01*
%TO.C,C8*%
X85965420Y-49920000D02*
X86246580Y-49920000D01*
X85965420Y-50940000D02*
X86246580Y-50940000D01*
%TO.C,C9*%
X79960000Y-60559420D02*
X79960000Y-60840580D01*
X78940000Y-60559420D02*
X78940000Y-60840580D01*
%TO.C,J4*%
X49470000Y-40700000D02*
X49470000Y-39370000D01*
X50800000Y-40700000D02*
X49470000Y-40700000D01*
X52070000Y-40700000D02*
X57210000Y-40700000D01*
X52070000Y-40700000D02*
X52070000Y-38040000D01*
X57210000Y-40700000D02*
X57210000Y-38040000D01*
X52070000Y-38040000D02*
X57210000Y-38040000D01*
%TO.C,R33*%
X92922500Y-62062742D02*
X92922500Y-62537258D01*
X91877500Y-62062742D02*
X91877500Y-62537258D01*
%TO.C,R7*%
X70988618Y-46062742D02*
X70988618Y-46537258D01*
X69943618Y-46062742D02*
X69943618Y-46537258D01*
%TO.C,J2*%
X56645000Y-67230000D02*
X56645000Y-65900000D01*
X57975000Y-67230000D02*
X56645000Y-67230000D01*
X59245000Y-67230000D02*
X64385000Y-67230000D01*
X59245000Y-67230000D02*
X59245000Y-64570000D01*
X64385000Y-67230000D02*
X64385000Y-64570000D01*
X59245000Y-64570000D02*
X64385000Y-64570000D01*
%TO.C,C22*%
X90060000Y-59434420D02*
X90060000Y-59715580D01*
X89040000Y-59434420D02*
X89040000Y-59715580D01*
%TO.C,R18*%
X69762742Y-59977500D02*
X70237258Y-59977500D01*
X69762742Y-61022500D02*
X70237258Y-61022500D01*
%TO.C,U5*%
X68420000Y-61775000D02*
X68420000Y-63775000D01*
X66180000Y-63775000D02*
X66180000Y-62775000D01*
%TO.C,C21*%
X87280000Y-64340580D02*
X87280000Y-64059420D01*
X88300000Y-64340580D02*
X88300000Y-64059420D01*
%TO.C,C15*%
X78220000Y-48240580D02*
X78220000Y-47959420D01*
X79240000Y-48240580D02*
X79240000Y-47959420D01*
%TO.C,D2*%
X90585000Y-45918000D02*
X90585000Y-43998000D01*
X90585000Y-43998000D02*
X87900000Y-43998000D01*
X87900000Y-45918000D02*
X90585000Y-45918000D01*
%TO.C,C12*%
X74308580Y-51310000D02*
X74027420Y-51310000D01*
X74308580Y-50290000D02*
X74027420Y-50290000D01*
%TO.C,R24*%
X102022500Y-62537258D02*
X102022500Y-62062742D01*
X100977500Y-62537258D02*
X100977500Y-62062742D01*
%TO.C,C3*%
X66993966Y-55541016D02*
X66993966Y-55822176D01*
X65973966Y-55541016D02*
X65973966Y-55822176D01*
%TO.C,FB1*%
X60966688Y-54391980D02*
X61441204Y-54391980D01*
X60966688Y-55436980D02*
X61441204Y-55436980D01*
%TO.C,R14*%
X61662742Y-60277500D02*
X62137258Y-60277500D01*
X61662742Y-61322500D02*
X62137258Y-61322500D01*
%TO.C,D1*%
X53745426Y-46618022D02*
X55665426Y-46618022D01*
X55665426Y-46618022D02*
X55665426Y-43933022D01*
X53745426Y-43933022D02*
X53745426Y-46618022D01*
%TO.C,R11*%
X83322500Y-60462742D02*
X83322500Y-60937258D01*
X82277500Y-60462742D02*
X82277500Y-60937258D01*
%TO.C,J3*%
X110170000Y-38295000D02*
X111500000Y-38295000D01*
X110170000Y-39625000D02*
X110170000Y-38295000D01*
X110170000Y-40895000D02*
X110170000Y-68895000D01*
X110170000Y-40895000D02*
X112830000Y-40895000D01*
X110170000Y-68895000D02*
X112830000Y-68895000D01*
X112830000Y-40895000D02*
X112830000Y-68895000D01*
%TO.C,R26*%
X106122500Y-44962742D02*
X106122500Y-45437258D01*
X105077500Y-44962742D02*
X105077500Y-45437258D01*
%TO.C,R31*%
X91877500Y-45437258D02*
X91877500Y-44962742D01*
X92922500Y-45437258D02*
X92922500Y-44962742D01*
%TO.C,R25*%
X100422500Y-62537258D02*
X100422500Y-62062742D01*
X99377500Y-62537258D02*
X99377500Y-62062742D01*
%TO.C,R3*%
X59562879Y-45143605D02*
X60037395Y-45143605D01*
X59562879Y-46188605D02*
X60037395Y-46188605D01*
%TO.C,C7*%
X81370000Y-48250580D02*
X81370000Y-47969420D01*
X82390000Y-48250580D02*
X82390000Y-47969420D01*
%TO.C,C14*%
X82990000Y-48240580D02*
X82990000Y-47959420D01*
X84010000Y-48240580D02*
X84010000Y-47959420D01*
%TO.C,SW1*%
X85050000Y-61250000D02*
X85050000Y-57950000D01*
X85350000Y-61250000D02*
X85050000Y-61250000D01*
X87550000Y-61250000D02*
X87850000Y-61250000D01*
X87850000Y-61250000D02*
X87850000Y-57950000D01*
X85050000Y-57950000D02*
X85350000Y-57950000D01*
X87850000Y-57950000D02*
X87550000Y-57950000D01*
%TO.C,C19*%
X71010000Y-42459420D02*
X71010000Y-42740580D01*
X69990000Y-42459420D02*
X69990000Y-42740580D01*
%TO.C,R27*%
X97222500Y-62062742D02*
X97222500Y-62537258D01*
X96177500Y-62062742D02*
X96177500Y-62537258D01*
%TO.C,C18*%
X79790000Y-48240580D02*
X79790000Y-47959420D01*
X80810000Y-48240580D02*
X80810000Y-47959420D01*
%TO.C,R20*%
X105077500Y-62637258D02*
X105077500Y-62162742D01*
X106122500Y-62637258D02*
X106122500Y-62162742D01*
%TO.C,C16*%
X81536000Y-60559420D02*
X81536000Y-60840580D01*
X80516000Y-60559420D02*
X80516000Y-60840580D01*
%TO.C,SW2*%
X67056825Y-44580000D02*
X67056825Y-44280000D01*
X67056825Y-41780000D02*
X67056825Y-42080000D01*
X63756825Y-44580000D02*
X67056825Y-44580000D01*
X63756825Y-44280000D02*
X63756825Y-44580000D01*
X63756825Y-42080000D02*
X63756825Y-41780000D01*
X63756825Y-41780000D02*
X67056825Y-41780000D01*
%TO.C,C13*%
X84620000Y-48230580D02*
X84620000Y-47949420D01*
X85640000Y-48230580D02*
X85640000Y-47949420D01*
%TO.C,R28*%
X98822500Y-62062742D02*
X98822500Y-62537258D01*
X97777500Y-62062742D02*
X97777500Y-62537258D01*
%TO.C,U2*%
X77005000Y-47500000D02*
X77005000Y-41500000D01*
X71785000Y-44500000D02*
X71785000Y-41500000D01*
%TO.C,R5*%
X56226854Y-45066432D02*
X56226854Y-44591916D01*
X57271854Y-45066432D02*
X57271854Y-44591916D01*
%TO.C,C11*%
X73990580Y-55810000D02*
X73709420Y-55810000D01*
X73990580Y-54790000D02*
X73709420Y-54790000D01*
%TO.C,R12*%
X88741242Y-46467500D02*
X89215758Y-46467500D01*
X88741242Y-47512500D02*
X89215758Y-47512500D01*
%TO.C,R8*%
X77177500Y-60937258D02*
X77177500Y-60462742D01*
X78222500Y-60937258D02*
X78222500Y-60462742D01*
%TO.C,R23*%
X100422500Y-44962742D02*
X100422500Y-45437258D01*
X99377500Y-44962742D02*
X99377500Y-45437258D01*
%TO.C,C23*%
X52059420Y-64740000D02*
X52340580Y-64740000D01*
X52059420Y-65760000D02*
X52340580Y-65760000D01*
%TO.C,J5*%
X59630000Y-40700000D02*
X59630000Y-39370000D01*
X60960000Y-40700000D02*
X59630000Y-40700000D01*
X62230000Y-40700000D02*
X67370000Y-40700000D01*
X62230000Y-40700000D02*
X62230000Y-38040000D01*
X67370000Y-40700000D02*
X67370000Y-38040000D01*
X62230000Y-38040000D02*
X67370000Y-38040000D01*
%TO.C,R29*%
X96177500Y-45437258D02*
X96177500Y-44962742D01*
X97222500Y-45437258D02*
X97222500Y-44962742D01*
%TO.C,JP1*%
X67342500Y-45450000D02*
X67342500Y-49550000D01*
X65342500Y-45450000D02*
X67342500Y-45450000D01*
X64842500Y-45900000D02*
X64842500Y-46500000D01*
X65142500Y-46200000D02*
X64842500Y-45900000D01*
X65142500Y-46200000D02*
X64842500Y-46500000D01*
X67342500Y-49550000D02*
X65342500Y-49550000D01*
X65342500Y-49550000D02*
X65342500Y-45450000D01*
%TO.C,R32*%
X94522500Y-62062742D02*
X94522500Y-62537258D01*
X93477500Y-62062742D02*
X93477500Y-62537258D01*
%TO.C,C20*%
X70160000Y-64330580D02*
X70160000Y-64049420D01*
X71180000Y-64330580D02*
X71180000Y-64049420D01*
%TO.C,R34*%
X97777500Y-45437258D02*
X97777500Y-44962742D01*
X98822500Y-45437258D02*
X98822500Y-44962742D01*
%TO.C,C24*%
X67431240Y-66460000D02*
X67150080Y-66460000D01*
X67431240Y-65440000D02*
X67150080Y-65440000D01*
%TO.C,R19*%
X103477500Y-62637258D02*
X103477500Y-62162742D01*
X104522500Y-62637258D02*
X104522500Y-62162742D01*
%TO.C,R22*%
X102022500Y-44962742D02*
X102022500Y-45437258D01*
X100977500Y-44962742D02*
X100977500Y-45437258D01*
%TO.C,R17*%
X68162742Y-58177500D02*
X68637258Y-58177500D01*
X68162742Y-59222500D02*
X68637258Y-59222500D01*
%TO.C,U3*%
X63891958Y-53453604D02*
X65651958Y-53453604D01*
X65651958Y-50383604D02*
X63221958Y-50383604D01*
%TO.C,R6*%
X69222500Y-46062742D02*
X69222500Y-46537258D01*
X68177500Y-46062742D02*
X68177500Y-46537258D01*
%TO.C,C10*%
X86473420Y-55370000D02*
X86754580Y-55370000D01*
X86473420Y-56390000D02*
X86754580Y-56390000D01*
%TO.C,C5*%
X59151384Y-51379908D02*
X59151384Y-51661068D01*
X58131384Y-51379908D02*
X58131384Y-51661068D01*
%TO.C,R4*%
X62754742Y-45144473D02*
X63229258Y-45144473D01*
X62754742Y-46189473D02*
X63229258Y-46189473D01*
%TO.C,R15*%
X61662742Y-62077500D02*
X62137258Y-62077500D01*
X61662742Y-63122500D02*
X62137258Y-63122500D01*
%TO.C,C6*%
X61888748Y-46840000D02*
X63311252Y-46840000D01*
X61888748Y-49560000D02*
X63311252Y-49560000D01*
%TO.C,U1*%
X76390000Y-57910000D02*
X76390000Y-57260000D01*
X77040000Y-50690000D02*
X76390000Y-50690000D01*
X77040000Y-57910000D02*
X76390000Y-57910000D01*
X82960000Y-50690000D02*
X83610000Y-50690000D01*
X82960000Y-57910000D02*
X83610000Y-57910000D01*
X83610000Y-50690000D02*
X83610000Y-51340000D01*
X83610000Y-57910000D02*
X83610000Y-57260000D01*
%TO.C,R21*%
X104522500Y-44962742D02*
X104522500Y-45437258D01*
X103477500Y-44962742D02*
X103477500Y-45437258D01*
%TO.C,L1*%
X59930928Y-52216951D02*
X59930928Y-51417707D01*
X61050928Y-52216951D02*
X61050928Y-51417707D01*
%TO.C,R13*%
X61662742Y-58477500D02*
X62137258Y-58477500D01*
X61662742Y-59522500D02*
X62137258Y-59522500D01*
%TO.C,R30*%
X93477500Y-45437258D02*
X93477500Y-44962742D01*
X94522500Y-45437258D02*
X94522500Y-44962742D01*
%TO.C,C2*%
X64703947Y-55543797D02*
X64703947Y-55824957D01*
X63683947Y-55543797D02*
X63683947Y-55824957D01*
%TO.C,SW3*%
X53850000Y-63750000D02*
X50550000Y-63750000D01*
X53850000Y-63450000D02*
X53850000Y-63750000D01*
X53850000Y-61250000D02*
X53850000Y-60950000D01*
X53850000Y-60950000D02*
X50550000Y-60950000D01*
X50550000Y-63750000D02*
X50550000Y-63450000D01*
X50550000Y-60950000D02*
X50550000Y-61250000D01*
%TD*%
M02*
