%TF.GenerationSoftware,KiCad,Pcbnew,(7.0.0)*%
%TF.CreationDate,2023-04-19T21:09:27+03:00*%
%TF.ProjectId,Raspi Pico Board,52617370-6920-4506-9963-6f20426f6172,rev?*%
%TF.SameCoordinates,Original*%
%TF.FileFunction,Copper,L1,Top*%
%TF.FilePolarity,Positive*%
%FSLAX46Y46*%
G04 Gerber Fmt 4.6, Leading zero omitted, Abs format (unit mm)*
G04 Created by KiCad (PCBNEW (7.0.0)) date 2023-04-19 21:09:27*
%MOMM*%
%LPD*%
G01*
G04 APERTURE LIST*
G04 Aperture macros list*
%AMRoundRect*
0 Rectangle with rounded corners*
0 $1 Rounding radius*
0 $2 $3 $4 $5 $6 $7 $8 $9 X,Y pos of 4 corners*
0 Add a 4 corners polygon primitive as box body*
4,1,4,$2,$3,$4,$5,$6,$7,$8,$9,$2,$3,0*
0 Add four circle primitives for the rounded corners*
1,1,$1+$1,$2,$3*
1,1,$1+$1,$4,$5*
1,1,$1+$1,$6,$7*
1,1,$1+$1,$8,$9*
0 Add four rect primitives between the rounded corners*
20,1,$1+$1,$2,$3,$4,$5,0*
20,1,$1+$1,$4,$5,$6,$7,0*
20,1,$1+$1,$6,$7,$8,$9,0*
20,1,$1+$1,$8,$9,$2,$3,0*%
G04 Aperture macros list end*
%TA.AperFunction,SMDPad,CuDef*%
%ADD10RoundRect,0.225000X0.250000X-0.225000X0.250000X0.225000X-0.250000X0.225000X-0.250000X-0.225000X0*%
%TD*%
%TA.AperFunction,SMDPad,CuDef*%
%ADD11RoundRect,0.200000X-0.275000X0.200000X-0.275000X-0.200000X0.275000X-0.200000X0.275000X0.200000X0*%
%TD*%
%TA.AperFunction,SMDPad,CuDef*%
%ADD12RoundRect,0.200000X0.200000X0.275000X-0.200000X0.275000X-0.200000X-0.275000X0.200000X-0.275000X0*%
%TD*%
%TA.AperFunction,SMDPad,CuDef*%
%ADD13RoundRect,0.225000X-0.225000X-0.250000X0.225000X-0.250000X0.225000X0.250000X-0.225000X0.250000X0*%
%TD*%
%TA.AperFunction,SMDPad,CuDef*%
%ADD14RoundRect,0.225000X-0.250000X0.225000X-0.250000X-0.225000X0.250000X-0.225000X0.250000X0.225000X0*%
%TD*%
%TA.AperFunction,SMDPad,CuDef*%
%ADD15R,0.900000X2.800000*%
%TD*%
%TA.AperFunction,ComponentPad*%
%ADD16R,1.700000X1.700000*%
%TD*%
%TA.AperFunction,ComponentPad*%
%ADD17O,1.700000X1.700000*%
%TD*%
%TA.AperFunction,SMDPad,CuDef*%
%ADD18RoundRect,0.200000X0.275000X-0.200000X0.275000X0.200000X-0.275000X0.200000X-0.275000X-0.200000X0*%
%TD*%
%TA.AperFunction,SMDPad,CuDef*%
%ADD19RoundRect,0.200000X-0.200000X-0.275000X0.200000X-0.275000X0.200000X0.275000X-0.200000X0.275000X0*%
%TD*%
%TA.AperFunction,SMDPad,CuDef*%
%ADD20R,0.250000X0.500000*%
%TD*%
%TA.AperFunction,SMDPad,CuDef*%
%ADD21R,1.600000X0.900000*%
%TD*%
%TA.AperFunction,SMDPad,CuDef*%
%ADD22RoundRect,0.243750X0.243750X0.456250X-0.243750X0.456250X-0.243750X-0.456250X0.243750X-0.456250X0*%
%TD*%
%TA.AperFunction,SMDPad,CuDef*%
%ADD23RoundRect,0.225000X0.225000X0.250000X-0.225000X0.250000X-0.225000X-0.250000X0.225000X-0.250000X0*%
%TD*%
%TA.AperFunction,SMDPad,CuDef*%
%ADD24RoundRect,0.243750X-0.243750X-0.456250X0.243750X-0.456250X0.243750X0.456250X-0.243750X0.456250X0*%
%TD*%
%TA.AperFunction,SMDPad,CuDef*%
%ADD25R,1.700000X0.900000*%
%TD*%
%TA.AperFunction,WasherPad*%
%ADD26O,1.000000X2.100000*%
%TD*%
%TA.AperFunction,WasherPad*%
%ADD27O,1.000000X1.800000*%
%TD*%
%TA.AperFunction,SMDPad,CuDef*%
%ADD28R,0.300000X1.150000*%
%TD*%
%TA.AperFunction,SMDPad,CuDef*%
%ADD29R,5.600000X2.100000*%
%TD*%
%TA.AperFunction,SMDPad,CuDef*%
%ADD30RoundRect,0.125000X0.125000X-0.250000X0.125000X0.250000X-0.125000X0.250000X-0.125000X-0.250000X0*%
%TD*%
%TA.AperFunction,SMDPad,CuDef*%
%ADD31R,4.300000X3.400000*%
%TD*%
%TA.AperFunction,SMDPad,CuDef*%
%ADD32R,1.500000X1.000000*%
%TD*%
%TA.AperFunction,SMDPad,CuDef*%
%ADD33R,2.000000X0.650000*%
%TD*%
%TA.AperFunction,SMDPad,CuDef*%
%ADD34R,1.500000X0.650000*%
%TD*%
%TA.AperFunction,SMDPad,CuDef*%
%ADD35R,1.950000X0.650000*%
%TD*%
%TA.AperFunction,SMDPad,CuDef*%
%ADD36RoundRect,0.250000X0.325000X1.100000X-0.325000X1.100000X-0.325000X-1.100000X0.325000X-1.100000X0*%
%TD*%
%TA.AperFunction,SMDPad,CuDef*%
%ADD37RoundRect,0.050000X-0.387500X-0.050000X0.387500X-0.050000X0.387500X0.050000X-0.387500X0.050000X0*%
%TD*%
%TA.AperFunction,SMDPad,CuDef*%
%ADD38RoundRect,0.050000X-0.050000X-0.387500X0.050000X-0.387500X0.050000X0.387500X-0.050000X0.387500X0*%
%TD*%
%TA.AperFunction,SMDPad,CuDef*%
%ADD39R,3.200000X3.200000*%
%TD*%
%TA.AperFunction,SMDPad,CuDef*%
%ADD40RoundRect,0.218750X-0.381250X0.218750X-0.381250X-0.218750X0.381250X-0.218750X0.381250X0.218750X0*%
%TD*%
%TA.AperFunction,ViaPad*%
%ADD41C,0.250000*%
%TD*%
%TA.AperFunction,ViaPad*%
%ADD42C,0.350000*%
%TD*%
%TA.AperFunction,Conductor*%
%ADD43C,0.200000*%
%TD*%
%TA.AperFunction,Conductor*%
%ADD44C,0.250000*%
%TD*%
%TA.AperFunction,Conductor*%
%ADD45C,0.270000*%
%TD*%
%TA.AperFunction,Conductor*%
%ADD46C,0.300000*%
%TD*%
%TA.AperFunction,Conductor*%
%ADD47C,0.600000*%
%TD*%
G04 APERTURE END LIST*
D10*
%TO.P,C1,1*%
%TO.N,/USBC and Power/VBUS*%
X68534670Y-40275366D03*
%TO.P,C1,2*%
%TO.N,GND*%
X68534670Y-38725366D03*
%TD*%
D11*
%TO.P,R10,1*%
%TO.N,/Microcontroller/USB_N*%
X82000000Y-47275000D03*
%TO.P,R10,2*%
%TO.N,/Microcontroller/USB_M_N*%
X82000000Y-48925000D03*
%TD*%
D12*
%TO.P,R16,1*%
%TO.N,Net-(U5-ALERT)*%
X66025000Y-58700000D03*
%TO.P,R16,2*%
%TO.N,+3V3*%
X64375000Y-58700000D03*
%TD*%
D13*
%TO.P,C8,1*%
%TO.N,+3V3*%
X85331000Y-50430000D03*
%TO.P,C8,2*%
%TO.N,GND*%
X86881000Y-50430000D03*
%TD*%
D14*
%TO.P,C9,1*%
%TO.N,+3V3*%
X79450000Y-59925000D03*
%TO.P,C9,2*%
%TO.N,GND*%
X79450000Y-61475000D03*
%TD*%
D15*
%TO.P,U4,1,e_1*%
%TO.N,Net-(U4-e_1)*%
X92519999Y-48799999D03*
%TO.P,U4,2,d_1*%
%TO.N,Net-(U4-d_1)*%
X93959999Y-48799999D03*
%TO.P,U4,3,CC*%
%TO.N,GND*%
X95399999Y-48799999D03*
%TO.P,U4,4,c_1*%
%TO.N,Net-(U4-c_1)*%
X96839999Y-48799999D03*
%TO.P,U4,5,DP1*%
%TO.N,Net-(U4-DP1)*%
X98279999Y-48799999D03*
%TO.P,U4,6,e_2*%
%TO.N,Net-(U4-e_2)*%
X99719999Y-48799999D03*
%TO.P,U4,7,d_2*%
%TO.N,Net-(U4-d_2)*%
X101159999Y-48799999D03*
%TO.P,U4,8,CC*%
%TO.N,GND*%
X102599999Y-48799999D03*
%TO.P,U4,9,c_2*%
%TO.N,Net-(U4-c_2)*%
X104039999Y-48799999D03*
%TO.P,U4,10,DP_2*%
%TO.N,Net-(U4-DP_2)*%
X105479999Y-48799999D03*
%TO.P,U4,11,b_2*%
%TO.N,Net-(U4-b_2)*%
X105479999Y-58799999D03*
%TO.P,U4,12,a_2*%
%TO.N,Net-(U4-a_2)*%
X104039999Y-58799999D03*
%TO.P,U4,13,CC*%
%TO.N,GND*%
X102599999Y-58799999D03*
%TO.P,U4,14,f_2*%
%TO.N,Net-(U4-f_2)*%
X101159999Y-58799999D03*
%TO.P,U4,15,g_2*%
%TO.N,Net-(U4-g_2)*%
X99719999Y-58799999D03*
%TO.P,U4,16,b_1*%
%TO.N,Net-(U4-b_1)*%
X98279999Y-58799999D03*
%TO.P,U4,17,a_1*%
%TO.N,Net-(U4-a_1)*%
X96839999Y-58799999D03*
%TO.P,U4,18,CC*%
%TO.N,GND*%
X95399999Y-58799999D03*
%TO.P,U4,19,f_1*%
%TO.N,Net-(U4-f_1)*%
X93959999Y-58799999D03*
%TO.P,U4,20,g_1*%
%TO.N,Net-(U4-g_1)*%
X92519999Y-58799999D03*
%TD*%
D16*
%TO.P,J4,1,Pin_1*%
%TO.N,GND*%
X100619999Y-38499999D03*
D17*
%TO.P,J4,2,Pin_2*%
X103159999Y-38499999D03*
%TO.P,J4,3,Pin_3*%
X105699999Y-38499999D03*
%TD*%
D11*
%TO.P,R33,1*%
%TO.N,Net-(U4-g_1)*%
X92400000Y-61475000D03*
%TO.P,R33,2*%
%TO.N,/Microcontroller/display_G1*%
X92400000Y-63125000D03*
%TD*%
D18*
%TO.P,R7,1*%
%TO.N,Net-(R7-Pad1)*%
X70104000Y-49593000D03*
%TO.P,R7,2*%
%TO.N,/Microcontroller/QSPI_SS_N*%
X70104000Y-47943000D03*
%TD*%
D16*
%TO.P,J2,1,Pin_1*%
%TO.N,/Microcontroller/SWCLK*%
X57974999Y-65899999D03*
D17*
%TO.P,J2,2,Pin_2*%
%TO.N,GND*%
X60514999Y-65899999D03*
%TO.P,J2,3,Pin_3*%
%TO.N,/Microcontroller/SWDIO*%
X63054999Y-65899999D03*
%TD*%
D14*
%TO.P,C22,1*%
%TO.N,GND*%
X89550000Y-58800000D03*
%TO.P,C22,2*%
%TO.N,/Microcontroller/MCU_RUN*%
X89550000Y-60350000D03*
%TD*%
D19*
%TO.P,R18,1*%
%TO.N,/Microcontroller/I2C0_SDA*%
X69175000Y-60500000D03*
%TO.P,R18,2*%
%TO.N,+3V3*%
X70825000Y-60500000D03*
%TD*%
D20*
%TO.P,U5,1,SDA*%
%TO.N,/Microcontroller/I2C0_SDA*%
X68049999Y-62324999D03*
%TO.P,U5,2,SCL*%
%TO.N,/Microcontroller/I2C0_SCL*%
X67549999Y-62324999D03*
%TO.P,U5,3,ALERT*%
%TO.N,Net-(U5-ALERT)*%
X67049999Y-62324999D03*
%TO.P,U5,4,GND*%
%TO.N,GND*%
X66549999Y-62324999D03*
%TO.P,U5,5,A2*%
X66549999Y-64224999D03*
%TO.P,U5,6,A1*%
X67049999Y-64224999D03*
%TO.P,U5,7,A0*%
X67549999Y-64224999D03*
%TO.P,U5,8,V+*%
%TO.N,+3V3*%
X68049999Y-64224999D03*
D21*
%TO.P,U5,9*%
%TO.N,N/C*%
X67299999Y-63274999D03*
%TD*%
D10*
%TO.P,C21,1*%
%TO.N,/Microcontroller/XIN*%
X87790000Y-64975000D03*
%TO.P,C21,2*%
%TO.N,GND*%
X87790000Y-63425000D03*
%TD*%
%TO.P,C15,1*%
%TO.N,+1V1*%
X78730000Y-48875000D03*
%TO.P,C15,2*%
%TO.N,GND*%
X78730000Y-47325000D03*
%TD*%
D22*
%TO.P,D2,1,K*%
%TO.N,GND*%
X90599500Y-44958000D03*
%TO.P,D2,2,A*%
%TO.N,Net-(D2-A)*%
X88724500Y-44958000D03*
%TD*%
D23*
%TO.P,C12,1*%
%TO.N,+3V3*%
X74943000Y-50800000D03*
%TO.P,C12,2*%
%TO.N,GND*%
X73393000Y-50800000D03*
%TD*%
D18*
%TO.P,R24,1*%
%TO.N,/Microcontroller/display_F2*%
X101500000Y-63125000D03*
%TO.P,R24,2*%
%TO.N,Net-(U4-f_2)*%
X101500000Y-61475000D03*
%TD*%
D10*
%TO.P,C3,1*%
%TO.N,/USBC and Power/+5V_FB*%
X60427034Y-40283404D03*
%TO.P,C3,2*%
%TO.N,GND*%
X60427034Y-38733404D03*
%TD*%
D12*
%TO.P,FB1,1*%
%TO.N,/USBC and Power/VBUS*%
X66532054Y-40275520D03*
%TO.P,FB1,2*%
%TO.N,/USBC and Power/+5V_FB*%
X64882054Y-40275520D03*
%TD*%
D19*
%TO.P,R14,1*%
%TO.N,Net-(D4-GA)*%
X61075000Y-60800000D03*
%TO.P,R14,2*%
%TO.N,/Microcontroller/LED_R*%
X62725000Y-60800000D03*
%TD*%
D24*
%TO.P,D1,1,K*%
%TO.N,GND*%
X62133000Y-53086000D03*
%TO.P,D1,2,A*%
%TO.N,/USBC and Power/LED_POW_A*%
X64008000Y-53086000D03*
%TD*%
D11*
%TO.P,R11,1*%
%TO.N,/Microcontroller/MCU_RUN*%
X82800000Y-59875000D03*
%TO.P,R11,2*%
%TO.N,+3V3*%
X82800000Y-61525000D03*
%TD*%
D16*
%TO.P,J3,1,Pin_1*%
%TO.N,GND*%
X111499999Y-39624999D03*
D17*
%TO.P,J3,2,Pin_2*%
%TO.N,/Microcontroller/GPIO29*%
X111499999Y-42164999D03*
%TO.P,J3,3,Pin_3*%
%TO.N,/Microcontroller/GPIO28*%
X111499999Y-44704999D03*
%TO.P,J3,4,Pin_4*%
%TO.N,+3V3*%
X111499999Y-47244999D03*
%TO.P,J3,5,Pin_5*%
X111499999Y-49784999D03*
%TO.P,J3,6,Pin_6*%
%TO.N,/Microcontroller/GPIO27*%
X111499999Y-52324999D03*
%TO.P,J3,7,Pin_7*%
%TO.N,/Microcontroller/GPIO26*%
X111499999Y-54864999D03*
%TO.P,J3,8,Pin_8*%
%TO.N,+3V3*%
X111499999Y-57404999D03*
%TO.P,J3,9,Pin_9*%
%TO.N,/Microcontroller/GPIO24*%
X111499999Y-59944999D03*
%TO.P,J3,10,Pin_10*%
%TO.N,/Microcontroller/GPIO23*%
X111499999Y-62484999D03*
%TO.P,J3,11,Pin_11*%
%TO.N,/Microcontroller/GPIO22*%
X111499999Y-65024999D03*
%TO.P,J3,12,Pin_12*%
%TO.N,GND*%
X111499999Y-67564999D03*
%TD*%
D11*
%TO.P,R26,1*%
%TO.N,/Microcontroller/display_DP2*%
X105600000Y-44375000D03*
%TO.P,R26,2*%
%TO.N,Net-(U4-DP_2)*%
X105600000Y-46025000D03*
%TD*%
D18*
%TO.P,R31,1*%
%TO.N,Net-(U4-e_1)*%
X92400000Y-46025000D03*
%TO.P,R31,2*%
%TO.N,/Microcontroller/display_E1*%
X92400000Y-44375000D03*
%TD*%
%TO.P,R25,1*%
%TO.N,/Microcontroller/display_G2*%
X99900000Y-63125000D03*
%TO.P,R25,2*%
%TO.N,Net-(U4-g_2)*%
X99900000Y-61475000D03*
%TD*%
D12*
%TO.P,R3,1*%
%TO.N,+3V3*%
X67935863Y-49523895D03*
%TO.P,R3,2*%
%TO.N,/USBC and Power/BCK_FB*%
X66285863Y-49523895D03*
%TD*%
D10*
%TO.P,C14,1*%
%TO.N,+1V1*%
X83500000Y-48875000D03*
%TO.P,C14,2*%
%TO.N,GND*%
X83500000Y-47325000D03*
%TD*%
D25*
%TO.P,SW1,1,1*%
%TO.N,/Microcontroller/MCU_RUN*%
X86449999Y-61299999D03*
%TO.P,SW1,2,2*%
%TO.N,GND*%
X86449999Y-57899999D03*
%TD*%
D11*
%TO.P,R9,1*%
%TO.N,/Microcontroller/USB_P*%
X80400000Y-47275000D03*
%TO.P,R9,2*%
%TO.N,/Microcontroller/USB_M_P*%
X80400000Y-48925000D03*
%TD*%
D14*
%TO.P,C19,1*%
%TO.N,+3V3*%
X70358000Y-42405000D03*
%TO.P,C19,2*%
%TO.N,GND*%
X70358000Y-43955000D03*
%TD*%
D11*
%TO.P,R27,1*%
%TO.N,Net-(U4-a_1)*%
X96700000Y-61475000D03*
%TO.P,R27,2*%
%TO.N,/Microcontroller/display_A1*%
X96700000Y-63125000D03*
%TD*%
D18*
%TO.P,R20,1*%
%TO.N,/Microcontroller/display_B2*%
X105600000Y-63225000D03*
%TO.P,R20,2*%
%TO.N,Net-(U4-b_2)*%
X105600000Y-61575000D03*
%TD*%
D26*
%TO.P,J1,*%
%TO.N,*%
X86773999Y-43171999D03*
D27*
X86773999Y-38991999D03*
D26*
X78133999Y-43171999D03*
D27*
X78133999Y-38991999D03*
D28*
%TO.P,J1,A1,GND*%
%TO.N,GND*%
X85803999Y-43746999D03*
%TO.P,J1,A4,VBUS*%
%TO.N,/USBC and Power/VBUS*%
X85003999Y-43746999D03*
%TO.P,J1,A5,CC1*%
%TO.N,Net-(J1-CC1)*%
X83703999Y-43746999D03*
%TO.P,J1,A6,DP1*%
%TO.N,/Microcontroller/USB_P*%
X82703999Y-43746999D03*
%TO.P,J1,A7,DN1*%
%TO.N,/Microcontroller/USB_N*%
X82203999Y-43746999D03*
%TO.P,J1,A8,SBU1*%
%TO.N,unconnected-(J1-SBU1-PadA8)*%
X81203999Y-43746999D03*
%TO.P,J1,A9,VBUS*%
%TO.N,/USBC and Power/VBUS*%
X79903999Y-43746999D03*
%TO.P,J1,A12,GND*%
%TO.N,GND*%
X79103999Y-43746999D03*
%TO.P,J1,B1,GND*%
X79403999Y-43746999D03*
%TO.P,J1,B4,VBUS*%
%TO.N,/USBC and Power/VBUS*%
X80203999Y-43746999D03*
%TO.P,J1,B5,CC2*%
%TO.N,Net-(J1-CC2)*%
X80703999Y-43746999D03*
%TO.P,J1,B6,DP2*%
%TO.N,/Microcontroller/USB_P*%
X81703999Y-43746999D03*
%TO.P,J1,B7,DN2*%
%TO.N,/Microcontroller/USB_N*%
X83203999Y-43746999D03*
%TO.P,J1,B8,SBU2*%
%TO.N,unconnected-(J1-SBU2-PadB8)*%
X84203999Y-43746999D03*
%TO.P,J1,B9,VBUS*%
%TO.N,/USBC and Power/VBUS*%
X84703999Y-43746999D03*
%TO.P,J1,B12,GND*%
%TO.N,GND*%
X85503999Y-43746999D03*
%TD*%
D14*
%TO.P,C16,1*%
%TO.N,+1V1*%
X81026000Y-59925000D03*
%TO.P,C16,2*%
%TO.N,GND*%
X81026000Y-61475000D03*
%TD*%
D25*
%TO.P,SW2,1,1*%
%TO.N,GND*%
X69849999Y-56309999D03*
%TO.P,SW2,2,2*%
%TO.N,Net-(R7-Pad1)*%
X69849999Y-52909999D03*
%TD*%
D29*
%TO.P,Y1,1,1*%
%TO.N,Net-(C20-Pad1)*%
X74449999Y-64974999D03*
%TO.P,Y1,2,2*%
%TO.N,/Microcontroller/XIN*%
X83949999Y-64974999D03*
%TD*%
D10*
%TO.P,C13,1*%
%TO.N,+3V3*%
X85130000Y-48865000D03*
%TO.P,C13,2*%
%TO.N,GND*%
X85130000Y-47315000D03*
%TD*%
D11*
%TO.P,R28,1*%
%TO.N,Net-(U4-b_1)*%
X98300000Y-61475000D03*
%TO.P,R28,2*%
%TO.N,/Microcontroller/display_B1*%
X98300000Y-63125000D03*
%TD*%
D30*
%TO.P,U2,1,/CS*%
%TO.N,/Microcontroller/QSPI_SS_N*%
X72517000Y-47912000D03*
%TO.P,U2,2,DO*%
%TO.N,/Microcontroller/QSPI_SD1*%
X73787000Y-47912000D03*
%TO.P,U2,3,/WP*%
%TO.N,/Microcontroller/QSPI_SD2*%
X75057000Y-47912000D03*
%TO.P,U2,4,GND*%
%TO.N,GND*%
X76327000Y-47912000D03*
%TO.P,U2,5,DI*%
%TO.N,/Microcontroller/QSPI_SD0*%
X76327000Y-42512000D03*
%TO.P,U2,6,CLK*%
%TO.N,/Microcontroller/QSPI_SCLK*%
X75057000Y-42512000D03*
%TO.P,U2,7,/HOLD/RESET*%
%TO.N,/Microcontroller/QSPI_SD3*%
X73787000Y-42512000D03*
%TO.P,U2,8,VCC*%
%TO.N,+3V3*%
X72517000Y-42512000D03*
D31*
%TO.P,U2,9*%
%TO.N,N/C*%
X74421999Y-45211999D03*
%TD*%
D12*
%TO.P,R5,1*%
%TO.N,+3V3*%
X67279587Y-53082905D03*
%TO.P,R5,2*%
%TO.N,/USBC and Power/LED_POW_A*%
X65629587Y-53082905D03*
%TD*%
D23*
%TO.P,C11,1*%
%TO.N,+3V3*%
X74625000Y-55300000D03*
%TO.P,C11,2*%
%TO.N,GND*%
X73075000Y-55300000D03*
%TD*%
D19*
%TO.P,R12,1*%
%TO.N,Net-(D2-A)*%
X88915500Y-46990000D03*
%TO.P,R12,2*%
%TO.N,/Microcontroller/LED*%
X90565500Y-46990000D03*
%TD*%
D18*
%TO.P,R8,1*%
%TO.N,Net-(C20-Pad1)*%
X77700000Y-61525000D03*
%TO.P,R8,2*%
%TO.N,/Microcontroller/XOUT*%
X77700000Y-59875000D03*
%TD*%
D11*
%TO.P,R23,1*%
%TO.N,/Microcontroller/display_E2*%
X99900000Y-44375000D03*
%TO.P,R23,2*%
%TO.N,Net-(U4-e_2)*%
X99900000Y-46025000D03*
%TD*%
D14*
%TO.P,C23,1*%
%TO.N,GND*%
X90678000Y-61963000D03*
%TO.P,C23,2*%
%TO.N,/Microcontroller/USER_BUTTON*%
X90678000Y-63513000D03*
%TD*%
D16*
%TO.P,J5,1,Pin_1*%
%TO.N,+3V3*%
X57403999Y-56133999D03*
D17*
%TO.P,J5,2,Pin_2*%
X57403999Y-53593999D03*
%TO.P,J5,3,Pin_3*%
X57403999Y-51053999D03*
%TD*%
D18*
%TO.P,R29,1*%
%TO.N,Net-(U4-c_1)*%
X96700000Y-46025000D03*
%TO.P,R29,2*%
%TO.N,/Microcontroller/display_C1*%
X96700000Y-44375000D03*
%TD*%
D32*
%TO.P,JP1,1,A*%
%TO.N,GND*%
X60568499Y-48989999D03*
%TO.P,JP1,2,C*%
%TO.N,/USBC and Power/BCK_MODE*%
X60568499Y-47689999D03*
%TO.P,JP1,3,B*%
%TO.N,/USBC and Power/+5V_FB*%
X60568499Y-46389999D03*
%TD*%
D11*
%TO.P,R32,1*%
%TO.N,Net-(U4-f_1)*%
X94000000Y-61475000D03*
%TO.P,R32,2*%
%TO.N,/Microcontroller/display_F1*%
X94000000Y-63125000D03*
%TD*%
D10*
%TO.P,C20,1*%
%TO.N,Net-(C20-Pad1)*%
X70670000Y-64965000D03*
%TO.P,C20,2*%
%TO.N,GND*%
X70670000Y-63415000D03*
%TD*%
D18*
%TO.P,R34,1*%
%TO.N,Net-(U4-DP1)*%
X98300000Y-46025000D03*
%TO.P,R34,2*%
%TO.N,/Microcontroller/display_DP1*%
X98300000Y-44375000D03*
%TD*%
D23*
%TO.P,C24,1*%
%TO.N,+3V3*%
X68065660Y-65950000D03*
%TO.P,C24,2*%
%TO.N,GND*%
X66515660Y-65950000D03*
%TD*%
D18*
%TO.P,R19,1*%
%TO.N,/Microcontroller/display_A2*%
X104000000Y-63225000D03*
%TO.P,R19,2*%
%TO.N,Net-(U4-a_2)*%
X104000000Y-61575000D03*
%TD*%
D11*
%TO.P,R22,1*%
%TO.N,/Microcontroller/display_D2*%
X101500000Y-44375000D03*
%TO.P,R22,2*%
%TO.N,Net-(U4-d_2)*%
X101500000Y-46025000D03*
%TD*%
D19*
%TO.P,R17,1*%
%TO.N,/Microcontroller/I2C0_SCL*%
X67575000Y-58700000D03*
%TO.P,R17,2*%
%TO.N,+3V3*%
X69225000Y-58700000D03*
%TD*%
D33*
%TO.P,U3,1,RUN*%
%TO.N,/USBC and Power/+5V_FB*%
X63849041Y-44246395D03*
%TO.P,U3,2,GND*%
%TO.N,GND*%
X63849041Y-43296395D03*
%TO.P,U3,3,SW*%
%TO.N,/USBC and Power/SW_NODE*%
X63849041Y-42346395D03*
%TO.P,U3,4,VIN*%
%TO.N,/USBC and Power/+5V_FB*%
X60429041Y-42346395D03*
%TO.P,U3,5,VFB*%
%TO.N,/USBC and Power/BCK_FB*%
X60429041Y-43296395D03*
%TO.P,U3,6,MODE*%
%TO.N,/USBC and Power/BCK_MODE*%
X60429041Y-44246395D03*
%TD*%
D19*
%TO.P,R6,1*%
%TO.N,+3V3*%
X68517000Y-46482000D03*
%TO.P,R6,2*%
%TO.N,/Microcontroller/QSPI_SS_N*%
X70167000Y-46482000D03*
%TD*%
D13*
%TO.P,C10,1*%
%TO.N,+3V3*%
X85839000Y-55880000D03*
%TO.P,C10,2*%
%TO.N,GND*%
X87389000Y-55880000D03*
%TD*%
D34*
%TO.P,D4,1,RK*%
%TO.N,GND*%
X56649999Y-59849999D03*
%TO.P,D4,2,GK*%
X56649999Y-60799999D03*
%TO.P,D4,3,BK*%
X56649999Y-61749999D03*
%TO.P,D4,4,BA*%
%TO.N,Net-(D4-BA)*%
X59149999Y-61749999D03*
D35*
%TO.P,D4,5,GA*%
%TO.N,Net-(D4-GA)*%
X58924999Y-60799999D03*
D34*
%TO.P,D4,6,RA*%
%TO.N,Net-(D4-RA)*%
X59149999Y-59849999D03*
%TD*%
D10*
%TO.P,C5,1*%
%TO.N,+3V3*%
X68269616Y-44444512D03*
%TO.P,C5,2*%
%TO.N,GND*%
X68269616Y-42894512D03*
%TD*%
D12*
%TO.P,R4,1*%
%TO.N,/USBC and Power/BCK_FB*%
X64744000Y-49523027D03*
%TO.P,R4,2*%
%TO.N,GND*%
X63094000Y-49523027D03*
%TD*%
D19*
%TO.P,R15,1*%
%TO.N,Net-(D4-BA)*%
X61075000Y-62600000D03*
%TO.P,R15,2*%
%TO.N,/Microcontroller/LED_G*%
X62725000Y-62600000D03*
%TD*%
D36*
%TO.P,C6,1*%
%TO.N,+3V3*%
X65786000Y-46990000D03*
%TO.P,C6,2*%
%TO.N,GND*%
X62836000Y-46990000D03*
%TD*%
D37*
%TO.P,U1,1,IOVDD*%
%TO.N,+3V3*%
X76562500Y-51700000D03*
%TO.P,U1,2,GPIO0*%
%TO.N,/Microcontroller/display_E2*%
X76562500Y-52100000D03*
%TO.P,U1,3,GPIO1*%
%TO.N,/Microcontroller/display_D2*%
X76562500Y-52500000D03*
%TO.P,U1,4,GPIO2*%
%TO.N,/Microcontroller/display_C1*%
X76562500Y-52900000D03*
%TO.P,U1,5,GPIO3*%
%TO.N,/Microcontroller/display_D1*%
X76562500Y-53300000D03*
%TO.P,U1,6,GPIO4*%
%TO.N,/Microcontroller/I2C0_SDA*%
X76562500Y-53700000D03*
%TO.P,U1,7,GPIO5*%
%TO.N,/Microcontroller/I2C0_SCL*%
X76562500Y-54100000D03*
%TO.P,U1,8,GPIO6*%
%TO.N,/Microcontroller/display_E1*%
X76562500Y-54500000D03*
%TO.P,U1,9,GPIO7*%
%TO.N,/Microcontroller/display_F1*%
X76562500Y-54900000D03*
%TO.P,U1,10,IOVDD*%
%TO.N,+3V3*%
X76562500Y-55300000D03*
%TO.P,U1,11,GPIO8*%
%TO.N,/Microcontroller/display_G1*%
X76562500Y-55700000D03*
%TO.P,U1,12,GPIO9*%
%TO.N,/Microcontroller/display_DP1*%
X76562500Y-56100000D03*
%TO.P,U1,13,GPIO10*%
%TO.N,/Microcontroller/display_A2*%
X76562500Y-56500000D03*
%TO.P,U1,14,GPIO11*%
%TO.N,/Microcontroller/display_B2*%
X76562500Y-56900000D03*
D38*
%TO.P,U1,15,GPIO12*%
%TO.N,/Microcontroller/display_G2*%
X77400000Y-57737500D03*
%TO.P,U1,16,GPIO13*%
%TO.N,/Microcontroller/display_B1*%
X77800000Y-57737500D03*
%TO.P,U1,17,GPIO14*%
%TO.N,/Microcontroller/display_A1*%
X78200000Y-57737500D03*
%TO.P,U1,18,GPIO15*%
%TO.N,/Microcontroller/display_F2*%
X78600000Y-57737500D03*
%TO.P,U1,19,TESTEN*%
%TO.N,GND*%
X79000000Y-57737500D03*
%TO.P,U1,20,XIN*%
%TO.N,/Microcontroller/XIN*%
X79400000Y-57737500D03*
%TO.P,U1,21,XOUT*%
%TO.N,/Microcontroller/XOUT*%
X79800000Y-57737500D03*
%TO.P,U1,22,IOVDD*%
%TO.N,+3V3*%
X80200000Y-57737500D03*
%TO.P,U1,23,DVDD*%
%TO.N,+1V1*%
X80600000Y-57737500D03*
%TO.P,U1,24,SWCLK*%
%TO.N,/Microcontroller/SWCLK*%
X81000000Y-57737500D03*
%TO.P,U1,25,SWDIO*%
%TO.N,/Microcontroller/SWDIO*%
X81400000Y-57737500D03*
%TO.P,U1,26,RUN*%
%TO.N,/Microcontroller/MCU_RUN*%
X81800000Y-57737500D03*
%TO.P,U1,27,GPIO16*%
%TO.N,/Microcontroller/display_DP2*%
X82200000Y-57737500D03*
%TO.P,U1,28,GPIO17*%
%TO.N,/Microcontroller/display_C2*%
X82600000Y-57737500D03*
D37*
%TO.P,U1,29,GPIO18*%
%TO.N,/Microcontroller/USER_BUTTON*%
X83437500Y-56900000D03*
%TO.P,U1,30,GPIO19*%
%TO.N,/Microcontroller/LED_R*%
X83437500Y-56500000D03*
%TO.P,U1,31,GPIO20*%
%TO.N,/Microcontroller/LED_G*%
X83437500Y-56100000D03*
%TO.P,U1,32,GPIO21*%
%TO.N,/Microcontroller/LED_B*%
X83437500Y-55700000D03*
%TO.P,U1,33,IOVDD*%
%TO.N,+3V3*%
X83437500Y-55300000D03*
%TO.P,U1,34,GPIO22*%
%TO.N,/Microcontroller/GPIO22*%
X83437500Y-54900000D03*
%TO.P,U1,35,GPIO23*%
%TO.N,/Microcontroller/GPIO23*%
X83437500Y-54500000D03*
%TO.P,U1,36,GPIO24*%
%TO.N,/Microcontroller/GPIO24*%
X83437500Y-54100000D03*
%TO.P,U1,37,GPIO25*%
%TO.N,/Microcontroller/LED*%
X83437500Y-53700000D03*
%TO.P,U1,38,GPIO26/ADC0*%
%TO.N,/Microcontroller/GPIO26*%
X83437500Y-53300000D03*
%TO.P,U1,39,GPIO27/ADC1*%
%TO.N,/Microcontroller/GPIO27*%
X83437500Y-52900000D03*
%TO.P,U1,40,GPIO28/ADC2*%
%TO.N,/Microcontroller/GPIO28*%
X83437500Y-52500000D03*
%TO.P,U1,41,GPIO29/ADC3*%
%TO.N,/Microcontroller/GPIO29*%
X83437500Y-52100000D03*
%TO.P,U1,42,IOVDD*%
%TO.N,+3V3*%
X83437500Y-51700000D03*
D38*
%TO.P,U1,43,ADC_AVDD*%
X82600000Y-50862500D03*
%TO.P,U1,44,VREG_VIN*%
X82200000Y-50862500D03*
%TO.P,U1,45,VREG_VOUT*%
%TO.N,+1V1*%
X81800000Y-50862500D03*
%TO.P,U1,46,USB_DM*%
%TO.N,/Microcontroller/USB_M_N*%
X81400000Y-50862500D03*
%TO.P,U1,47,USB_DP*%
%TO.N,/Microcontroller/USB_M_P*%
X81000000Y-50862500D03*
%TO.P,U1,48,USB_VDD*%
%TO.N,+3V3*%
X80600000Y-50862500D03*
%TO.P,U1,49,IOVDD*%
X80200000Y-50862500D03*
%TO.P,U1,50,DVDD*%
%TO.N,+1V1*%
X79800000Y-50862500D03*
%TO.P,U1,51,QSPI_SD3*%
%TO.N,/Microcontroller/QSPI_SD3*%
X79400000Y-50862500D03*
%TO.P,U1,52,QSPI_SCLK*%
%TO.N,/Microcontroller/QSPI_SCLK*%
X79000000Y-50862500D03*
%TO.P,U1,53,QSPI_SD0*%
%TO.N,/Microcontroller/QSPI_SD0*%
X78600000Y-50862500D03*
%TO.P,U1,54,QSPI_SD2*%
%TO.N,/Microcontroller/QSPI_SD2*%
X78200000Y-50862500D03*
%TO.P,U1,55,QSPI_SD1*%
%TO.N,/Microcontroller/QSPI_SD1*%
X77800000Y-50862500D03*
%TO.P,U1,56,QSPI_SS_N*%
%TO.N,/Microcontroller/QSPI_SS_N*%
X77400000Y-50862500D03*
D39*
%TO.P,U1,57,GND*%
%TO.N,GND*%
X79999999Y-54299999D03*
%TD*%
D11*
%TO.P,R21,1*%
%TO.N,/Microcontroller/display_C2*%
X104000000Y-44375000D03*
%TO.P,R21,2*%
%TO.N,Net-(U4-c_2)*%
X104000000Y-46025000D03*
%TD*%
D40*
%TO.P,L1,1,1*%
%TO.N,/USBC and Power/SW_NODE*%
X66420072Y-42310171D03*
%TO.P,L1,2,2*%
%TO.N,+3V3*%
X66420072Y-44435171D03*
%TD*%
D19*
%TO.P,R13,1*%
%TO.N,Net-(D4-RA)*%
X61075000Y-59000000D03*
%TO.P,R13,2*%
%TO.N,/Microcontroller/LED_B*%
X62725000Y-59000000D03*
%TD*%
D18*
%TO.P,R30,1*%
%TO.N,Net-(U4-d_1)*%
X94000000Y-46025000D03*
%TO.P,R30,2*%
%TO.N,/Microcontroller/display_D1*%
X94000000Y-44375000D03*
%TD*%
D23*
%TO.P,C4,1*%
%TO.N,+3V3*%
X67889080Y-51169997D03*
%TO.P,C4,2*%
%TO.N,/USBC and Power/BCK_FB*%
X66339080Y-51169997D03*
%TD*%
D10*
%TO.P,C2,1*%
%TO.N,/USBC and Power/+5V_FB*%
X62717053Y-40280623D03*
%TO.P,C2,2*%
%TO.N,GND*%
X62717053Y-38730623D03*
%TD*%
D25*
%TO.P,SW3,1,1*%
%TO.N,/Microcontroller/USER_BUTTON*%
X90677999Y-65101999D03*
%TO.P,SW3,2,2*%
%TO.N,GND*%
X90677999Y-68501999D03*
%TD*%
D41*
%TO.N,GND*%
X61900000Y-48300000D03*
X61900000Y-47800000D03*
X61900000Y-47300000D03*
X61900000Y-46800000D03*
X61900000Y-46200000D03*
X61900000Y-45700000D03*
X62500000Y-44500000D03*
X62500000Y-43900000D03*
X62500000Y-41900000D03*
X62500000Y-42400000D03*
X62500000Y-42900000D03*
X62500000Y-43400000D03*
X90599500Y-43688000D03*
X82157090Y-51937136D03*
X85900000Y-45100000D03*
X76323434Y-48575500D03*
X63665000Y-46422000D03*
D42*
X56650000Y-62550000D03*
D41*
X80264000Y-53086000D03*
X61200000Y-37900000D03*
X79300000Y-44700000D03*
D42*
X73075000Y-56060000D03*
D41*
X67700000Y-39100000D03*
D42*
X95400000Y-46736000D03*
X89550000Y-57930000D03*
D41*
X62395000Y-48708000D03*
X80772000Y-54356000D03*
X67700000Y-37900000D03*
X78700000Y-45500000D03*
X83500000Y-46500000D03*
X86740000Y-63425000D03*
X69300000Y-39100000D03*
X81280000Y-54356000D03*
X59600000Y-38500000D03*
X83695924Y-39339377D03*
X78731938Y-46538428D03*
X62141000Y-43628000D03*
X62141000Y-43120000D03*
X63411000Y-48708000D03*
X61200000Y-39100000D03*
X85600000Y-44700000D03*
D42*
X80140000Y-61480000D03*
X66515660Y-66950000D03*
D41*
X79248000Y-55372000D03*
X79756000Y-54356000D03*
X81280000Y-55372000D03*
D42*
X68269616Y-41995252D03*
D41*
X59600000Y-37900000D03*
X81788000Y-61468000D03*
X80264000Y-55372000D03*
X80264000Y-54356000D03*
X63665000Y-45914000D03*
X86200000Y-44700000D03*
X63500000Y-37900000D03*
D42*
X95400000Y-60706000D03*
D41*
X70358000Y-44704000D03*
X61900000Y-39100000D03*
X78700000Y-44700000D03*
X63500000Y-38500000D03*
X79756000Y-53086000D03*
X73400000Y-51622795D03*
X61900000Y-38500000D03*
X63665000Y-47438000D03*
X87607844Y-51629500D03*
X63665000Y-47946000D03*
X81280000Y-53086000D03*
X79248000Y-54356000D03*
X70200000Y-57200000D03*
X79300000Y-45500000D03*
X62100000Y-49800000D03*
X61900000Y-37900000D03*
X62141000Y-42612000D03*
X85600000Y-45500000D03*
X79248000Y-53086000D03*
D42*
X66364477Y-61335523D03*
D41*
X85130000Y-46540000D03*
X63665000Y-46930000D03*
D42*
X102600000Y-60706000D03*
D41*
X62300000Y-49400000D03*
D42*
X102596914Y-46821883D03*
D41*
X86895000Y-49720000D03*
X78740000Y-55372000D03*
X62700000Y-50400000D03*
X62903000Y-48708000D03*
X62700000Y-37900000D03*
X62141000Y-44136000D03*
X77965000Y-52565000D03*
X62141000Y-42104000D03*
D42*
X56650000Y-58850000D03*
X95400000Y-56875000D03*
D41*
X78740000Y-54356000D03*
X63500000Y-39100000D03*
X61200000Y-38500000D03*
X62100000Y-49000000D03*
X88138000Y-55880000D03*
X78740000Y-53086000D03*
X79756000Y-55372000D03*
X69800000Y-63400000D03*
X90678000Y-61214000D03*
X80772000Y-53086000D03*
X67700000Y-38500000D03*
X79000000Y-45100000D03*
X61214000Y-53086000D03*
X86200000Y-45500000D03*
X59600000Y-39100000D03*
X62300000Y-50200000D03*
X68500000Y-37900000D03*
X69300000Y-37900000D03*
X69300000Y-38500000D03*
D42*
X66550000Y-65100000D03*
X102600000Y-56896000D03*
D41*
X80723175Y-39334276D03*
X62100000Y-50600000D03*
X87590083Y-57605583D03*
X60560254Y-50137001D03*
X80772000Y-55372000D03*
X60400000Y-37900000D03*
X63500000Y-50400000D03*
D42*
%TO.N,/USBC and Power/+5V_FB*%
X60554754Y-45450112D03*
X60535121Y-41290797D03*
X63832940Y-45094079D03*
D41*
%TO.N,/USBC and Power/BCK_FB*%
X58166000Y-43297514D03*
X64858660Y-51171660D03*
%TO.N,+3V3*%
X80617941Y-51867574D03*
D42*
X68745000Y-45406000D03*
D41*
X67700000Y-46800000D03*
X67700000Y-46000000D03*
D42*
X83560000Y-61525000D03*
D41*
X84582000Y-51629500D03*
X68700000Y-49400000D03*
X86444500Y-56388000D03*
D42*
X66967000Y-47184000D03*
D41*
X80197276Y-51852129D03*
X67300000Y-48600000D03*
X70358000Y-41656000D03*
D42*
X66967000Y-46676000D03*
X68237000Y-45406000D03*
D41*
X68700000Y-48600000D03*
D42*
X66967000Y-45660000D03*
D41*
X68100000Y-47400000D03*
D42*
X69050000Y-65950000D03*
D41*
X74930000Y-51562000D03*
X68700000Y-50200000D03*
X85350000Y-49680000D03*
D42*
X66967000Y-46168000D03*
D41*
X68700000Y-51000000D03*
D42*
X67475000Y-45406000D03*
D41*
X67700000Y-47300000D03*
D42*
X64372134Y-59763212D03*
X66967000Y-47692000D03*
X69250000Y-57250000D03*
X80100000Y-59900000D03*
D41*
X85852000Y-48768000D03*
D42*
X70825000Y-59450000D03*
X66967000Y-48200000D03*
X74625000Y-56050000D03*
D41*
X69100000Y-47400000D03*
X68700000Y-51800000D03*
X67900000Y-48600000D03*
X68600000Y-47400000D03*
%TO.N,+1V1*%
X83500000Y-49515500D03*
X78021696Y-48724304D03*
X81816294Y-59925948D03*
%TO.N,/Microcontroller/XIN*%
X83950000Y-64975000D03*
X79375500Y-58575500D03*
%TO.N,/Microcontroller/MCU_RUN*%
X86360000Y-60198000D03*
X83820000Y-60198000D03*
%TO.N,Net-(J1-CC1)*%
X83707143Y-42888526D03*
%TO.N,Net-(J1-CC2)*%
X80706094Y-42827849D03*
%TO.N,/Microcontroller/SWCLK*%
X81024500Y-59150500D03*
X80010000Y-63500000D03*
%TO.N,/Microcontroller/SWDIO*%
X81170428Y-62986901D03*
X81473782Y-59164592D03*
%TO.N,/Microcontroller/I2C0_SCL*%
X75400000Y-54124500D03*
X67575000Y-57058456D03*
D42*
%TO.N,/Microcontroller/LED_B*%
X62730576Y-57869388D03*
D41*
X84995063Y-55793810D03*
D42*
%TO.N,/Microcontroller/LED_R*%
X63800000Y-60800000D03*
D41*
X84900000Y-56900000D03*
D42*
%TO.N,/Microcontroller/LED_G*%
X63700000Y-62600000D03*
D41*
X85325000Y-57150000D03*
%TO.N,/Microcontroller/display_A2*%
X104000000Y-68074607D03*
X73660000Y-61976000D03*
%TO.N,/Microcontroller/display_B2*%
X105664000Y-67564000D03*
X74422000Y-61976000D03*
%TO.N,/Microcontroller/display_C2*%
X104031667Y-43180000D03*
X83612167Y-58720167D03*
%TO.N,/Microcontroller/display_D2*%
X71120000Y-37084000D03*
X71120000Y-52578000D03*
%TO.N,/Microcontroller/display_E2*%
X71630817Y-52100997D03*
X99822000Y-43434000D03*
%TO.N,/Microcontroller/display_F2*%
X101500000Y-65532000D03*
X78617732Y-58575500D03*
%TO.N,/Microcontroller/display_G2*%
X75438000Y-61976000D03*
X99902474Y-67012536D03*
%TO.N,/Microcontroller/display_DP2*%
X105590000Y-43250000D03*
X83568663Y-59175000D03*
%TO.N,/Microcontroller/display_A1*%
X96696099Y-66035899D03*
X77470000Y-58928000D03*
%TO.N,/Microcontroller/display_B1*%
X76200000Y-61976000D03*
X98300000Y-66548000D03*
%TO.N,/Microcontroller/display_C1*%
X96704299Y-43405704D03*
X72136000Y-53086000D03*
%TO.N,/Microcontroller/display_D1*%
X93980000Y-43434000D03*
X72644000Y-53594000D03*
%TO.N,/Microcontroller/display_E1*%
X77851000Y-54737000D03*
X92378099Y-43582208D03*
%TO.N,/Microcontroller/display_F1*%
X93980000Y-69088000D03*
X71882000Y-61976000D03*
%TO.N,/Microcontroller/display_G1*%
X92398801Y-68580000D03*
X72898000Y-61976000D03*
%TO.N,/Microcontroller/display_DP1*%
X78399000Y-56475000D03*
X87884000Y-56896000D03*
X98298000Y-43434000D03*
X89408000Y-55880000D03*
%TO.N,/Microcontroller/QSPI_SCLK*%
X78940540Y-49649500D03*
X75044847Y-41680966D03*
%TO.N,/Microcontroller/QSPI_SD3*%
X79424500Y-50038000D03*
X73771966Y-41660438D03*
%TO.N,/Microcontroller/LED*%
X83879117Y-51205000D03*
X82618444Y-53701481D03*
%TD*%
D43*
%TO.N,/Microcontroller/SWDIO*%
X63055000Y-67627000D02*
X63055000Y-65900000D01*
X78740000Y-68072000D02*
X63500000Y-68072000D01*
X78994000Y-63246000D02*
X78994000Y-67818000D01*
X78994000Y-67818000D02*
X78740000Y-68072000D01*
X79253099Y-62986901D02*
X78994000Y-63246000D01*
X81170428Y-62986901D02*
X79253099Y-62986901D01*
X63500000Y-68072000D02*
X63055000Y-67627000D01*
D44*
%TO.N,GND*%
X73393000Y-51615795D02*
X73393000Y-50800000D01*
X73400000Y-51622795D02*
X73393000Y-51615795D01*
D43*
%TO.N,/Microcontroller/QSPI_SS_N*%
X72517000Y-49217000D02*
X72517000Y-47912000D01*
X77400000Y-50400000D02*
X77400000Y-50862500D01*
X76800000Y-49800000D02*
X77400000Y-50400000D01*
X73100000Y-49800000D02*
X72517000Y-49217000D01*
X73100000Y-49800000D02*
X76800000Y-49800000D01*
%TO.N,/Microcontroller/USB_N*%
X82576000Y-45200000D02*
X82204000Y-45200000D01*
X83204000Y-44572000D02*
X82576000Y-45200000D01*
D45*
%TO.N,/Microcontroller/USB_P*%
X81769000Y-45906000D02*
X80400000Y-47275000D01*
X81769000Y-44674501D02*
X81769000Y-45906000D01*
X81704000Y-44609501D02*
X81769000Y-44674501D01*
X81704000Y-43747000D02*
X81704000Y-44609501D01*
%TO.N,/Microcontroller/USB_N*%
X82000000Y-46198260D02*
X82000000Y-47275000D01*
X82139000Y-46059260D02*
X82000000Y-46198260D01*
X82139000Y-44674501D02*
X82139000Y-46059260D01*
X82204000Y-43747000D02*
X82204000Y-44609501D01*
X82204000Y-44609501D02*
X82139000Y-44674501D01*
D44*
%TO.N,GND*%
X85130000Y-46540000D02*
X85130000Y-47315000D01*
X83500000Y-46500000D02*
X83500000Y-47325000D01*
X78994000Y-55306000D02*
X80000000Y-54300000D01*
D43*
X86450000Y-57900000D02*
X87295666Y-57900000D01*
X76327000Y-48571934D02*
X76323434Y-48575500D01*
D44*
X66515660Y-66153798D02*
X66550000Y-66119458D01*
X67050000Y-64225000D02*
X67550000Y-64225000D01*
X69850000Y-56310000D02*
X69850000Y-56850000D01*
D43*
X79000000Y-55620000D02*
X79248000Y-55372000D01*
D46*
X95400000Y-48800000D02*
X95400000Y-46736000D01*
D43*
X88725000Y-63425000D02*
X87790000Y-63425000D01*
D44*
X69815000Y-63415000D02*
X70670000Y-63415000D01*
X87295666Y-57900000D02*
X87590083Y-57605583D01*
X66550000Y-66119458D02*
X66550000Y-64225000D01*
D46*
X68269616Y-42894512D02*
X68269616Y-41995252D01*
D44*
X66550000Y-61521046D02*
X66364477Y-61335523D01*
D46*
X102600000Y-60706000D02*
X102600000Y-58800000D01*
D44*
X62133000Y-53086000D02*
X61214000Y-53086000D01*
X56650000Y-59850000D02*
X56650000Y-60800000D01*
D46*
X102600000Y-48800000D02*
X102600000Y-46824969D01*
D44*
X73075000Y-55300000D02*
X73075000Y-56060000D01*
X66515660Y-66950000D02*
X66515660Y-66153798D01*
D46*
X89550000Y-57930000D02*
X89550000Y-58800000D01*
D44*
X70358000Y-43955000D02*
X70358000Y-44704000D01*
D46*
X95400000Y-58800000D02*
X95400000Y-60706000D01*
D43*
X89602000Y-68502000D02*
X89000000Y-67900000D01*
D44*
X66550000Y-62325000D02*
X66550000Y-61521046D01*
D43*
X90678000Y-68502000D02*
X89602000Y-68502000D01*
D44*
X56650000Y-59850000D02*
X56650000Y-58850000D01*
X80135000Y-61475000D02*
X79450000Y-61475000D01*
X86895000Y-49720000D02*
X86895000Y-50430000D01*
X102600000Y-46824969D02*
X102596914Y-46821883D01*
X78994000Y-56642000D02*
X78994000Y-55306000D01*
X69800000Y-63400000D02*
X69815000Y-63415000D01*
X86740000Y-63425000D02*
X87790000Y-63425000D01*
X90599500Y-43688000D02*
X90599500Y-44958000D01*
X56650000Y-60800000D02*
X56650000Y-61750000D01*
D46*
X95400000Y-58800000D02*
X95400000Y-56875000D01*
D44*
X78730000Y-46540366D02*
X78731938Y-46538428D01*
X87389000Y-55880000D02*
X88138000Y-55880000D01*
X69850000Y-56850000D02*
X70200000Y-57200000D01*
X78730000Y-47325000D02*
X78730000Y-46540366D01*
D43*
X89000000Y-63700000D02*
X88725000Y-63425000D01*
D44*
X56650000Y-61750000D02*
X56650000Y-62550000D01*
D46*
X102600000Y-56896000D02*
X102600000Y-58800000D01*
D44*
X76327000Y-47912000D02*
X76327000Y-48571934D01*
X66550000Y-64225000D02*
X67050000Y-64225000D01*
X90678000Y-61963000D02*
X90678000Y-61214000D01*
X81788000Y-61468000D02*
X81781000Y-61475000D01*
D43*
X89000000Y-67900000D02*
X89000000Y-63700000D01*
D44*
X60568500Y-48990000D02*
X60568500Y-50128755D01*
X81781000Y-61475000D02*
X81026000Y-61475000D01*
D43*
X79000000Y-57737500D02*
X79000000Y-56648000D01*
D44*
X60568500Y-50128755D02*
X60560254Y-50137001D01*
X80140000Y-61480000D02*
X80135000Y-61475000D01*
D43*
X79000000Y-56648000D02*
X78994000Y-56642000D01*
D44*
%TO.N,/USBC and Power/+5V_FB*%
X60568500Y-46390000D02*
X60568500Y-45463858D01*
X60568500Y-45463858D02*
X60554754Y-45450112D01*
X63849042Y-44246396D02*
X63849042Y-45077977D01*
X63849042Y-45077977D02*
X63832940Y-45094079D01*
%TO.N,/USBC and Power/BCK_FB*%
X66285863Y-51116780D02*
X66339080Y-51169997D01*
X58166000Y-43297514D02*
X58331615Y-43297514D01*
X66339080Y-51169997D02*
X64860323Y-51169997D01*
X66285863Y-49523895D02*
X64744868Y-49523895D01*
X64744868Y-49523895D02*
X64744000Y-49523027D01*
X66285863Y-49523895D02*
X66285863Y-51116780D01*
X58332733Y-43296396D02*
X60429042Y-43296396D01*
X58331615Y-43297514D02*
X58332733Y-43296396D01*
X64860323Y-51169997D02*
X64858660Y-51171660D01*
%TO.N,+3V3*%
X74625000Y-56050000D02*
X74625000Y-55300000D01*
X68050000Y-65934340D02*
X68050000Y-64225000D01*
D43*
X82200000Y-50470000D02*
X82720000Y-49950000D01*
D44*
X85839000Y-55880000D02*
X86347000Y-56388000D01*
D43*
X68020000Y-49699000D02*
X67945000Y-49624000D01*
D44*
X70825000Y-60500000D02*
X70825000Y-59450000D01*
X86347000Y-56388000D02*
X86444500Y-56388000D01*
D43*
X84582000Y-51629500D02*
X84511500Y-51700000D01*
X84511500Y-51700000D02*
X83437500Y-51700000D01*
D44*
X69050000Y-65950000D02*
X68065660Y-65950000D01*
D43*
X76562500Y-51700000D02*
X76097000Y-51700000D01*
X80075000Y-59925000D02*
X80100000Y-59900000D01*
X67818000Y-52070000D02*
X67818000Y-51241077D01*
D44*
X69225000Y-57275000D02*
X69225000Y-58700000D01*
D43*
X80197276Y-51852129D02*
X80200000Y-51849405D01*
X83830000Y-50430000D02*
X85355000Y-50430000D01*
X82200000Y-50862500D02*
X82200000Y-50470000D01*
D44*
X69250000Y-57250000D02*
X69225000Y-57275000D01*
X70228019Y-42506204D02*
X72511204Y-42506204D01*
D43*
X76097000Y-51700000D02*
X74943000Y-50546000D01*
X67279587Y-52608413D02*
X67818000Y-52070000D01*
X74943000Y-51549000D02*
X74930000Y-51562000D01*
D44*
X64375000Y-58700000D02*
X64375000Y-59760346D01*
D43*
X80600000Y-51849633D02*
X80617941Y-51867574D01*
D44*
X74943000Y-50800000D02*
X74943000Y-51549000D01*
X64375000Y-59760346D02*
X64372134Y-59763212D01*
D43*
X72511204Y-42506204D02*
X72517000Y-42512000D01*
X85300612Y-55300000D02*
X85625905Y-55625293D01*
D46*
X83560000Y-61525000D02*
X82800000Y-61525000D01*
D44*
X85755000Y-48865000D02*
X85852000Y-48768000D01*
D43*
X67947794Y-49535826D02*
X67935863Y-49523895D01*
X84045000Y-49950000D02*
X85130000Y-48865000D01*
X83437500Y-55300000D02*
X85300612Y-55300000D01*
X82720000Y-49950000D02*
X84045000Y-49950000D01*
D44*
X70358000Y-42405000D02*
X70358000Y-41656000D01*
X85345000Y-50430000D02*
X85345000Y-49685000D01*
D43*
X83397500Y-50862500D02*
X83830000Y-50430000D01*
X76562500Y-55300000D02*
X74625000Y-55300000D01*
X85345000Y-49685000D02*
X85350000Y-49680000D01*
X82600000Y-50862500D02*
X83397500Y-50862500D01*
X80200000Y-59175000D02*
X80200000Y-57737500D01*
X80200000Y-51849405D02*
X80200000Y-50862500D01*
D44*
X79450000Y-59925000D02*
X80075000Y-59925000D01*
D43*
X85625905Y-55625293D02*
X85625905Y-55626000D01*
X67818000Y-51241077D02*
X67889080Y-51169997D01*
X67279587Y-53082905D02*
X67279587Y-52608413D01*
D44*
X85130000Y-48865000D02*
X85755000Y-48865000D01*
D43*
X79450000Y-59925000D02*
X80200000Y-59175000D01*
X80600000Y-50862500D02*
X80600000Y-51849633D01*
%TO.N,+1V1*%
X81815948Y-59925948D02*
X81815000Y-59925000D01*
X78730000Y-48875000D02*
X78172392Y-48875000D01*
X81800000Y-50862500D02*
X81800000Y-50304314D01*
X79849500Y-50242500D02*
X79849500Y-49653613D01*
D44*
X83500000Y-48875000D02*
X83500000Y-49515500D01*
D43*
X81150000Y-59925000D02*
X80600000Y-59375000D01*
X78730000Y-48875000D02*
X79101000Y-48875000D01*
X79849500Y-49653613D02*
X79082538Y-48886651D01*
X81800000Y-50304314D02*
X82554314Y-49550000D01*
X79800000Y-50862500D02*
X79800000Y-50292000D01*
X79082538Y-48886651D02*
X79082538Y-48875000D01*
X82825000Y-49550000D02*
X83500000Y-48875000D01*
X81816294Y-59925948D02*
X81815948Y-59925948D01*
D44*
X81150000Y-59925000D02*
X81815000Y-59925000D01*
D43*
X78172392Y-48875000D02*
X78021696Y-48724304D01*
X82554314Y-49550000D02*
X82825000Y-49550000D01*
X80600000Y-59375000D02*
X80600000Y-57737500D01*
X79800000Y-50292000D02*
X79849500Y-50242500D01*
%TO.N,Net-(C20-Pad1)*%
X77700000Y-64700000D02*
X77700000Y-61525000D01*
D44*
X70680000Y-64975000D02*
X74450000Y-64975000D01*
X70670000Y-64965000D02*
X70680000Y-64975000D01*
D43*
X74450000Y-64975000D02*
X77425000Y-64975000D01*
X77425000Y-64975000D02*
X77700000Y-64700000D01*
D44*
%TO.N,/Microcontroller/XIN*%
X87790000Y-64975000D02*
X83950000Y-64975000D01*
D43*
X79375500Y-58575500D02*
X79400000Y-58551000D01*
X79400000Y-58551000D02*
X79400000Y-57737500D01*
D44*
%TO.N,/Microcontroller/MCU_RUN*%
X88450000Y-60350000D02*
X89550000Y-60350000D01*
D43*
X86360000Y-60198000D02*
X86360000Y-61210000D01*
X82800000Y-59875000D02*
X83497000Y-59875000D01*
X82800000Y-59600000D02*
X82800000Y-59875000D01*
X81800000Y-58600000D02*
X82800000Y-59600000D01*
X83497000Y-59875000D02*
X83820000Y-60198000D01*
X86360000Y-61210000D02*
X86450000Y-61300000D01*
D44*
X87500000Y-61300000D02*
X88450000Y-60350000D01*
D43*
X81800000Y-57737500D02*
X81800000Y-58600000D01*
D44*
X86450000Y-61300000D02*
X87500000Y-61300000D01*
%TO.N,/Microcontroller/USER_BUTTON*%
X90678000Y-65102000D02*
X90678000Y-63513000D01*
D43*
X84500000Y-57200000D02*
X84500000Y-61894000D01*
X84500000Y-61894000D02*
X84836000Y-62230000D01*
X88646000Y-62230000D02*
X89929000Y-63513000D01*
X83437500Y-56900000D02*
X84200000Y-56900000D01*
X84200000Y-56900000D02*
X84500000Y-57200000D01*
X89929000Y-63513000D02*
X90678000Y-63513000D01*
X84836000Y-62230000D02*
X88646000Y-62230000D01*
D44*
%TO.N,/USBC and Power/LED_POW_A*%
X64008000Y-53086000D02*
X65626492Y-53086000D01*
X65626492Y-53086000D02*
X65629587Y-53082905D01*
%TO.N,Net-(D2-A)*%
X88900000Y-46974500D02*
X88915500Y-46990000D01*
X88724500Y-46052500D02*
X88900000Y-46228000D01*
X88900000Y-46228000D02*
X88900000Y-46974500D01*
X88724500Y-44958000D02*
X88724500Y-46052500D01*
%TO.N,Net-(D4-BA)*%
X59150000Y-61750000D02*
X60225000Y-61750000D01*
X60225000Y-61750000D02*
X61075000Y-62600000D01*
%TO.N,Net-(D4-GA)*%
X58925000Y-60800000D02*
X61075000Y-60800000D01*
%TO.N,Net-(D4-RA)*%
X59150000Y-59850000D02*
X60225000Y-59850000D01*
X60225000Y-59850000D02*
X61075000Y-59000000D01*
D43*
%TO.N,Net-(J1-CC1)*%
X83704000Y-42891669D02*
X83707143Y-42888526D01*
D44*
X83704000Y-43747000D02*
X83704000Y-42891669D01*
D45*
%TO.N,/Microcontroller/USB_P*%
X81704000Y-42756000D02*
X82042000Y-42418000D01*
X82409920Y-42418000D02*
X82704000Y-42712080D01*
X82042000Y-42418000D02*
X82409920Y-42418000D01*
X82704000Y-42712080D02*
X82704000Y-43747000D01*
X81704000Y-43747000D02*
X81704000Y-42756000D01*
D43*
%TO.N,/Microcontroller/USB_N*%
X83204000Y-43747000D02*
X83204000Y-44572000D01*
%TO.N,Net-(J1-CC2)*%
X80704000Y-42829943D02*
X80706094Y-42827849D01*
D44*
X80704000Y-43747000D02*
X80704000Y-42829943D01*
D43*
%TO.N,/Microcontroller/SWCLK*%
X80010000Y-68290000D02*
X79720000Y-68580000D01*
X79720000Y-68580000D02*
X58420000Y-68580000D01*
X81000000Y-59126000D02*
X81000000Y-57737500D01*
X57975000Y-68135000D02*
X57975000Y-65900000D01*
X58420000Y-68580000D02*
X57975000Y-68135000D01*
X81024500Y-59150500D02*
X81000000Y-59126000D01*
X80010000Y-63500000D02*
X80010000Y-68290000D01*
%TO.N,/Microcontroller/SWDIO*%
X81473782Y-59164592D02*
X81473782Y-58998741D01*
X81473782Y-58998741D02*
X81400000Y-58924959D01*
X81400000Y-58924959D02*
X81400000Y-57737500D01*
D44*
%TO.N,/Microcontroller/GPIO29*%
X106934000Y-50800000D02*
X107188000Y-50546000D01*
D43*
X89038385Y-50800000D02*
X89350314Y-50800000D01*
D44*
X107188000Y-42545000D02*
X107568000Y-42165000D01*
D43*
X87738385Y-52100000D02*
X89038385Y-50800000D01*
D44*
X107568000Y-42165000D02*
X111500000Y-42165000D01*
X107188000Y-50546000D02*
X107188000Y-42545000D01*
D43*
X89350314Y-50800000D02*
X90424000Y-50800000D01*
X83437500Y-52100000D02*
X87738385Y-52100000D01*
D44*
X90424000Y-50800000D02*
X106934000Y-50800000D01*
%TO.N,/Microcontroller/GPIO28*%
X90424000Y-51562000D02*
X107696000Y-51562000D01*
D43*
X90424000Y-51562000D02*
X89154000Y-51562000D01*
D44*
X108458000Y-50800000D02*
X108458000Y-45212000D01*
D43*
X87911000Y-52805000D02*
X84892538Y-52805000D01*
X84587538Y-52500000D02*
X83437500Y-52500000D01*
D44*
X107696000Y-51562000D02*
X108458000Y-50800000D01*
X108458000Y-45212000D02*
X108965000Y-44705000D01*
D43*
X89154000Y-51562000D02*
X87911000Y-52805000D01*
D44*
X108965000Y-44705000D02*
X111500000Y-44705000D01*
D43*
X84892538Y-52805000D02*
X84587538Y-52500000D01*
%TO.N,/Microcontroller/GPIO27*%
X90424000Y-52324000D02*
X89408000Y-52324000D01*
X84421852Y-52900000D02*
X83437500Y-52900000D01*
D44*
X90424000Y-52324000D02*
X91186000Y-52324000D01*
D43*
X89408000Y-52324000D02*
X88527000Y-53205000D01*
X88527000Y-53205000D02*
X84726853Y-53205000D01*
D44*
X91187000Y-52325000D02*
X111500000Y-52325000D01*
X91186000Y-52324000D02*
X91187000Y-52325000D01*
D43*
X84726853Y-53205000D02*
X84421852Y-52900000D01*
%TO.N,/Microcontroller/GPIO26*%
X90424000Y-53605000D02*
X84561168Y-53605000D01*
D44*
X90424000Y-53605000D02*
X108977000Y-53605000D01*
D43*
X84561168Y-53605000D02*
X84256167Y-53300000D01*
D44*
X108977000Y-53605000D02*
X110237000Y-54865000D01*
D43*
X84256167Y-53300000D02*
X83437500Y-53300000D01*
D44*
X110237000Y-54865000D02*
X111500000Y-54865000D01*
%TO.N,/Microcontroller/GPIO24*%
X109220000Y-59436000D02*
X109729000Y-59945000D01*
X108458000Y-54102000D02*
X109220000Y-54864000D01*
X90424000Y-54102000D02*
X108458000Y-54102000D01*
X109729000Y-59945000D02*
X111500000Y-59945000D01*
D43*
X90422000Y-54100000D02*
X90424000Y-54102000D01*
X83437500Y-54100000D02*
X84303500Y-54100000D01*
X84303500Y-54100000D02*
X90422000Y-54100000D01*
D44*
X109220000Y-54864000D02*
X109220000Y-59436000D01*
%TO.N,/Microcontroller/GPIO23*%
X108204000Y-55118000D02*
X108204000Y-61976000D01*
D43*
X83437500Y-54500000D02*
X88392000Y-54500000D01*
X88801326Y-54765326D02*
X89011214Y-54765326D01*
D44*
X107847986Y-54761986D02*
X108204000Y-55118000D01*
D43*
X89011214Y-54765326D02*
X90400190Y-54765326D01*
X88392000Y-54500000D02*
X88536000Y-54500000D01*
X88646000Y-54610000D02*
X88801326Y-54765326D01*
X88536000Y-54500000D02*
X88646000Y-54610000D01*
D44*
X90403530Y-54761986D02*
X107847986Y-54761986D01*
X108204000Y-61976000D02*
X108713000Y-62485000D01*
X108713000Y-62485000D02*
X111500000Y-62485000D01*
D43*
X88392000Y-54500000D02*
X88502000Y-54500000D01*
D44*
%TO.N,/Microcontroller/GPIO22*%
X90424000Y-55372000D02*
X106426000Y-55372000D01*
X106934000Y-55880000D02*
X106934000Y-64516000D01*
X106426000Y-55372000D02*
X106934000Y-55880000D01*
X106934000Y-64516000D02*
X107443000Y-65025000D01*
D43*
X83437500Y-54900000D02*
X85852000Y-54900000D01*
D44*
X107443000Y-65025000D02*
X111500000Y-65025000D01*
D43*
X87920000Y-54900000D02*
X85852000Y-54900000D01*
X88392000Y-55372000D02*
X87920000Y-54900000D01*
X90424000Y-55372000D02*
X88392000Y-55372000D01*
D44*
%TO.N,/USBC and Power/BCK_MODE*%
X59345000Y-47690000D02*
X58928000Y-47273000D01*
X58928000Y-44450000D02*
X59131604Y-44246396D01*
X58928000Y-47273000D02*
X58928000Y-44450000D01*
X59345000Y-47690000D02*
X60568500Y-47690000D01*
X59131604Y-44246396D02*
X60429042Y-44246396D01*
D47*
%TO.N,/USBC and Power/SW_NODE*%
X63849042Y-42346396D02*
X66383847Y-42346396D01*
X66383847Y-42346396D02*
X66420072Y-42310171D01*
D44*
%TO.N,/Microcontroller/QSPI_SS_N*%
X70104000Y-47943000D02*
X72486000Y-47943000D01*
X70104000Y-47943000D02*
X70104000Y-46545000D01*
D43*
X70104000Y-46545000D02*
X70167000Y-46482000D01*
X72486000Y-47943000D02*
X72517000Y-47912000D01*
D44*
%TO.N,Net-(R7-Pad1)*%
X70104000Y-49593000D02*
X70104000Y-51308000D01*
X70104000Y-51308000D02*
X69850000Y-51562000D01*
X69850000Y-51562000D02*
X69850000Y-52910000D01*
D43*
%TO.N,/Microcontroller/XOUT*%
X77700000Y-59700000D02*
X78400000Y-59000000D01*
X79800000Y-58800000D02*
X79800000Y-57737500D01*
X78400000Y-59000000D02*
X79600000Y-59000000D01*
X79600000Y-59000000D02*
X79800000Y-58800000D01*
X77700000Y-59875000D02*
X77700000Y-59700000D01*
%TO.N,/Microcontroller/USB_M_P*%
X81000000Y-49525000D02*
X80400000Y-48925000D01*
X81000000Y-50862500D02*
X81000000Y-49525000D01*
%TO.N,/Microcontroller/USB_M_N*%
X81400000Y-50862500D02*
X81400000Y-49525000D01*
X81400000Y-49525000D02*
X82000000Y-48925000D01*
%TO.N,/Microcontroller/I2C0_SCL*%
X67550000Y-62325000D02*
X67550000Y-58725000D01*
X75424500Y-54100000D02*
X76562500Y-54100000D01*
X67575000Y-57058456D02*
X67575000Y-58700000D01*
X67550000Y-58725000D02*
X67575000Y-58700000D01*
X75400000Y-54124500D02*
X75424500Y-54100000D01*
%TO.N,/Microcontroller/LED_B*%
X84995063Y-55793810D02*
X84901253Y-55700000D01*
D44*
X62725000Y-57874964D02*
X62730576Y-57869388D01*
D43*
X84901253Y-55700000D02*
X83437500Y-55700000D01*
D44*
X62725000Y-59000000D02*
X62725000Y-57874964D01*
%TO.N,/Microcontroller/LED_R*%
X62725000Y-60800000D02*
X63800000Y-60800000D01*
D43*
X84500000Y-56500000D02*
X83437500Y-56500000D01*
X84900000Y-56900000D02*
X84500000Y-56500000D01*
%TO.N,/Microcontroller/LED_G*%
X85325000Y-57150000D02*
X85325000Y-56723959D01*
D44*
X62725000Y-62600000D02*
X63700000Y-62600000D01*
D43*
X84701041Y-56100000D02*
X83437500Y-56100000D01*
X85325000Y-56723959D02*
X84701041Y-56100000D01*
%TO.N,Net-(U5-ALERT)*%
X67050000Y-61350000D02*
X66000000Y-60300000D01*
X66000000Y-58725000D02*
X66025000Y-58700000D01*
X66000000Y-60300000D02*
X66000000Y-58725000D01*
X67050000Y-62325000D02*
X67050000Y-61350000D01*
%TO.N,/Microcontroller/I2C0_SDA*%
X68400000Y-60500000D02*
X69175000Y-60500000D01*
X70363248Y-59240000D02*
X70360000Y-59240000D01*
X68050000Y-60850000D02*
X68400000Y-60500000D01*
X71672000Y-54102000D02*
X71000000Y-54774000D01*
X70360000Y-59240000D02*
X69175000Y-60425000D01*
X71000000Y-54774000D02*
X71000000Y-58603248D01*
X74422000Y-54102000D02*
X71672000Y-54102000D01*
X71000000Y-58603248D02*
X70363248Y-59240000D01*
X68050000Y-62325000D02*
X68050000Y-60850000D01*
X69175000Y-60425000D02*
X69175000Y-60500000D01*
X76562500Y-53700000D02*
X74824000Y-53700000D01*
X74824000Y-53700000D02*
X74422000Y-54102000D01*
%TO.N,/Microcontroller/display_A2*%
X76562500Y-56500000D02*
X75580000Y-56500000D01*
X104000000Y-68074607D02*
X104000000Y-63225000D01*
X75580000Y-56500000D02*
X73660000Y-58420000D01*
X73660000Y-58420000D02*
X73660000Y-61976000D01*
D44*
%TO.N,Net-(U4-a_2)*%
X104040000Y-61535000D02*
X104000000Y-61575000D01*
X104040000Y-58800000D02*
X104040000Y-61535000D01*
D43*
%TO.N,/Microcontroller/display_B2*%
X105664000Y-67564000D02*
X105664000Y-63289000D01*
X74422000Y-58420000D02*
X74422000Y-61976000D01*
X105664000Y-63289000D02*
X105600000Y-63225000D01*
X76562500Y-56900000D02*
X75942000Y-56900000D01*
X75942000Y-56900000D02*
X74422000Y-58420000D01*
D44*
%TO.N,Net-(U4-b_2)*%
X105480000Y-58800000D02*
X105600000Y-58920000D01*
X105600000Y-58920000D02*
X105600000Y-61575000D01*
D43*
%TO.N,/Microcontroller/display_C2*%
X83391500Y-57737500D02*
X83612167Y-57958167D01*
X82600000Y-57737500D02*
X83391500Y-57737500D01*
X83612167Y-57958167D02*
X83612167Y-58720167D01*
X104031667Y-44343333D02*
X104000000Y-44375000D01*
X104031667Y-43180000D02*
X104031667Y-44343333D01*
D44*
%TO.N,Net-(U4-c_2)*%
X104040000Y-46065000D02*
X104000000Y-46025000D01*
X104040000Y-48800000D02*
X104040000Y-46065000D01*
D43*
%TO.N,/Microcontroller/display_D2*%
X71120000Y-37084000D02*
X87630000Y-37084000D01*
X74188314Y-52500000D02*
X74110314Y-52578000D01*
X91694000Y-41148000D02*
X101092000Y-41148000D01*
X71374000Y-52578000D02*
X71120000Y-52578000D01*
X101092000Y-41148000D02*
X101500000Y-41556000D01*
X76562500Y-52500000D02*
X74188314Y-52500000D01*
X87630000Y-37084000D02*
X91694000Y-41148000D01*
X74110314Y-52578000D02*
X71374000Y-52578000D01*
X101500000Y-41556000D02*
X101500000Y-44375000D01*
D44*
%TO.N,Net-(U4-d_2)*%
X101160000Y-47365000D02*
X101500000Y-47025000D01*
X101500000Y-47025000D02*
X101500000Y-46025000D01*
X101160000Y-48800000D02*
X101160000Y-47365000D01*
D43*
%TO.N,/Microcontroller/display_E2*%
X99822000Y-44297000D02*
X99900000Y-44375000D01*
X71911003Y-52100997D02*
X71630817Y-52100997D01*
X99822000Y-43434000D02*
X99822000Y-44297000D01*
X71912000Y-52100000D02*
X76562500Y-52100000D01*
X71912000Y-52100000D02*
X71911003Y-52100997D01*
D44*
%TO.N,Net-(U4-e_2)*%
X99720000Y-48800000D02*
X99720000Y-46205000D01*
X99720000Y-46205000D02*
X99900000Y-46025000D01*
D43*
%TO.N,/Microcontroller/display_F2*%
X78600000Y-57737500D02*
X78600000Y-58557768D01*
X78600000Y-58557768D02*
X78617732Y-58575500D01*
X101500000Y-65532000D02*
X101500000Y-63125000D01*
D44*
%TO.N,Net-(U4-f_2)*%
X101160000Y-58800000D02*
X101160000Y-60435000D01*
X101160000Y-60435000D02*
X101500000Y-60775000D01*
X101500000Y-60775000D02*
X101500000Y-61475000D01*
D43*
%TO.N,/Microcontroller/display_G2*%
X75426427Y-58051275D02*
X75426427Y-61964427D01*
X75426427Y-61964427D02*
X75438000Y-61976000D01*
X99902474Y-67012536D02*
X99902474Y-63127474D01*
X75740202Y-57737500D02*
X77400000Y-57737500D01*
X75426427Y-58051275D02*
X75740202Y-57737500D01*
D44*
%TO.N,Net-(U4-g_2)*%
X99720000Y-60420000D02*
X99900000Y-60600000D01*
X99900000Y-60600000D02*
X99900000Y-61475000D01*
X99720000Y-58800000D02*
X99720000Y-60420000D01*
D43*
%TO.N,/Microcontroller/display_DP2*%
X82995843Y-59175000D02*
X82436843Y-58616000D01*
X83568663Y-59175000D02*
X82995843Y-59175000D01*
D44*
X105590000Y-44365000D02*
X105600000Y-44375000D01*
D43*
X105590000Y-43250000D02*
X105590000Y-44365000D01*
X82436843Y-58616000D02*
X82434315Y-58616000D01*
X82434315Y-58616000D02*
X82200000Y-58381685D01*
X82200000Y-58381685D02*
X82200000Y-57737500D01*
D44*
%TO.N,Net-(U4-DP_2)*%
X105480000Y-48800000D02*
X105480000Y-46145000D01*
X105480000Y-46145000D02*
X105600000Y-46025000D01*
%TO.N,Net-(U4-a_1)*%
X96840000Y-58800000D02*
X96840000Y-60510000D01*
X96700000Y-60650000D02*
X96700000Y-61475000D01*
X96840000Y-60510000D02*
X96700000Y-60650000D01*
D43*
%TO.N,/Microcontroller/display_A1*%
X96696099Y-66035899D02*
X96696099Y-63128901D01*
X77800000Y-58900000D02*
X77498000Y-58900000D01*
X78200000Y-58500000D02*
X78200000Y-57737500D01*
X78200000Y-58500000D02*
X77800000Y-58900000D01*
X77498000Y-58900000D02*
X77470000Y-58928000D01*
X96696099Y-63128901D02*
X96700000Y-63125000D01*
D44*
%TO.N,Net-(U4-b_1)*%
X98300000Y-61475000D02*
X98280000Y-61455000D01*
X98280000Y-61455000D02*
X98280000Y-58800000D01*
D43*
%TO.N,/Microcontroller/display_B1*%
X77569975Y-58500000D02*
X77800000Y-58269975D01*
X77800000Y-58269975D02*
X77800000Y-57737500D01*
X76374000Y-58500000D02*
X76200000Y-58674000D01*
X98300000Y-66548000D02*
X98300000Y-63125000D01*
X77569975Y-58500000D02*
X76374000Y-58500000D01*
X76200000Y-58674000D02*
X76200000Y-61976000D01*
D44*
%TO.N,Net-(U4-c_1)*%
X96725000Y-46975000D02*
X96725000Y-46050000D01*
X96840000Y-48800000D02*
X96840000Y-47090000D01*
X96725000Y-46050000D02*
X96700000Y-46025000D01*
X96840000Y-47090000D02*
X96725000Y-46975000D01*
D43*
%TO.N,/Microcontroller/display_C1*%
X96704299Y-44370701D02*
X96700000Y-44375000D01*
X74354000Y-52900000D02*
X76562500Y-52900000D01*
X96704299Y-43405704D02*
X96704299Y-44370701D01*
X74168000Y-53086000D02*
X74354000Y-52900000D01*
X72136000Y-53086000D02*
X74168000Y-53086000D01*
D44*
%TO.N,Net-(U4-d_1)*%
X93960000Y-48800000D02*
X93960000Y-46065000D01*
X93960000Y-46065000D02*
X94000000Y-46025000D01*
D43*
%TO.N,/Microcontroller/display_D1*%
X93980000Y-43434000D02*
X93980000Y-44355000D01*
X93980000Y-44355000D02*
X94000000Y-44375000D01*
X72644000Y-53594000D02*
X74364314Y-53594000D01*
X74364314Y-53594000D02*
X74658314Y-53300000D01*
X74658314Y-53300000D02*
X76562500Y-53300000D01*
D44*
%TO.N,Net-(U4-e_1)*%
X92520000Y-48800000D02*
X92520000Y-46145000D01*
X92520000Y-46145000D02*
X92400000Y-46025000D01*
D43*
%TO.N,/Microcontroller/display_E1*%
X92378099Y-43582208D02*
X92378099Y-44353099D01*
X92378099Y-44353099D02*
X92400000Y-44375000D01*
X77851000Y-54737000D02*
X77614000Y-54500000D01*
X77614000Y-54500000D02*
X76562500Y-54500000D01*
D44*
%TO.N,Net-(U4-f_1)*%
X93960000Y-61435000D02*
X93960000Y-58800000D01*
X94000000Y-61475000D02*
X93960000Y-61435000D01*
D43*
%TO.N,/Microcontroller/display_F1*%
X71882000Y-54864000D02*
X72221000Y-54525000D01*
X75442462Y-54900000D02*
X76562500Y-54900000D01*
X72221000Y-54525000D02*
X75067462Y-54525000D01*
X93980000Y-69088000D02*
X93980000Y-63145000D01*
X75067462Y-54525000D02*
X75442462Y-54900000D01*
X71882000Y-61976000D02*
X71882000Y-54864000D01*
X93980000Y-63145000D02*
X94000000Y-63125000D01*
D44*
%TO.N,Net-(U4-g_1)*%
X92400000Y-61475000D02*
X92520000Y-61355000D01*
X92520000Y-61355000D02*
X92520000Y-58800000D01*
D43*
%TO.N,/Microcontroller/display_G1*%
X73152000Y-56642000D02*
X74704752Y-56642000D01*
X75646752Y-55700000D02*
X76562500Y-55700000D01*
X74704752Y-56642000D02*
X75646752Y-55700000D01*
X92398801Y-68580000D02*
X92400000Y-68578801D01*
X92400000Y-68578801D02*
X92400000Y-63125000D01*
X72898000Y-61976000D02*
X72898000Y-56896000D01*
X72898000Y-56896000D02*
X73152000Y-56642000D01*
D44*
%TO.N,Net-(U4-DP1)*%
X98280000Y-46045000D02*
X98300000Y-46025000D01*
X98280000Y-48800000D02*
X98280000Y-46045000D01*
D43*
%TO.N,/Microcontroller/display_DP1*%
X88392000Y-56896000D02*
X87884000Y-56896000D01*
X77182000Y-56100000D02*
X76562500Y-56100000D01*
X98300000Y-44375000D02*
X98300000Y-43436000D01*
X89408000Y-55880000D02*
X88392000Y-56896000D01*
X78399000Y-56475000D02*
X77557000Y-56475000D01*
X77557000Y-56475000D02*
X77182000Y-56100000D01*
X98300000Y-43436000D02*
X98298000Y-43434000D01*
%TO.N,/Microcontroller/QSPI_SD1*%
X76965686Y-49400000D02*
X77800000Y-50234314D01*
X73760000Y-49060000D02*
X73760000Y-47939000D01*
X73760000Y-47939000D02*
X73787000Y-47912000D01*
X77800000Y-50234314D02*
X77800000Y-50862500D01*
X73760000Y-49060000D02*
X74100000Y-49400000D01*
X74100000Y-49400000D02*
X76965686Y-49400000D01*
%TO.N,/Microcontroller/QSPI_SCLK*%
X75044847Y-41680966D02*
X75044847Y-42499847D01*
X78940540Y-49649500D02*
X79000000Y-49708960D01*
X75044847Y-42499847D02*
X75057000Y-42512000D01*
X79000000Y-49708960D02*
X79000000Y-50862500D01*
%TO.N,/Microcontroller/QSPI_SD0*%
X76327000Y-42512000D02*
X76548000Y-42512000D01*
X78600000Y-50862500D02*
X78600000Y-49902942D01*
X78600000Y-49902942D02*
X76962000Y-48264942D01*
X76548000Y-42512000D02*
X76962000Y-42926000D01*
X76962000Y-48264942D02*
X76962000Y-42926000D01*
%TO.N,/Microcontroller/QSPI_SD3*%
X79424500Y-50038000D02*
X79400000Y-50062500D01*
X73771966Y-41660438D02*
X73771966Y-42496966D01*
X73771966Y-42496966D02*
X73787000Y-42512000D01*
X79400000Y-50062500D02*
X79400000Y-50862500D01*
%TO.N,/Microcontroller/QSPI_SD2*%
X78200000Y-50068628D02*
X78200000Y-50862500D01*
X75162000Y-49000000D02*
X77131372Y-49000000D01*
X75057000Y-47912000D02*
X75057000Y-48895000D01*
X75057000Y-48895000D02*
X75162000Y-49000000D01*
X77131372Y-49000000D02*
X78200000Y-50068628D01*
%TO.N,/Microcontroller/LED*%
X83879117Y-51205000D02*
X88035000Y-51205000D01*
X83437500Y-53700000D02*
X82619925Y-53700000D01*
X88035000Y-51205000D02*
X90565500Y-48674500D01*
X82619925Y-53700000D02*
X82618444Y-53701481D01*
X90565500Y-48674500D02*
X90565500Y-46990000D01*
%TD*%
%TA.AperFunction,Conductor*%
%TO.N,GND*%
G36*
X86121500Y-43196613D02*
G01*
X86166887Y-43242000D01*
X86183500Y-43304000D01*
X86183500Y-43760701D01*
X86184028Y-43764717D01*
X86184029Y-43764721D01*
X86197637Y-43868091D01*
X86197638Y-43868097D01*
X86198699Y-43876151D01*
X86258200Y-44019797D01*
X86263147Y-44026244D01*
X86334376Y-44119072D01*
X86353419Y-44154700D01*
X86360000Y-44194558D01*
X86360000Y-45650000D01*
X86343387Y-45712000D01*
X86298000Y-45757387D01*
X86236000Y-45774000D01*
X85468000Y-45774000D01*
X85406000Y-45757387D01*
X85360613Y-45712000D01*
X85344000Y-45650000D01*
X85344000Y-43361211D01*
X85358011Y-43303954D01*
X85396876Y-43259636D01*
X85451814Y-43238272D01*
X85453230Y-43238085D01*
X85494236Y-43232687D01*
X85598645Y-43189438D01*
X85646098Y-43180000D01*
X86059500Y-43180000D01*
X86121500Y-43196613D01*
G37*
%TD.AperFunction*%
%TD*%
%TA.AperFunction,Conductor*%
%TO.N,GND*%
G36*
X69534000Y-37608613D02*
G01*
X69579387Y-37654000D01*
X69596000Y-37716000D01*
X69596000Y-39246000D01*
X69579387Y-39308000D01*
X69534000Y-39353387D01*
X69472000Y-39370000D01*
X59306000Y-39370000D01*
X59244000Y-39353387D01*
X59198613Y-39308000D01*
X59182000Y-39246000D01*
X59182000Y-37716000D01*
X59198613Y-37654000D01*
X59244000Y-37608613D01*
X59306000Y-37592000D01*
X69472000Y-37592000D01*
X69534000Y-37608613D01*
G37*
%TD.AperFunction*%
%TD*%
%TA.AperFunction,Conductor*%
%TO.N,/USBC and Power/+5V_FB*%
G36*
X65497632Y-39567368D02*
G01*
X65501000Y-39575500D01*
X65501000Y-41012471D01*
X65499454Y-41018229D01*
X65495233Y-41022440D01*
X65489471Y-41023970D01*
X64766555Y-41022140D01*
X61552514Y-41014003D01*
X61552510Y-41014003D01*
X61551000Y-41014000D01*
X61551000Y-41015518D01*
X61551000Y-42005182D01*
X61548021Y-42012905D01*
X61540627Y-42016627D01*
X61532649Y-42014419D01*
X61528221Y-42007425D01*
X61523461Y-41983489D01*
X61522610Y-41981436D01*
X61501768Y-41950243D01*
X61500194Y-41948669D01*
X61469003Y-41927828D01*
X61466947Y-41926976D01*
X61439448Y-41921506D01*
X61438322Y-41921396D01*
X60681329Y-41921396D01*
X60679711Y-41922065D01*
X60679042Y-41923683D01*
X60679042Y-42584896D01*
X60675674Y-42593028D01*
X60667542Y-42596396D01*
X59331330Y-42596396D01*
X59329712Y-42597065D01*
X59329043Y-42598683D01*
X59329043Y-42680674D01*
X59329154Y-42681803D01*
X59334622Y-42709302D01*
X59335473Y-42711355D01*
X59356315Y-42742548D01*
X59357889Y-42744122D01*
X59380063Y-42758938D01*
X59384502Y-42764626D01*
X59384679Y-42771838D01*
X59380525Y-42777737D01*
X59373674Y-42780000D01*
X59252500Y-42780000D01*
X59244368Y-42776632D01*
X59241000Y-42768500D01*
X59241000Y-42094109D01*
X59329042Y-42094109D01*
X59329711Y-42095726D01*
X59331329Y-42096396D01*
X60176755Y-42096396D01*
X60178372Y-42095726D01*
X60179042Y-42094109D01*
X60179042Y-41923684D01*
X60178372Y-41922066D01*
X60176755Y-41921397D01*
X59419764Y-41921397D01*
X59418634Y-41921508D01*
X59391135Y-41926976D01*
X59389082Y-41927827D01*
X59357889Y-41948669D01*
X59356315Y-41950243D01*
X59335474Y-41981434D01*
X59334622Y-41983490D01*
X59329152Y-42010989D01*
X59329042Y-42012116D01*
X59329042Y-42094109D01*
X59241000Y-42094109D01*
X59241000Y-40546107D01*
X59852035Y-40546107D01*
X59852084Y-40546863D01*
X59858150Y-40592945D01*
X59858636Y-40594615D01*
X59906278Y-40696783D01*
X59907410Y-40698400D01*
X59987037Y-40778027D01*
X59988654Y-40779159D01*
X60090822Y-40826801D01*
X60092492Y-40827287D01*
X60138573Y-40833354D01*
X60139330Y-40833404D01*
X60174747Y-40833404D01*
X60176364Y-40832734D01*
X60177034Y-40831117D01*
X60177034Y-40831116D01*
X60677034Y-40831116D01*
X60677703Y-40832733D01*
X60679321Y-40833403D01*
X60714737Y-40833403D01*
X60715493Y-40833353D01*
X60761575Y-40827287D01*
X60763245Y-40826801D01*
X60865413Y-40779159D01*
X60867030Y-40778027D01*
X60946657Y-40698400D01*
X60947789Y-40696783D01*
X60995431Y-40594615D01*
X60995917Y-40592945D01*
X61001984Y-40546864D01*
X61002034Y-40546108D01*
X61002034Y-40543326D01*
X62142054Y-40543326D01*
X62142103Y-40544082D01*
X62148169Y-40590164D01*
X62148655Y-40591834D01*
X62196297Y-40694002D01*
X62197429Y-40695619D01*
X62277056Y-40775246D01*
X62278673Y-40776378D01*
X62380841Y-40824020D01*
X62382511Y-40824506D01*
X62428592Y-40830573D01*
X62429349Y-40830623D01*
X62464766Y-40830623D01*
X62466383Y-40829953D01*
X62467053Y-40828336D01*
X62467053Y-40828335D01*
X62967053Y-40828335D01*
X62967722Y-40829952D01*
X62969340Y-40830622D01*
X63004756Y-40830622D01*
X63005512Y-40830572D01*
X63051594Y-40824506D01*
X63053264Y-40824020D01*
X63155432Y-40776378D01*
X63157049Y-40775246D01*
X63236676Y-40695619D01*
X63237808Y-40694002D01*
X63283987Y-40594972D01*
X64382055Y-40594972D01*
X64382094Y-40595653D01*
X64384864Y-40619533D01*
X64385314Y-40621188D01*
X64429836Y-40722023D01*
X64431018Y-40723749D01*
X64508824Y-40801555D01*
X64510550Y-40802737D01*
X64611385Y-40847259D01*
X64613041Y-40847710D01*
X64630436Y-40849728D01*
X64631699Y-40849517D01*
X64632054Y-40848290D01*
X64632054Y-40848289D01*
X65132054Y-40848289D01*
X65132408Y-40849516D01*
X65133671Y-40849727D01*
X65151067Y-40847709D01*
X65152722Y-40847259D01*
X65253557Y-40802737D01*
X65255283Y-40801555D01*
X65333089Y-40723749D01*
X65334271Y-40722023D01*
X65378793Y-40621188D01*
X65379244Y-40619532D01*
X65382014Y-40595654D01*
X65382054Y-40594973D01*
X65382054Y-40527807D01*
X65381384Y-40526189D01*
X65379767Y-40525520D01*
X65134341Y-40525520D01*
X65132723Y-40526189D01*
X65132054Y-40527807D01*
X65132054Y-40848289D01*
X64632054Y-40848289D01*
X64632054Y-40527807D01*
X64631384Y-40526189D01*
X64629767Y-40525520D01*
X64384342Y-40525520D01*
X64382724Y-40526189D01*
X64382055Y-40527807D01*
X64382055Y-40594972D01*
X63283987Y-40594972D01*
X63285450Y-40591834D01*
X63285936Y-40590164D01*
X63292003Y-40544083D01*
X63292053Y-40543327D01*
X63292053Y-40532910D01*
X63291383Y-40531292D01*
X63289766Y-40530623D01*
X62969340Y-40530623D01*
X62967722Y-40531292D01*
X62967053Y-40532910D01*
X62967053Y-40828335D01*
X62467053Y-40828335D01*
X62467053Y-40532910D01*
X62466383Y-40531292D01*
X62464766Y-40530623D01*
X62144341Y-40530623D01*
X62142723Y-40531292D01*
X62142054Y-40532910D01*
X62142054Y-40543326D01*
X61002034Y-40543326D01*
X61002034Y-40535691D01*
X61001364Y-40534073D01*
X60999747Y-40533404D01*
X60679321Y-40533404D01*
X60677703Y-40534073D01*
X60677034Y-40535691D01*
X60677034Y-40831116D01*
X60177034Y-40831116D01*
X60177034Y-40535691D01*
X60176364Y-40534073D01*
X60174747Y-40533404D01*
X59854322Y-40533404D01*
X59852704Y-40534073D01*
X59852035Y-40535691D01*
X59852035Y-40546107D01*
X59241000Y-40546107D01*
X59241000Y-40031117D01*
X59852034Y-40031117D01*
X59852703Y-40032734D01*
X59854321Y-40033404D01*
X60174747Y-40033404D01*
X60176364Y-40032734D01*
X60177034Y-40031117D01*
X60677034Y-40031117D01*
X60677703Y-40032734D01*
X60679321Y-40033404D01*
X60999746Y-40033404D01*
X61001363Y-40032734D01*
X61002033Y-40031117D01*
X61002033Y-40028336D01*
X62142053Y-40028336D01*
X62142722Y-40029953D01*
X62144340Y-40030623D01*
X62464766Y-40030623D01*
X62466383Y-40029953D01*
X62467053Y-40028336D01*
X62967053Y-40028336D01*
X62967722Y-40029953D01*
X62969340Y-40030623D01*
X63289765Y-40030623D01*
X63291382Y-40029953D01*
X63292052Y-40028336D01*
X63292052Y-40023233D01*
X64382054Y-40023233D01*
X64382723Y-40024850D01*
X64384341Y-40025520D01*
X64629767Y-40025520D01*
X64631384Y-40024850D01*
X64632054Y-40023233D01*
X65132054Y-40023233D01*
X65132723Y-40024850D01*
X65134341Y-40025520D01*
X65379766Y-40025520D01*
X65381383Y-40024850D01*
X65382053Y-40023233D01*
X65382053Y-39956068D01*
X65382013Y-39955386D01*
X65379243Y-39931506D01*
X65378793Y-39929851D01*
X65334271Y-39829016D01*
X65333089Y-39827290D01*
X65255283Y-39749484D01*
X65253557Y-39748302D01*
X65152722Y-39703780D01*
X65151066Y-39703329D01*
X65133671Y-39701311D01*
X65132408Y-39701522D01*
X65132054Y-39702750D01*
X65132054Y-40023233D01*
X64632054Y-40023233D01*
X64632054Y-39702751D01*
X64631699Y-39701523D01*
X64630436Y-39701312D01*
X64613040Y-39703330D01*
X64611385Y-39703780D01*
X64510550Y-39748302D01*
X64508824Y-39749484D01*
X64431018Y-39827290D01*
X64429836Y-39829016D01*
X64385314Y-39929851D01*
X64384863Y-39931507D01*
X64382093Y-39955385D01*
X64382054Y-39956067D01*
X64382054Y-40023233D01*
X63292052Y-40023233D01*
X63292052Y-40017920D01*
X63292002Y-40017163D01*
X63285936Y-39971081D01*
X63285450Y-39969411D01*
X63237808Y-39867243D01*
X63236676Y-39865626D01*
X63157049Y-39785999D01*
X63155432Y-39784867D01*
X63053264Y-39737225D01*
X63051594Y-39736739D01*
X63005513Y-39730672D01*
X63004757Y-39730623D01*
X62969340Y-39730623D01*
X62967722Y-39731292D01*
X62967053Y-39732910D01*
X62967053Y-40028336D01*
X62467053Y-40028336D01*
X62467053Y-39732911D01*
X62466383Y-39731293D01*
X62464766Y-39730624D01*
X62429350Y-39730624D01*
X62428593Y-39730673D01*
X62382511Y-39736739D01*
X62380841Y-39737225D01*
X62278673Y-39784867D01*
X62277056Y-39785999D01*
X62197429Y-39865626D01*
X62196297Y-39867243D01*
X62148655Y-39969411D01*
X62148169Y-39971081D01*
X62142102Y-40017162D01*
X62142053Y-40017919D01*
X62142053Y-40028336D01*
X61002033Y-40028336D01*
X61002033Y-40020701D01*
X61001983Y-40019944D01*
X60995917Y-39973862D01*
X60995431Y-39972192D01*
X60947789Y-39870024D01*
X60946657Y-39868407D01*
X60867030Y-39788780D01*
X60865413Y-39787648D01*
X60763245Y-39740006D01*
X60761575Y-39739520D01*
X60715494Y-39733453D01*
X60714738Y-39733404D01*
X60679321Y-39733404D01*
X60677703Y-39734073D01*
X60677034Y-39735691D01*
X60677034Y-40031117D01*
X60177034Y-40031117D01*
X60177034Y-39735692D01*
X60176364Y-39734074D01*
X60174747Y-39733405D01*
X60139331Y-39733405D01*
X60138574Y-39733454D01*
X60092492Y-39739520D01*
X60090822Y-39740006D01*
X59988654Y-39787648D01*
X59987037Y-39788780D01*
X59907410Y-39868407D01*
X59906278Y-39870024D01*
X59858636Y-39972192D01*
X59858150Y-39973862D01*
X59852083Y-40019943D01*
X59852034Y-40020700D01*
X59852034Y-40031117D01*
X59241000Y-40031117D01*
X59241000Y-39575500D01*
X59244368Y-39567368D01*
X59252500Y-39564000D01*
X65489500Y-39564000D01*
X65497632Y-39567368D01*
G37*
%TD.AperFunction*%
%TD*%
%TA.AperFunction,Conductor*%
%TO.N,GND*%
G36*
X79301654Y-43186249D02*
G01*
X79413764Y-43232687D01*
X79447447Y-43237121D01*
X79502385Y-43258485D01*
X79541251Y-43302803D01*
X79555262Y-43360060D01*
X79555262Y-45650000D01*
X79538649Y-45712000D01*
X79493262Y-45757387D01*
X79431262Y-45774000D01*
X78610000Y-45774000D01*
X78548000Y-45757387D01*
X78502613Y-45712000D01*
X78486000Y-45650000D01*
X78486000Y-44257360D01*
X78498787Y-44202517D01*
X78534512Y-44158985D01*
X78539938Y-44154820D01*
X78555149Y-44143149D01*
X78649800Y-44019797D01*
X78709301Y-43876151D01*
X78724500Y-43760701D01*
X78724500Y-43302496D01*
X78741027Y-43240645D01*
X78786203Y-43195281D01*
X78847984Y-43178497D01*
X79253693Y-43176812D01*
X79301654Y-43186249D01*
G37*
%TD.AperFunction*%
%TD*%
%TA.AperFunction,Conductor*%
%TO.N,/USBC and Power/VBUS*%
G36*
X69354456Y-39660001D02*
G01*
X77600114Y-39664663D01*
X77606495Y-39666602D01*
X77610728Y-39671761D01*
X77614301Y-39680385D01*
X77618200Y-39689797D01*
X77712851Y-39813149D01*
X77836202Y-39907800D01*
X77979849Y-39967301D01*
X78134000Y-39987595D01*
X78288151Y-39967301D01*
X78431797Y-39907800D01*
X78555149Y-39813149D01*
X78649800Y-39689797D01*
X78657021Y-39672362D01*
X78661257Y-39667203D01*
X78667648Y-39665266D01*
X85153738Y-39668933D01*
X85161847Y-39672287D01*
X85165230Y-39680385D01*
X85175306Y-42111225D01*
X85173381Y-42117642D01*
X85168207Y-42121898D01*
X85054458Y-42169015D01*
X85054453Y-42169017D01*
X85053767Y-42169302D01*
X85053177Y-42169754D01*
X85053173Y-42169757D01*
X84934146Y-42261090D01*
X84934142Y-42261093D01*
X84933549Y-42261549D01*
X84933093Y-42262142D01*
X84933090Y-42262146D01*
X84841757Y-42381173D01*
X84841754Y-42381177D01*
X84841302Y-42381767D01*
X84841017Y-42382453D01*
X84841015Y-42382458D01*
X84783599Y-42521072D01*
X84783597Y-42521076D01*
X84783313Y-42521764D01*
X84783215Y-42522503D01*
X84783215Y-42522506D01*
X84769420Y-42627294D01*
X84763534Y-42672000D01*
X84763632Y-42672744D01*
X84781237Y-42806472D01*
X84783313Y-42822236D01*
X84783598Y-42822925D01*
X84783599Y-42822927D01*
X84834370Y-42945499D01*
X84841302Y-42962233D01*
X84933549Y-43082451D01*
X85053767Y-43174698D01*
X85172864Y-43224030D01*
X85178010Y-43228244D01*
X85179961Y-43234605D01*
X85184952Y-44438452D01*
X85183427Y-44444222D01*
X85179216Y-44448451D01*
X85173452Y-44450000D01*
X84339500Y-44450000D01*
X84331368Y-44446632D01*
X84328000Y-44438500D01*
X84328000Y-44423999D01*
X84331368Y-44415867D01*
X84339499Y-44412499D01*
X84362912Y-44412499D01*
X84389311Y-44407249D01*
X84419247Y-44387247D01*
X84439249Y-44357311D01*
X84444500Y-44330913D01*
X84444499Y-43163088D01*
X84439249Y-43136689D01*
X84419247Y-43106753D01*
X84414592Y-43103643D01*
X84390254Y-43087381D01*
X84390253Y-43087380D01*
X84389311Y-43086751D01*
X84388200Y-43086530D01*
X84388198Y-43086529D01*
X84363470Y-43081610D01*
X84363462Y-43081609D01*
X84362913Y-43081500D01*
X84362344Y-43081500D01*
X84339500Y-43081500D01*
X84331368Y-43078132D01*
X84328000Y-43070000D01*
X84328000Y-41005834D01*
X84328000Y-41003547D01*
X84325713Y-41003546D01*
X80519513Y-41002112D01*
X80519510Y-41002112D01*
X80518000Y-41002112D01*
X80518000Y-41003625D01*
X80518000Y-42555406D01*
X80516923Y-42560266D01*
X80513892Y-42564216D01*
X80453668Y-42614748D01*
X80453663Y-42614753D01*
X80452900Y-42615394D01*
X80452399Y-42616261D01*
X80452397Y-42616264D01*
X80396008Y-42713933D01*
X80396006Y-42713937D01*
X80395506Y-42714804D01*
X80395332Y-42715789D01*
X80395331Y-42715793D01*
X80384807Y-42775481D01*
X80375573Y-42827849D01*
X80375748Y-42828841D01*
X80395251Y-42939451D01*
X80395506Y-42940894D01*
X80396007Y-42941762D01*
X80396008Y-42941764D01*
X80432464Y-43004908D01*
X80452900Y-43040304D01*
X80453666Y-43040947D01*
X80453668Y-43040949D01*
X80484392Y-43066729D01*
X80487423Y-43070679D01*
X80488500Y-43075539D01*
X80488500Y-43103643D01*
X80486562Y-43110032D01*
X80469381Y-43135745D01*
X80469379Y-43135747D01*
X80468751Y-43136689D01*
X80468530Y-43137797D01*
X80468529Y-43137801D01*
X80463610Y-43162529D01*
X80463609Y-43162538D01*
X80463500Y-43163087D01*
X80463500Y-43163654D01*
X80463500Y-43163655D01*
X80463500Y-44330342D01*
X80463500Y-44330352D01*
X80463501Y-44330912D01*
X80463611Y-44331469D01*
X80463612Y-44331471D01*
X80468529Y-44356199D01*
X80468530Y-44356202D01*
X80468751Y-44357311D01*
X80488753Y-44387247D01*
X80489696Y-44387877D01*
X80512889Y-44403374D01*
X80516642Y-44407515D01*
X80518000Y-44412936D01*
X80518000Y-44438500D01*
X80514632Y-44446632D01*
X80506500Y-44450000D01*
X79767500Y-44450000D01*
X79759368Y-44446632D01*
X79756000Y-44438500D01*
X79755998Y-44302727D01*
X79755987Y-43223073D01*
X79757925Y-43216687D01*
X79763082Y-43212454D01*
X79854233Y-43174698D01*
X79974451Y-43082451D01*
X80066698Y-42962233D01*
X80124687Y-42822236D01*
X80144466Y-42672000D01*
X80124687Y-42521764D01*
X80066698Y-42381767D01*
X79974451Y-42261549D01*
X79925804Y-42224221D01*
X79854826Y-42169757D01*
X79854825Y-42169756D01*
X79854233Y-42169302D01*
X79853543Y-42169016D01*
X79853541Y-42169015D01*
X79763075Y-42131542D01*
X79757914Y-42127306D01*
X79755977Y-42120920D01*
X79755966Y-41001952D01*
X79753679Y-41001951D01*
X70746681Y-40999203D01*
X70746679Y-40999203D01*
X70745154Y-40999203D01*
X70744690Y-41000023D01*
X70741585Y-41002122D01*
X70737153Y-41003014D01*
X69241000Y-41004000D01*
X65752500Y-41004000D01*
X65744368Y-41000632D01*
X65741000Y-40992500D01*
X65741000Y-39671500D01*
X65744368Y-39663368D01*
X65752500Y-39660000D01*
X69350999Y-39660000D01*
X69354456Y-39660001D01*
G37*
%TD.AperFunction*%
%TD*%
%TA.AperFunction,Conductor*%
%TO.N,GND*%
G36*
X64873000Y-41612613D02*
G01*
X64918387Y-41658000D01*
X64935000Y-41720000D01*
X64935000Y-41806896D01*
X64918387Y-41868896D01*
X64873000Y-41914283D01*
X64811000Y-41930896D01*
X62846222Y-41930896D01*
X62846211Y-41930896D01*
X62840130Y-41930897D01*
X62834160Y-41932084D01*
X62834152Y-41932085D01*
X62825714Y-41933763D01*
X62825709Y-41933764D01*
X62813731Y-41936147D01*
X62803575Y-41942932D01*
X62803572Y-41942934D01*
X62793950Y-41949363D01*
X62793947Y-41949365D01*
X62783795Y-41956149D01*
X62777011Y-41966301D01*
X62777009Y-41966304D01*
X62770578Y-41975929D01*
X62770576Y-41975932D01*
X62763793Y-41986085D01*
X62761410Y-41998061D01*
X62761410Y-41998063D01*
X62759731Y-42006503D01*
X62759730Y-42006508D01*
X62758542Y-42012483D01*
X62758542Y-42018577D01*
X62758542Y-42018578D01*
X62758542Y-42674215D01*
X62758542Y-42674225D01*
X62758543Y-42680308D01*
X62759730Y-42686278D01*
X62759731Y-42686285D01*
X62761409Y-42694723D01*
X62761410Y-42694726D01*
X62763793Y-42706707D01*
X62778182Y-42728242D01*
X62778183Y-42728244D01*
X62783795Y-42736643D01*
X62783244Y-42737010D01*
X62809480Y-42782451D01*
X62809481Y-42846637D01*
X62777390Y-42902224D01*
X62770163Y-42909451D01*
X62761628Y-42922223D01*
X62752461Y-42944356D01*
X62750231Y-42955566D01*
X62749042Y-42967643D01*
X62749042Y-43030070D01*
X62752492Y-43042945D01*
X62765368Y-43046396D01*
X63975042Y-43046396D01*
X64037042Y-43063009D01*
X64082429Y-43108396D01*
X64099042Y-43170396D01*
X64099042Y-43422396D01*
X64082429Y-43484396D01*
X64037042Y-43529783D01*
X63975042Y-43546396D01*
X62765369Y-43546396D01*
X62752493Y-43549846D01*
X62749043Y-43562722D01*
X62749043Y-43625152D01*
X62750231Y-43637221D01*
X62752461Y-43648433D01*
X62761629Y-43670568D01*
X62774018Y-43689110D01*
X62794766Y-43751916D01*
X62780273Y-43816454D01*
X62734663Y-43864358D01*
X62670915Y-43882000D01*
X62649000Y-43882000D01*
X62649000Y-43898326D01*
X62649000Y-45406000D01*
X62648177Y-45406000D01*
X62649296Y-45440195D01*
X62626054Y-45491488D01*
X62582523Y-45527212D01*
X62527681Y-45540000D01*
X62482270Y-45540000D01*
X62473343Y-45540647D01*
X62419278Y-45548524D01*
X62401099Y-45554141D01*
X62314046Y-45596699D01*
X62297542Y-45608482D01*
X62229482Y-45676542D01*
X62217699Y-45693046D01*
X62175143Y-45780094D01*
X62169522Y-45798285D01*
X62161646Y-45852343D01*
X62161000Y-45861263D01*
X62161000Y-46723674D01*
X62164450Y-46736549D01*
X62177326Y-46740000D01*
X63494673Y-46740000D01*
X63507548Y-46736549D01*
X63510999Y-46723674D01*
X63510999Y-45861270D01*
X63510352Y-45852343D01*
X63502475Y-45798278D01*
X63496858Y-45780099D01*
X63454300Y-45693046D01*
X63442517Y-45676542D01*
X63383656Y-45617681D01*
X63353406Y-45568318D01*
X63348864Y-45510602D01*
X63371019Y-45457115D01*
X63415042Y-45419515D01*
X63471337Y-45406000D01*
X63643308Y-45406000D01*
X63699600Y-45419514D01*
X63723279Y-45431579D01*
X63814398Y-45446011D01*
X63867885Y-45468166D01*
X63905485Y-45512189D01*
X63919000Y-45568484D01*
X63919000Y-50616000D01*
X63902387Y-50678000D01*
X63857000Y-50723387D01*
X63795000Y-50740000D01*
X61811000Y-50740000D01*
X61749000Y-50723387D01*
X61703613Y-50678000D01*
X61687000Y-50616000D01*
X61687000Y-49839241D01*
X62594001Y-49839241D01*
X62594413Y-49846376D01*
X62595835Y-49858633D01*
X62600677Y-49876434D01*
X62637572Y-49959994D01*
X62650338Y-49978630D01*
X62713396Y-50041688D01*
X62732032Y-50054454D01*
X62815598Y-50091352D01*
X62828996Y-50094997D01*
X62840175Y-50093129D01*
X62844000Y-50079882D01*
X63344000Y-50079882D01*
X63347824Y-50093128D01*
X63359001Y-50094996D01*
X63372407Y-50091349D01*
X63455967Y-50054454D01*
X63474603Y-50041688D01*
X63537661Y-49978630D01*
X63550427Y-49959994D01*
X63587325Y-49876428D01*
X63592164Y-49858642D01*
X63593588Y-49846367D01*
X63594000Y-49839246D01*
X63594000Y-49789353D01*
X63590549Y-49776477D01*
X63577674Y-49773027D01*
X63360326Y-49773027D01*
X63347450Y-49776477D01*
X63344000Y-49789353D01*
X63344000Y-50079882D01*
X62844000Y-50079882D01*
X62844000Y-49789353D01*
X62840549Y-49776477D01*
X62827674Y-49773027D01*
X62610327Y-49773027D01*
X62597451Y-49776477D01*
X62594001Y-49789353D01*
X62594001Y-49839241D01*
X61687000Y-49839241D01*
X61687000Y-49256701D01*
X62594000Y-49256701D01*
X62597450Y-49269576D01*
X62610326Y-49273027D01*
X62827674Y-49273027D01*
X62840549Y-49269576D01*
X62844000Y-49256701D01*
X63344000Y-49256701D01*
X63347450Y-49269576D01*
X63360326Y-49273027D01*
X63577673Y-49273027D01*
X63590548Y-49269576D01*
X63593999Y-49256701D01*
X63593999Y-49206813D01*
X63593586Y-49199677D01*
X63592164Y-49187420D01*
X63587322Y-49169619D01*
X63550427Y-49086059D01*
X63537661Y-49067423D01*
X63474603Y-49004365D01*
X63455967Y-48991599D01*
X63372401Y-48954701D01*
X63359003Y-48951056D01*
X63347824Y-48952924D01*
X63344000Y-48966172D01*
X63344000Y-49256701D01*
X62844000Y-49256701D01*
X62844000Y-48966172D01*
X62840175Y-48952925D01*
X62828998Y-48951057D01*
X62815592Y-48954704D01*
X62732032Y-48991599D01*
X62713396Y-49004365D01*
X62650338Y-49067423D01*
X62637572Y-49086059D01*
X62600674Y-49169625D01*
X62595835Y-49187411D01*
X62594411Y-49199686D01*
X62594000Y-49206808D01*
X62594000Y-49256701D01*
X61687000Y-49256701D01*
X61687000Y-48118730D01*
X62161001Y-48118730D01*
X62161647Y-48127656D01*
X62169524Y-48181721D01*
X62175141Y-48199900D01*
X62217699Y-48286953D01*
X62229482Y-48303457D01*
X62297542Y-48371517D01*
X62314046Y-48383300D01*
X62401094Y-48425856D01*
X62419285Y-48431477D01*
X62473343Y-48439353D01*
X62482263Y-48440000D01*
X62569674Y-48440000D01*
X62582549Y-48436549D01*
X62586000Y-48423674D01*
X62586000Y-48423673D01*
X63086000Y-48423673D01*
X63089450Y-48436548D01*
X63102326Y-48439999D01*
X63189730Y-48439999D01*
X63198656Y-48439352D01*
X63252721Y-48431475D01*
X63270900Y-48425858D01*
X63357953Y-48383300D01*
X63374457Y-48371517D01*
X63442517Y-48303457D01*
X63454300Y-48286953D01*
X63496856Y-48199905D01*
X63502477Y-48181714D01*
X63510353Y-48127656D01*
X63511000Y-48118737D01*
X63511000Y-47256326D01*
X63507549Y-47243450D01*
X63494674Y-47240000D01*
X63102326Y-47240000D01*
X63089450Y-47243450D01*
X63086000Y-47256326D01*
X63086000Y-48423673D01*
X62586000Y-48423673D01*
X62586000Y-47256326D01*
X62582549Y-47243450D01*
X62569674Y-47240000D01*
X62177327Y-47240000D01*
X62164451Y-47243450D01*
X62161001Y-47256326D01*
X62161001Y-48118730D01*
X61687000Y-48118730D01*
X61687000Y-41720000D01*
X61703613Y-41658000D01*
X61749000Y-41612613D01*
X61811000Y-41596000D01*
X64811000Y-41596000D01*
X64873000Y-41612613D01*
G37*
%TD.AperFunction*%
%TD*%
%TA.AperFunction,Conductor*%
%TO.N,+3V3*%
G36*
X69249632Y-43631368D02*
G01*
X69253000Y-43639500D01*
X69253000Y-51998500D01*
X69249632Y-52006632D01*
X69241500Y-52010000D01*
X67232500Y-52010000D01*
X67224368Y-52006632D01*
X67221000Y-51998500D01*
X67221000Y-51457700D01*
X67339081Y-51457700D01*
X67339130Y-51458456D01*
X67345196Y-51504538D01*
X67345682Y-51506208D01*
X67393324Y-51608376D01*
X67394456Y-51609993D01*
X67474083Y-51689620D01*
X67475700Y-51690752D01*
X67577868Y-51738394D01*
X67579538Y-51738880D01*
X67625619Y-51744947D01*
X67626376Y-51744997D01*
X67636793Y-51744997D01*
X67638410Y-51744327D01*
X67639080Y-51742710D01*
X67639080Y-51742709D01*
X68139080Y-51742709D01*
X68139749Y-51744326D01*
X68141367Y-51744996D01*
X68151783Y-51744996D01*
X68152539Y-51744946D01*
X68198621Y-51738880D01*
X68200291Y-51738394D01*
X68302459Y-51690752D01*
X68304076Y-51689620D01*
X68383703Y-51609993D01*
X68384835Y-51608376D01*
X68432477Y-51506208D01*
X68432963Y-51504538D01*
X68439030Y-51458457D01*
X68439080Y-51457701D01*
X68439080Y-51422284D01*
X68438410Y-51420666D01*
X68436793Y-51419997D01*
X68141367Y-51419997D01*
X68139749Y-51420666D01*
X68139080Y-51422284D01*
X68139080Y-51742709D01*
X67639080Y-51742709D01*
X67639080Y-51422284D01*
X67638410Y-51420666D01*
X67636793Y-51419997D01*
X67341368Y-51419997D01*
X67339750Y-51420666D01*
X67339081Y-51422284D01*
X67339081Y-51457700D01*
X67221000Y-51457700D01*
X67221000Y-50917710D01*
X67339080Y-50917710D01*
X67339749Y-50919327D01*
X67341367Y-50919997D01*
X67636793Y-50919997D01*
X67638410Y-50919327D01*
X67639080Y-50917710D01*
X68139080Y-50917710D01*
X68139749Y-50919327D01*
X68141367Y-50919997D01*
X68436792Y-50919997D01*
X68438409Y-50919327D01*
X68439079Y-50917710D01*
X68439079Y-50882294D01*
X68439029Y-50881537D01*
X68432963Y-50835455D01*
X68432477Y-50833785D01*
X68384835Y-50731617D01*
X68383703Y-50730000D01*
X68304076Y-50650373D01*
X68302459Y-50649241D01*
X68200291Y-50601599D01*
X68198621Y-50601113D01*
X68152540Y-50595046D01*
X68151784Y-50594997D01*
X68141367Y-50594997D01*
X68139749Y-50595666D01*
X68139080Y-50597284D01*
X68139080Y-50917710D01*
X67639080Y-50917710D01*
X67639080Y-50597285D01*
X67638410Y-50595667D01*
X67636793Y-50594998D01*
X67626377Y-50594998D01*
X67625620Y-50595047D01*
X67579538Y-50601113D01*
X67577868Y-50601599D01*
X67475700Y-50649241D01*
X67474083Y-50650373D01*
X67394456Y-50730000D01*
X67393324Y-50731617D01*
X67345682Y-50833785D01*
X67345196Y-50835455D01*
X67339129Y-50881536D01*
X67339080Y-50882293D01*
X67339080Y-50917710D01*
X67221000Y-50917710D01*
X67221000Y-49843347D01*
X67435864Y-49843347D01*
X67435903Y-49844028D01*
X67438673Y-49867908D01*
X67439123Y-49869563D01*
X67483645Y-49970398D01*
X67484827Y-49972124D01*
X67562633Y-50049930D01*
X67564359Y-50051112D01*
X67665194Y-50095634D01*
X67666850Y-50096085D01*
X67684245Y-50098103D01*
X67685508Y-50097892D01*
X67685863Y-50096665D01*
X67685863Y-50096664D01*
X68185863Y-50096664D01*
X68186217Y-50097891D01*
X68187480Y-50098102D01*
X68204876Y-50096084D01*
X68206531Y-50095634D01*
X68307366Y-50051112D01*
X68309092Y-50049930D01*
X68386898Y-49972124D01*
X68388080Y-49970398D01*
X68432602Y-49869563D01*
X68433053Y-49867907D01*
X68435823Y-49844029D01*
X68435863Y-49843348D01*
X68435863Y-49776182D01*
X68435193Y-49774564D01*
X68433576Y-49773895D01*
X68188150Y-49773895D01*
X68186532Y-49774564D01*
X68185863Y-49776182D01*
X68185863Y-50096664D01*
X67685863Y-50096664D01*
X67685863Y-49776182D01*
X67685193Y-49774564D01*
X67683576Y-49773895D01*
X67438151Y-49773895D01*
X67436533Y-49774564D01*
X67435864Y-49776182D01*
X67435864Y-49843347D01*
X67221000Y-49843347D01*
X67221000Y-49271608D01*
X67435863Y-49271608D01*
X67436532Y-49273225D01*
X67438150Y-49273895D01*
X67683576Y-49273895D01*
X67685193Y-49273225D01*
X67685863Y-49271608D01*
X68185863Y-49271608D01*
X68186532Y-49273225D01*
X68188150Y-49273895D01*
X68433575Y-49273895D01*
X68435192Y-49273225D01*
X68435862Y-49271608D01*
X68435862Y-49204443D01*
X68435822Y-49203761D01*
X68433052Y-49179881D01*
X68432602Y-49178226D01*
X68388080Y-49077391D01*
X68386898Y-49075665D01*
X68309092Y-48997859D01*
X68307366Y-48996677D01*
X68206531Y-48952155D01*
X68204875Y-48951704D01*
X68187480Y-48949686D01*
X68186217Y-48949897D01*
X68185863Y-48951125D01*
X68185863Y-49271608D01*
X67685863Y-49271608D01*
X67685863Y-48951126D01*
X67685508Y-48949898D01*
X67684245Y-48949687D01*
X67666849Y-48951705D01*
X67665194Y-48952155D01*
X67564359Y-48996677D01*
X67562633Y-48997859D01*
X67484827Y-49075665D01*
X67483645Y-49077391D01*
X67439123Y-49178226D01*
X67438672Y-49179882D01*
X67435902Y-49203760D01*
X67435863Y-49204442D01*
X67435863Y-49271608D01*
X67221000Y-49271608D01*
X67221000Y-48710287D01*
X67221000Y-48708000D01*
X67218713Y-48708000D01*
X64692500Y-48708000D01*
X64684368Y-48704632D01*
X64681000Y-48696500D01*
X64681000Y-48122803D01*
X65111001Y-48122803D01*
X65111060Y-48123628D01*
X65120783Y-48190364D01*
X65121305Y-48192053D01*
X65171795Y-48295333D01*
X65172886Y-48296861D01*
X65254138Y-48378113D01*
X65255666Y-48379204D01*
X65358946Y-48429694D01*
X65360635Y-48430216D01*
X65427370Y-48439940D01*
X65428197Y-48440000D01*
X65533713Y-48440000D01*
X65535330Y-48439330D01*
X65536000Y-48437713D01*
X65536000Y-48437712D01*
X66036000Y-48437712D01*
X66036669Y-48439329D01*
X66038287Y-48439999D01*
X66143802Y-48439999D01*
X66144628Y-48439939D01*
X66211364Y-48430216D01*
X66213053Y-48429694D01*
X66316333Y-48379204D01*
X66317861Y-48378113D01*
X66399113Y-48296861D01*
X66400204Y-48295333D01*
X66450694Y-48192053D01*
X66451216Y-48190364D01*
X66460940Y-48123629D01*
X66461000Y-48122804D01*
X66461000Y-47242287D01*
X66460330Y-47240669D01*
X66458713Y-47240000D01*
X66038287Y-47240000D01*
X66036669Y-47240669D01*
X66036000Y-47242287D01*
X66036000Y-48437712D01*
X65536000Y-48437712D01*
X65536000Y-47242287D01*
X65535330Y-47240669D01*
X65533713Y-47240000D01*
X65113288Y-47240000D01*
X65111670Y-47240669D01*
X65111001Y-47242287D01*
X65111001Y-48122803D01*
X64681000Y-48122803D01*
X64681000Y-46801452D01*
X68017001Y-46801452D01*
X68017040Y-46802133D01*
X68019810Y-46826013D01*
X68020260Y-46827668D01*
X68064782Y-46928503D01*
X68065964Y-46930229D01*
X68143770Y-47008035D01*
X68145496Y-47009217D01*
X68246331Y-47053739D01*
X68247987Y-47054190D01*
X68265382Y-47056208D01*
X68266645Y-47055997D01*
X68267000Y-47054770D01*
X68267000Y-47054769D01*
X68767000Y-47054769D01*
X68767354Y-47055996D01*
X68768617Y-47056207D01*
X68786013Y-47054189D01*
X68787668Y-47053739D01*
X68888503Y-47009217D01*
X68890229Y-47008035D01*
X68968035Y-46930229D01*
X68969217Y-46928503D01*
X69013739Y-46827668D01*
X69014190Y-46826012D01*
X69016960Y-46802134D01*
X69017000Y-46801453D01*
X69017000Y-46734287D01*
X69016330Y-46732669D01*
X69014713Y-46732000D01*
X68769287Y-46732000D01*
X68767669Y-46732669D01*
X68767000Y-46734287D01*
X68767000Y-47054769D01*
X68267000Y-47054769D01*
X68267000Y-46734287D01*
X68266330Y-46732669D01*
X68264713Y-46732000D01*
X68019288Y-46732000D01*
X68017670Y-46732669D01*
X68017001Y-46734287D01*
X68017001Y-46801452D01*
X64681000Y-46801452D01*
X64681000Y-46737713D01*
X65111000Y-46737713D01*
X65111669Y-46739330D01*
X65113287Y-46740000D01*
X65533713Y-46740000D01*
X65535330Y-46739330D01*
X65536000Y-46737713D01*
X66036000Y-46737713D01*
X66036669Y-46739330D01*
X66038287Y-46740000D01*
X66458712Y-46740000D01*
X66460329Y-46739330D01*
X66460999Y-46737713D01*
X66460999Y-46229713D01*
X68017000Y-46229713D01*
X68017669Y-46231330D01*
X68019287Y-46232000D01*
X68264713Y-46232000D01*
X68266330Y-46231330D01*
X68267000Y-46229713D01*
X68767000Y-46229713D01*
X68767669Y-46231330D01*
X68769287Y-46232000D01*
X69014712Y-46232000D01*
X69016329Y-46231330D01*
X69016999Y-46229713D01*
X69016999Y-46162548D01*
X69016959Y-46161866D01*
X69014189Y-46137986D01*
X69013739Y-46136331D01*
X68969217Y-46035496D01*
X68968035Y-46033770D01*
X68890229Y-45955964D01*
X68888503Y-45954782D01*
X68787668Y-45910260D01*
X68786012Y-45909809D01*
X68768617Y-45907791D01*
X68767354Y-45908002D01*
X68767000Y-45909230D01*
X68767000Y-46229713D01*
X68267000Y-46229713D01*
X68267000Y-45909231D01*
X68266645Y-45908003D01*
X68265382Y-45907792D01*
X68247986Y-45909810D01*
X68246331Y-45910260D01*
X68145496Y-45954782D01*
X68143770Y-45955964D01*
X68065964Y-46033770D01*
X68064782Y-46035496D01*
X68020260Y-46136331D01*
X68019809Y-46137987D01*
X68017039Y-46161865D01*
X68017000Y-46162547D01*
X68017000Y-46229713D01*
X66460999Y-46229713D01*
X66460999Y-45857198D01*
X66460939Y-45856371D01*
X66451216Y-45789635D01*
X66450694Y-45787946D01*
X66400204Y-45684666D01*
X66399113Y-45683138D01*
X66317861Y-45601886D01*
X66316333Y-45600795D01*
X66213053Y-45550305D01*
X66211364Y-45549783D01*
X66144629Y-45540059D01*
X66143803Y-45540000D01*
X66038287Y-45540000D01*
X66036669Y-45540669D01*
X66036000Y-45542287D01*
X66036000Y-46737713D01*
X65536000Y-46737713D01*
X65536000Y-45542288D01*
X65535330Y-45540670D01*
X65533713Y-45540001D01*
X65428198Y-45540001D01*
X65427371Y-45540060D01*
X65360635Y-45549783D01*
X65358946Y-45550305D01*
X65255666Y-45600795D01*
X65254138Y-45601886D01*
X65172886Y-45683138D01*
X65171795Y-45684666D01*
X65121305Y-45787946D01*
X65120783Y-45789635D01*
X65111059Y-45856370D01*
X65111000Y-45857197D01*
X65111000Y-46737713D01*
X64681000Y-46737713D01*
X64681000Y-45664764D01*
X64684368Y-45656632D01*
X64801000Y-45540000D01*
X65443000Y-44898000D01*
X65443000Y-44690886D01*
X65720073Y-44690886D01*
X65720122Y-44691642D01*
X65726069Y-44736819D01*
X65726555Y-44738489D01*
X65773266Y-44838660D01*
X65774398Y-44840277D01*
X65852465Y-44918344D01*
X65854082Y-44919476D01*
X65954253Y-44966187D01*
X65955923Y-44966673D01*
X66001099Y-44972621D01*
X66001856Y-44972671D01*
X66167785Y-44972671D01*
X66169402Y-44972001D01*
X66170072Y-44970384D01*
X66170072Y-44970383D01*
X66670072Y-44970383D01*
X66670741Y-44972000D01*
X66672359Y-44972670D01*
X66838287Y-44972670D01*
X66839043Y-44972620D01*
X66884220Y-44966673D01*
X66885890Y-44966187D01*
X66986061Y-44919476D01*
X66987678Y-44918344D01*
X67065745Y-44840277D01*
X67066877Y-44838660D01*
X67113588Y-44738489D01*
X67114074Y-44736819D01*
X67117972Y-44707215D01*
X67694617Y-44707215D01*
X67694666Y-44707971D01*
X67700732Y-44754053D01*
X67701218Y-44755723D01*
X67748860Y-44857891D01*
X67749992Y-44859508D01*
X67829619Y-44939135D01*
X67831236Y-44940267D01*
X67933404Y-44987909D01*
X67935074Y-44988395D01*
X67981155Y-44994462D01*
X67981912Y-44994512D01*
X68017329Y-44994512D01*
X68018946Y-44993842D01*
X68019616Y-44992225D01*
X68019616Y-44992224D01*
X68519616Y-44992224D01*
X68520285Y-44993841D01*
X68521903Y-44994511D01*
X68557319Y-44994511D01*
X68558075Y-44994461D01*
X68604157Y-44988395D01*
X68605827Y-44987909D01*
X68707995Y-44940267D01*
X68709612Y-44939135D01*
X68789239Y-44859508D01*
X68790371Y-44857891D01*
X68838013Y-44755723D01*
X68838499Y-44754053D01*
X68844566Y-44707972D01*
X68844616Y-44707216D01*
X68844616Y-44696799D01*
X68843946Y-44695181D01*
X68842329Y-44694512D01*
X68521903Y-44694512D01*
X68520285Y-44695181D01*
X68519616Y-44696799D01*
X68519616Y-44992224D01*
X68019616Y-44992224D01*
X68019616Y-44696799D01*
X68018946Y-44695181D01*
X68017329Y-44694512D01*
X67696904Y-44694512D01*
X67695286Y-44695181D01*
X67694617Y-44696799D01*
X67694617Y-44707215D01*
X67117972Y-44707215D01*
X67120022Y-44691643D01*
X67120072Y-44690887D01*
X67120072Y-44687458D01*
X67119402Y-44685840D01*
X67117785Y-44685171D01*
X66672359Y-44685171D01*
X66670741Y-44685840D01*
X66670072Y-44687458D01*
X66670072Y-44970383D01*
X66170072Y-44970383D01*
X66170072Y-44687458D01*
X66169402Y-44685840D01*
X66167785Y-44685171D01*
X65722360Y-44685171D01*
X65720742Y-44685840D01*
X65720073Y-44687458D01*
X65720073Y-44690886D01*
X65443000Y-44690886D01*
X65443000Y-44192225D01*
X67694616Y-44192225D01*
X67695285Y-44193842D01*
X67696903Y-44194512D01*
X68017329Y-44194512D01*
X68018946Y-44193842D01*
X68019616Y-44192225D01*
X68519616Y-44192225D01*
X68520285Y-44193842D01*
X68521903Y-44194512D01*
X68842328Y-44194512D01*
X68843945Y-44193842D01*
X68844615Y-44192225D01*
X68844615Y-44181809D01*
X68844565Y-44181052D01*
X68838499Y-44134970D01*
X68838013Y-44133300D01*
X68790371Y-44031132D01*
X68789239Y-44029515D01*
X68709612Y-43949888D01*
X68707995Y-43948756D01*
X68605827Y-43901114D01*
X68604157Y-43900628D01*
X68558076Y-43894561D01*
X68557320Y-43894512D01*
X68521903Y-43894512D01*
X68520285Y-43895181D01*
X68519616Y-43896799D01*
X68519616Y-44192225D01*
X68019616Y-44192225D01*
X68019616Y-43896800D01*
X68018946Y-43895182D01*
X68017329Y-43894513D01*
X67981913Y-43894513D01*
X67981156Y-43894562D01*
X67935074Y-43900628D01*
X67933404Y-43901114D01*
X67831236Y-43948756D01*
X67829619Y-43949888D01*
X67749992Y-44029515D01*
X67748860Y-44031132D01*
X67701218Y-44133300D01*
X67700732Y-44134970D01*
X67694665Y-44181051D01*
X67694616Y-44181808D01*
X67694616Y-44192225D01*
X65443000Y-44192225D01*
X65443000Y-44182884D01*
X65720072Y-44182884D01*
X65720741Y-44184501D01*
X65722359Y-44185171D01*
X66167785Y-44185171D01*
X66169402Y-44184501D01*
X66170072Y-44182884D01*
X66670072Y-44182884D01*
X66670741Y-44184501D01*
X66672359Y-44185171D01*
X67117784Y-44185171D01*
X67119401Y-44184501D01*
X67120071Y-44182884D01*
X67120071Y-44179456D01*
X67120021Y-44178699D01*
X67114074Y-44133522D01*
X67113588Y-44131852D01*
X67066877Y-44031681D01*
X67065745Y-44030064D01*
X66987678Y-43951997D01*
X66986061Y-43950865D01*
X66885890Y-43904154D01*
X66884220Y-43903668D01*
X66839044Y-43897720D01*
X66838288Y-43897671D01*
X66672359Y-43897671D01*
X66670741Y-43898340D01*
X66670072Y-43899958D01*
X66670072Y-44182884D01*
X66170072Y-44182884D01*
X66170072Y-43899959D01*
X66169402Y-43898341D01*
X66167785Y-43897672D01*
X66001857Y-43897672D01*
X66001100Y-43897721D01*
X65955923Y-43903668D01*
X65954253Y-43904154D01*
X65854082Y-43950865D01*
X65852465Y-43951997D01*
X65774398Y-44030064D01*
X65773266Y-44031681D01*
X65726555Y-44131852D01*
X65726069Y-44133522D01*
X65720121Y-44178698D01*
X65720072Y-44179455D01*
X65720072Y-44182884D01*
X65443000Y-44182884D01*
X65443000Y-43639500D01*
X65446368Y-43631368D01*
X65454500Y-43628000D01*
X69241500Y-43628000D01*
X69249632Y-43631368D01*
G37*
%TD.AperFunction*%
%TD*%
M02*
