%TF.GenerationSoftware,KiCad,Pcbnew,(7.0.0)*%
%TF.CreationDate,2023-04-15T16:40:11+03:00*%
%TF.ProjectId,Raspi Pico Board,52617370-6920-4506-9963-6f20426f6172,rev?*%
%TF.SameCoordinates,Original*%
%TF.FileFunction,Paste,Top*%
%TF.FilePolarity,Positive*%
%FSLAX46Y46*%
G04 Gerber Fmt 4.6, Leading zero omitted, Abs format (unit mm)*
G04 Created by KiCad (PCBNEW (7.0.0)) date 2023-04-15 16:40:11*
%MOMM*%
%LPD*%
G01*
G04 APERTURE LIST*
G04 Aperture macros list*
%AMRoundRect*
0 Rectangle with rounded corners*
0 $1 Rounding radius*
0 $2 $3 $4 $5 $6 $7 $8 $9 X,Y pos of 4 corners*
0 Add a 4 corners polygon primitive as box body*
4,1,4,$2,$3,$4,$5,$6,$7,$8,$9,$2,$3,0*
0 Add four circle primitives for the rounded corners*
1,1,$1+$1,$2,$3*
1,1,$1+$1,$4,$5*
1,1,$1+$1,$6,$7*
1,1,$1+$1,$8,$9*
0 Add four rect primitives between the rounded corners*
20,1,$1+$1,$2,$3,$4,$5,0*
20,1,$1+$1,$4,$5,$6,$7,0*
20,1,$1+$1,$6,$7,$8,$9,0*
20,1,$1+$1,$8,$9,$2,$3,0*%
G04 Aperture macros list end*
%ADD10RoundRect,0.225000X-0.225000X-0.250000X0.225000X-0.250000X0.225000X0.250000X-0.225000X0.250000X0*%
%ADD11RoundRect,0.225000X-0.250000X0.225000X-0.250000X-0.225000X0.250000X-0.225000X0.250000X0.225000X0*%
%ADD12RoundRect,0.200000X0.200000X0.275000X-0.200000X0.275000X-0.200000X-0.275000X0.200000X-0.275000X0*%
%ADD13R,0.900000X2.800000*%
%ADD14RoundRect,0.200000X-0.275000X0.200000X-0.275000X-0.200000X0.275000X-0.200000X0.275000X0.200000X0*%
%ADD15RoundRect,0.200000X-0.200000X-0.275000X0.200000X-0.275000X0.200000X0.275000X-0.200000X0.275000X0*%
%ADD16R,0.650000X0.750000*%
%ADD17R,0.250000X0.500000*%
%ADD18RoundRect,0.225000X0.250000X-0.225000X0.250000X0.225000X-0.250000X0.225000X-0.250000X-0.225000X0*%
%ADD19RoundRect,0.243750X0.243750X0.456250X-0.243750X0.456250X-0.243750X-0.456250X0.243750X-0.456250X0*%
%ADD20RoundRect,0.225000X0.225000X0.250000X-0.225000X0.250000X-0.225000X-0.250000X0.225000X-0.250000X0*%
%ADD21RoundRect,0.200000X0.275000X-0.200000X0.275000X0.200000X-0.275000X0.200000X-0.275000X-0.200000X0*%
%ADD22RoundRect,0.243750X0.456250X-0.243750X0.456250X0.243750X-0.456250X0.243750X-0.456250X-0.243750X0*%
%ADD23R,1.700000X0.900000*%
%ADD24R,1.150000X0.300000*%
%ADD25R,0.900000X1.700000*%
%ADD26R,5.600000X2.100000*%
%ADD27RoundRect,0.250000X0.615000X-0.435000X0.615000X0.435000X-0.615000X0.435000X-0.615000X-0.435000X0*%
%ADD28RoundRect,0.125000X0.125000X-0.250000X0.125000X0.250000X-0.125000X0.250000X-0.125000X-0.250000X0*%
%ADD29R,2.000000X0.650000*%
%ADD30R,1.500000X0.650000*%
%ADD31R,1.950000X0.650000*%
%ADD32RoundRect,0.250000X-0.325000X-1.100000X0.325000X-1.100000X0.325000X1.100000X-0.325000X1.100000X0*%
%ADD33RoundRect,0.249999X-0.395001X-0.395001X0.395001X-0.395001X0.395001X0.395001X-0.395001X0.395001X0*%
%ADD34RoundRect,0.050000X-0.387500X-0.050000X0.387500X-0.050000X0.387500X0.050000X-0.387500X0.050000X0*%
%ADD35RoundRect,0.050000X-0.050000X-0.387500X0.050000X-0.387500X0.050000X0.387500X-0.050000X0.387500X0*%
%ADD36RoundRect,0.218750X0.381250X-0.218750X0.381250X0.218750X-0.381250X0.218750X-0.381250X-0.218750X0*%
G04 APERTURE END LIST*
D10*
%TO.C,C4*%
X60571920Y-44020003D03*
X59021920Y-44020003D03*
%TD*%
D11*
%TO.C,C1*%
X58376330Y-54914634D03*
X58376330Y-56464634D03*
%TD*%
D12*
%TO.C,R16*%
X66025000Y-58700000D03*
X64375000Y-58700000D03*
%TD*%
D10*
%TO.C,C8*%
X85331000Y-50430000D03*
X86881000Y-50430000D03*
%TD*%
D11*
%TO.C,C9*%
X79450000Y-59925000D03*
X79450000Y-61475000D03*
%TD*%
D13*
%TO.C,U4*%
X92519999Y-48799999D03*
X93959999Y-48799999D03*
X95399999Y-48799999D03*
X96839999Y-48799999D03*
X98279999Y-48799999D03*
X99719999Y-48799999D03*
X101159999Y-48799999D03*
X102599999Y-48799999D03*
X104039999Y-48799999D03*
X105479999Y-48799999D03*
X105479999Y-58799999D03*
X104039999Y-58799999D03*
X102599999Y-58799999D03*
X101159999Y-58799999D03*
X99719999Y-58799999D03*
X98279999Y-58799999D03*
X96839999Y-58799999D03*
X95399999Y-58799999D03*
X93959999Y-58799999D03*
X92519999Y-58799999D03*
%TD*%
D14*
%TO.C,R33*%
X92400000Y-61475000D03*
X92400000Y-63125000D03*
%TD*%
%TO.C,R7*%
X70466118Y-45475000D03*
X70466118Y-47125000D03*
%TD*%
D11*
%TO.C,C22*%
X89550000Y-58800000D03*
X89550000Y-60350000D03*
%TD*%
D15*
%TO.C,R18*%
X69175000Y-60500000D03*
X70825000Y-60500000D03*
%TD*%
D16*
%TO.C,U5*%
X67699999Y-63274999D03*
X66899999Y-63274999D03*
D17*
X68049999Y-62324999D03*
X67549999Y-62324999D03*
X67049999Y-62324999D03*
X66549999Y-62324999D03*
X66549999Y-64224999D03*
X67049999Y-64224999D03*
X67549999Y-64224999D03*
X68049999Y-64224999D03*
%TD*%
D18*
%TO.C,C21*%
X87790000Y-64975000D03*
X87790000Y-63425000D03*
%TD*%
%TO.C,C15*%
X78730000Y-48875000D03*
X78730000Y-47325000D03*
%TD*%
D19*
%TO.C,D2*%
X89837500Y-44958000D03*
X87962500Y-44958000D03*
%TD*%
D20*
%TO.C,C12*%
X74943000Y-50800000D03*
X73393000Y-50800000D03*
%TD*%
D21*
%TO.C,R24*%
X101500000Y-61475000D03*
X101500000Y-63125000D03*
%TD*%
D11*
%TO.C,C3*%
X66483966Y-54906596D03*
X66483966Y-56456596D03*
%TD*%
D15*
%TO.C,FB1*%
X60378946Y-54914480D03*
X62028946Y-54914480D03*
%TD*%
%TO.C,R14*%
X61075000Y-60800000D03*
X62725000Y-60800000D03*
%TD*%
D22*
%TO.C,D1*%
X54705426Y-45870522D03*
X54705426Y-43995522D03*
%TD*%
D14*
%TO.C,R11*%
X82800000Y-59875000D03*
X82800000Y-61525000D03*
%TD*%
%TO.C,R26*%
X105600000Y-44375000D03*
X105600000Y-46025000D03*
%TD*%
D21*
%TO.C,R31*%
X92400000Y-46025000D03*
X92400000Y-44375000D03*
%TD*%
%TO.C,R25*%
X99900000Y-61475000D03*
X99900000Y-63125000D03*
%TD*%
D15*
%TO.C,R3*%
X58975137Y-45666105D03*
X60625137Y-45666105D03*
%TD*%
D18*
%TO.C,C7*%
X81880000Y-48885000D03*
X81880000Y-47335000D03*
%TD*%
%TO.C,C14*%
X83500000Y-48875000D03*
X83500000Y-47325000D03*
%TD*%
D23*
%TO.C,SW1*%
X86449999Y-61299999D03*
X86449999Y-57899999D03*
%TD*%
D11*
%TO.C,C19*%
X70500000Y-41825000D03*
X70500000Y-43375000D03*
%TD*%
D14*
%TO.C,R27*%
X96700000Y-61475000D03*
X96700000Y-63125000D03*
%TD*%
D18*
%TO.C,C18*%
X80300000Y-48875000D03*
X80300000Y-47325000D03*
%TD*%
D21*
%TO.C,R20*%
X105600000Y-63225000D03*
X105600000Y-61575000D03*
%TD*%
D24*
%TO.C,J1*%
X55324999Y-49009999D03*
X55324999Y-49809999D03*
X55324999Y-51109999D03*
X55324999Y-52109999D03*
X55324999Y-52609999D03*
X55324999Y-53609999D03*
X55324999Y-54909999D03*
X55324999Y-55709999D03*
X55324999Y-55409999D03*
X55324999Y-54609999D03*
X55324999Y-54109999D03*
X55324999Y-53109999D03*
X55324999Y-51609999D03*
X55324999Y-50609999D03*
X55324999Y-50109999D03*
X55324999Y-49309999D03*
%TD*%
D11*
%TO.C,C16*%
X81026000Y-59925000D03*
X81026000Y-61475000D03*
%TD*%
D25*
%TO.C,SW2*%
X67106824Y-43179999D03*
X63706824Y-43179999D03*
%TD*%
D26*
%TO.C,Y1*%
X74449999Y-64974999D03*
X83949999Y-64974999D03*
%TD*%
D18*
%TO.C,C13*%
X85130000Y-48865000D03*
X85130000Y-47315000D03*
%TD*%
D14*
%TO.C,R28*%
X98300000Y-61475000D03*
X98300000Y-63125000D03*
%TD*%
D27*
%TO.C,U2*%
X73320000Y-45350000D03*
X75470000Y-45350000D03*
X73320000Y-43650000D03*
X75470000Y-43650000D03*
D28*
X72490000Y-47200000D03*
X73760000Y-47200000D03*
X75030000Y-47200000D03*
X76300000Y-47200000D03*
X76300000Y-41800000D03*
X75030000Y-41800000D03*
X73760000Y-41800000D03*
X72490000Y-41800000D03*
%TD*%
D21*
%TO.C,R5*%
X56749354Y-45654174D03*
X56749354Y-44004174D03*
%TD*%
D20*
%TO.C,C11*%
X74625000Y-55300000D03*
X73075000Y-55300000D03*
%TD*%
D15*
%TO.C,R12*%
X88153500Y-46990000D03*
X89803500Y-46990000D03*
%TD*%
D21*
%TO.C,R8*%
X77700000Y-61525000D03*
X77700000Y-59875000D03*
%TD*%
D14*
%TO.C,R23*%
X99900000Y-44375000D03*
X99900000Y-46025000D03*
%TD*%
D10*
%TO.C,C23*%
X51425000Y-65250000D03*
X52975000Y-65250000D03*
%TD*%
D21*
%TO.C,R29*%
X96700000Y-46025000D03*
X96700000Y-44375000D03*
%TD*%
D14*
%TO.C,R32*%
X94000000Y-61475000D03*
X94000000Y-63125000D03*
%TD*%
D18*
%TO.C,C20*%
X70670000Y-64965000D03*
X70670000Y-63415000D03*
%TD*%
D21*
%TO.C,R34*%
X98300000Y-46025000D03*
X98300000Y-44375000D03*
%TD*%
D20*
%TO.C,C24*%
X68065660Y-65950000D03*
X66515660Y-65950000D03*
%TD*%
D21*
%TO.C,R19*%
X104000000Y-63225000D03*
X104000000Y-61575000D03*
%TD*%
D14*
%TO.C,R22*%
X101500000Y-44375000D03*
X101500000Y-46025000D03*
%TD*%
D15*
%TO.C,R17*%
X67575000Y-58700000D03*
X69225000Y-58700000D03*
%TD*%
D29*
%TO.C,U3*%
X63061957Y-50943603D03*
X63061957Y-51893603D03*
X63061957Y-52843603D03*
X66481957Y-52843603D03*
X66481957Y-51893603D03*
X66481957Y-50943603D03*
%TD*%
D14*
%TO.C,R6*%
X68700000Y-45475000D03*
X68700000Y-47125000D03*
%TD*%
D10*
%TO.C,C10*%
X85839000Y-55880000D03*
X87389000Y-55880000D03*
%TD*%
D30*
%TO.C,D4*%
X56649999Y-59849999D03*
X56649999Y-60799999D03*
X56649999Y-61749999D03*
X59149999Y-61749999D03*
D31*
X58924999Y-60799999D03*
D30*
X59149999Y-59849999D03*
%TD*%
D11*
%TO.C,C5*%
X58641384Y-50745488D03*
X58641384Y-52295488D03*
%TD*%
D15*
%TO.C,R4*%
X62167000Y-45666973D03*
X63817000Y-45666973D03*
%TD*%
%TO.C,R15*%
X61075000Y-62600000D03*
X62725000Y-62600000D03*
%TD*%
D32*
%TO.C,C6*%
X61125000Y-48200000D03*
X64075000Y-48200000D03*
%TD*%
D33*
%TO.C,U1*%
X79200000Y-53500000D03*
X79200000Y-55100000D03*
X80800000Y-53500000D03*
X80800000Y-55100000D03*
D34*
X76562500Y-51700000D03*
X76562500Y-52100000D03*
X76562500Y-52500000D03*
X76562500Y-52900000D03*
X76562500Y-53300000D03*
X76562500Y-53700000D03*
X76562500Y-54100000D03*
X76562500Y-54500000D03*
X76562500Y-54900000D03*
X76562500Y-55300000D03*
X76562500Y-55700000D03*
X76562500Y-56100000D03*
X76562500Y-56500000D03*
X76562500Y-56900000D03*
D35*
X77400000Y-57737500D03*
X77800000Y-57737500D03*
X78200000Y-57737500D03*
X78600000Y-57737500D03*
X79000000Y-57737500D03*
X79400000Y-57737500D03*
X79800000Y-57737500D03*
X80200000Y-57737500D03*
X80600000Y-57737500D03*
X81000000Y-57737500D03*
X81400000Y-57737500D03*
X81800000Y-57737500D03*
X82200000Y-57737500D03*
X82600000Y-57737500D03*
D34*
X83437500Y-56900000D03*
X83437500Y-56500000D03*
X83437500Y-56100000D03*
X83437500Y-55700000D03*
X83437500Y-55300000D03*
X83437500Y-54900000D03*
X83437500Y-54500000D03*
X83437500Y-54100000D03*
X83437500Y-53700000D03*
X83437500Y-53300000D03*
X83437500Y-52900000D03*
X83437500Y-52500000D03*
X83437500Y-52100000D03*
X83437500Y-51700000D03*
D35*
X82600000Y-50862500D03*
X82200000Y-50862500D03*
X81800000Y-50862500D03*
X81400000Y-50862500D03*
X81000000Y-50862500D03*
X80600000Y-50862500D03*
X80200000Y-50862500D03*
X79800000Y-50862500D03*
X79400000Y-50862500D03*
X79000000Y-50862500D03*
X78600000Y-50862500D03*
X78200000Y-50862500D03*
X77800000Y-50862500D03*
X77400000Y-50862500D03*
%TD*%
D14*
%TO.C,R21*%
X104000000Y-44375000D03*
X104000000Y-46025000D03*
%TD*%
D36*
%TO.C,L1*%
X60490928Y-52879829D03*
X60490928Y-50754829D03*
%TD*%
D15*
%TO.C,R13*%
X61075000Y-59000000D03*
X62725000Y-59000000D03*
%TD*%
D21*
%TO.C,R30*%
X94000000Y-46025000D03*
X94000000Y-44375000D03*
%TD*%
D11*
%TO.C,C2*%
X64193947Y-54909377D03*
X64193947Y-56459377D03*
%TD*%
D25*
%TO.C,SW3*%
X53899999Y-62349999D03*
X50499999Y-62349999D03*
%TD*%
M02*
